<svg xmlns="http://www.w3.org/2000/svg" xmlns:xlink="http://www.w3.org/1999/xlink" width="113" height="113" viewBox="0 0 113 113">
  <defs>
    <filter id="Trazado_982547" x="0" y="0" width="113" height="113" filterUnits="userSpaceOnUse">
      <feOffset dy="3" input="SourceAlpha"/>
      <feGaussianBlur stdDeviation="3" result="blur"/>
      <feFlood flood-opacity="0.161"/>
      <feComposite operator="in" in2="blur"/>
      <feComposite in="SourceGraphic"/>
    </filter>
    <clipPath id="clip-path">
      <path id="path4560" d="M0-682.665H71.106v71.106H0Z" transform="translate(0 682.665)"/>
    </clipPath>
  </defs>
  <g id="Grupo_1172695" data-name="Grupo 1172695" transform="translate(-901 -3672)">
    <g id="Grupo_1172140" data-name="Grupo 1172140" transform="translate(-0.5 2373.855)">
      <g id="Grupo_1171048" data-name="Grupo 1171048" transform="translate(910.5 1304.145)">
        <g id="Grupo_1148525" data-name="Grupo 1148525" transform="translate(0)">
          <g transform="matrix(1, 0, 0, 1, -9, -6)" filter="url(#Trazado_982547)">
            <g id="Trazado_982547-2" data-name="Trazado 982547" transform="translate(9 6)" fill="#f4fdfe">
              <path d="M 47.5 93.5 C 41.28937149047852 93.5 35.26533508300781 92.28397369384766 29.59518623352051 89.88570404052734 C 24.11771965026855 87.56893157958984 19.19813346862793 84.25196075439453 14.97309303283691 80.02691650390625 C 10.74804019927979 75.80186462402344 7.431066513061523 70.88229370117188 5.114293098449707 65.40481567382812 C 2.716026782989502 59.73468017578125 1.5 53.71062850952148 1.5 47.5 C 1.5 41.28937149047852 2.716026782989502 35.26533508300781 5.114293098449707 29.59518623352051 C 7.431066513061523 24.11771965026855 10.74804019927979 19.19813346862793 14.97309303283691 14.97309303283691 C 19.19813346862793 10.74804019927979 24.11771965026855 7.431066513061523 29.59518623352051 5.114293098449707 C 35.26533508300781 2.716026782989502 41.28937149047852 1.5 47.5 1.5 C 53.71062850952148 1.5 59.73468017578125 2.716026782989502 65.40481567382812 5.114293098449707 C 70.88229370117188 7.431066513061523 75.80186462402344 10.74804019927979 80.02691650390625 14.97309303283691 C 84.25196075439453 19.19813346862793 87.56893157958984 24.11771965026855 89.88570404052734 29.59518623352051 C 92.28397369384766 35.26533508300781 93.5 41.28937149047852 93.5 47.5 C 93.5 53.71062850952148 92.28397369384766 59.73468017578125 89.88570404052734 65.40481567382812 C 87.56893157958984 70.88229370117188 84.25196075439453 75.80186462402344 80.02691650390625 80.02691650390625 C 75.80186462402344 84.25196075439453 70.88229370117188 87.56893157958984 65.40481567382812 89.88570404052734 C 59.73468017578125 92.28397369384766 53.71062850952148 93.5 47.5 93.5 Z" stroke="none"/>
              <path d="M 47.5 3 C 41.49121475219727 3 35.66376876831055 4.176155090332031 30.17950439453125 6.495796203613281 C 24.88084411621094 8.736953735351562 20.12152099609375 11.94598388671875 16.03375244140625 16.03375244140625 C 11.94598388671875 20.12152099609375 8.736953735351562 24.88084411621094 6.495796203613281 30.17950439453125 C 4.176155090332031 35.66376876831055 3 41.49121475219727 3 47.5 C 3 53.50878524780273 4.176155090332031 59.33623123168945 6.495796203613281 64.82049560546875 C 8.736953735351562 70.11915588378906 11.94598388671875 74.87847900390625 16.03375244140625 78.96624755859375 C 20.12152099609375 83.05401611328125 24.88084411621094 86.26304626464844 30.17950439453125 88.50419616699219 C 35.66376876831055 90.82384490966797 41.49121475219727 92 47.5 92 C 53.50878524780273 92 59.33623123168945 90.82384490966797 64.82049560546875 88.50419616699219 C 70.11915588378906 86.26304626464844 74.87847900390625 83.05401611328125 78.96624755859375 78.96624755859375 C 83.05401611328125 74.87847900390625 86.26304626464844 70.11915588378906 88.50419616699219 64.82049560546875 C 90.82384490966797 59.33623123168945 92 53.50878524780273 92 47.5 C 92 41.49121475219727 90.82384490966797 35.66376876831055 88.50419616699219 30.17950439453125 C 86.26304626464844 24.88084411621094 83.05401611328125 20.12152099609375 78.96624755859375 16.03375244140625 C 74.87847900390625 11.94598388671875 70.11915588378906 8.736953735351562 64.82049560546875 6.495796203613281 C 59.33623123168945 4.176155090332031 53.50878524780273 3 47.5 3 M 47.5 0 C 73.7335205078125 0 95 21.2664794921875 95 47.5 C 95 73.7335205078125 73.7335205078125 95 47.5 95 C 21.2664794921875 95 0 73.7335205078125 0 47.5 C 0 21.2664794921875 21.2664794921875 0 47.5 0 Z" stroke="none" fill="#56838a"/>
            </g>
          </g>
        </g>
      </g>
    </g>
    <g id="g4554" transform="translate(922 4372.665)">
      <g id="g4556" transform="translate(0 -682.665)">
        <g id="g4558" clip-path="url(#clip-path)">
          <g id="g4564" transform="translate(30.785 62.698)">
            <path id="path4566" d="M-41.009-63.354h0a4.768,4.768,0,0,1-4.768-4.768v-1.209l5.046-1.389,3.1,1.389v1.209c0,2.633-1.93,4.768-3.379,4.768" transform="translate(45.777 70.72)" fill="#a8e1f6"/>
          </g>
          <g id="g4568" transform="translate(9.094 1.042)">
            <path id="path4570" d="M-431.243-227.567c0-14.613-13.823-26.459-23.681-26.459a26.4,26.4,0,0,0-26.459,26.288,26.47,26.47,0,0,0,17.995,25.248,2.71,2.71,0,0,1,1.832,2.573v2.485h10.487v-2.485A2.737,2.737,0,0,1-449.2-202.5a26.47,26.47,0,0,0,17.955-25.063" transform="translate(481.384 254.026)" fill="#fff4e5"/>
          </g>
          <g id="g4572" transform="translate(32.77 1.042)">
            <path id="path4574" d="M-23.934,0a26.959,26.959,0,0,0-2.783.144A26.462,26.462,0,0,1-3.03,26.459,26.47,26.47,0,0,1-20.985,51.522a2.737,2.737,0,0,0-1.872,2.586v2.485H-17.3V54.108a2.737,2.737,0,0,1,1.872-2.586A26.47,26.47,0,0,0,2.525,26.459,26.459,26.459,0,0,0-23.934,0" transform="translate(26.717)" fill="#ffe0b7"/>
          </g>
          <g id="g4576" transform="translate(25.694 57.635)">
            <path id="path4578" d="M-129.889-55.494h-11.876a3.226,3.226,0,0,1-3.226-3.226h0a3.226,3.226,0,0,1,3.226-3.226h11.876a3.226,3.226,0,0,1,3.226,3.226h0a3.226,3.226,0,0,1-3.226,3.226" transform="translate(144.992 61.947)" fill="#8991a6"/>
          </g>
          <g id="g4580" transform="translate(37.602 57.635)">
            <path id="path4582" d="M-39.417,0H-44a3.226,3.226,0,0,1,3.226,3.226A3.226,3.226,0,0,1-44,6.452h4.583a3.226,3.226,0,0,0,3.226-3.226A3.226,3.226,0,0,0-39.417,0" transform="translate(44)" fill="#5d6a85"/>
          </g>
          <g id="g4584" transform="translate(33.684 64.087)">
            <path id="path4586" d="M-24.934,0V1.209a4.77,4.77,0,0,1-2.9,4.388,4.752,4.752,0,0,0,1.869.381A4.768,4.768,0,0,0-21.2,1.209V0Z" transform="translate(27.833)" fill="#78c4ea"/>
          </g>
          <g id="g4588" transform="translate(14.741 7.191)">
            <path id="path4590" d="M-343.23-143.339l-3.643-3.643a5.418,5.418,0,0,0,0-7.663,5.418,5.418,0,0,0-7.662,0l-3.643-3.643a5.864,5.864,0,0,0-8.293,0l-14.948,14.949a5.864,5.864,0,0,0,0,8.293l3.772,3.772a5.423,5.423,0,0,1,.86-1.118,5.418,5.418,0,0,1,7.663,0,5.418,5.418,0,0,1,0,7.663,5.432,5.432,0,0,1-1.118.86l3.772,3.772a5.864,5.864,0,0,0,8.293,0l14.948-14.948a5.864,5.864,0,0,0,0-8.293" transform="translate(383.137 160.005)" fill="#ffa1ac"/>
          </g>
          <g id="g4592" transform="translate(24.332 16.625)">
            <path id="path4594" d="M-55.651-55.651c-1.249,1.249-3.533.99-5.1-.578s-1.828-3.853-.578-5.1,3.533-.99,5.1.578,1.827,3.853.578,5.1" transform="translate(62.121 62.122)" fill="#fff"/>
          </g>
          <g id="g4596" transform="translate(39.725 32.019)">
            <path id="path4598" d="M-6.8-6.8c-1.249,1.249-.99,3.533.578,5.1s3.853,1.828,5.1.578.99-3.533-.578-5.1S-5.551-8.049-6.8-6.8" transform="translate(7.591 7.591)" fill="#fff"/>
          </g>
          <g id="g4600" transform="translate(29.685 16.498)">
            <path id="path4602" d="M-2.625-7.428a1.041,1.041,0,0,0,0,1.473,1.041,1.041,0,0,0,1.473,0,.871.871,0,0,1,1.23,0,.871.871,0,0,1,0,1.23,1.041,1.041,0,0,0,0,1.473,1.041,1.041,0,0,0,1.473,0,2.956,2.956,0,0,0,0-4.176,2.956,2.956,0,0,0-4.176,0" transform="translate(2.93 8.292)"/>
          </g>
          <g id="g4604" transform="translate(41.768 28.581)">
            <path id="path4606" d="M-2.625-7.428a1.041,1.041,0,0,0,0,1.473,1.041,1.041,0,0,0,1.473,0,.871.871,0,0,1,1.23,0,.871.871,0,0,1,0,1.23,1.041,1.041,0,0,0,0,1.473,1.041,1.041,0,0,0,1.473,0,2.956,2.956,0,0,0,0-4.176,2.956,2.956,0,0,0-4.176,0" transform="translate(2.93 8.292)"/>
          </g>
          <g id="g4608" transform="translate(34.058 24.596)">
            <path id="path4610" d="M-33.066-24.686a1.65,1.65,0,0,1-1.279-.478,1.649,1.649,0,0,1-.478-1.279,1.041,1.041,0,0,0-.968-1.11,1.041,1.041,0,0,0-1.11.968,3.731,3.731,0,0,0,1.083,2.895,3.731,3.731,0,0,0,2.895,1.083,1.042,1.042,0,0,0,.968-1.11,1.041,1.041,0,0,0-1.11-.968" transform="translate(36.911 27.556)"/>
          </g>
          <g id="g4612" transform="translate(8.052 0)">
            <path id="path4614" d="M-268.576-561.591a3.731,3.731,0,0,1-3.727,3.727,3.731,3.731,0,0,1-3.727-3.727v-.168h7.453Zm5.113-11.747A27.491,27.491,0,0,0-244.8-599.387a27.532,27.532,0,0,0-27.5-27.5A27.352,27.352,0,0,0-293.939-616.4a1.041,1.041,0,0,0,.175,1.463,1.041,1.041,0,0,0,1.463-.175,25.281,25.281,0,0,1,20-9.692,25.446,25.446,0,0,1,25.417,25.418,25.408,25.408,0,0,1-17.248,24.076,3.78,3.78,0,0,0-2.579,3.573v1.444h-3.2a1.041,1.041,0,0,0-1.042,1.042,1.041,1.041,0,0,0,1.042,1.042h4.237a2.187,2.187,0,0,1,2.185,2.185,2.187,2.187,0,0,1-2.185,2.185h-13.265a2.187,2.187,0,0,1-2.184-2.185,2.187,2.187,0,0,1,2.184-2.185h4.237a1.041,1.041,0,0,0,1.042-1.042,1.041,1.041,0,0,0-1.042-1.042h-3.2v-1.444a3.746,3.746,0,0,0-2.54-3.559,25.378,25.378,0,0,1-17.286-24.254A25.235,25.235,0,0,1-294.938-611a1.042,1.042,0,0,0-.452-1.4,1.041,1.041,0,0,0-1.4.452,27.3,27.3,0,0,0-3.01,12.381,27.458,27.458,0,0,0,18.7,26.241,1.665,1.665,0,0,1,1.123,1.586v1.572a4.275,4.275,0,0,0-3.226,4.139,4.272,4.272,0,0,0,4.268,4.268h.823v.168a5.816,5.816,0,0,0,5.81,5.81,5.816,5.816,0,0,0,5.81-5.81v-.168h.823a4.273,4.273,0,0,0,4.268-4.268,4.275,4.275,0,0,0-3.226-4.139v-1.572a1.7,1.7,0,0,1,1.165-1.6" transform="translate(299.803 626.888)"/>
          </g>
          <g id="g4616" transform="translate(13.699 6.153)">
            <path id="path4618" d="M-327.19-48.7a6.471,6.471,0,0,0-8.34-.677l-2.966-2.966a6.914,6.914,0,0,0-9.766,0L-363.21-37.392a6.86,6.86,0,0,0-2.023,4.883,6.861,6.861,0,0,0,2.023,4.883l3.772,3.772a1.041,1.041,0,0,0,.872.3,1.042,1.042,0,0,0,.766-.511,4.385,4.385,0,0,1,.7-.9,4.381,4.381,0,0,1,6.189,0,4.382,4.382,0,0,1,0,6.189,4.4,4.4,0,0,1-.9.7,1.042,1.042,0,0,0-.511.766,1.042,1.042,0,0,0,.3.872l3.772,3.772a6.884,6.884,0,0,0,4.883,2.019,6.884,6.884,0,0,0,4.883-2.019l9.9-9.9a1.042,1.042,0,0,0,0-1.473,1.042,1.042,0,0,0-1.473,0l-9.9,9.9a4.828,4.828,0,0,1-6.82,0l-2.913-2.913q.133-.119.259-.246a6.467,6.467,0,0,0,0-9.136,6.467,6.467,0,0,0-9.136,0q-.126.126-.245.259l-2.914-2.914a4.791,4.791,0,0,1-1.412-3.41,4.79,4.79,0,0,1,1.413-3.41l14.949-14.949a4.828,4.828,0,0,1,6.82,0l3.643,3.643a1.042,1.042,0,0,0,1.473,0,4.381,4.381,0,0,1,6.189,0,4.382,4.382,0,0,1,0,6.19,1.042,1.042,0,0,0,0,1.473l3.643,3.643a4.79,4.79,0,0,1,1.412,3.41,4.791,4.791,0,0,1-1.412,3.41l-1.751,1.751a1.041,1.041,0,0,0,0,1.473,1.041,1.041,0,0,0,1.473,0l1.751-1.751a6.861,6.861,0,0,0,2.023-4.883,6.861,6.861,0,0,0-2.023-4.883l-2.966-2.966a6.471,6.471,0,0,0-.677-8.34" transform="translate(365.232 54.36)"/>
          </g>
        </g>
      </g>
    </g>
  </g>
</svg>
