<svg xmlns="http://www.w3.org/2000/svg" xmlns:xlink="http://www.w3.org/1999/xlink" width="113" height="113" viewBox="0 0 113 113">
  <defs>
    <filter id="Trazado_982547" x="0" y="0" width="113" height="113" filterUnits="userSpaceOnUse">
      <feOffset dy="3" input="SourceAlpha"/>
      <feGaussianBlur stdDeviation="3" result="blur"/>
      <feFlood flood-opacity="0.161"/>
      <feComposite operator="in" in2="blur"/>
      <feComposite in="SourceGraphic"/>
    </filter>
  </defs>
  <g id="Grupo_1172708" data-name="Grupo 1172708" transform="translate(-1217 -3672)">
    <g id="Grupo_1172141" data-name="Grupo 1172141" transform="translate(0.5 2373.855)">
      <g id="Grupo_1171049" data-name="Grupo 1171049" transform="translate(1225.5 1304.145)">
        <g id="Grupo_1148525" data-name="Grupo 1148525" transform="translate(0)">
          <g transform="matrix(1, 0, 0, 1, -9, -6)" filter="url(#Trazado_982547)">
            <g id="Trazado_982547-2" data-name="Trazado 982547" transform="translate(9 6)" fill="#f4fdfe">
              <path d="M 47.5 93.5 C 41.28937149047852 93.5 35.26533508300781 92.28397369384766 29.59518623352051 89.88570404052734 C 24.11771965026855 87.56893157958984 19.19813346862793 84.25196075439453 14.97309303283691 80.02691650390625 C 10.74804019927979 75.80186462402344 7.431066513061523 70.88229370117188 5.114293098449707 65.40481567382812 C 2.716026782989502 59.73468017578125 1.5 53.71062850952148 1.5 47.5 C 1.5 41.28937149047852 2.716026782989502 35.26533508300781 5.114293098449707 29.59518623352051 C 7.431066513061523 24.11771965026855 10.74804019927979 19.19813346862793 14.97309303283691 14.97309303283691 C 19.19813346862793 10.74804019927979 24.11771965026855 7.431066513061523 29.59518623352051 5.114293098449707 C 35.26533508300781 2.716026782989502 41.28937149047852 1.5 47.5 1.5 C 53.71062850952148 1.5 59.73468017578125 2.716026782989502 65.40481567382812 5.114293098449707 C 70.88229370117188 7.431066513061523 75.80186462402344 10.74804019927979 80.02691650390625 14.97309303283691 C 84.25196075439453 19.19813346862793 87.56893157958984 24.11771965026855 89.88570404052734 29.59518623352051 C 92.28397369384766 35.26533508300781 93.5 41.28937149047852 93.5 47.5 C 93.5 53.71062850952148 92.28397369384766 59.73468017578125 89.88570404052734 65.40481567382812 C 87.56893157958984 70.88229370117188 84.25196075439453 75.80186462402344 80.02691650390625 80.02691650390625 C 75.80186462402344 84.25196075439453 70.88229370117188 87.56893157958984 65.40481567382812 89.88570404052734 C 59.73468017578125 92.28397369384766 53.71062850952148 93.5 47.5 93.5 Z" stroke="none"/>
              <path d="M 47.5 3 C 41.49121475219727 3 35.66376876831055 4.176155090332031 30.17950439453125 6.495796203613281 C 24.88084411621094 8.736953735351562 20.12152099609375 11.94598388671875 16.03375244140625 16.03375244140625 C 11.94598388671875 20.12152099609375 8.736953735351562 24.88084411621094 6.495796203613281 30.17950439453125 C 4.176155090332031 35.66376876831055 3 41.49121475219727 3 47.5 C 3 53.50878524780273 4.176155090332031 59.33623123168945 6.495796203613281 64.82049560546875 C 8.736953735351562 70.11915588378906 11.94598388671875 74.87847900390625 16.03375244140625 78.96624755859375 C 20.12152099609375 83.05401611328125 24.88084411621094 86.26304626464844 30.17950439453125 88.50419616699219 C 35.66376876831055 90.82384490966797 41.49121475219727 92 47.5 92 C 53.50878524780273 92 59.33623123168945 90.82384490966797 64.82049560546875 88.50419616699219 C 70.11915588378906 86.26304626464844 74.87847900390625 83.05401611328125 78.96624755859375 78.96624755859375 C 83.05401611328125 74.87847900390625 86.26304626464844 70.11915588378906 88.50419616699219 64.82049560546875 C 90.82384490966797 59.33623123168945 92 53.50878524780273 92 47.5 C 92 41.49121475219727 90.82384490966797 35.66376876831055 88.50419616699219 30.17950439453125 C 86.26304626464844 24.88084411621094 83.05401611328125 20.12152099609375 78.96624755859375 16.03375244140625 C 74.87847900390625 11.94598388671875 70.11915588378906 8.736953735351562 64.82049560546875 6.495796203613281 C 59.33623123168945 4.176155090332031 53.50878524780273 3 47.5 3 M 47.5 0 C 73.7335205078125 0 95 21.2664794921875 95 47.5 C 95 73.7335205078125 73.7335205078125 95 47.5 95 C 21.2664794921875 95 0 73.7335205078125 0 47.5 C 0 21.2664794921875 21.2664794921875 0 47.5 0 Z" stroke="none" fill="#56838a"/>
            </g>
          </g>
        </g>
      </g>
    </g>
    <g id="kids_6416948" transform="translate(1234.5 3682.569)">
      <g id="Grupo_1172704" data-name="Grupo 1172704" transform="translate(7.5 12.431)">
        <path id="Trazado_1026905" data-name="Trazado 1026905" d="M75.855,135.529a23.491,23.491,0,0,0,17.881,38.726q.642,0,1.277-.035L100.237,169v-10.8l-8.833-3.94V138.563Z" transform="translate(-62.31 -119.962)" fill="#71daf9"/>
        <path id="Trazado_1026906" data-name="Trazado 1026906" d="M261.063,161.861a23.509,23.509,0,0,0-3.175-25.309l-20.321,2.9v15.691l8.833,3.94Z" transform="translate(-208.472 -120.856)" fill="#71daf9"/>
        <path id="Trazado_1026907" data-name="Trazado 1026907" d="M99,167.384A22.2,22.2,0,0,1,78.761,136.1l-2.905-.567a23.491,23.491,0,0,0,17.881,38.726q.642,0,1.277-.035L100.237,169v-1.648C99.828,167.372,99.417,167.384,99,167.384Z" transform="translate(-62.31 -119.963)" fill="#30c3ef"/>
        <path id="Trazado_1026908" data-name="Trazado 1026908" d="M153.654,103.937a23.5,23.5,0,0,1-19.887,13.253l-.61-1.481a2.206,2.206,0,0,1,.759-2.635,2.2,2.2,0,0,0,.926-1.8,2.935,2.935,0,0,0-.6-2.257l-1.15-1.227a2.2,2.2,0,0,1-.213-2.749l.309-.452a2.2,2.2,0,0,0-1.133-3.336l-3.34-1.1a1.313,1.313,0,0,1-.727-.589l-2.291-3.94a1.314,1.314,0,0,0-2.255-.03l-.548.889a1.315,1.315,0,0,1-2.392-1.022l1.186-4.54a1.314,1.314,0,0,1,.67-.838l2.417-1.244a1.314,1.314,0,0,0,.682-1.454,2.546,2.546,0,0,0-2.056-1.957,8.276,8.276,0,0,1-3.013-.8L116.885,82.5A4.056,4.056,0,0,1,115.1,80.17l-.487-1.672h0a23.491,23.491,0,0,1,35.87.131l-.955,1.7a2.293,2.293,0,0,1-1.815,1.162,2.291,2.291,0,0,0-1.836,1.2L145,84.316a2.292,2.292,0,0,1-2.184,1.2c-.546-.036-.649-.054-.909-.054a4.254,4.254,0,0,0-3.134,1.378c-1.6,1.743-.829,3.592-2.143,5.338l-1.993,2.659a1.386,1.386,0,0,0,.3,1.953l1.727,1.252a1.389,1.389,0,0,0,1.163.219,15.752,15.752,0,0,1,3.089-.714,2.677,2.677,0,0,1,1.909.8c1.448,1.471,3.027.313,4.527,1.113a14.6,14.6,0,0,1,1.757.975Z" transform="translate(-101.064 -62.931)" fill="#8ed275"/>
        <path id="Trazado_1026909" data-name="Trazado 1026909" d="M178.167,42.667h-9.385l3.8,5.154h5.59a2.577,2.577,0,0,0,2.577-2.577h0A2.577,2.577,0,0,0,178.167,42.667Z" transform="translate(-148.386 -38.843)" fill="#f37a86"/>
        <path id="Trazado_1026910" data-name="Trazado 1026910" d="M32.15,55.764A12.325,12.325,0,1,1,7.959,52.417l11.866-4.489,11.866,4.489A12.376,12.376,0,0,1,32.15,55.764Z" transform="translate(-7.5 -43.439)" fill="#d89b80"/>
        <path id="Trazado_1026911" data-name="Trazado 1026911" d="M11.955,73.375a14.783,14.783,0,0,1,1.619-6.748L7.959,68.751a12.344,12.344,0,0,0,8.4,15.178A14.8,14.8,0,0,1,11.955,73.375Z" transform="translate(-7.5 -59.773)" fill="#c5836a"/>
        <g id="Grupo_1172699" data-name="Grupo 1172699" transform="translate(2.46 13.409)">
          <g id="Grupo_1172698" data-name="Grupo 1172698">
            <g id="Grupo_1172696" data-name="Grupo 1172696">
              <ellipse id="Elipse_12355" data-name="Elipse 12355" cx="2.659" cy="2.118" rx="2.659" ry="2.118" fill="#e2e1f3"/>
            </g>
            <g id="Grupo_1172697" data-name="Grupo 1172697" transform="translate(14.413)">
              <ellipse id="Elipse_12356" data-name="Elipse 12356" cx="2.659" cy="2.118" rx="2.659" ry="2.118" fill="#e2e1f3"/>
            </g>
          </g>
        </g>
        <path id="Trazado_1026912" data-name="Trazado 1026912" d="M264.724,342.22a22.367,22.367,0,0,1-2.949-.2,9.611,9.611,0,0,1,.035,1.121,2.2,2.2,0,0,1-.926,1.8,2.206,2.206,0,0,0-.759,2.635l.61,1.482A23.494,23.494,0,0,0,280.622,335.8l-.166-.127A22.117,22.117,0,0,1,264.724,342.22Z" transform="translate(-228.032 -294.799)" fill="#80cc62"/>
        <path id="Trazado_1026913" data-name="Trazado 1026913" d="M311.7,314.4a12.328,12.328,0,0,1,24.114,0l-3.116,3.73H317.469Z" transform="translate(-273.229 -267.692)" fill="#fbcc83"/>
        <path id="Trazado_1026914" data-name="Trazado 1026914" d="M323.44,304.7a12.328,12.328,0,0,0-11.742,9.75l4.221,2.728A14.45,14.45,0,0,1,323.44,304.7Z" transform="translate(-273.229 -267.739)" fill="#f5b067"/>
        <path id="Trazado_1026915" data-name="Trazado 1026915" d="M334.228,366.658a12.325,12.325,0,1,1-24.382-2.568,20.279,20.279,0,0,0,10.819-2.263,2.7,2.7,0,0,1,2.477,0,20.278,20.278,0,0,0,10.819,2.263A12.373,12.373,0,0,1,334.228,366.658Z" transform="translate(-271.377 -317.379)" fill="#fddacc"/>
        <path id="Trazado_1026916" data-name="Trazado 1026916" d="M314.063,383.488a14.5,14.5,0,0,1,.338-3.117,18.1,18.1,0,0,1-4.556.181,12.337,12.337,0,0,0,10.385,14.78A14.437,14.437,0,0,1,314.063,383.488Z" transform="translate(-271.376 -333.841)" fill="#fdc8bb"/>
        <g id="Grupo_1172703" data-name="Grupo 1172703" transform="translate(40.661 50.362)">
          <g id="Grupo_1172702" data-name="Grupo 1172702" transform="translate(0)">
            <g id="Grupo_1172700" data-name="Grupo 1172700">
              <ellipse id="Elipse_12357" data-name="Elipse 12357" cx="2.659" cy="2.118" rx="2.659" ry="2.118" fill="#f98797"/>
            </g>
            <g id="Grupo_1172701" data-name="Grupo 1172701" transform="translate(14.413)">
              <ellipse id="Elipse_12358" data-name="Elipse 12358" cx="2.659" cy="2.118" rx="2.659" ry="2.118" fill="#f98797"/>
            </g>
          </g>
        </g>
        <path id="Trazado_1026917" data-name="Trazado 1026917" d="M339.483,279.362s-7.388,5.934-7.388-2.63,7.388-2.63,7.388-2.63Z" transform="translate(-291.046 -239.262)" fill="#dd5c70"/>
        <path id="Trazado_1026918" data-name="Trazado 1026918" d="M423.563,279.362s7.388,5.934,7.388-2.63-7.388-2.63-7.388-2.63Z" transform="translate(-370.947 -239.262)" fill="#dd5c70"/>
        <path id="Trazado_1026919" data-name="Trazado 1026919" d="M382.83,284.48H381.8a3.066,3.066,0,0,0-3.066,3.066h0a3.066,3.066,0,0,0,3.066,3.066h1.026a3.066,3.066,0,0,0,3.066-3.066h0A3.066,3.066,0,0,0,382.83,284.48Z" transform="translate(-331.791 -250.076)" fill="#f37a86"/>
        <path id="Trazado_1026920" data-name="Trazado 1026920" d="M34.863,21.409H11.131a12.33,12.33,0,0,1,23.732,0Z" transform="translate(-10.672 -12.431)" fill="#5f66ab"/>
        <path id="Trazado_1026921" data-name="Trazado 1026921" d="M23.934,12.469c-.309-.023-.622-.037-.937-.037A12.333,12.333,0,0,0,11.131,21.41h4.732A14.888,14.888,0,0,1,23.934,12.469Z" transform="translate(-10.672 -12.432)" fill="#4c5792"/>
      </g>
      <g id="Grupo_1172707" data-name="Grupo 1172707" transform="translate(7.5 12.431)">
        <g id="Grupo_1172705" data-name="Grupo 1172705" transform="translate(6.668 12.401)">
          <line id="Línea_760" data-name="Línea 760" y2="1.087" fill="none" stroke="#000" stroke-linecap="round" stroke-linejoin="round" stroke-miterlimit="10" stroke-width="1.5"/>
          <line id="Línea_761" data-name="Línea 761" y2="1.087" transform="translate(11.314)" fill="none" stroke="#000" stroke-linecap="round" stroke-linejoin="round" stroke-miterlimit="10" stroke-width="1.5"/>
          <path id="Trazado_1026922" data-name="Trazado 1026922" d="M93.168,118.83a1.976,1.976,0,0,0,2.983,0" transform="translate(-89.003 -117.775)" fill="none" stroke="#000" stroke-linecap="round" stroke-linejoin="round" stroke-miterlimit="10" stroke-width="1.5"/>
        </g>
        <g id="Grupo_1172706" data-name="Grupo 1172706" transform="translate(44.869 49.354)">
          <line id="Línea_762" data-name="Línea 762" y2="1.087" fill="none" stroke="#000" stroke-linecap="round" stroke-linejoin="round" stroke-miterlimit="10" stroke-width="1.5"/>
          <line id="Línea_763" data-name="Línea 763" y2="1.087" transform="translate(11.314)" fill="none" stroke="#000" stroke-linecap="round" stroke-linejoin="round" stroke-miterlimit="10" stroke-width="1.5"/>
          <path id="Trazado_1026923" data-name="Trazado 1026923" d="M395.246,411.044a1.976,1.976,0,0,0,2.983,0" transform="translate(-391.081 -409.989)" fill="none" stroke="#000" stroke-linecap="round" stroke-linejoin="round" stroke-miterlimit="10" stroke-width="1.5"/>
        </g>
        <path id="Trazado_1026924" data-name="Trazado 1026924" d="M34.863,21.409H11.131a12.33,12.33,0,0,1,23.732,0Z" transform="translate(-10.672 -12.431)" fill="none" stroke="#000" stroke-linecap="round" stroke-linejoin="round" stroke-miterlimit="10" stroke-width="1.5"/>
        <path id="Trazado_1026925" data-name="Trazado 1026925" d="M78.508,213.141a23.4,23.4,0,0,0,15.229,5.606q.642,0,1.277-.035l-.61-1.482a2.206,2.206,0,0,1,.759-2.635,2.2,2.2,0,0,0,.926-1.8,2.935,2.935,0,0,0-.6-2.257l-1.15-1.227a2.2,2.2,0,0,1-.213-2.749l.309-.452A2.2,2.2,0,0,0,93.3,202.78l-3.34-1.1a1.313,1.313,0,0,1-.727-.589l-2.291-3.94a1.314,1.314,0,0,0-2.255-.03l-.548.889a1.315,1.315,0,0,1-2.392-1.022l1.186-4.54a1.314,1.314,0,0,1,.67-.838l2.417-1.244a1.314,1.314,0,0,0,.682-1.454,2.546,2.546,0,0,0-2.056-1.957,15.538,15.538,0,0,1-2.39-.5A12.345,12.345,0,0,1,71.2,188.618a23.522,23.522,0,0,0,4.63,21.839" transform="translate(-62.31 -164.454)" fill="none" stroke="#000" stroke-linecap="round" stroke-linejoin="round" stroke-miterlimit="10" stroke-width="1.5"/>
        <path id="Trazado_1026926" data-name="Trazado 1026926" d="M184.049,42.667h-8.534a12.313,12.313,0,0,1,2.944,5.154h5.59a2.577,2.577,0,0,0,2.577-2.577h0A2.577,2.577,0,0,0,184.049,42.667Z" transform="translate(-154.268 -38.843)" fill="none" stroke="#000" stroke-linecap="round" stroke-linejoin="round" stroke-miterlimit="10" stroke-width="1.5"/>
        <path id="Trazado_1026927" data-name="Trazado 1026927" d="M31.691,83.424H7.959a12.325,12.325,0,1,0,23.732,0Z" transform="translate(-7.5 -74.446)" fill="none" stroke="#000" stroke-linecap="round" stroke-linejoin="round" stroke-miterlimit="10" stroke-width="1.5"/>
        <path id="Trazado_1026928" data-name="Trazado 1026928" d="M278.817,155.917c1.331-4.867,7.116-.221,7.116-.221a3.051,3.051,0,0,1,1.577-.436h1.026a3.051,3.051,0,0,1,1.577.436,12.543,12.543,0,0,1,2.147-1.336,23.748,23.748,0,0,0,.154-2.7,23.4,23.4,0,0,0-5.5-15.106l-.955,1.7a2.293,2.293,0,0,1-1.815,1.162,2.291,2.291,0,0,0-1.836,1.2l-.874,1.629a2.293,2.293,0,0,1-2.184,1.2c-.546-.036-.649-.054-.909-.054a4.254,4.254,0,0,0-3.134,1.378c-1.6,1.743-.829,3.592-2.143,5.338l-1.993,2.659a1.387,1.387,0,0,0,.3,1.953l1.727,1.252a1.389,1.389,0,0,0,1.163.219,15.75,15.75,0,0,1,3.089-.714A2.678,2.678,0,0,1,278.817,155.917Z" transform="translate(-237.496 -120.855)" fill="none" stroke="#000" stroke-linecap="round" stroke-linejoin="round" stroke-miterlimit="10" stroke-width="1.5"/>
        <path id="Trazado_1026929" data-name="Trazado 1026929" d="M182.809,72.505a23.377,23.377,0,0,0-9.121-2.16,2.576,2.576,0,0,1-2.4,1.654h-5.59a12.349,12.349,0,0,1-4.24,13.03,15.537,15.537,0,0,0,2.39.5,2.546,2.546,0,0,1,2.056,1.957,1.314,1.314,0,0,1-.682,1.454L162.8,90.181a1.314,1.314,0,0,0-.671.838l-1.186,4.54a1.315,1.315,0,0,0,2.392,1.022l.548-.889a1.314,1.314,0,0,1,2.255.03l2.291,3.94a1.313,1.313,0,0,0,.727.589l3.34,1.1a2.2,2.2,0,0,1,1.133,3.336l-.309.452a2.2,2.2,0,0,0,.213,2.749l1.15,1.227a2.934,2.934,0,0,1,.6,2.257,2.2,2.2,0,0,1-.926,1.8,2.206,2.206,0,0,0-.759,2.635l.61,1.481a23.406,23.406,0,0,0,6.105-1.152,12.316,12.316,0,0,1,2.837-12.372,7.2,7.2,0,0,1-.6-3.265,9.2,9.2,0,0,1,.272-2.408,2.678,2.678,0,0,0-1.473-.442,15.752,15.752,0,0,0-3.089.714,1.389,1.389,0,0,1-1.163-.219l-1.727-1.252a1.387,1.387,0,0,1-.3-1.953l1.993-2.659c1.314-1.746.547-3.6,2.143-5.338a4.254,4.254,0,0,1,3.134-1.378c.26,0,.363.018.909.054a2.293,2.293,0,0,0,2.184-1.2l.874-1.629a2.291,2.291,0,0,1,1.836-1.2,2.293,2.293,0,0,0,1.815-1.162l.955-1.7a23.605,23.605,0,0,0-4.7-4.267" transform="translate(-141.503 -63.021)" fill="none" stroke="#000" stroke-linecap="round" stroke-linejoin="round" stroke-miterlimit="10" stroke-width="1.5"/>
        <path id="Trazado_1026930" data-name="Trazado 1026930" d="M423.563,274.1a3.064,3.064,0,0,1,1.489,2.63h0a3.064,3.064,0,0,1-1.489,2.63s7.388,5.933,7.388-2.63S423.564,274.1,423.563,274.1Z" transform="translate(-370.947 -239.262)" fill="none" stroke="#000" stroke-linecap="round" stroke-linejoin="round" stroke-miterlimit="10" stroke-width="1.5"/>
        <path id="Trazado_1026931" data-name="Trazado 1026931" d="M337.994,276.732h0a3.064,3.064,0,0,1,1.489-2.63h0s-7.388-5.934-7.388,2.63,7.388,2.63,7.388,2.63h0A3.064,3.064,0,0,1,337.994,276.732Z" transform="translate(-291.046 -239.262)" fill="none" stroke="#000" stroke-linecap="round" stroke-linejoin="round" stroke-miterlimit="10" stroke-width="1.5"/>
        <path id="Trazado_1026932" data-name="Trazado 1026932" d="M382.83,284.48H381.8a3.066,3.066,0,0,0-3.066,3.066h0a3.066,3.066,0,0,0,3.066,3.066h1.026a3.066,3.066,0,0,0,3.066-3.066h0A3.066,3.066,0,0,0,382.83,284.48Z" transform="translate(-331.791 -250.076)" fill="none" stroke="#000" stroke-linecap="round" stroke-linejoin="round" stroke-miterlimit="10" stroke-width="1.5"/>
        <path id="Trazado_1026933" data-name="Trazado 1026933" d="M322.517,333.869a2.7,2.7,0,0,1,2.477,0,20.28,20.28,0,0,0,10.818,2.263,12.284,12.284,0,0,0-3.176-5.976c-1.756,3.408-6.791-.635-6.792-.635a3.053,3.053,0,0,1-1.577.436h-1.026a3.051,3.051,0,0,1-1.577-.436s-5.035,4.043-6.792.635a12.287,12.287,0,0,0-3.176,5.976A20.28,20.28,0,0,0,322.517,333.869Z" transform="translate(-273.229 -289.421)" fill="none" stroke="#000" stroke-linecap="round" stroke-linejoin="round" stroke-miterlimit="10" stroke-width="1.5"/>
        <path id="Trazado_1026934" data-name="Trazado 1026934" d="M334.228,366.658a12.325,12.325,0,1,1-24.382-2.568,20.279,20.279,0,0,0,10.819-2.263,2.7,2.7,0,0,1,2.477,0,20.278,20.278,0,0,0,10.818,2.263A12.364,12.364,0,0,1,334.228,366.658Z" transform="translate(-271.377 -317.379)" fill="none" stroke="#000" stroke-linecap="round" stroke-linejoin="round" stroke-miterlimit="10" stroke-width="1.5"/>
      </g>
    </g>
  </g>
</svg>
