<svg xmlns="http://www.w3.org/2000/svg" xmlns:xlink="http://www.w3.org/1999/xlink" width="400" height="298" viewBox="0 0 400 298">
  <defs>
    <clipPath id="clip-path">
      <rect id="Rectángulo_414582" data-name="Rectángulo 414582" width="400" height="298" transform="translate(1020 2100)" fill="#fff" stroke="#707070" stroke-width="1" opacity="0.61"/>
    </clipPath>
    <clipPath id="clip-path-2">
      <path id="Trazado_1026822" data-name="Trazado 1026822" d="M191.359,40.889c-8.44-3.343-17.328.783-22.367,8.325-3.547,5.3-4.354,11.97-4.281,18.347s3.294,14.115.734,19.953c-7.094,16.162-16.284,18.306-16.961,35.585-.416,4.2-.122,8.684,2.193,12.207s7.143,5.635,10.739.408a23.441,23.441,0,0,0,4.526,9.532,12.164,12.164,0,0,0,9.247,4.534,9.935,9.935,0,0,0,8.733-6.662,23.376,23.376,0,0,0,16.985,9.206c6.629.424,13.4-2.193,16.912-7.11a38.293,38.293,0,0,0,24.022,3.71A39.662,39.662,0,0,0,263.6,137.059c3.694,3.612,10.038,3.042,14.3.122s6.931-7.592,10.136-11.66c2.422,2.218,6.344,2.242,9.182.6a13.071,13.071,0,0,0,5.594-7.82c.913-3.156,1.019-6.474,2.039-10.592.514,1.8,2.813,2.666,4.583,2.047a5.843,5.843,0,0,0,3.433-4.159,8.894,8.894,0,0,0-.465-5.724c-1.949-10.095-4.428-21.087-12.541-27.39-5.186-4.028-11.946-5.48-17.442-9.067-9.426-6.156-13.8-17.531-21.07-26.126-12.476-14.718-34.582-20.361-52.578-13.414C200.092,27.215,191.807,34.439,191.359,40.889Z" transform="translate(-148.325 -20.918)"/>
    </clipPath>
    <clipPath id="clip-path-3">
      <path id="Trazado_1026848" data-name="Trazado 1026848" d="M109.068,184.262,39.79,95.088,51.858,85.58l68.789,89.182Z" transform="translate(-39.79 -85.58)"/>
    </clipPath>
  </defs>
  <g id="Enmascarar_grupo_1098721" data-name="Enmascarar grupo 1098721" transform="translate(-1020 -2100)" clip-path="url(#clip-path)">
    <g id="OBJECTS" transform="translate(1009.437 2085.448)">
      <path id="Trazado_1026780" data-name="Trazado 1026780" d="M314.113,49.933c26.02,29.07,44.636,65.388,51.314,103.851s-.962,80.376-25.7,110.587c-23.264,28.417-59.721,44.2-96.358,47.188s-73.469-5.879-107.382-20.076c-23.3-9.752-45.9-22.31-63.415-40.5S43,208.369,43.615,183.14s15.574-50.6,39.1-59.778c16.5-6.442,37.134-5.708,48.68-19.122,8.032-9.328,8.88-22.636,13-34.231C154.267,42.171,183.8,24.884,213.2,21.7S283.633,15.882,314.113,49.933Z" transform="translate(-0.705)" fill="#f6ecaa"/>
      <g id="Grupo_1172636" data-name="Grupo 1172636" transform="translate(41.344 97.35)">
        <g id="Grupo_1172626" data-name="Grupo 1172626" transform="translate(207.426 22.187)">
          <g id="Grupo_1172622" data-name="Grupo 1172622" transform="translate(25.188)">
            <g id="Grupo_1172620" data-name="Grupo 1172620" transform="translate(0 5.007)">
              <path id="Trazado_1026781" data-name="Trazado 1026781" d="M352.925,148.22a404.464,404.464,0,0,1-25.955,63.9" transform="translate(-326.97 -148.22)" fill="none" stroke="#4d223d" stroke-miterlimit="10" stroke-width="1"/>
              <path id="Trazado_1026782" data-name="Trazado 1026782" d="M339.21,194.451a171.527,171.527,0,0,0,42.239-29.771" transform="translate(-329.229 -151.258)" fill="none" stroke="#4d223d" stroke-miterlimit="10" stroke-width="1"/>
              <path id="Trazado_1026783" data-name="Trazado 1026783" d="M358.97,190.294a75.358,75.358,0,0,0,33.538-.554" transform="translate(-332.877 -155.884)" fill="none" stroke="#4d223d" stroke-miterlimit="10" stroke-width="1"/>
            </g>
            <g id="Grupo_1172621" data-name="Grupo 1172621" transform="translate(20.948)">
              <circle id="Elipse_12335" data-name="Elipse 12335" cx="5.007" cy="5.007" r="5.007" fill="#e64363"/>
              <circle id="Elipse_12336" data-name="Elipse 12336" cx="5.007" cy="5.007" r="5.007" transform="translate(26.876 12.484)" fill="#e64363"/>
              <circle id="Elipse_12337" data-name="Elipse 12337" cx="5.007" cy="5.007" r="5.007" transform="translate(33.677 33.856)" fill="#e64363"/>
            </g>
          </g>
          <g id="Grupo_1172625" data-name="Grupo 1172625" transform="translate(0 10.821)">
            <g id="Grupo_1172623" data-name="Grupo 1172623" transform="translate(5.7 5.015)">
              <path id="Trazado_1026784" data-name="Trazado 1026784" d="M319.706,161.5a269.141,269.141,0,0,0,3.93,51.82" transform="translate(-306.13 -161.5)" fill="none" stroke="#4d223d" stroke-miterlimit="10" stroke-width="1"/>
              <path id="Trazado_1026785" data-name="Trazado 1026785" d="M333.772,173.73a43.6,43.6,0,0,1-13.022,13.854" transform="translate(-306.333 -163.757)" fill="none" stroke="#4d223d" stroke-miterlimit="10" stroke-width="1"/>
              <path id="Trazado_1026786" data-name="Trazado 1026786" d="M317,184.425A42.734,42.734,0,0,1,303.07,174.42" transform="translate(-303.07 -163.885)" fill="none" stroke="#4d223d" stroke-miterlimit="10" stroke-width="1"/>
            </g>
            <g id="Grupo_1172624" data-name="Grupo 1172624">
              <circle id="Elipse_12338" data-name="Elipse 12338" cx="5.007" cy="5.007" r="5.007" transform="translate(28.491 9.483)" fill="#e64363"/>
              <circle id="Elipse_12339" data-name="Elipse 12339" cx="5.007" cy="5.007" r="5.007" transform="translate(14.441)" fill="#e64363"/>
              <circle id="Elipse_12340" data-name="Elipse 12340" cx="5.007" cy="5.007" r="5.007" transform="translate(0 10.013)" fill="#e64363"/>
            </g>
          </g>
        </g>
        <g id="Grupo_1172629" data-name="Grupo 1172629" transform="translate(47.262)">
          <g id="Grupo_1172627" data-name="Grupo 1172627" transform="translate(8.179 7.836)">
            <path id="Trazado_1026787" data-name="Trazado 1026787" d="M123.85,132.75a223.971,223.971,0,0,0,53.777,77.375" transform="translate(-112.304 -126.007)" fill="none" stroke="#4d223d" stroke-miterlimit="10" stroke-width="1"/>
            <path id="Trazado_1026788" data-name="Trazado 1026788" d="M172.17,144.26q7.119,31.948,11.342,64.459" transform="translate(-121.223 -128.131)" fill="none" stroke="#4d223d" stroke-miterlimit="10" stroke-width="1"/>
            <path id="Trazado_1026789" data-name="Trazado 1026789" d="M161.42,181.37a43.636,43.636,0,0,0,17.76,13.03" transform="translate(-119.239 -134.981)" fill="none" stroke="#4d223d" stroke-miterlimit="10" stroke-width="1"/>
            <path id="Trazado_1026790" data-name="Trazado 1026790" d="M146.366,124.48a126.608,126.608,0,0,1-.766,40.192" transform="translate(-116.318 -124.48)" fill="none" stroke="#4d223d" stroke-miterlimit="10" stroke-width="1"/>
            <path id="Trazado_1026791" data-name="Trazado 1026791" d="M132.106,158.54a39.416,39.416,0,0,1-22.416-11" transform="translate(-109.69 -128.736)" fill="none" stroke="#4d223d" stroke-miterlimit="10" stroke-width="1"/>
          </g>
          <g id="Grupo_1172628" data-name="Grupo 1172628">
            <circle id="Elipse_12341" data-name="Elipse 12341" cx="5.847" cy="5.847" r="5.847" transform="translate(12.818 5.847)" fill="#e64363"/>
            <circle id="Elipse_12342" data-name="Elipse 12342" cx="5.847" cy="5.847" r="5.847" transform="translate(32.861)" fill="#e64363"/>
            <circle id="Elipse_12343" data-name="Elipse 12343" cx="5.847" cy="5.847" r="5.847" transform="translate(0 19.921)" fill="#e64363"/>
            <circle id="Elipse_12344" data-name="Elipse 12344" cx="5.847" cy="5.847" r="5.847" transform="translate(44.546 47.343)" fill="#e64363"/>
          </g>
        </g>
        <g id="Grupo_1172630" data-name="Grupo 1172630" transform="translate(230.853 54.437)">
          <path id="Trazado_1026792" data-name="Trazado 1026792" d="M325.634,298.225l-.824-.326a175.9,175.9,0,0,1,70-84.118l.473.75A175.091,175.091,0,0,0,325.634,298.225Z" transform="translate(-324.81 -187.564)" fill="#46b08d"/>
          <path id="Trazado_1026793" data-name="Trazado 1026793" d="M391.593,221.052c-1.566-6.76,1.794-13.976,7.053-18.494s12.142-6.719,18.975-7.918a81.2,81.2,0,0,1,25.865-.375,44.934,44.934,0,0,1-21.421,23.215A45.522,45.522,0,0,1,391.593,221.052Z" transform="translate(-337.066 -183.804)" fill="#46b08d"/>
          <path id="Trazado_1026794" data-name="Trazado 1026794" d="M375.02,240.974a42.014,42.014,0,0,1,54.869,1.745c-8.815,4.542-18.249,8.317-28.148,8.961S381.364,249.462,375.02,240.974Z" transform="translate(-334.078 -190.858)" fill="#46b08d"/>
          <path id="Trazado_1026795" data-name="Trazado 1026795" d="M350.18,269.577a45.552,45.552,0,0,1,56.337-1.166,44.7,44.7,0,0,1-28.425,11.938C367.605,280.789,357,277.348,350.18,269.577Z" transform="translate(-329.493 -195.953)" fill="#46b08d"/>
          <path id="Trazado_1026796" data-name="Trazado 1026796" d="M373.158,231.061c3.963-7.967,7.551-16.341,8.244-25.213s-1.933-18.412-8.676-24.218c-4.15,8.064-8.382,16.365-9.345,25.384S365.436,226.054,373.158,231.061Z" transform="translate(-331.898 -181.63)" fill="#46b08d"/>
          <path id="Trazado_1026797" data-name="Trazado 1026797" d="M349.772,255.067c10.1-16.3,8.594-38.961-3.58-53.777C336.17,216.359,335.706,237.234,349.772,255.067Z" transform="translate(-327.413 -185.259)" fill="#46b08d"/>
        </g>
        <g id="Grupo_1172632" data-name="Grupo 1172632" transform="translate(213.329 145.514)">
          <path id="Trazado_1026798" data-name="Trazado 1026798" d="M303.32,351.142a96.4,96.4,0,0,1,50.7-50.564,95.282,95.282,0,0,1,72.98.016,93.418,93.418,0,0,1-51.355,52.293C352.375,362.337,325.2,361.718,303.32,351.142Z" transform="translate(-303.32 -293.323)" fill="#62bbbf"/>
          <g id="Grupo_1172631" data-name="Grupo 1172631" transform="translate(9.125 2.289)">
            <path id="Trazado_1026799" data-name="Trazado 1026799" d="M418.239,307.73A218.526,218.526,0,0,0,314.51,358.62" transform="translate(-314.51 -298.271)" fill="none" stroke="#33819e" stroke-miterlimit="10" stroke-width="1"/>
            <path id="Trazado_1026800" data-name="Trazado 1026800" d="M405.889,296.13a74.26,74.26,0,0,0-13.569,21.16" transform="translate(-328.872 -296.13)" fill="none" stroke="#33819e" stroke-miterlimit="10" stroke-width="1"/>
            <path id="Trazado_1026801" data-name="Trazado 1026801" d="M377.519,299.12a62.766,62.766,0,0,0-20.589,32.641" transform="translate(-322.34 -296.682)" fill="none" stroke="#33819e" stroke-miterlimit="10" stroke-width="1"/>
            <path id="Trazado_1026802" data-name="Trazado 1026802" d="M429.363,324.52a81.194,81.194,0,0,0-22.033-7.379" transform="translate(-331.643 -300.008)" fill="none" stroke="#33819e" stroke-miterlimit="10" stroke-width="1"/>
            <path id="Trazado_1026803" data-name="Trazado 1026803" d="M399.408,349.432A90.024,90.024,0,0,0,366.49,334.95" transform="translate(-324.105 -303.296)" fill="none" stroke="#33819e" stroke-miterlimit="10" stroke-width="1"/>
            <path id="Trazado_1026804" data-name="Trazado 1026804" d="M353.168,366.671q-8.415-7.021-16.838-14.041" transform="translate(-318.538 -306.559)" fill="none" stroke="#33819e" stroke-miterlimit="10" stroke-width="1"/>
          </g>
        </g>
        <g id="Grupo_1172633" data-name="Grupo 1172633" transform="translate(0 134.845)">
          <path id="Trazado_1026805" data-name="Trazado 1026805" d="M171.7,358.758c-26.721-23.614-63.1-34.035-97.312-27.871l-.122-.783c34.427-6.2,71.031,4.281,97.915,28.042Z" transform="translate(-47.712 -289.121)" fill="#46b08d"/>
          <path id="Trazado_1026806" data-name="Trazado 1026806" d="M93.87,326.781A34.693,34.693,0,0,0,65.6,319.793a36.5,36.5,0,0,0-23.9,17.564C58.294,341.972,76.771,338.156,93.87,326.781Z" transform="translate(-41.7 -287.421)" fill="#46b08d"/>
          <path id="Trazado_1026807" data-name="Trazado 1026807" d="M116.424,321.405A39.383,39.383,0,0,1,96.072,306.72a43.854,43.854,0,0,1-8.122-24.74,32.05,32.05,0,0,1,23.981,12.508C117.778,302.031,120.4,312.313,116.424,321.405Z" transform="translate(-50.237 -280.561)" fill="#46b08d"/>
          <path id="Trazado_1026808" data-name="Trazado 1026808" d="M124.669,333.96c-9.7-.473-19.717.147-28.5,4.534S80.041,351.72,79.34,362.043C96.806,360.64,113.441,350.121,124.669,333.96Z" transform="translate(-48.648 -290.131)" fill="#46b08d"/>
          <path id="Trazado_1026809" data-name="Trazado 1026809" d="M151.68,329.7a37.064,37.064,0,0,1-17.662-21.16,40.1,40.1,0,0,1,1.345-28.295C147.978,292.039,154.395,310.924,151.68,329.7Z" transform="translate(-58.38 -280.24)" fill="#46b08d"/>
          <path id="Trazado_1026810" data-name="Trazado 1026810" d="M156.515,346.045a33.785,33.785,0,0,0-25.661,3.343,37.633,37.633,0,0,0-16.683,21.07C130.8,371.412,147.545,361.146,156.515,346.045Z" transform="translate(-55.077 -292.17)" fill="#46b08d"/>
          <path id="Trazado_1026811" data-name="Trazado 1026811" d="M184.288,362.88a23.782,23.782,0,0,0-19.766-4.346,25.256,25.256,0,0,0-16.2,12.843C160.763,374.271,174.169,372.241,184.288,362.88Z" transform="translate(-61.38 -294.58)" fill="#46b08d"/>
          <path id="Trazado_1026812" data-name="Trazado 1026812" d="M172.251,340.987c-9.182-13.968-10.486-33.383-3.27-48.607a57.276,57.276,0,0,1,9.32,23.239C179.549,324.01,178.513,332.89,172.251,340.987Z" transform="translate(-64.339 -282.481)" fill="#46b08d"/>
        </g>
        <g id="Grupo_1172635" data-name="Grupo 1172635" transform="translate(8.578 82.778)">
          <path id="Trazado_1026813" data-name="Trazado 1026813" d="M159.529,290.7a81.854,81.854,0,0,0-36.4-61.425,81.789,81.789,0,0,0-70.909-8.342,87.785,87.785,0,0,0,36.082,58.5C107.6,292.933,132.563,298.053,159.529,290.7Z" transform="translate(-52.22 -216.387)" fill="#62bbbf"/>
          <g id="Grupo_1172634" data-name="Grupo 1172634" transform="translate(7.983 6.632)">
            <path id="Trazado_1026814" data-name="Trazado 1026814" d="M155.693,289.566c-13.87-13.047-27.781-26.126-43.119-37.4S80.349,231.395,62.01,226.29" transform="translate(-62.01 -224.847)" fill="none" stroke="#33829e" stroke-miterlimit="10" stroke-width="1"/>
            <path id="Trazado_1026815" data-name="Trazado 1026815" d="M69.89,247.633A167.735,167.735,0,0,1,95,242.52" transform="translate(-63.465 -227.842)" fill="none" stroke="#33829e" stroke-miterlimit="10" stroke-width="1"/>
            <path id="Trazado_1026816" data-name="Trazado 1026816" d="M95.85,279.8q14.653-7.718,29.3-15.444" transform="translate(-68.256 -231.874)" fill="none" stroke="#33829e" stroke-miterlimit="10" stroke-width="1"/>
            <path id="Trazado_1026817" data-name="Trazado 1026817" d="M112.43,224.52a97.173,97.173,0,0,1,2.128,21.666" transform="translate(-71.317 -224.52)" fill="none" stroke="#33829e" stroke-miterlimit="10" stroke-width="1"/>
          </g>
        </g>
      </g>
      <g id="Grupo_1172675" data-name="Grupo 1172675" transform="translate(39.77 20.731)">
        <path id="Trazado_1026818" data-name="Trazado 1026818" d="M220.558,372.349h58.7V341.2H210.39v31.149Z" transform="translate(-71.264 -80.028)" fill="#6f4659"/>
        <g id="Grupo_1172641" data-name="Grupo 1172641" transform="translate(85.366)">
          <path id="Trazado_1026819" data-name="Trazado 1026819" d="M191.359,40.887c-8.44-3.343-17.328.783-22.367,8.325-3.547,5.3-4.354,11.97-4.281,18.347s.5,12.182-1.354,18.282c-7.918,26.134-12.835,18.657-14.873,37.248-.416,4.2-.122,8.684,2.193,12.207s7.143,5.635,10.739.408a23.441,23.441,0,0,0,4.526,9.532,12.164,12.164,0,0,0,9.247,4.534,9.935,9.935,0,0,0,8.733-6.662,23.376,23.376,0,0,0,16.985,9.206c6.629.424,13.4-2.193,16.912-7.11a38.293,38.293,0,0,0,24.022,3.71A39.662,39.662,0,0,0,263.6,137.049c3.694,3.612,10.038,3.042,14.3.122s6.931-7.592,10.136-11.66c2.422,2.218,6.344,2.242,9.182.6a13.071,13.071,0,0,0,5.594-7.82c.913-3.156,1.019-6.474,2.039-10.592.514,1.8,2.813,2.666,4.583,2.047a5.843,5.843,0,0,0,3.433-4.159,8.894,8.894,0,0,0-.465-5.724C308.118,73.341,290.44,68.644,282.416,63.4c-9.426-6.156-13.8-17.531-21.07-26.126-12.476-14.718-34.582-20.361-52.578-13.414C200.092,27.213,191.807,34.437,191.359,40.887Z" transform="translate(-145.174 -20.908)" fill="#a83246"/>
          <g id="Grupo_1172639" data-name="Grupo 1172639" transform="translate(3.152 0.008)">
            <g id="Grupo_1172638" data-name="Grupo 1172638">
              <g id="Grupo_1172637" data-name="Grupo 1172637" clip-path="url(#clip-path-2)">
                <path id="Trazado_1026820" data-name="Trazado 1026820" d="M205.86,88.161s-30.8,44.261-21.617,76.511c0,0,78.141,17.98,96.178,3.987s20.385-15.64,20.385-15.64-11.465-38.7-34.826-54.087C242.814,83.685,205.86,88.161,205.86,88.161Z" transform="translate(-154.64 -33.217)" fill="#701934"/>
                <path id="Trazado_1026821" data-name="Trazado 1026821" d="M167.436,86.26c1.549-5.512-.041-18.918,1.329-24.471C172.68,45.9,189.6,41,195.34,42.358c17.515-29.331,60.4-10.038,72.067-3.832-8.17-9.043-25.637-21.551-37.819-21.666a44.766,44.766,0,0,0-32.649,13.976c-1.557,1.663-3.033,3.482-5.031,4.566-2.911,1.574-6.417,1.337-9.655,2.006-6.735,1.394-12.125,6.817-14.971,13.071s-3.506,13.283-3.563,20.165C163.637,77.518,164.118,84.425,167.436,86.26Z" transform="translate(-151.165 -20.168)" fill="#c95559"/>
              </g>
            </g>
          </g>
          <g id="Grupo_1172640" data-name="Grupo 1172640" transform="translate(0 31.126)">
            <path id="Trazado_1026823" data-name="Trazado 1026823" d="M299.41,59.08s8.374,14.066,21.046,19.864,26.477,32.551,14.058,37.762c0,0,7.274,2.805,9.149-8.415,1.5-8.953-5.887-24.577-22.049-32.4C311.389,70.928,301.522,63.247,299.41,59.08Z" transform="translate(-173.061 -59.08)" fill="#c95559"/>
            <path id="Trazado_1026824" data-name="Trazado 1026824" d="M161.665,103.86s-3.865,12.3-9.989,19.48c-5.716,6.7-14.066,24.479,2.65,30.537,0,0-10.372-8.953-4.362-19.652S161.665,113.735,161.665,103.86Z" transform="translate(-144.46 -67.346)" fill="#c95559"/>
          </g>
        </g>
        <g id="Grupo_1172652" data-name="Grupo 1172652" transform="translate(115.682 22.186)">
          <g id="Grupo_1172651" data-name="Grupo 1172651" transform="translate(0 3.991)">
            <path id="Trazado_1026825" data-name="Trazado 1026825" d="M232.027,161.069,226.27,183.02s17.173,24.479,43.225-3.531l-6.964-23.639C262.532,155.858,240.825,163.49,232.027,161.069Z" transform="translate(-189.877 -71.993)" fill="#f18361"/>
            <g id="Grupo_1172647" data-name="Grupo 1172647">
              <g id="Grupo_1172643" data-name="Grupo 1172643" transform="translate(0 46.98)">
                <g id="Grupo_1172642" data-name="Grupo 1172642">
                  <path id="Trazado_1026826" data-name="Trazado 1026826" d="M197.377,116.688s-10.258-14.164-15.02.807c-3.164,9.948,4.24,27.064,19.847,15.4,0,0-3.229-1.451-4.477-8.521C196.668,118.367,197.377,116.688,197.377,116.688Z" transform="translate(-181.639 -110.625)" fill="#fba07f"/>
                </g>
                <circle id="Elipse_12345" data-name="Elipse 12345" cx="3.963" cy="3.963" r="3.963" transform="translate(8.343 22.224)" fill="#c0f0f0"/>
              </g>
              <g id="Grupo_1172645" data-name="Grupo 1172645" transform="translate(84.185 39.074)">
                <g id="Grupo_1172644" data-name="Grupo 1172644">
                  <path id="Trazado_1026827" data-name="Trazado 1026827" d="M289.707,106.76s13.609-14.074,15.648,1.509c1.207,9.239-4.868,26.362-20.475,14.7,0,0,3.229-1.451,4.477-8.521C290.417,108.44,289.707,106.76,289.707,106.76Z" transform="translate(-284.88 -100.929)" fill="#fba07f"/>
                </g>
                <circle id="Elipse_12346" data-name="Elipse 12346" cx="3.963" cy="3.963" r="3.963" transform="translate(7.844 22.001)" fill="#c0f0f0"/>
              </g>
              <g id="Grupo_1172646" data-name="Grupo 1172646" transform="translate(8.865)">
                <path id="Trazado_1026828" data-name="Trazado 1026828" d="M194.085,80.538c-2.805,21.095,1.769,64.027,37.175,68.21,17.955,2.12,30.619-6.271,38.455-17.213s8.717-29.3,6.98-42.638c-.791-6.059.041-5.023-3.351-10.1C268.753,71.92,261.43,67.4,254.148,63.48c-7.689-4.142-15.7-7.9-24.275-9.581s-17.809-1.133-25.514,2.976S195.708,68.324,194.085,80.538Z" transform="translate(-192.674 -53.01)" fill="#f9af88"/>
                <path id="Trazado_1026829" data-name="Trazado 1026829" d="M192.51,94.979c5.284-2.544,10.6-6.678,12.794-12.117,1.6-3.963,4.8-9.19,2.585-13.626,6.3,7.632,17.695,10.584,27.48,12.068s19.016,3.074,28.874,3.89a27.11,27.11,0,0,1,7.991,1.574c2.528,1.019,3.751,2.813,4.884,5.292a10.909,10.909,0,0,0-3.286-11.033c-3.2-2.658-7.331-3.938-11.408-4.811-8.513-1.827-17.271-2.161-25.865-3.539s-17.287-3.947-23.957-9.54a23.028,23.028,0,0,0-3.841-2.952,5.31,5.31,0,0,0-4.664-.391c-2.022.97-2.74,3.449-3.082,5.659-.815,5.268-.75,10.649-1.786,15.876S194.182,91.22,192.51,94.979Z" transform="translate(-192.51 -54.192)" fill="#f18361"/>
              </g>
            </g>
            <g id="Grupo_1172650" data-name="Grupo 1172650" transform="translate(9.827 22.037)">
              <g id="Grupo_1172648" data-name="Grupo 1172648" transform="translate(6.012)">
                <path id="Trazado_1026830" data-name="Trazado 1026830" d="M275.046,115.274c-5.635-4.583-10.568-2.993-14.6,2.585,3.156-2,5.414-3.172,9.255-3.009a26.582,26.582,0,0,1,3.841.481C274.214,115.331,276.489,116.318,275.046,115.274Z" transform="translate(-212.024 -86.046)" fill="#2f3961"/>
                <path id="Trazado_1026831" data-name="Trazado 1026831" d="M218.455,121.029a9.278,9.278,0,0,0-4.615,5.292,16.005,16.005,0,0,1,1.6-1.264,12.449,12.449,0,0,1,4.583-2.3,10.51,10.51,0,0,1,4.362-.726,7.14,7.14,0,0,1,3.107.7C225.394,120.14,221.4,119.741,218.455,121.029Z" transform="translate(-203.421 -87.47)" fill="#2f3961"/>
                <path id="Trazado_1026832" data-name="Trazado 1026832" d="M215.436,89.375c-3.686-.253-6.311-.424-8.97,1.647-3.482,2.715-3.816,3.62-5.072,6.686-.848-1.843.065-5.512,1.182-7.2,1.541-2.324,2.405-3.49,5.047-4.4s4.95-1.313,7.592-.408c1,.342,2.552.872,2.666,2.087C217.972,88.853,217.092,89.489,215.436,89.375Z" transform="translate(-201.062 -80.988)" fill="#701934"/>
                <path id="Trazado_1026833" data-name="Trazado 1026833" d="M257.833,85.021c3.547-1.027,6.075-1.753,9.116-.294,3.979,1.916,4.493,2.723,6.377,5.463.432-1.981-1.231-5.374-2.683-6.784-2-1.949-3.09-2.9-5.863-3.221s-5.121-.228-7.5,1.207c-.913.554-2.316,1.394-2.161,2.609C255.248,85.054,256.243,85.486,257.833,85.021Z" transform="translate(-211.038 -80.035)" fill="#701934"/>
                <path id="Trazado_1026834" data-name="Trazado 1026834" d="M244.008,125.39a9.54,9.54,0,0,0,1.827,8.578S240.273,131.913,244.008,125.39Z" transform="translate(-208.751 -88.407)" fill="#f18361"/>
                <path id="Trazado_1026835" data-name="Trazado 1026835" d="M238.51,143.984s10.739,4.7,17.05-3.294C255.56,140.7,251.956,150.646,238.51,143.984Z" transform="translate(-207.975 -91.231)" fill="#c9102c"/>
              </g>
              <g id="Grupo_1172649" data-name="Grupo 1172649" transform="translate(0 14.054)">
                <ellipse id="Elipse_12347" data-name="Elipse 12347" cx="15.289" cy="15.126" rx="15.289" ry="15.126" transform="translate(5.936 6.466)" fill="none" stroke="#fff" stroke-miterlimit="10" stroke-width="3"/>
                <ellipse id="Elipse_12348" data-name="Elipse 12348" cx="15.289" cy="15.126" rx="15.289" ry="15.126" transform="translate(47.62)" fill="none" stroke="#fff" stroke-miterlimit="10" stroke-width="3"/>
                <path id="Trazado_1026836" data-name="Trazado 1026836" d="M233.47,109.727a15.368,15.368,0,0,1,16.594-2.511" transform="translate(-201.033 -98.85)" fill="none" stroke="#fff" stroke-miterlimit="10" stroke-width="3"/>
                <path id="Trazado_1026837" data-name="Trazado 1026837" d="M287.7,105.523q3.755-1.345,7.5-2.683" transform="translate(-211.043 -98.298)" fill="none" stroke="#fff" stroke-miterlimit="10" stroke-width="3"/>
                <path id="Trazado_1026838" data-name="Trazado 1026838" d="M201.4,115.4a20.894,20.894,0,0,1-7.714-2.414" transform="translate(-193.69 -100.172)" fill="none" stroke="#fff" stroke-miterlimit="10" stroke-width="3"/>
              </g>
            </g>
          </g>
          <path id="Trazado_1026839" data-name="Trazado 1026839" d="M192.462,100.143c0-2.9-.155-6.654,1.468-9.491s3.922-5.227,5.765-7.926A28.469,28.469,0,0,0,204.016,60.3c.864,3.286,3.784,5.594,6.727,7.29,12.7,7.322,28.091,7.5,42.606,9.6,4.95.718,9.964,1.712,14.294,4.208s7.494,6.368,8.024,11.342c4.713-12.541-4.746-25.588-15.738-32.1-6.743-4-14.629-5.488-22.22-7.453-7.363-1.9-14.661-4.322-22.236-4.933s-15.689.8-21.47,5.741a25.954,25.954,0,0,0-7.714,12.574,49.444,49.444,0,0,0-1.623,14.808,33.753,33.753,0,0,0,1.386,9.989A16.3,16.3,0,0,0,192.462,100.143Z" transform="translate(-182.195 -48.116)" fill="#a83246"/>
        </g>
        <g id="Grupo_1172655" data-name="Grupo 1172655" transform="translate(96.806 129.625)">
          <g id="Grupo_1172653" data-name="Grupo 1172653" transform="translate(0 0)">
            <path id="Trazado_1026840" data-name="Trazado 1026840" d="M210.978,342.571a186.755,186.755,0,0,0-.7-20.043c-.008-.008-.008-.008,0-.016-.033-.416-.073-.84-.122-1.256,15.224,3.9,31.385,2.4,45.688-3.115l.008-.008c1.174-.448,2.316-.93,3.466-1.435l.024-.008c.171-.073.342-.147.506-.22.008-.008.008-.008.016,0,.008-.008.008-.008.016,0,.555-.253,1.076-.506,1.623-.767h.008l.2-.1c-.008.253-.008.514-.008.775a.615.615,0,0,0-.008.122c0,.147-.008.3,0,.457v.033c-.008.245-.016.481-.016.734-.024,1.615-.041,3.278-.049,4.974-.041,6.409-.008,13.226.008,19.872h52.439c.147-3.767-.383-10.543-1.084-18.339-.587-6.5-1.3-13.707-1.851-20.459-10.136-123.079,6.148-89.68,3.9-94.246-2.193-4.444-6.1-8.374-10.935-11.783l-.008-.008c-13.87-9.793-35.414-15.411-46.4-17.213h-.008q-.954-.159-1.786-.269a20.794,20.794,0,0,0-4.754-.334c-4.371.685-2.52,3.327-3.188,5.977a4.288,4.288,0,0,1-1.125,1.981,6.384,6.384,0,0,1-1.076.864c-9.614,6.23-23,5.953-31.818-1.965-.139-.114-.269-.236-.408-.367-1.076.082-2.161.171-3.237.269-7.64.685-15.289,1.916-22.139,5.284a32.28,32.28,0,0,0-9.263,6.792c-7.241,5.121-15.607,15.99-19.5,24.153-.342.7-.644,1.386-.905,2.039,4.721,8.325,9.655,25.2,14.5,38.365-.008.016-.008.024,0,.033.693,1.884,1.386,3.694,2.071,5.39-.228,3.319-.489,6.646-.75,9.956-.236,3.042-.473,6.181-.693,9.385-.644,9.231-1.215,19.016-1.721,28.711-.473,8.839-.889,17.6-1.248,25.783h40.331Z" transform="translate(-158.49 -179.876)" fill="#0a7ac4"/>
          </g>
          <g id="Grupo_1172654" data-name="Grupo 1172654" transform="translate(11.35 21.596)">
            <path id="Trazado_1026841" data-name="Trazado 1026841" d="M178.874,293.985c1.06-28.735,2.813-57.438,6.695-87.625a387.458,387.458,0,0,0-10.519,86.459C177.374,293.014,179.7,293.218,178.874,293.985Z" transform="translate(-172.897 -206.36)" fill="#0464ac"/>
            <path id="Trazado_1026842" data-name="Trazado 1026842" d="M173.486,223.66l4.183,45.965A97.543,97.543,0,0,1,173.486,223.66Z" transform="translate(-172.41 -209.553)" fill="#0464ac"/>
          </g>
        </g>
        <g id="Grupo_1172657" data-name="Grupo 1172657" transform="translate(146.727 121.834)">
          <g id="Grupo_1172656" data-name="Grupo 1172656" transform="translate(0 0)">
            <path id="Trazado_1026843" data-name="Trazado 1026843" d="M228.248,174.332c-1.778.147-2.087,3.392-2.528,5.121-.563,2.226-.44,2.9-1.191,3.36-1.492.9-2.357.391-3.115,2.56-4.15,11.913.432,22.236,1.68,35.479.261,3.7.514,7.4-.4,10.429q-1.015,37.7-2.022,75.4a76.542,76.542,0,0,0,.448,10.641c.212,2.079-.147,4.118,2.234,5.2,6.4,2.911,49.643,1.427,49.871-2.063.294-4.362-.97-9.54-2.185-16.153-7.249-39.352-7.176-83.866-1.892-123.748.228-2.071-.122-1.076-1.28-4.354-.294-.815-1.288-4.974-1.99-5.488-1.533-1.117-2.675.351-4.208,1.468C252.824,178.637,239.867,179.363,228.248,174.332Z" transform="translate(-219.711 -170.321)" fill="#fe80ab"/>
          </g>
          <path id="Trazado_1026844" data-name="Trazado 1026844" d="M261.088,187a59.2,59.2,0,0,1-10.682,1.15,64.46,64.46,0,0,1-12.851-.277,31.586,31.586,0,0,1-7.8-1.647c3.115,1.99,6.76,2.993,10.315,3.89a33.505,33.505,0,0,0,24.267-3.188,18.191,18.191,0,0,0,1.851-1.1C264.5,186.3,262.792,186.637,261.088,187Z" transform="translate(-221.566 -173.183)" fill="#d12863"/>
        </g>
        <g id="Grupo_1172669" data-name="Grupo 1172669" transform="translate(0 52.735)">
          <g id="Grupo_1172667" data-name="Grupo 1172667">
            <path id="Trazado_1026845" data-name="Trazado 1026845" d="M122.286,166.115c-1.647-.587-3.514.587-4.273,2.161a9.667,9.667,0,0,0-.514,5.153,14.34,14.34,0,0,1-.041,5.211c-1.142,4.208-5.944,6.034-9.133,9.01-5.064,4.729-5.847,13.014-2.691,19.179s9.614,10.233,16.4,11.6c.073,2.74.155,5.48.228,8.219.082,2.838.285,5.969,2.3,7.958,2.577,2.544,6.784,2.022,10.307,1.174,3.245-.775,6.67-1.81,8.8-4.387,2.626-3.172,2.511-7.779,1.729-11.815s-2.12-8.122-1.3-12.239a21.683,21.683,0,0,0-5.251-24.487c-2.87-2.536-6.377-4.24-9.443-6.54S125.409,169.026,122.286,166.115Z" transform="translate(-51.582 -100.417)" fill="#f9af88"/>
            <g id="Grupo_1172666" data-name="Grupo 1172666">
              <path id="Trazado_1026846" data-name="Trazado 1026846" d="M108.575,184.262,39.77,95.08l12.076-9.5,68.8,89.182Z" transform="translate(-39.77 -85.58)" fill="#fed401"/>
              <g id="Grupo_1172660" data-name="Grupo 1172660" transform="translate(0.016)" opacity="0.671">
                <g id="Grupo_1172659" data-name="Grupo 1172659">
                  <g id="Grupo_1172658" data-name="Grupo 1172658" clip-path="url(#clip-path-3)">
                    <path id="Trazado_1026847" data-name="Trazado 1026847" d="M40.1,95.146s47.482,66.913,55.448,63.146S51.8,85.63,51.8,85.63s76.339,87.29,74.35,95.355-19.692,11.995-19.692,11.995S36.866,106.048,40.1,95.146Z" transform="translate(-39.826 -85.589)" fill="#eb9307"/>
                  </g>
                </g>
              </g>
              <g id="Grupo_1172661" data-name="Grupo 1172661" transform="translate(8.88 4.999)">
                <line id="Línea_730" data-name="Línea 730" y1="3.555" x2="4.721" fill="none" stroke="#014b73" stroke-miterlimit="10" stroke-width="1"/>
                <line id="Línea_731" data-name="Línea 731" y1="3.555" x2="4.721" transform="translate(11.342 16.243)" fill="none" stroke="#014b73" stroke-miterlimit="10" stroke-width="1"/>
                <line id="Línea_732" data-name="Línea 732" y1="1.941" x2="2.381" transform="translate(4.33 2.87)" fill="none" stroke="#014b73" stroke-miterlimit="10" stroke-width="1"/>
                <line id="Línea_733" data-name="Línea 733" y1="1.949" x2="2.381" transform="translate(6.654 6.107)" fill="none" stroke="#014b73" stroke-miterlimit="10" stroke-width="1"/>
                <line id="Línea_734" data-name="Línea 734" y1="1.949" x2="2.381" transform="translate(8.782 9.157)" fill="none" stroke="#014b73" stroke-miterlimit="10" stroke-width="1"/>
                <line id="Línea_735" data-name="Línea 735" y1="1.941" x2="2.381" transform="translate(11.065 12.582)" fill="none" stroke="#014b73" stroke-miterlimit="10" stroke-width="1"/>
              </g>
              <g id="Grupo_1172662" data-name="Grupo 1172662" transform="translate(24.821 23.998)">
                <line id="Línea_736" data-name="Línea 736" y1="3.702" x2="4.607" transform="translate(7.624 12.957)" fill="none" stroke="#014b73" stroke-miterlimit="10" stroke-width="1"/>
                <line id="Línea_737" data-name="Línea 737" y1="2.022" x2="2.316" fill="none" stroke="#014b73" stroke-miterlimit="10" stroke-width="1"/>
                <line id="Línea_738" data-name="Línea 738" y1="2.022" x2="2.316" transform="translate(2.463 3.139)" fill="none" stroke="#014b73" stroke-miterlimit="10" stroke-width="1"/>
                <line id="Línea_739" data-name="Línea 739" y1="2.022" x2="2.316" transform="translate(4.713 6.091)" fill="none" stroke="#014b73" stroke-miterlimit="10" stroke-width="1"/>
                <line id="Línea_740" data-name="Línea 740" y1="2.022" x2="2.316" transform="translate(7.143 9.402)" fill="none" stroke="#014b73" stroke-miterlimit="10" stroke-width="1"/>
              </g>
              <g id="Grupo_1172663" data-name="Grupo 1172663" transform="translate(38.577 41.007)">
                <line id="Línea_741" data-name="Línea 741" y1="3.71" x2="4.599" transform="translate(7.632 12.957)" fill="none" stroke="#014b73" stroke-miterlimit="10" stroke-width="1"/>
                <line id="Línea_742" data-name="Línea 742" y1="2.022" x2="2.324" fill="none" stroke="#014b73" stroke-miterlimit="10" stroke-width="1"/>
                <line id="Línea_743" data-name="Línea 743" y1="2.022" x2="2.316" transform="translate(2.463 3.139)" fill="none" stroke="#014b73" stroke-miterlimit="10" stroke-width="1"/>
                <line id="Línea_744" data-name="Línea 744" y1="2.03" x2="2.316" transform="translate(4.721 6.091)" fill="none" stroke="#014b73" stroke-miterlimit="10" stroke-width="1"/>
                <line id="Línea_745" data-name="Línea 745" y1="2.022" x2="2.316" transform="translate(7.143 9.41)" fill="none" stroke="#014b73" stroke-miterlimit="10" stroke-width="1"/>
              </g>
              <g id="Grupo_1172664" data-name="Grupo 1172664" transform="translate(51.086 57.976)">
                <line id="Línea_746" data-name="Línea 746" y1="3.702" x2="4.607" transform="translate(7.624 12.957)" fill="none" stroke="#014b73" stroke-miterlimit="10" stroke-width="1"/>
                <line id="Línea_747" data-name="Línea 747" y1="2.022" x2="2.316" fill="none" stroke="#014b73" stroke-miterlimit="10" stroke-width="1"/>
                <line id="Línea_748" data-name="Línea 748" y1="2.022" x2="2.316" transform="translate(2.463 3.139)" fill="none" stroke="#014b73" stroke-miterlimit="10" stroke-width="1"/>
                <line id="Línea_749" data-name="Línea 749" y1="2.022" x2="2.316" transform="translate(4.713 6.091)" fill="none" stroke="#014b73" stroke-miterlimit="10" stroke-width="1"/>
                <line id="Línea_750" data-name="Línea 750" y1="2.022" x2="2.316" transform="translate(7.143 9.402)" fill="none" stroke="#014b73" stroke-miterlimit="10" stroke-width="1"/>
              </g>
              <g id="Grupo_1172665" data-name="Grupo 1172665" transform="translate(64.646 74.333)">
                <line id="Línea_751" data-name="Línea 751" y1="3.71" x2="4.599" transform="translate(7.632 12.957)" fill="none" stroke="#014b73" stroke-miterlimit="10" stroke-width="1"/>
                <line id="Línea_752" data-name="Línea 752" y1="2.022" x2="2.324" fill="none" stroke="#014b73" stroke-miterlimit="10" stroke-width="1"/>
                <line id="Línea_753" data-name="Línea 753" y1="2.022" x2="2.316" transform="translate(2.463 3.139)" fill="none" stroke="#014b73" stroke-miterlimit="10" stroke-width="1"/>
                <line id="Línea_754" data-name="Línea 754" y1="2.022" x2="2.316" transform="translate(4.721 6.091)" fill="none" stroke="#014b73" stroke-miterlimit="10" stroke-width="1"/>
                <line id="Línea_755" data-name="Línea 755" y1="2.022" x2="2.316" transform="translate(7.143 9.41)" fill="none" stroke="#014b73" stroke-miterlimit="10" stroke-width="1"/>
              </g>
            </g>
            <path id="Trazado_1026849" data-name="Trazado 1026849" d="M81.082,176.018a93.429,93.429,0,0,1,21.282-3.213c2.047-.073,4.3,0,5.847,1.345a4.36,4.36,0,0,1,1.337,4.24,5.006,5.006,0,0,1-3.278,3.368,9.993,9.993,0,0,1,7.551.587,5.423,5.423,0,0,1,1.712,1.28,3.942,3.942,0,0,1,.84,2.887,4.011,4.011,0,0,1-3.588,3.572,4.222,4.222,0,0,1,5.219,6.01,8,8,0,0,1-3.368,2.805,81.092,81.092,0,0,1-14.531,6.034,13.687,13.687,0,0,0,7.779,1.248,19.738,19.738,0,0,1,4.24-.5,3.444,3.444,0,0,1,3.221,2.357c.359,1.729-1.223,3.2-2.691,4.191a43.021,43.021,0,0,1-11.391,5.382c-2.919.889-6.442,1.337-8.709-.709-2.193-1.973-2.169-5.61-.628-8.122s4.216-4.093,6.89-5.463a3.585,3.585,0,0,1-3.514-.579,4.681,4.681,0,0,1-1.843-3.971c.106-1.517,1.085-2.952,2.895-4.183a12.269,12.269,0,0,1-4.778,1.533,4.517,4.517,0,0,1-4.509-6.882c.775-1.549,2.112-2.732,3.922-4.289a10.753,10.753,0,0,1-5.871.3,6.6,6.6,0,0,1-4.452-3.637A6.9,6.9,0,0,1,81.082,176.018Z" transform="translate(-47.242 -101.677)" fill="#fabe93"/>
          </g>
          <g id="Grupo_1172668" data-name="Grupo 1172668" transform="translate(58.603 119.779)">
            <path id="Trazado_1026850" data-name="Trazado 1026850" d="M123.814,238.815c-3.327-.9-5.92,2.511-7,5.789s-.432,6.841.228,10.176a6.652,6.652,0,0,0-4.55,4.24,17.174,17.174,0,0,0-.856,6.385A93.989,93.989,0,0,0,121.9,307.628c4.11,8.04,9.7,15.754,17.7,19.945s18.82,3.955,25.2-2.446c5.683-5.708,6.589-14.539,6.531-22.6a154.047,154.047,0,0,0-14.2-63.382,14.22,14.22,0,0,0-3.531-5.268,7.16,7.16,0,0,0-6.531-1.027,9.754,9.754,0,0,1-5.651,8.342c-3.237,1.647-6.931,2.071-10.535,2.471C128.976,243.886,122.624,243.471,123.814,238.815Z" transform="translate(-111.639 -232.473)" fill="#138acf"/>
            <path id="Trazado_1026851" data-name="Trazado 1026851" d="M152.726,254.379c-6.173,1.451-12.394,2.756-18.64,3.841a77.592,77.592,0,0,1-11.815.62c3.792.815,7.583,1.8,11.489,1.875a36.838,36.838,0,0,0,21.715-6.523c.481-.326.954-.669,1.427-1.011Q154.834,253.828,152.726,254.379Z" transform="translate(-113.602 -236.295)" fill="#0464ac"/>
          </g>
        </g>
        <g id="Grupo_1172674" data-name="Grupo 1172674" transform="translate(135.461 146.855)">
          <g id="Grupo_1172670" data-name="Grupo 1172670" transform="translate(6.87 27.214)">
            <path id="Trazado_1026852" data-name="Trazado 1026852" d="M280.855,236.54l6.05,7.216-55.1,8.423s-11.2,1.207-12.965-2.626-4.085-6.711,1.769-9.084S280.855,236.54,280.855,236.54Z" transform="translate(-214.789 -234.779)" fill="#fff"/>
            <path id="Trazado_1026853" data-name="Trazado 1026853" d="M224.7,250.248l5.031,81.468,57.185-4.534a6.529,6.529,0,0,0,6.01-6.752l-2.642-71.724a5.611,5.611,0,0,0-6.254-5.365Z" transform="translate(-216.235 -236.027)" fill="#fed401"/>
            <path id="Trazado_1026854" data-name="Trazado 1026854" d="M291.657,259.73s-30.024,63.717-60.977,74.9c0,0,52.4-1.394,65.119-4.786Z" transform="translate(-217.339 -239.059)" fill="#f2a905" opacity="0.369"/>
            <path id="Trazado_1026855" data-name="Trazado 1026855" d="M240.895,275.186l-.5-5.162a2.517,2.517,0,0,1,2.267-2.748l34.867-3.36a2.517,2.517,0,0,1,2.748,2.267l.5,5.162a2.517,2.517,0,0,1-2.267,2.748l-34.867,3.36A2.512,2.512,0,0,1,240.895,275.186Z" transform="translate(-219.131 -239.83)" fill="#fff582"/>
            <path id="Trazado_1026856" data-name="Trazado 1026856" d="M218.25,242.852c-.652.489-1.378,5.2,5.17,5.675l4.379,81.534s-7.518,2.128-8.668-3.36l-4.7-79.723s-1.655-5.912,7.608-8.17c13.161-3.213,60.488-4.428,60.488-4.428s2.471,1.231.253,2.6C282.79,236.973,223.118,239.191,218.25,242.852Z" transform="translate(-214.319 -234.38)" fill="#f2a905"/>
          </g>
          <g id="Grupo_1172673" data-name="Grupo 1172673" transform="translate(0 0)">
            <g id="Grupo_1172671" data-name="Grupo 1172671" transform="translate(0 61.454)">
              <path id="Trazado_1026857" data-name="Trazado 1026857" d="M265.653,325.678c-5.186-3.262-12.867-3.857-17.637-6.858a42.371,42.371,0,0,1-27.031,1.484c-1.484-.416-3.082-1.019-3.832-2.373s.13-3.531,1.541-3.661c-1.492-.775-3.123-1.28-4.574-2.136a5.958,5.958,0,0,1-3.074-3.808,2.938,2.938,0,0,1,2.984-3.539,11.7,11.7,0,0,1-6.458-4.338,3.615,3.615,0,0,1-.905-2.724,2.89,2.89,0,0,1,1.582-1.908c.758-.391,1.623-.546,2.511-.946a7.547,7.547,0,0,1-4.517-4.371,3.764,3.764,0,0,1-.065-2.984c.685-1.362,2.405-1.778,3.914-1.916a32.987,32.987,0,0,1,9.5.554c1.7.367,3.408.742,5.1,1.109a17.607,17.607,0,0,1-7.526-7.314,2.923,2.923,0,0,1-.383-2.65c.685-1.288,2.577-1,3.955-.53q6.434,2.189,12.851,4.387c3.93,1.345,7.975,2.748,11.106,5.48,2.854,2.487,4.746,5.9,7.4,8.611,4.4,4.493,10.551,6.735,16.48,8.847C266.664,310.577,267.651,318.943,265.653,325.678Z" transform="translate(-205.895 -276.371)" fill="#f9af88"/>
              <path id="Trazado_1026858" data-name="Trazado 1026858" d="M259.95,325.524s12.688-9.655,12.688-17.874l2.772.6-2.96,24.34Z" transform="translate(-215.872 -282.145)" fill="#f18361"/>
            </g>
            <g id="Grupo_1172672" data-name="Grupo 1172672" transform="translate(54.504)">
              <path id="Trazado_1026859" data-name="Trazado 1026859" d="M323.3,201.262c-21.8-2.9-29.437,19.285-25.343,46.063,1.631,10.682,2.161,25.156,3.694,35.193-4.305,0-13.324-.236-13.764,3.36a18.78,18.78,0,0,0-5.007-1.476,6.339,6.339,0,0,0-4.893,1.37c-1.362,1.239-1.859,3.147-2.267,4.941A136.356,136.356,0,0,0,272.837,310c-.212,2.732-.245,5.765,1.517,7.869,2.251,2.675,6.311,2.617,8.472,2.414.93,4.966,6.752,7.119,11.726,8.024a109.673,109.673,0,0,0,34.093.791c6.173-.824,12.631-2.357,17.075-6.719,4.844-4.754,6.352-11.905,7.037-18.657C355.561,276.24,349.625,204.768,323.3,201.262Z" transform="translate(-272.736 -201.006)" fill="#138acf"/>
              <path id="Trazado_1026860" data-name="Trazado 1026860" d="M286.377,321.507a62.627,62.627,0,0,0-.587,12.386,90.284,90.284,0,0,0,3.531-26.313C288.472,312.252,287.151,316.827,286.377,321.507Z" transform="translate(-275.129 -220.678)" fill="#0464ac"/>
            </g>
          </g>
        </g>
      </g>
    </g>
  </g>
</svg>
