<svg xmlns="http://www.w3.org/2000/svg" xmlns:xlink="http://www.w3.org/1999/xlink" width="103" height="103" viewBox="0 0 103 103">
  <defs>
    <filter id="Trazado_978624" x="0" y="0" width="103" height="103" filterUnits="userSpaceOnUse">
      <feOffset dy="3" input="SourceAlpha"/>
      <feGaussianBlur stdDeviation="3" result="blur"/>
      <feFlood flood-opacity="0.161"/>
      <feComposite operator="in" in2="blur"/>
      <feComposite in="SourceGraphic"/>
    </filter>
  </defs>
  <g id="Grupo_1172531" data-name="Grupo 1172531" transform="translate(-171 -3258)">
    <g id="Grupo_1172137" data-name="Grupo 1172137" transform="translate(180 3264)">
      <g id="Grupo_1144531" data-name="Grupo 1144531">
        <g transform="matrix(1, 0, 0, 1, -9, -6)" filter="url(#Trazado_978624)">
          <g id="Trazado_978624-2" data-name="Trazado 978624" transform="translate(9 6)" fill="#f4fdfe">
            <path d="M 42.5 83.5 C 36.96437835693359 83.5 31.59512901306152 82.41617584228516 26.54141235351562 80.27863311767578 C 21.65934181213379 78.21369171142578 17.27447128295898 75.25723266601562 13.50862312316895 71.49137878417969 C 9.742764472961426 67.72553253173828 6.786305904388428 63.34066009521484 4.721364498138428 58.45858764648438 C 2.583823442459106 53.40486907958984 1.5 48.03562164306641 1.5 42.5 C 1.5 36.96437835693359 2.583823442459106 31.59512901306152 4.721364498138428 26.54141235351562 C 6.786305904388428 21.65934181213379 9.742764472961426 17.27447128295898 13.50862312316895 13.50862312316895 C 17.27447128295898 9.742764472961426 21.65934181213379 6.786305904388428 26.54141235351562 4.721364498138428 C 31.59512901306152 2.583823442459106 36.96437835693359 1.5 42.5 1.5 C 48.03562164306641 1.5 53.40486907958984 2.583823442459106 58.45858764648438 4.721364498138428 C 63.34066009521484 6.786305904388428 67.72553253173828 9.742764472961426 71.49137878417969 13.50862312316895 C 75.25723266601562 17.27447128295898 78.21369171142578 21.65934181213379 80.27863311767578 26.54141235351562 C 82.41617584228516 31.59512901306152 83.5 36.96437835693359 83.5 42.5 C 83.5 48.03562164306641 82.41617584228516 53.40486907958984 80.27863311767578 58.45858764648438 C 78.21369171142578 63.34066009521484 75.25723266601562 67.72553253173828 71.49137878417969 71.49137878417969 C 67.72553253173828 75.25723266601562 63.34066009521484 78.21369171142578 58.45858764648438 80.27863311767578 C 53.40486907958984 82.41617584228516 48.03562164306641 83.5 42.5 83.5 Z" stroke="none"/>
            <path d="M 42.5 3 C 37.16621398925781 3 31.99356079101562 4.043960571289062 27.125732421875 6.102882385253906 C 22.42246627807617 8.092185974121094 18.19785308837891 10.94070434570312 14.56928253173828 14.56928253173828 C 10.94070434570312 18.19785308837891 8.092185974121094 22.42246627807617 6.102882385253906 27.125732421875 C 4.043960571289062 31.99356079101562 3 37.16621398925781 3 42.5 C 3 47.83378601074219 4.043960571289062 53.00643920898438 6.102882385253906 57.87425231933594 C 8.092185974121094 62.57753372192383 10.94070434570312 66.80213165283203 14.56928253173828 70.43071746826172 C 18.19786834716797 74.05929565429688 22.42246627807617 76.90781402587891 27.125732421875 78.89711761474609 C 31.99356079101562 80.95603942871094 37.16621398925781 82 42.5 82 C 47.83378601074219 82 53.00642395019531 80.95603942871094 57.87425231933594 78.89711761474609 C 62.57753372192383 76.90781402587891 66.80213165283203 74.05929565429688 70.43071746826172 70.43071746826172 C 74.05929565429688 66.80213165283203 76.90781402587891 62.57753372192383 78.89711761474609 57.87425231933594 C 80.95603942871094 53.00642395019531 82 47.83378601074219 82 42.5 C 82 37.16621398925781 80.95603942871094 31.99356079101562 78.89711761474609 27.125732421875 C 76.90781402587891 22.42246627807617 74.05929565429688 18.19786834716797 70.43071746826172 14.56928253173828 C 66.80213165283203 10.94070434570312 62.57753372192383 8.092185974121094 57.87425231933594 6.102882385253906 C 53.00643920898438 4.043960571289062 47.83378601074219 3 42.5 3 M 42.5 0 C 65.97209167480469 0 85 19.02789306640625 85 42.5 C 85 65.97209167480469 65.97209167480469 85 42.5 85 C 19.02789306640625 85 0 65.97209167480469 0 42.5 C 0 19.02789306640625 19.02789306640625 0 42.5 0 Z" stroke="none" fill="#56838a"/>
          </g>
        </g>
      </g>
    </g>
    <g id="learning_1977832" transform="translate(190 3254.838)">
      <path id="Trazado_1026478" data-name="Trazado 1026478" d="M114.172,49.648h-2.453a1.355,1.355,0,0,1-1.282-.914,15.979,15.979,0,0,0-.976-2.257A1.341,1.341,0,0,1,109.7,44.9l1.714-1.7a4.027,4.027,0,0,0,0-5.707,4.1,4.1,0,0,0-5.748,0l-1.786,1.773a1.365,1.365,0,0,1-1.569.249,16.212,16.212,0,0,0-2.249-.914,1.349,1.349,0,0,1-.943-1.281V34.862a4.065,4.065,0,0,0-8.129,0v2.453a1.348,1.348,0,0,1-.942,1.281,16.206,16.206,0,0,0-2.292.935,1.365,1.365,0,0,1-1.572-.247L84.488,37.6a4.1,4.1,0,0,0-5.748,0,4.027,4.027,0,0,0,0,5.707l1.644,1.632a1.339,1.339,0,0,1,.241,1.575,15.974,15.974,0,0,0-1.007,2.368,1.354,1.354,0,0,1-1.286.925H76.095a4.036,4.036,0,1,0,0,8.071h3.189a15.974,15.974,0,0,0,1.767,4.272l-2.2,2.181a4.027,4.027,0,0,0,0,5.707,4.1,4.1,0,0,0,5.748,0l2.2-2.183a16.221,16.221,0,0,0,4.349,1.763v2.963A4.12,4.12,0,0,0,95.27,76.7a4.062,4.062,0,0,0,4.009-4.035V69.539a16.218,16.218,0,0,0,4.269-1.826l2.172,2.157a4.156,4.156,0,0,0,5.846.018,4.027,4.027,0,0,0-.039-5.668l-2.33-2.313a15.968,15.968,0,0,0,1.663-4.187h3.312a4.036,4.036,0,1,0,0-8.071Zm-19.12,15.09a10.785,10.785,0,1,1,10.863-10.785A10.824,10.824,0,0,1,95.052,64.738Z" transform="translate(-62.984 -7.576)" fill="#f9ef90"/>
      <path id="Trazado_1026479" data-name="Trazado 1026479" d="M72.009,214.123H86.361L87.6,218.4s-12.936-.557-14.493-1.524A3.817,3.817,0,0,1,72.009,214.123Z" transform="translate(-62.963 -167.854)" fill="#f4d37f"/>
      <path id="Trazado_1026480" data-name="Trazado 1026480" d="M331.4,214.123H317.049l-1.236,4.279s12.936-.557,14.493-1.524A3.816,3.816,0,0,0,331.4,214.123Z" transform="translate(-276.153 -167.854)" fill="#f4d37f"/>
      <path id="Trazado_1026481" data-name="Trazado 1026481" d="M179.718,129.1a10.785,10.785,0,1,0,10.863,10.785A10.824,10.824,0,0,0,179.718,129.1Zm0,16.423a5.638,5.638,0,1,1,5.678-5.638A5.658,5.658,0,0,1,179.718,145.527Z" transform="translate(-147.65 -93.512)" fill="#f7ad55"/>
      <path id="Trazado_1026482" data-name="Trazado 1026482" d="M168.847,214.123a9.9,9.9,0,0,0,.951,4.554h6.42a5.938,5.938,0,0,1-2.186-4.527Z" transform="translate(-147.642 -167.854)" fill="#f49634"/>
      <path id="Trazado_1026483" data-name="Trazado 1026483" d="M290.517,214.123a9.9,9.9,0,0,1-.951,4.554h-6.42a5.938,5.938,0,0,0,2.186-4.527Z" transform="translate(-247.588 -167.854)" fill="#f49634"/>
      <ellipse id="Elipse_12316" data-name="Elipse 12316" cx="6.659" cy="6.611" rx="6.659" ry="6.611" transform="translate(0.828 52.454)" fill="#f0c9bc"/>
      <ellipse id="Elipse_12317" data-name="Elipse 12317" cx="6.659" cy="6.611" rx="6.659" ry="6.611" transform="translate(50.153 52.454)" fill="#f0c9bc"/>
      <path id="Trazado_1026484" data-name="Trazado 1026484" d="M82.863,266.9H77.908a22.9,22.9,0,0,1-22.755-21.027v-6.383a3.468,3.468,0,0,1,3.467-3.469h43.533a3.467,3.467,0,0,1,3.465,3.469v6.383c-.579,11.243-10.24,21.027-22.755,21.027Z" transform="translate(-48.227 -187.005)" fill="#f5dbcd"/>
      <path id="Trazado_1026485" data-name="Trazado 1026485" d="M79.308,266.9h-1.4a22.9,22.9,0,0,1-22.755-21.027v-6.383a3.468,3.468,0,0,1,3.467-3.469H76.565C74.1,244.121,71.836,254.984,79.308,266.9Z" transform="translate(-48.227 -187.005)" fill="#f0c9bc"/>
      <ellipse id="Elipse_12318" data-name="Elipse 12318" cx="4.56" cy="3.605" rx="4.56" ry="3.605" transform="translate(13.29 57.594)" fill="#ec9eb0"/>
      <ellipse id="Elipse_12319" data-name="Elipse 12319" cx="4.56" cy="3.605" rx="4.56" ry="3.605" transform="translate(41.889 57.594)" fill="#ec9eb0"/>
      <ellipse id="Elipse_12320" data-name="Elipse 12320" cx="3.144" cy="3.696" rx="3.144" ry="3.696" transform="translate(29.092 56.067)" fill="#343941"/>
      <path id="Trazado_1026486" data-name="Trazado 1026486" d="M58.38,51.654a4.394,4.394,0,0,0-2.8-3.371,4.988,4.988,0,0,0-4.459-7.232H48.38A17.05,17.05,0,0,0,47.113,38.1l1.921-1.921a4.992,4.992,0,1,0-7.06-7.059l-1.989,1.989a17.046,17.046,0,0,0-2.927-1.2V27.154a4.992,4.992,0,1,0-9.983,0v2.761a17.03,17.03,0,0,0-2.97,1.22l-1.9-1.9a4.992,4.992,0,0,0-7.06,7.059L17,38.147A17.046,17.046,0,0,0,15.7,41.212H13.18a4.989,4.989,0,0,0-4.525,7.1,4.392,4.392,0,0,0-2.737,3.346A7.575,7.575,0,0,0,7.992,66.61q.3.653.636,1.292a25.555,25.555,0,0,0,7.063,8.337.942.942,0,0,0,1.14-1.5,23.657,23.657,0,0,1-6.538-7.718A21.529,21.529,0,0,1,7.742,57.011V52.366a2.463,2.463,0,0,1,2.46-2.46H54.1a2.463,2.463,0,0,1,2.46,2.46v4.645a22.067,22.067,0,0,1-22,22H29.741a21.694,21.694,0,0,1-9.063-1.966l-.651-.358a.942.942,0,0,0-.909,1.65l.682.375.062.031a23.565,23.565,0,0,0,9.879,2.151h4.815a23.713,23.713,0,0,0,16.868-7.015,24,24,0,0,0,5-7.265,7.575,7.575,0,0,0,1.959-14.96Zm.059,5.357V53.618a5.692,5.692,0,0,1-1.278,11.1A23.756,23.756,0,0,0,58.439,57.011ZM43.709,48.022a11.765,11.765,0,1,0-23.281,0H10.661A3.106,3.106,0,0,1,13.18,43.1h3.234a.942.942,0,0,0,.91-.7,15.164,15.164,0,0,1,1.658-3.921.942.942,0,0,0-.142-1.151l-2.359-2.359a3.108,3.108,0,0,1,4.4-4.4l2.4,2.4a.942.942,0,0,0,1.139.148,15.153,15.153,0,0,1,3.838-1.576.942.942,0,0,0,.707-.912V27.154a3.108,3.108,0,1,1,6.216,0v3.475a.942.942,0,0,0,.707.912,15.157,15.157,0,0,1,3.8,1.552.942.942,0,0,0,1.137-.15l2.489-2.489a3.108,3.108,0,0,1,4.4,4.4l-2.431,2.431a.942.942,0,0,0-.14,1.153,15.169,15.169,0,0,1,1.64,3.808.942.942,0,0,0,.908.691h3.439a3.106,3.106,0,0,1,2.394,5.088h-9.8Zm-16.034,0a4.716,4.716,0,1,1,8.787,0Zm4.394-8.309a6.6,6.6,0,0,0-6.374,8.309H22.338a9.881,9.881,0,1,1,19.461,0H38.442a6.6,6.6,0,0,0-6.374-8.309ZM5.859,53.618v3.393a22.927,22.927,0,0,0,1.369,7.715A5.692,5.692,0,0,1,5.859,53.618Z"/>
      <path id="Trazado_1026487" data-name="Trazado 1026487" d="M153.344,285.4a.942.942,0,0,0,.942-.942v-1.92a.942.942,0,1,0-1.884,0v1.92A.942.942,0,0,0,153.344,285.4Z" transform="translate(-133.263 -226.854)"/>
      <path id="Trazado_1026488" data-name="Trazado 1026488" d="M346.914,285.4a.942.942,0,0,0,.942-.942v-1.92a.942.942,0,0,0-1.884,0v1.92A.942.942,0,0,0,346.914,285.4Z" transform="translate(-302.524 -226.854)"/>
      <path id="Trazado_1026489" data-name="Trazado 1026489" d="M224.247,289.055a4.11,4.11,0,1,0,4.074-4.65A4.4,4.4,0,0,0,224.247,289.055Zm6.264,0a2.25,2.25,0,1,1-2.19-2.767A2.533,2.533,0,0,1,230.511,289.055Z" transform="translate(-196.086 -229.31)"/>
    </g>
  </g>
</svg>
