<svg xmlns="http://www.w3.org/2000/svg" xmlns:xlink="http://www.w3.org/1999/xlink" width="113" height="113" viewBox="0 0 113 113">
  <defs>
    <filter id="Trazado_982547" x="0" y="0" width="113" height="113" filterUnits="userSpaceOnUse">
      <feOffset dy="3" input="SourceAlpha"/>
      <feGaussianBlur stdDeviation="3" result="blur"/>
      <feFlood flood-opacity="0.161"/>
      <feComposite operator="in" in2="blur"/>
      <feComposite in="SourceGraphic"/>
    </filter>
  </defs>
  <g id="Grupo_1172678" data-name="Grupo 1172678" transform="translate(-272 -3672)">
    <g id="Grupo_1172138" data-name="Grupo 1172138" transform="translate(0.5 2373.855)">
      <g id="Grupo_1171046" data-name="Grupo 1171046" transform="translate(280.5 1304.145)">
        <g id="Grupo_1148525" data-name="Grupo 1148525" transform="translate(0)">
          <g transform="matrix(1, 0, 0, 1, -9, -6)" filter="url(#Trazado_982547)">
            <g id="Trazado_982547-2" data-name="Trazado 982547" transform="translate(9 6)" fill="#f4fdfe">
              <path d="M 47.5 93.5 C 41.28937149047852 93.5 35.26533508300781 92.28397369384766 29.59518623352051 89.88570404052734 C 24.11771965026855 87.56893157958984 19.19813346862793 84.25196075439453 14.97309303283691 80.02691650390625 C 10.74804019927979 75.80186462402344 7.431066513061523 70.88229370117188 5.114293098449707 65.40481567382812 C 2.716026782989502 59.73468017578125 1.5 53.71062850952148 1.5 47.5 C 1.5 41.28937149047852 2.716026782989502 35.26533508300781 5.114293098449707 29.59518623352051 C 7.431066513061523 24.11771965026855 10.74804019927979 19.19813346862793 14.97309303283691 14.97309303283691 C 19.19813346862793 10.74804019927979 24.11771965026855 7.431066513061523 29.59518623352051 5.114293098449707 C 35.26533508300781 2.716026782989502 41.28937149047852 1.5 47.5 1.5 C 53.71062850952148 1.5 59.73468017578125 2.716026782989502 65.40481567382812 5.114293098449707 C 70.88229370117188 7.431066513061523 75.80186462402344 10.74804019927979 80.02691650390625 14.97309303283691 C 84.25196075439453 19.19813346862793 87.56893157958984 24.11771965026855 89.88570404052734 29.59518623352051 C 92.28397369384766 35.26533508300781 93.5 41.28937149047852 93.5 47.5 C 93.5 53.71062850952148 92.28397369384766 59.73468017578125 89.88570404052734 65.40481567382812 C 87.56893157958984 70.88229370117188 84.25196075439453 75.80186462402344 80.02691650390625 80.02691650390625 C 75.80186462402344 84.25196075439453 70.88229370117188 87.56893157958984 65.40481567382812 89.88570404052734 C 59.73468017578125 92.28397369384766 53.71062850952148 93.5 47.5 93.5 Z" stroke="none"/>
              <path d="M 47.5 3 C 41.49121475219727 3 35.66376876831055 4.176155090332031 30.17950439453125 6.495796203613281 C 24.88084411621094 8.736953735351562 20.12152099609375 11.94598388671875 16.03375244140625 16.03375244140625 C 11.94598388671875 20.12152099609375 8.736953735351562 24.88084411621094 6.495796203613281 30.17950439453125 C 4.176155090332031 35.66376876831055 3 41.49121475219727 3 47.5 C 3 53.50878524780273 4.176155090332031 59.33623123168945 6.495796203613281 64.82049560546875 C 8.736953735351562 70.11915588378906 11.94598388671875 74.87847900390625 16.03375244140625 78.96624755859375 C 20.12152099609375 83.05401611328125 24.88084411621094 86.26304626464844 30.17950439453125 88.50419616699219 C 35.66376876831055 90.82384490966797 41.49121475219727 92 47.5 92 C 53.50878524780273 92 59.33623123168945 90.82384490966797 64.82049560546875 88.50419616699219 C 70.11915588378906 86.26304626464844 74.87847900390625 83.05401611328125 78.96624755859375 78.96624755859375 C 83.05401611328125 74.87847900390625 86.26304626464844 70.11915588378906 88.50419616699219 64.82049560546875 C 90.82384490966797 59.33623123168945 92 53.50878524780273 92 47.5 C 92 41.49121475219727 90.82384490966797 35.66376876831055 88.50419616699219 30.17950439453125 C 86.26304626464844 24.88084411621094 83.05401611328125 20.12152099609375 78.96624755859375 16.03375244140625 C 74.87847900390625 11.94598388671875 70.11915588378906 8.736953735351562 64.82049560546875 6.495796203613281 C 59.33623123168945 4.176155090332031 53.50878524780273 3 47.5 3 M 47.5 0 C 73.7335205078125 0 95 21.2664794921875 95 47.5 C 95 73.7335205078125 73.7335205078125 95 47.5 95 C 21.2664794921875 95 0 73.7335205078125 0 47.5 C 0 21.2664794921875 21.2664794921875 0 47.5 0 Z" stroke="none" fill="#56838a"/>
            </g>
          </g>
        </g>
      </g>
    </g>
    <g id="hand_9670445" transform="translate(290.5 3681.974)">
      <g id="Grupo_1172676" data-name="Grupo 1172676" transform="translate(7.5 15.026)">
        <path id="Trazado_1026861" data-name="Trazado 1026861" d="M67.434,51.668A4.863,4.863,0,0,1,64.8,56L57.79,59.6l-7.7,1.538-2.741,9.53a11.727,11.727,0,0,1-7.106,2.471H31.061a11.1,11.1,0,0,1-2.621-.314L17.352,52.419a12.6,12.6,0,0,0-2.178-3.443L8.447,41.413a4.541,4.541,0,0,1,7.187-5.551l5.635,7.294a.9.9,0,0,0,1.585-.8l-2.811-9.7L18.555,21.532a4.54,4.54,0,0,1,8.1,1.312l3.274,11.3,1.224,4.225a.9.9,0,0,0,1.773-.251V19.641a4.588,4.588,0,0,1,4.419-4.613,4.543,4.543,0,0,1,4.663,4.54V38.455a.9.9,0,0,0,1.766.276l5.714-17.826a4.541,4.541,0,0,1,8.865,1.386,4.347,4.347,0,0,1-.027.484L55.241,28.42l-.7,6.919a69.386,69.386,0,0,0-2.436,13.228l-.39.85L52,50.442l8.979-3.364a4.864,4.864,0,0,1,6.458,4.589Z" transform="translate(-7.5 -15.026)" fill="#ffd4bd"/>
        <path id="Trazado_1026862" data-name="Trazado 1026862" d="M36.519,106.256H31.061a11.1,11.1,0,0,1-2.621-.314L17.352,85.531a12.6,12.6,0,0,0-2.178-3.443L8.448,74.524a4.541,4.541,0,0,1,7.187-5.551l5.635,7.294a.9.9,0,0,0,1.585-.8l-2.811-9.7L18.556,54.644a4.54,4.54,0,0,1,8.1,1.312l3.274,11.3C26.431,74.111,21.219,90.022,36.519,106.256Z" transform="translate(-7.5 -48.138)" fill="#ffbf9d"/>
        <path id="Trazado_1026863" data-name="Trazado 1026863" d="M377.9,79.121a4.554,4.554,0,0,1-.191.9l-.613,1.909c-1.073,3.348-2.1,6.553-2.979,9.751a2.238,2.238,0,0,1-.7-1.19,2.269,2.269,0,0,0-1.227-1.539A2.267,2.267,0,0,1,371.4,85.5a2.27,2.27,0,0,0,.494-1.415,2.3,2.3,0,0,0-.057-.5,2.264,2.264,0,0,1,2.211-2.773,2.264,2.264,0,0,0,1.773-.854,2.256,2.256,0,0,1,1.773-.854A2.185,2.185,0,0,1,377.9,79.121Z" transform="translate(-327.075 -71.371)" fill="#99b2e9"/>
        <path id="Trazado_1026864" data-name="Trazado 1026864" d="M134.315,330.988a4.143,4.143,0,0,1-2.348,3.744c-.083.04-.164.082-.244.128l-5.7.361-5.234-16.074,5.088-.3a4.145,4.145,0,0,0,2.685.986,4.149,4.149,0,0,1,4.148,4.137,4.2,4.2,0,0,1-.106.931,4.15,4.15,0,0,0,.8,3.508A4.11,4.11,0,0,1,134.315,330.988Z" transform="translate(-107.13 -282.206)" fill="#fbf198"/>
        <path id="Trazado_1026865" data-name="Trazado 1026865" d="M103.926,319.294a4.148,4.148,0,0,0-2,2.685,4.107,4.107,0,0,1-1.653,2.466c-5.736-1.383-10.043-7.163-10.043-13.258v-1.96a13.1,13.1,0,0,0-1.046-5.193,4.336,4.336,0,0,0,.419-.174,4.144,4.144,0,0,0,1.442-1.151,4.146,4.146,0,0,1,6.483,0,4.2,4.2,0,0,0,.557.574A32.472,32.472,0,0,0,103.926,319.294Z" transform="translate(-79.332 -266.641)" fill="#f8ea69"/>
        <path id="Trazado_1026866" data-name="Trazado 1026866" d="M98.328,75.55a1.955,1.955,0,0,1-1.107,1.766,1.95,1.95,0,0,0-1.058,1.325A1.951,1.951,0,0,1,94.8,80.086l-2.109-7.277a4.532,4.532,0,0,1,.622-3.84,1.935,1.935,0,0,1,.779.587,1.958,1.958,0,0,0,1.529.736,1.952,1.952,0,0,1,1.906,2.389,1.985,1.985,0,0,0-.049.435,1.957,1.957,0,0,0,.427,1.219A1.939,1.939,0,0,1,98.328,75.55Z" transform="translate(-82.255 -62.463)" fill="#ff9c20"/>
        <path id="Trazado_1026867" data-name="Trazado 1026867" d="M314.347,350.942l-2.466,1.271a7.285,7.285,0,0,0-3.418,3.777,14.242,14.242,0,0,1-4.558,6.02,2.723,2.723,0,0,1-1.627-1.923,2.739,2.739,0,0,0-1.483-1.859,2.74,2.74,0,0,1-.953-4.178,2.736,2.736,0,0,0,.6-1.708,2.771,2.771,0,0,0-.069-.61,2.771,2.771,0,0,1-.07-.615,2.743,2.743,0,0,1,2.743-2.735,2.739,2.739,0,0,0,2.142-1.031,2.74,2.74,0,0,1,4.285,0,2.739,2.739,0,0,0,2.142,1.031A2.74,2.74,0,0,1,314.347,350.942Z" transform="translate(-264.058 -306.363)" fill="#73da8c"/>
      </g>
      <g id="Grupo_1172677" data-name="Grupo 1172677" transform="translate(7.5 15.026)">
        <path id="Trazado_1026868" data-name="Trazado 1026868" d="M11.811,45.195,8.448,41.413a4.541,4.541,0,0,1,7.187-5.551l5.635,7.294a.9.9,0,0,0,1.585-.8L17.933,25.372a4.541,4.541,0,1,1,8.722-2.528l4.5,15.523a.9.9,0,0,0,1.773-.251V19.641a4.588,4.588,0,0,1,4.419-4.613,4.542,4.542,0,0,1,4.663,4.54v6.592" transform="translate(-7.5 -15.026)" fill="none" stroke="#000" stroke-linecap="round" stroke-linejoin="round" stroke-miterlimit="10" stroke-width="1.5"/>
        <path id="Trazado_1026869" data-name="Trazado 1026869" d="M66.514,291.329a13.472,13.472,0,0,1,2.734,4.069,13.1,13.1,0,0,1,1.046,5.193v1.96c0,7.016,5.69,13.572,12.664,13.572h7.4" transform="translate(-59.397 -258.005)" fill="none" stroke="#000" stroke-linecap="round" stroke-linejoin="round" stroke-miterlimit="10" stroke-width="1.5"/>
        <path id="Trazado_1026870" data-name="Trazado 1026870" d="M293.624,50.245V58.32a.9.9,0,0,0,1.766.276L301.1,40.77a4.54,4.54,0,0,1,8.648,2.772c-2.065,6.9-5.68,16.022-6.14,26.765l8.979-3.364a4.863,4.863,0,0,1,3.822,8.916l-9.474,4.881a7.285,7.285,0,0,0-3.418,3.777,13.446,13.446,0,0,1-9.219,8.218" transform="translate(-259.116 -34.89)" fill="none" stroke="#000" stroke-linecap="round" stroke-linejoin="round" stroke-miterlimit="10" stroke-width="1.5"/>
        <path id="Trazado_1026871" data-name="Trazado 1026871" d="M270.492,303.778s-14.529-4.54-14.529,9.989" transform="translate(-225.997 -268.362)" fill="none" stroke="#000" stroke-linecap="round" stroke-linejoin="round" stroke-miterlimit="10" stroke-width="1.5"/>
        <path id="Trazado_1026872" data-name="Trazado 1026872" d="M374,91.571a2.235,2.235,0,0,1-.579-1.071,2.268,2.268,0,0,0-1.227-1.539A2.268,2.268,0,0,1,371.4,85.5a2.27,2.27,0,0,0,.494-1.415c0-.451-.115-.56-.115-1.013a2.269,2.269,0,0,1,2.269-2.263,2.266,2.266,0,0,0,1.773-.854,2.257,2.257,0,0,1,1.875-.851" transform="translate(-327.077 -71.377)" fill="none" stroke="#000" stroke-linecap="round" stroke-linejoin="round" stroke-miterlimit="10" stroke-width="1.5"/>
        <path id="Trazado_1026873" data-name="Trazado 1026873" d="M102.2,324.187a4.1,4.1,0,0,0,1.324-2.208,4.149,4.149,0,0,1,2.243-2.813,4.146,4.146,0,0,0,1.442-6.32,4.141,4.141,0,0,1-.9-2.585c0-.827.21-1.034.21-1.855a4.149,4.149,0,0,0-4.148-4.137,4.146,4.146,0,0,1-3.242-1.561,4.146,4.146,0,0,0-6.483,0A4.128,4.128,0,0,1,91,303.948" transform="translate(-80.933 -266.641)" fill="none" stroke="#000" stroke-linecap="round" stroke-linejoin="round" stroke-miterlimit="10" stroke-width="1.5"/>
        <path id="Trazado_1026874" data-name="Trazado 1026874" d="M102.812,81.077a1.943,1.943,0,0,0,1.228-1.4,1.951,1.951,0,0,1,1.058-1.325,1.955,1.955,0,0,0,.68-2.98,1.957,1.957,0,0,1-.427-1.219c0-.384.1-.486.1-.873a1.956,1.956,0,0,0-1.955-1.951,1.958,1.958,0,0,1-1.529-.736,1.94,1.94,0,0,0-.5-.445" transform="translate(-90.131 -63.501)" fill="none" stroke="#000" stroke-linecap="round" stroke-linejoin="round" stroke-miterlimit="10" stroke-width="1.5"/>
        <path id="Trazado_1026875" data-name="Trazado 1026875" d="M303.609,361.866a2.723,2.723,0,0,1-1.329-1.779,2.742,2.742,0,0,0-1.483-1.859,2.742,2.742,0,0,1-.953-4.178,2.736,2.736,0,0,0,.6-1.708c0-.545-.139-.682-.139-1.225a2.743,2.743,0,0,1,2.743-2.735,2.741,2.741,0,0,0,2.142-1.031,2.74,2.74,0,0,1,4.285,0,2.74,2.74,0,0,0,2.142,1.031,2.741,2.741,0,0,1,2.705,2.294" transform="translate(-264.059 -306.363)" fill="none" stroke="#000" stroke-linecap="round" stroke-linejoin="round" stroke-miterlimit="10" stroke-width="1.5"/>
      </g>
    </g>
  </g>
</svg>
