<svg xmlns="http://www.w3.org/2000/svg" xmlns:xlink="http://www.w3.org/1999/xlink" width="400" height="332" viewBox="0 0 400 332">
  <defs>
    <clipPath id="clip-path">
      <rect id="Rect치ngulo_414592" data-name="Rect치ngulo 414592" width="400" height="332" transform="translate(180 4290)" fill="#fff" stroke="#707070" stroke-width="1"/>
    </clipPath>
    <clipPath id="clip-path-2">
      <rect id="Rect치ngulo_414586" data-name="Rect치ngulo 414586" width="458" height="305" transform="translate(0 -0.126)"/>
    </clipPath>
  </defs>
  <g id="Enmascarar_grupo_1098722" data-name="Enmascarar grupo 1098722" transform="translate(-180 -4290)" clip-path="url(#clip-path)">
    <g id="Grupo_1172799" data-name="Grupo 1172799">
      <g id="Grupo_1172753" data-name="Grupo 1172753" transform="translate(2991.796 -654.538)">
        <g id="OBJECTS" transform="translate(-2855.796 4971.664)">
          <path id="Trazado_1026977" data-name="Trazado 1026977" d="M452.533,57.776c-35.062,15.742-60.953,44.259-56.586,75.539s31.579,58.722,65.743,75.62,74.654,24.422,114.859,28.259c44.218,4.218,90.341,4.109,131.784-8.585s77.511-39.878,85.661-73.906-18.245-73.076-61.62-80.954c-22.109-4.014-45.307-.082-67.919-1.714-33.715-2.449-63.7-16.953-95.648-25.687S495.4,38.524,452.533,57.776Z" transform="translate(-351.467 65.193)" fill="#edf3fc"/>
          <g id="Grupo_1172732" data-name="Grupo 1172732" transform="translate(0 0)">
            <g id="Grupo_1172731" data-name="Grupo 1172731" transform="translate(0)" clip-path="url(#clip-path-2)">
              <g id="Grupo_1172721" data-name="Grupo 1172721" transform="translate(44.131 219.075)">
                <path id="Trazado_1026978" data-name="Trazado 1026978" d="M254.355,420.989c-5.963,17.711-20.356,39.02-26.6,55.161a190.374,190.374,0,0,1-23.808.2c-10.642-.458-20.509-1.332-26.465-1.338,9.567-17.069,14.07-25.195,20.466-42.2-18.774-3.1-32.538-5.932-48.147-9.133.086.342.177.678.263,1.02a.008.008,0,0,0,0,.012c5.022,19.69,11.119,40.315,14.558,58.515-17.13,3.006-28.866,2.431-48.716,2.3C103.914,457.81,76.159,425.895,72.842,386.1a92.5,92.5,0,0,1,1.595-26.539c28.555,5.834,55.3,11.131,82.139,15.072,1.362.2,2.719.4,4.081.587,32.569,6.653,57.7,8.81,85.194,21.535C254.66,400.828,257.452,411.8,254.355,420.989Z" transform="translate(-72.514 -359.56)" fill="#6f4659"/>
                <g id="Grupo_1172719" data-name="Grupo 1172719">
                  <path id="Trazado_1026979" data-name="Trazado 1026979" d="M251.741,459.854a39.049,39.049,0,0,0,21.211-.611,37.406,37.406,0,0,1-21.462,9.512c-7.148,10.594-7.423,25.158-1.5,36.393-10.642-.458-20.509-1.332-26.465-1.338,9.567-17.069,14.07-25.195,20.466-42.2-18.774-3.1-32.538-5.932-48.147-9.133.086.342.177.678.263,1.02-2.291-9.164-4.026-13.935-5.254-19.9,27.278,9.94,56.364,20.026,84.754,13.929A39.515,39.515,0,0,1,251.741,459.854Z" transform="translate(-118.555 -388.363)" fill="#694056"/>
                  <path id="Trazado_1026980" data-name="Trazado 1026980" d="M165.978,377.925c-14.754,11.376-34.12,15.426-52.742,14.809-13.666-.452-27.107-3.22-40.395-6.635a92.5,92.5,0,0,1,1.595-26.539c28.555,5.834,55.3,11.131,82.139,15.072Q161.24,376.171,165.978,377.925Z" transform="translate(-72.514 -359.56)" fill="#694056"/>
                </g>
                <g id="Grupo_1172720" data-name="Grupo 1172720" transform="translate(7.977 14.742)">
                  <path id="Trazado_1026981" data-name="Trazado 1026981" d="M187.9,403.56c.342,5.162,3.122,9.793,5.205,14.528s3.458,10.38,1.045,14.956" transform="translate(-125.385 -391.421)" fill="none" stroke="#4d2c43" stroke-miterlimit="10" stroke-width="1"/>
                  <path id="Trazado_1026982" data-name="Trazado 1026982" d="M201.059,400.53c.024,3.4,1.478,6.616,2.816,9.744s2.627,6.451,2.3,9.836-2.792,6.818-6.183,7.075" transform="translate(-130.089 -390.242)" fill="none" stroke="#4d2c43" stroke-miterlimit="10" stroke-width="1"/>
                  <path id="Trazado_1026983" data-name="Trazado 1026983" d="M87.526,383.69c-.4,2-.806,4-1.228,6.018a35.156,35.156,0,0,0,1.277,18.8,499.41,499.41,0,0,0,38.409,83.7" transform="translate(-85.572 -383.69)" fill="none" stroke="#4d2c43" stroke-miterlimit="10" stroke-width="1"/>
                  <path id="Trazado_1026984" data-name="Trazado 1026984" d="M101.062,389.46a41.264,41.264,0,0,0,.116,10.63,16.192,16.192,0,0,1-7.838,16.5c-.073.043-.147.086-.22.122" transform="translate(-88.509 -385.935)" fill="none" stroke="#4d2c43" stroke-miterlimit="10" stroke-width="1"/>
                  <path id="Trazado_1026985" data-name="Trazado 1026985" d="M282.14,471.053a41.854,41.854,0,0,0,27.028-11.583" transform="translate(-162.051 -413.174)" fill="none" stroke="#4d2c43" stroke-linecap="round" stroke-miterlimit="10" stroke-width="1"/>
                  <path id="Trazado_1026986" data-name="Trazado 1026986" d="M283.89,484.43a30.388,30.388,0,0,0,25.1.507" transform="translate(-162.732 -422.885)" fill="none" stroke="#4d2c43" stroke-linecap="round" stroke-miterlimit="10" stroke-width="1"/>
                </g>
              </g>
              <g id="Grupo_1172726" data-name="Grupo 1172726" transform="translate(42.875 87.756)">
                <g id="Grupo_1172725" data-name="Grupo 1172725" transform="translate(1.178)">
                  <path id="Trazado_1026987" data-name="Trazado 1026987" d="M313.658,271.847q-33.155.8-66.261,3.171a48.8,48.8,0,0,1-20.5-2.939,442.9,442.9,0,0,1-44-18.847,211.865,211.865,0,0,1-18.334,28.323c0,10.422,2.132,15.371,0,23.209C148.694,315.424,93.949,318.876,72.4,296.6c-.44-29.758,9.854-65.253,24.058-88.86a37.627,37.627,0,0,1,11.107-11.705c15.133-10.313,30.021-16.593,48.612-17.906,8.663,3.165,17.442,6.4,25.024,11.766,3.653,2.59,7.417,4.814,10.6,7.679,17.405,9.665,34.829,19.367,53.322,30.846a39.634,39.634,0,0,0,16.843,5.755,308.98,308.98,0,0,0,49.644,1.081C311.672,245.717,313.187,258.76,313.658,271.847Z" transform="translate(-72.388 -157.652)" fill="#4fc2f7"/>
                  <g id="Grupo_1172723" data-name="Grupo 1172723" transform="translate(72.526 53.615)">
                    <path id="Trazado_1026988" data-name="Trazado 1026988" d="M211.53,232.37c-1.564,23.368-7.8,46.406-17.088,68.094a31.042,31.042,0,0,0-2.364,9.06,185.543,185.543,0,0,0-.861,25.531" transform="translate(-191.102 -232.37)" fill="none" stroke="#3377c4" stroke-miterlimit="10" stroke-width="1"/>
                    <g id="Grupo_1172722" data-name="Grupo 1172722" transform="translate(2.222 12.237)">
                      <circle id="Elipse_12359" data-name="Elipse 12359" cx="1.924" cy="1.924" r="1.924" transform="translate(9.732)" fill="#dbfdff"/>
                      <circle id="Elipse_12360" data-name="Elipse 12360" cx="1.924" cy="1.924" r="1.924" transform="translate(6.073 20.185)" fill="#dbfdff"/>
                      <circle id="Elipse_12361" data-name="Elipse 12361" cx="1.924" cy="1.924" r="1.924" transform="translate(0 37.181)" fill="#dbfdff"/>
                    </g>
                  </g>
                  <g id="Grupo_1172724" data-name="Grupo 1172724" transform="translate(52.951)">
                    <path id="Trazado_1026989" data-name="Trazado 1026989" d="M188.93,144.61c-1.277,8.577-7.7,19.33-13.19,25.537,3.678,13.758,15.469,26.484,29.282,27.034,7.435-4.588,10.215-21.1,13.4-30.8A184.121,184.121,0,0,0,188.93,144.61Z" transform="translate(-165.55 -144.61)" fill="#f29274"/>
                    <path id="Trazado_1026990" data-name="Trazado 1026990" d="M239.478,197.743a30.747,30.747,0,0,0-8.052-.7c-.244,7.459-3.44,14.785-8.156,20.668,6.14-3.653,16.1-2.291,20.827,3.067C244.781,211.4,243.577,205.508,239.478,197.743Z" transform="translate(-184.042 -164.997)" fill="#8fecff"/>
                    <path id="Trazado_1026991" data-name="Trazado 1026991" d="M198.288,210.4c-11.253-5.663-24.065-18.175-25.549-32.165-5.755.159-12.133,3.049-13.679,7.7,2.407,10.734,6.335,21.987,12.176,31.31C176.594,209.125,187.01,208.746,198.288,210.4Z" transform="translate(-159.06 -157.691)" fill="#8fecff"/>
                  </g>
                  <path id="Trazado_1026992" data-name="Trazado 1026992" d="M252.72,270.7a98.337,98.337,0,0,0,10.868-47.775,67.957,67.957,0,0,1-3.091,35.739,66.225,66.225,0,0,0,15.872-18.847A78.619,78.619,0,0,1,252.72,270.7Z" transform="translate(-142.55 -175.082)" fill="#3fa6eb"/>
                </g>
                <path id="Trazado_1026993" data-name="Trazado 1026993" d="M168.465,380.037q-2.016-2.786-4.026-5.578c-29.367,13.941-65.877,12-93.069-4.209a46.083,46.083,0,0,0-.91,7.411c6.3,6.58,15.573,9.237,24.456,11.235,12.353,2.78,24.987,4.82,37.639,4.289S157.963,389.433,168.465,380.037Z" transform="translate(-70.46 -232.4)" fill="#39324f"/>
              </g>
              <g id="Grupo_1172730" data-name="Grupo 1172730" transform="translate(99.941 22.222)">
                <path id="Trazado_1026994" data-name="Trazado 1026994" d="M292.509,139.94c2.8.079,5.065,2.615,5.663,5.346s-.122,5.578-1.094,8.2a20.8,20.8,0,0,1-4.777,7.985,10.246,10.246,0,0,1-8.541,3.006" transform="translate(-210.514 -77.259)" fill="#f29274"/>
                <g id="Grupo_1172727" data-name="Grupo 1172727" transform="translate(5.167)">
                  <path id="Trazado_1026995" data-name="Trazado 1026995" d="M261.261,77.93a57.668,57.668,0,0,1-23.325,37.627L172.6,97.376c-.794-7.362.3-26.527,1.417-33.852a26.5,26.5,0,0,1,2.444-8.5,11.232,11.232,0,0,1,6.5-5.706,72.345,72.345,0,0,1,12.64-6.977,57.984,57.984,0,0,1,30.95-4.478c14.992,2.138,29.2,11.571,35.245,26.667A53.759,53.759,0,0,1,261.261,77.93Z" transform="translate(-172.326 -37.34)" fill="#a83246"/>
                  <path id="Trazado_1026996" data-name="Trazado 1026996" d="M276.091,77.93a52.31,52.31,0,0,0-65.65-35.587,57.984,57.984,0,0,1,30.95-4.478c14.992,2.138,29.2,11.571,35.245,26.667A54.35,54.35,0,0,1,276.091,77.93Z" transform="translate(-187.155 -37.34)" fill="#cc4e56"/>
                </g>
                <g id="Grupo_1172728" data-name="Grupo 1172728" transform="translate(0 26.575)">
                  <path id="Trazado_1026997" data-name="Trazado 1026997" d="M251.849,95.258a62.375,62.375,0,0,1-9.237,32.159c.031,16.012-13.367,27.84-27.877,31.512a12.709,12.709,0,0,1-9.109-1.069c-12.457-6.616-24.046-18.811-30.876-32.605-20.869,2.56-7.472-42,4.93-16.959l-1.271,8.632a95.314,95.314,0,0,0,9.518-11.174.133.133,0,0,0,.018-.031,131.843,131.843,0,0,0,13.99-24.883,85.143,85.143,0,0,0,24.132.843,59.719,59.719,0,0,1-14.558,4.7c11.266,6.635,25.946,7.02,39.894,1.662A54.645,54.645,0,0,1,251.849,95.258Z" transform="translate(-163.868 -80.84)" fill="#f9af88"/>
                  <path id="Trazado_1026998" data-name="Trazado 1026998" d="M267.187,95.266a10.215,10.215,0,0,0-1.552-3.7,41.467,41.467,0,0,1-42.551-2.914c-1.521-.794-3.928-.641-6.329-.483a107.472,107.472,0,0,1-13.465,17.576A131.841,131.841,0,0,0,217.28,80.86a85.143,85.143,0,0,0,24.132.843,59.718,59.718,0,0,1-14.558,4.7c11.266,6.635,25.946,7.02,39.894,1.662A55.369,55.369,0,0,1,267.187,95.266Z" transform="translate(-179.206 -80.848)" fill="#f29274"/>
                </g>
                <g id="Grupo_1172729" data-name="Grupo 1172729" transform="translate(34.06 49.862)">
                  <path id="Trazado_1026999" data-name="Trazado 1026999" d="M219.62,126.119a11.062,11.062,0,0,1,19.867-1.747A18.266,18.266,0,0,0,219.62,126.119Z" transform="translate(-219.62 -118.956)" fill="#a83246"/>
                  <path id="Trazado_1027000" data-name="Trazado 1027000" d="M283.05,123.247a17.711,17.711,0,0,1,5.9-3.507,8.311,8.311,0,0,1,6.6.483,5.926,5.926,0,0,1,2.951,5.828,8.686,8.686,0,0,0-7.117-3.751C288.6,122.172,285.848,122.954,283.05,123.247Z" transform="translate(-244.299 -119.084)" fill="#a83246"/>
                  <path id="Trazado_1027001" data-name="Trazado 1027001" d="M237.04,152.307a2.3,2.3,0,1,1,1.76,3.038A2.5,2.5,0,0,1,237.04,152.307Z" transform="translate(-226.378 -131.053)" fill="#2d3b54"/>
                  <path id="Trazado_1027002" data-name="Trazado 1027002" d="M276.422,153.665a2.3,2.3,0,1,1,1.76,3.038A2.5,2.5,0,0,1,276.422,153.665Z" transform="translate(-241.7 -131.581)" fill="#2d3b54"/>
                  <path id="Trazado_1027003" data-name="Trazado 1027003" d="M267.04,144.42a27.55,27.55,0,0,0-2,14.229q-2.016,2.117-4.032,4.228" transform="translate(-235.724 -128.864)" fill="none" stroke="#d14f58" stroke-linecap="round" stroke-miterlimit="10" stroke-width="1"/>
                  <path id="Trazado_1027004" data-name="Trazado 1027004" d="M250.289,177.924a33.056,33.056,0,0,1-15.212-6.464,7.211,7.211,0,0,0-.562,8.315,9.51,9.51,0,0,0,8.272,4.105A7.723,7.723,0,0,0,250.289,177.924Z" transform="translate(-225.003 -139.384)" fill="#fff"/>
                </g>
              </g>
            </g>
          </g>
          <g id="Grupo_1172748" data-name="Grupo 1172748" transform="translate(0 0)">
            <g id="Grupo_1172747" data-name="Grupo 1172747" transform="translate(0)" clip-path="url(#clip-path-2)">
              <g id="Grupo_1172733" data-name="Grupo 1172733" transform="translate(335.468 211.386)">
                <path id="Trazado_1027005" data-name="Trazado 1027005" d="M597.7,423.215a13.522,13.522,0,0,1-1.515,1.949c-4.448,4.851-11.846,6.482-18.6,6.665-7.594.208-15.426-.825-22.617,1.619-6.427-22.415-9.518-45.789,3.214-83.789,6.238-1.509,12.6-3.036,19.012-2.615a26.5,26.5,0,0,1,7.551,1.6,18.712,18.712,0,0,1,9.048,6.818c3.11,4.576,3.6,10.38,4,15.9q1.237,16.981,2.474,33.974C600.714,411.449,601.038,418.065,597.7,423.215Z" transform="translate(-549.39 -346.974)" fill="#24758a"/>
                <path id="Trazado_1027006" data-name="Trazado 1027006" d="M616.647,424.284a13.53,13.53,0,0,1-1.515,1.949,10.592,10.592,0,0,1-6.83-3.366c-2.633-2.969-3.256-7.166-3.763-11.107q-3.033-23.5-6.054-46.993c-.556-4.338-.965-9.231,1.827-12.6a8.385,8.385,0,0,1,3.378-2.45,18.712,18.712,0,0,1,9.048,6.818c3.11,4.576,3.6,10.38,4,15.9q1.237,16.981,2.474,33.974C619.659,412.517,619.982,419.134,616.647,424.284Z" transform="translate(-568.334 -348.042)" fill="#3ba3b3" opacity="0.6"/>
              </g>
              <g id="Grupo_1172734" data-name="Grupo 1172734" transform="translate(204.219 155.527)">
                <path id="Trazado_1027007" data-name="Trazado 1027007" d="M355.776,302.032c20.552,11.217,48.948,23.765,73.171,38.837,1.3-9.592,2.945-17.79,4.6-25.983-24.6-11.791-50.78-21.633-74.631-31.359q-1.127-12.371-3.354-24.6c-.183-1.014-.5-2.187-1.466-2.572a2.163,2.163,0,0,0-2.554,1.265,6.209,6.209,0,0,0-.318,3.073,95.766,95.766,0,0,1,.281,11.895q-3.116-6.479-6.232-12.964c-.794-1.656-1.784-3.482-3.562-4s-4.014,1.588-2.871,3.036c-1.46-.7-3.269.434-3.892,1.924a8.907,8.907,0,0,0-.141,4.759q1.4,9.1,2.8,18.206c.739,4.808,1.558,9.811,4.393,13.77A12.414,12.414,0,0,0,355.776,302.032Z" transform="translate(-334.555 -255.541)" fill="#f7a881"/>
                <path id="Trazado_1027008" data-name="Trazado 1027008" d="M361.854,284.217a164.313,164.313,0,0,0-4.576-17.8c-.519-1.631-1.546-3.592-3.262-3.439a2.588,2.588,0,0,0-2,1.588,6.749,6.749,0,0,0-.452,2.609,48.153,48.153,0,0,0,1.063,10.991,18.936,18.936,0,0,0-1.759,19.959" transform="translate(-340.101 -258.43)" fill="#f7a881" stroke="#de6257" stroke-miterlimit="10" stroke-width="1"/>
              </g>
              <g id="Grupo_1172735" data-name="Grupo 1172735" transform="translate(282.03 268.096)">
                <path id="Trazado_1027009" data-name="Trazado 1027009" d="M573.122,490.758c-10.2,5.468-20.741,10.294-32.007,15.86-5.694-10.551-12.866-20.313-23.154-28.732l-.1-.085a72.793,72.793,0,0,0-13.923,25.3v.006c-.617,1.949-1.136,3.922-1.582,5.92-14.717-1.918-29.221-5.443-40.431-10.087a256.82,256.82,0,0,1,19.519-44.732c.629-1.124,1.277-2.242,1.937-3.366s1.35-2.248,2.041-3.372c2.12-.183,4.246-.391,6.366-.617,15.041-1.595,30.314-4.1,48.111-7.056a209.848,209.848,0,0,1,13.679,16.538A156.761,156.761,0,0,1,573.122,490.758Z" transform="translate(-461.92 -439.8)" fill="#38324f"/>
                <path id="Trazado_1027010" data-name="Trazado 1027010" d="M493.86,454.212c19.11,10.4,43.761,9.952,62.437-1.491a28.6,28.6,0,0,1,9.7,3.617A209.853,209.853,0,0,0,552.314,439.8c-17.8,2.957-33.07,5.462-48.111,7.056-2.535,1.112-5.309,2.413-8.406,3.989" transform="translate(-474.347 -439.8)" fill="#2c2845"/>
                <path id="Trazado_1027011" data-name="Trazado 1027011" d="M544.713,497.183l-.1-.086a72.794,72.794,0,0,0-13.923,25.3c-.116-10.978,1.381-22.073,2.89-33a25.693,25.693,0,0,0,11.064,7.105C544.67,496.731,544.688,496.951,544.713,497.183Z" transform="translate(-488.672 -459.098)" fill="#2c2845"/>
              </g>
              <path id="Trazado_1027012" data-name="Trazado 1027012" d="M647.586,386.1a101.838,101.838,0,0,0-47.469-14.907c-.794,7.276-1.588,14.559-2.487,22.69a137.137,137.137,0,0,1,48.306,11.968q1.6,3.831,3.2,7.661a4.824,4.824,0,0,0,1.478,2.236c1.821,1.271,4.466-.678,4.71-2.884s-1.02-4.264-2.236-6.121q8.944-2.8,17.894-5.614c1.527-.477,3.427-1.674,2.835-3.158-.44-1.1-1.912-1.246-3.1-1.216q-4,.11-8,.226a30.661,30.661,0,0,0,8.693-6.451c.715-.764,1.436-1.827.99-2.774-.538-1.13-2.163-1.008-3.366-.672a55.4,55.4,0,0,0-8.865,3.348,24.5,24.5,0,0,0,5.205-8.577c.348-.984.544-2.291-.312-2.9-.9-.641-2.108.061-2.975.745q-3.812,3.015-7.631,6.03c1.332-1.35,2.731-2.822,3.042-4.692s.055-3.629-1.827-3.415a4.256,4.256,0,0,0-2.456,1.546A38.988,38.988,0,0,0,647.586,386.1Z" transform="translate(-232.691 -145.01)" fill="#f9af88"/>
              <g id="Grupo_1172742" data-name="Grupo 1172742" transform="translate(275.44 199.306)">
                <g id="Grupo_1172738" data-name="Grupo 1172738">
                  <g id="Grupo_1172736" data-name="Grupo 1172736">
                    <path id="Trazado_1027013" data-name="Trazado 1027013" d="M556.633,352.193c-.428,8.81-2.206,18.035-4.173,27.04-.409,1.924-.843,3.831-1.271,5.73-5.773-1.039-11.748-1.918-17.919-3.067,2.419,5.364,4.6,10.331,6.054,14.088-6.439,9.628-17.2,16.2-29.184,18.462a54.5,54.5,0,0,1-35.648-5.6c-.2-2.8-.44-5.682-.7-8.608-.758-8.449-1.686-17.271-2.279-25.836-6.855-3.262-13.679-6.415-20.375-9.176a112.756,112.756,0,0,1,6.293-38.03q6.4,1.393,12.8,2.792l4.484,22.507,44.977-1.24c.134.36.287.727.44,1.106.128-2.566.275-5.23.434-8.046A182.127,182.127,0,0,1,556.633,352.193Z" transform="translate(-451.134 -327.2)" fill="#ed5f72"/>
                  </g>
                  <g id="Grupo_1172737" data-name="Grupo 1172737" transform="translate(22.47 21.81)">
                    <path id="Trazado_1027014" data-name="Trazado 1027014" d="M530.988,388.236a17.116,17.116,0,0,0-17.583-.495,30.823,30.823,0,0,0-24.743,7.826c-.868-4.454-1.564-9.622,1.405-13.056,1.778-2.053,4.49-2.975,7.075-3.806,5.492-1.753,11.07-3.464,16.825-3.782S525.765,375.81,530.988,388.236Z" transform="translate(-487.914 -367.562)" fill="#e65372"/>
                    <path id="Trazado_1027015" data-name="Trazado 1027015" d="M565.619,398.853c-5.773-1.039-11.748-1.918-17.919-3.067,2.419,5.364,4.6,10.331,6.054,14.088-6.439,9.628-17.2,16.2-29.184,18.462a54.5,54.5,0,0,1-35.648-5.6c-.2-2.8-.44-5.682-.7-8.608,14.949,8.168,34.86,6.885,48.325-3.708a38.238,38.238,0,0,1-5.859-33.161c7.056-5.993,15.426-10.569,24.138-14.363a19.318,19.318,0,0,0,12.054,30.223C566.474,395.047,566.046,396.953,565.619,398.853Z" transform="translate(-488.033 -362.9)" fill="#e65372"/>
                  </g>
                </g>
                <g id="Grupo_1172739" data-name="Grupo 1172739" transform="translate(62.803 12.451)">
                  <path id="Trazado_1027016" data-name="Trazado 1027016" d="M564.02,420.738a24.359,24.359,0,0,0,23.551,17.717c0-1.766-.006-3.525-.006-5.291-5.712-.88-12.762-7.5-13.068-13.1C571.541,420.891,566.843,421.667,564.02,420.738Z" transform="translate(-557.858 -375.78)" fill="#1a4c5e"/>
                  <path id="Trazado_1027017" data-name="Trazado 1027017" d="M568.423,347.58a35.872,35.872,0,0,0-13.96,22.4,36.668,36.668,0,0,0,5.511,26.209,35.991,35.991,0,0,0,12.7-.806,43.386,43.386,0,0,1,10.569-39.539C580.079,351.747,575.021,349.181,568.423,347.58Z" transform="translate(-553.933 -347.58)" fill="#389f9e"/>
                </g>
                <g id="Grupo_1172740" data-name="Grupo 1172740" transform="translate(14.337 16.043)">
                  <path id="Trazado_1027018" data-name="Trazado 1027018" d="M481.2,420.02a53.505,53.505,0,0,0,4.8,23.6c.067-7.557,1.521-15.744,2.468-23.252C486.665,420.466,483.928,421.193,481.2,420.02Z" transform="translate(-477.159 -379.357)" fill="#1a4c5e"/>
                  <path id="Trazado_1027019" data-name="Trazado 1027019" d="M478.956,353.46a66.992,66.992,0,0,0-1.216,43.987c4.02.067,8.034.141,11.993.214a59.623,59.623,0,0,1,5.724-36.2c.672-1.32,1.362-3.036.4-4.16a3.714,3.714,0,0,0-1.918-.953A89.03,89.03,0,0,0,478.956,353.46Z" transform="translate(-474.601 -353.46)" fill="#389f9e"/>
                </g>
                <g id="Grupo_1172741" data-name="Grupo 1172741" transform="translate(25.144 19.819)">
                  <path id="Trazado_1027020" data-name="Trazado 1027020" d="M504.08,368.269a32.542,32.542,0,0,0,15.676,11.944,54.485,54.485,0,0,0,11.3-16.923A139.811,139.811,0,0,0,504.08,368.269Z" transform="translate(-496.878 -361.06)" fill="#f29274"/>
                  <path id="Trazado_1027021" data-name="Trazado 1027021" d="M537.124,361.626c-1.552,6.1-4.423,11.87-7.484,17.448a26.565,26.565,0,0,1,21.26.367,73.381,73.381,0,0,0-1.79-19.8A88.594,88.594,0,0,0,537.124,361.626Z" transform="translate(-506.823 -359.64)" fill="#ffdee0"/>
                  <path id="Trazado_1027022" data-name="Trazado 1027022" d="M515.433,381.969A30.981,30.981,0,0,1,501.626,367.4a11.869,11.869,0,0,1-9.036-.018,128.658,128.658,0,0,0,.257,20.7C498.724,384.26,505.719,382.171,515.433,381.969Z" transform="translate(-492.291 -362.651)" fill="#ffdee0"/>
                </g>
              </g>
              <g id="Grupo_1172746" data-name="Grupo 1172746" transform="translate(273.466 140.907)">
                <g id="Grupo_1172743" data-name="Grupo 1172743" transform="translate(2.92)">
                  <path id="Trazado_1027023" data-name="Trazado 1027023" d="M542.86,288.531a28.964,28.964,0,0,1-18.377,22.427l-62.449-20.5a25.18,25.18,0,0,1-4.82-28.885c-1.772.733-3.9-.758-4.38-2.566a5.179,5.179,0,0,1-.122-.672,8.07,8.07,0,0,1,1.271-4.68c2.853-5.113,7.856-9.066,15.273-11.107,5.5-5.987,13.673-9.188,21.89-10.337s16.593-.434,24.877.281c2.572.226,5.37.544,7.215,2.3a3.976,3.976,0,0,1,1,1.588c.642,1.808.11,4.038-1.747,4.564,5.871.843,12.06,1.808,16.642,5.468s6.58,10.978,2.5,15.121a15.084,15.084,0,0,1,10.154,13.147A14.779,14.779,0,0,1,542.86,288.531Z" transform="translate(-452.681 -231.611)" fill="#803d26"/>
                  <path id="Trazado_1027024" data-name="Trazado 1027024" d="M524.233,236.382a82.848,82.848,0,0,0-24.541-1.937c-10.38.947-20.759,4.851-28,12.347a27.433,27.433,0,0,0-18.982,11.547,8.07,8.07,0,0,1,1.271-4.68c2.853-5.113,7.857-9.066,15.273-11.107,5.5-5.987,13.673-9.188,21.89-10.337s16.593-.434,24.877.281c2.572.226,5.37.544,7.215,2.3A4.032,4.032,0,0,1,524.233,236.382Z" transform="translate(-452.681 -231.611)" fill="#945432"/>
                </g>
                <path id="Trazado_1027025" data-name="Trazado 1027025" d="M461.2,322.475c-1.674-2.633-5.608-3.22-8.364-1.741a10.123,10.123,0,0,0-4.808,7.624A11.016,11.016,0,0,0,450,336.685a7.734,7.734,0,0,0,7.85,2.835" transform="translate(-447.903 -265.977)" fill="#f29274"/>
                <g id="Grupo_1172744" data-name="Grupo 1172744" transform="translate(6.118 21.871)">
                  <path id="Trazado_1027026" data-name="Trazado 1027026" d="M538.7,323.072a15.446,15.446,0,0,1-5.779,6.549,17.3,17.3,0,0,1-9.378,3.391c-3.378.037-6.9-1.533-8.535-4.466-12,4.723-22.928,6.5-33.564,6.012a13.045,13.045,0,0,1-6.476-2.12c-7.148-4.625-11.931-8.486-14.8-13.74-3.25-5.938-3.262-14.21,1.833-18.694,1.191-8.926,3.183-16.807,6.818-24.266a64.464,64.464,0,0,1,4.857-8.327,71.458,71.458,0,0,0,14.314,8.9,38.011,38.011,0,0,0,4.35,8.736,13.069,13.069,0,0,0,7.918,5.407,10.616,10.616,0,0,0,9.39-3.507A11.292,11.292,0,0,0,515,296.386a10.256,10.256,0,0,0,10.508.22c-1.924,3.146-1.7,7.081-1.582,10.752a29.047,29.047,0,0,1-.171,4.777,10.393,10.393,0,0,1-2.346,5.688c2.963.721,5.627-.99,7.887-3.177a5.826,5.826,0,0,1,8.272.018C539.612,316.871,539.832,320.3,538.7,323.072Z" transform="translate(-457.916 -267.41)" fill="#f9af88"/>
                  <path id="Trazado_1027027" data-name="Trazado 1027027" d="M530.862,307.365a29.059,29.059,0,0,1-.171,4.777,43.862,43.862,0,0,0-3.207-10.7c-5.938.422-11.944-3.415-13.66-8.938-3.666,2.725-9.659,1.778-13.746-1.216s-6.659-7.588-8.9-12.127c-3.934-2.389-7.637-4.533-11.119-6.989a32.7,32.7,0,0,0-4.313,3.568,64.467,64.467,0,0,1,4.857-8.327,71.46,71.46,0,0,0,14.314,8.9,38.006,38.006,0,0,0,4.35,8.736,13.069,13.069,0,0,0,7.918,5.407,10.616,10.616,0,0,0,9.39-3.507,11.292,11.292,0,0,0,5.352,9.439,10.256,10.256,0,0,0,10.508.22C530.52,299.753,530.746,303.687,530.862,307.365Z" transform="translate(-464.855 -267.41)" fill="#f29274"/>
                </g>
                <g id="Grupo_1172745" data-name="Grupo 1172745" transform="translate(12.468 36.598)">
                  <path id="Trazado_1027028" data-name="Trazado 1027028" d="M513.13,295.031a9.569,9.569,0,0,1,16.55,4.124C525.013,295.123,518.018,294.011,513.13,295.031Z" transform="translate(-485.748 -291.608)" fill="#73251e"/>
                  <path id="Trazado_1027029" data-name="Trazado 1027029" d="M481.689,297.3a6.736,6.736,0,0,0-13.379.354,8.863,8.863,0,0,1,6.622-3.213A9.324,9.324,0,0,1,481.689,297.3Z" transform="translate(-468.31 -291.517)" fill="#73251e"/>
                  <ellipse id="Elipse_12362" data-name="Elipse 12362" cx="2.615" cy="3.122" rx="2.615" ry="3.122" transform="translate(4.075 14.243)" fill="#2d3b54"/>
                  <path id="Trazado_1027030" data-name="Trazado 1027030" d="M515.745,317.32a3.171,3.171,0,1,1-2.615,3.122A2.9,2.9,0,0,1,515.745,317.32Z" transform="translate(-485.748 -301.556)" fill="#2d3b54"/>
                  <path id="Trazado_1027031" data-name="Trazado 1027031" d="M491.774,316.87a10.233,10.233,0,0,0-1.65,9.115" transform="translate(-476.629 -301.381)" fill="none" stroke="#d14f58" stroke-linecap="round" stroke-miterlimit="10" stroke-width="1"/>
                  <path id="Trazado_1027032" data-name="Trazado 1027032" d="M488.367,337.329a47.044,47.044,0,0,0,14.815-1.717,5.471,5.471,0,0,1,2.493-.324,3.6,3.6,0,0,1,2.389,2.04,6.837,6.837,0,0,1-.721,6.775,10.774,10.774,0,0,1-5.81,3.934,12.057,12.057,0,0,1-9.9-1.063A8.065,8.065,0,0,1,488.367,337.329Z" transform="translate(-475.922 -308.527)" fill="#fff"/>
                </g>
              </g>
            </g>
          </g>
          <g id="Grupo_1172752" data-name="Grupo 1172752" transform="translate(62.422 129.908)">
            <g id="Grupo_1172751" data-name="Grupo 1172751" transform="translate(100.085 17.398)">
              <path id="Trazado_1027033" data-name="Trazado 1027033" d="M266.28,311.5c8.663-1.857,17.858-4.643,26.814-7.453,1.246,6.28,2.823,15.5,4.332,22.635-9.286,5.376-17.6,10.435-26.887,15.811C270.153,334.016,267.276,323.27,266.28,311.5Z" transform="translate(-266.28 -266.194)" fill="#f9af88"/>
              <g id="Grupo_1172750" data-name="Grupo 1172750" transform="translate(18.069)">
                <g id="Grupo_1172749" data-name="Grupo 1172749">
                  <path id="Trazado_1027034" data-name="Trazado 1027034" d="M296.036,293.675c3.708-15.933,8.254-29.819,13.844-47.6.446-1.411,1.045-3.189,2.755-3.366,2.193-.226,3.183,2.248,3.317,4.124.544,7.747.134,15.542-.159,23.961a29.845,29.845,0,0,1,6.048,18.383c-.11,5.15-1.845,10.563-6.3,14.051s-12.09,4.313-16.532.794C298.9,301.25,294.985,298.177,296.036,293.675Z" transform="translate(-295.857 -242.323)" fill="#f9af88"/>
                  <path id="Trazado_1027035" data-name="Trazado 1027035" d="M315.25,278.249l6.781-31.4a7.093,7.093,0,0,1,1.588-3.672,2.982,2.982,0,0,1,5.37,2.126,75.338,75.338,0,0,1-6.665,38.525A20.6,20.6,0,0,1,315.25,278.249Z" transform="translate(-303.402 -242.085)" fill="#f9af88"/>
                  <path id="Trazado_1027036" data-name="Trazado 1027036" d="M324.13,294.016a228.736,228.736,0,0,1,8.186-36.118c.483-1.54,1.405-3.385,3.281-3.47a3.053,3.053,0,0,1,2.829,1.845,6.428,6.428,0,0,1,.238,3.214A172.046,172.046,0,0,1,330.6,296.8,12.6,12.6,0,0,0,324.13,294.016Z" transform="translate(-306.857 -246.886)" fill="#f9af88"/>
                </g>
                <path id="Trazado_1027037" data-name="Trazado 1027037" d="M332.737,259.98q-3.162,12.71-6.317,25.427" transform="translate(-307.748 -249.047)" fill="none" stroke="#e3645b" stroke-miterlimit="10" stroke-width="1"/>
                <path id="Trazado_1027038" data-name="Trazado 1027038" d="M321.832,248.54q-3.8,14.992-7.612,29.984" transform="translate(-303.001 -244.596)" fill="none" stroke="#e3645b" stroke-miterlimit="10" stroke-width="1"/>
              </g>
            </g>
            <path id="Trazado_1027039" data-name="Trazado 1027039" d="M114.133,216.865c5.388-4.16,14.192-4.429,19.586-.269,4.771,3.678,7.679,9.243,9.958,14.815,6.861,16.776,9.317,34.976,11.944,51.41a322.9,322.9,0,0,0,51.672-9.781c2.456,9.023,4.906,21.645,7.918,31.677-24.889,15.1-47.439,22.617-75.694,23.777a22.711,22.711,0,0,1-22.189-14.8,242.426,242.426,0,0,1-14.662-67.245C102.025,237.533,102.11,226.139,114.133,216.865Z" transform="translate(-102.456 -213.607)" fill="#5ed1f7"/>
            <path id="Trazado_1027040" data-name="Trazado 1027040" d="M250.76,310.448c6.329-.861,12.658-1.723,19.269-2.8q4.105,16.761,8.211,33.516a182.12,182.12,0,0,1-23.509,15.078C252.91,341.6,251.084,326.955,250.76,310.448Z" transform="translate(-160.156 -250.196)" fill="#4fc2f7"/>
          </g>
        </g>
      </g>
      <g id="Grupo_1172759" data-name="Grupo 1172759" transform="translate(323 4393.452)">
        <path id="Trazado_1027059" data-name="Trazado 1027059" d="M32.72,45.6c16.32-1.571,32.645-3.141,49.872-4.574-7.577,10.743-15.151,21.485-23.1,31.892-4.23-3.651-8.46-7.3-12.422-11.079A350.487,350.487,0,0,0,82,41.479c-13.438,5.323-26.027,10.4-39.55,16.385C39.569,53.683,36.246,49.862,32.72,45.6Z" fill="none" stroke="#adc4e4" stroke-linecap="round" stroke-linejoin="round" stroke-miterlimit="10" stroke-width="2"/>
        <path id="Trazado_1027060" data-name="Trazado 1027060" d="M50.912,82.7A148.265,148.265,0,0,1,47.52,99.462a131.788,131.788,0,0,1,12.26-9.022" transform="translate(-8.809 -24.803)" fill="none" stroke="#adc4e4" stroke-linecap="round" stroke-linejoin="round" stroke-miterlimit="10" stroke-width="2"/>
        <path id="Trazado_1027061" data-name="Trazado 1027061" d="M55.734,92.03q-4,6.284-7.994,12.568" transform="translate(-8.94 -30.357)" fill="none" stroke="#adc4e4" stroke-linecap="round" stroke-linejoin="round" stroke-miterlimit="10" stroke-width="2"/>
      </g>
      <g id="Grupo_1172760" data-name="Grupo 1172760" transform="translate(-128 4201.879)">
        <path id="Trazado_1027062" data-name="Trazado 1027062" d="M681.363,270.862s-22.417-18.886-33.484-28.022a7.762,7.762,0,0,0-5.893,2.807,7.344,7.344,0,0,0-1.5,5.856c10.542,9.136,21.394,18.067,33.012,27.686a34.821,34.821,0,0,0,12.688,2.44C685.414,277.625,681.363,270.862,681.363,270.862Z" transform="translate(-11.545 -9.657)" fill="none" stroke="#adc4e4" stroke-linecap="round" stroke-linejoin="round" stroke-miterlimit="10" stroke-width="2"/>
        <path id="Trazado_1027063" data-name="Trazado 1027063" d="M634.048,246.1l-1.307.394c-2.713-2.262-5.258-4.439-7.551-6.675a13.468,13.468,0,0,1,9-10.044c2.508,2.125,5.011,4.256,7.567,6.418-.052.457-.1.918-.152,1.375" transform="translate(-4.33 -3.45)" fill="none" stroke="#adc4e4" stroke-linecap="round" stroke-linejoin="round" stroke-miterlimit="10" stroke-width="2"/>
        <path id="Trazado_1027064" data-name="Trazado 1027064" d="M620.9,235.382c-.787-.593-1.579-1.191-2.382-1.805a6.191,6.191,0,0,1-.745-9.173c.068-.068.131-.142.2-.21a5.489,5.489,0,0,1,7.5-.367q1.6,1.393,3.107,2.87" fill="none" stroke="#adc4e4" stroke-linecap="round" stroke-linejoin="round" stroke-miterlimit="10" stroke-width="2"/>
        <path id="Trazado_1027065" data-name="Trazado 1027065" d="M628.26,242.709a13.943,13.943,0,0,1,9.031-9.829" transform="translate(-5.79 -4.923)" fill="none" stroke="#adc4e4" stroke-linecap="round" stroke-linejoin="round" stroke-miterlimit="10" stroke-width="2"/>
        <path id="Trazado_1027066" data-name="Trazado 1027066" d="M642.774,237.33A12.114,12.114,0,0,0,634.42,247.6" transform="translate(-8.717 -7.038)" fill="none" stroke="#adc4e4" stroke-linecap="round" stroke-linejoin="round" stroke-miterlimit="10" stroke-width="2"/>
        <path id="Trazado_1027067" data-name="Trazado 1027067" d="M703.077,304.1c-.236-1.433-.472-2.87-.577-4.308a39.3,39.3,0,0,0,4.665-.451c-.226-1.349-.446-2.7-.609-4.387a22.67,22.67,0,0,0,4.256.556" transform="translate(-41.072 -34.422)" fill="none" stroke="#adc4e4" stroke-linecap="round" stroke-linejoin="round" stroke-miterlimit="10" stroke-width="2"/>
        <path id="Trazado_1027068" data-name="Trazado 1027068" d="M648.77,259.98q11.933,10.4,24.375,20.213" transform="translate(-15.537 -17.803)" fill="none" stroke="#adc4e4" stroke-linecap="round" stroke-linejoin="round" stroke-miterlimit="10" stroke-width="2"/>
        <path id="Trazado_1027069" data-name="Trazado 1027069" d="M652.56,249.84q12.94,11.421,26.668,21.955" transform="translate(-17.338 -12.984)" fill="none" stroke="#adc4e4" stroke-linecap="round" stroke-linejoin="round" stroke-miterlimit="10" stroke-width="2"/>
        <path id="Trazado_1027070" data-name="Trazado 1027070" d="M717.22,311.562a3.888,3.888,0,0,1,.567-3.217,4.131,4.131,0,0,1,2.87-1.705" transform="translate(-48.005 -39.978)" fill="none" stroke="#adc4e4" stroke-linecap="round" stroke-linejoin="round" stroke-miterlimit="10" stroke-width="2"/>
      </g>
      <path id="Trazado_1027076" data-name="Trazado 1027076" d="M377.55,202.99l-.3,7.19,6.48,2.31-6.67,2.13-.3,7.19-3.82-5.86-6.67,2.13,4.31-5.76-3.81-5.87,6.47,2.31Z" transform="translate(-154 4169.01)" fill="none" stroke="#adc4e4" stroke-linecap="round" stroke-linejoin="round" stroke-miterlimit="10" stroke-width="2"/>
      <path id="Trazado_1027147" data-name="Trazado 1027147" d="M377.55,202.99l-.3,7.19,6.48,2.31-6.67,2.13-.3,7.19-3.82-5.86-6.67,2.13,4.31-5.76-3.81-5.87,6.47,2.31Z" transform="translate(162.911 4188.19)" fill="none" stroke="#adc4e4" stroke-linecap="round" stroke-linejoin="round" stroke-miterlimit="10" stroke-width="2"/>
      <path id="Trazado_1027148" data-name="Trazado 1027148" d="M374.974,202.99l-.231,5.548,5,1.783-5.147,1.644-.232,5.548-2.948-4.522-5.147,1.644,3.326-4.445-2.94-4.53,4.993,1.783Z" transform="translate(21.862 4180.19)" fill="none" stroke="#adc4e4" stroke-linecap="round" stroke-linejoin="round" stroke-miterlimit="10" stroke-width="2"/>
      <path id="Trazado_1027149" data-name="Trazado 1027149" d="M377.55,202.99l-.3,7.19,6.48,2.31-6.67,2.13-.3,7.19-3.82-5.86-6.67,2.13,4.31-5.76-3.81-5.87,6.47,2.31Z" transform="translate(154.181 4305.19)" fill="none" stroke="#adc4e4" stroke-linecap="round" stroke-linejoin="round" stroke-miterlimit="10" stroke-width="2"/>
      <path id="Trazado_1027150" data-name="Trazado 1027150" d="M374.938,202.99l-.231,5.525,4.98,1.775-5.126,1.637-.231,5.525-2.936-4.5-5.126,1.637,3.312-4.426-2.928-4.511,4.972,1.775Z" transform="translate(15.181 4355.547)" fill="none" stroke="#adc4e4" stroke-linecap="round" stroke-linejoin="round" stroke-miterlimit="10" stroke-width="2"/>
      <g id="Grupo_1172798" data-name="Grupo 1172798" transform="translate(2538 -433.759)">
        <path id="Trazado_1027041" data-name="Trazado 1027041" d="M382.467,401.492c-4.122-3.553-8.946-6.269-14.267-6.751a18.208,18.208,0,0,0-15.223,6.111c-5.6,6.364-6.688,16.052-6.38,24.627.261,7.3,1.334,14.71,4.737,20.5s9.546,9.664,15.776,8.985c3.45,4.5,9.183,6.143,14.654,5.18s10.683-4.279,15.152-8.464a45.457,45.457,0,0,0,13.359-22.384c2.021-8.725.632-18.318-4.469-24.248S391.768,397.631,382.467,401.492Z" transform="translate(-2458.729 4396.352)" fill="none" stroke="#adc4e4" stroke-linecap="round" stroke-linejoin="round" stroke-miterlimit="10" stroke-width="2"/>
        <g id="Grupo_1172755" data-name="Grupo 1172755" transform="translate(-2096.632 4773.58)">
          <path id="Trazado_1027042" data-name="Trazado 1027042" d="M390.7,401.539a27.335,27.335,0,0,1,8.377-22.589,19.3,19.3,0,0,0,5.18,2.811,30.291,30.291,0,0,0-10.983,21.658C392.108,402.961,390.813,402.542,390.7,401.539Z" transform="translate(-371.351 -373.92)" fill="none" stroke="#adc4e4" stroke-linecap="round" stroke-linejoin="round" stroke-miterlimit="10" stroke-width="2"/>
          <g id="Grupo_1172754" data-name="Grupo 1172754" transform="translate(0 0)">
            <path id="Trazado_1027043" data-name="Trazado 1027043" d="M384.992,394.8c.79-7.627-3.206-15.191-9.435-17.876-3.087-1.334-6.782-1.674-9.017-4.343a23.354,23.354,0,0,0,4.058,17.5C374.144,394.743,379.647,397.451,384.992,394.8Z" transform="translate(-366.241 -372.58)" fill="none" stroke="#adc4e4" stroke-linecap="round" stroke-linejoin="round" stroke-miterlimit="10" stroke-width="2"/>
            <path id="Trazado_1027044" data-name="Trazado 1027044" d="M385.169,396.5c-4.208-6.79-12.68-9.435-15.989-16.857" transform="translate(-366.859 -374.066)" fill="rgba(0,0,0,0)" stroke="#adc4e4" stroke-linecap="round" stroke-linejoin="round" stroke-miterlimit="10" stroke-width="2"/>
            <path id="Trazado_1027045" data-name="Trazado 1027045" d="M379.509,380.88a30.173,30.173,0,0,0-1.469,6.917" transform="translate(-368.724 -374.327)" fill="rgba(0,0,0,0)" stroke="#adc4e4" stroke-linecap="round" stroke-linejoin="round" stroke-miterlimit="10" stroke-width="2"/>
            <path id="Trazado_1027046" data-name="Trazado 1027046" d="M373.777,387.62c-1.476.008-2.961.024-4.437.032" transform="translate(-366.893 -375.745)" fill="rgba(0,0,0,0)" stroke="#adc4e4" stroke-linecap="round" stroke-linejoin="round" stroke-miterlimit="10" stroke-width="2"/>
            <path id="Trazado_1027047" data-name="Trazado 1027047" d="M373.8,394.9a29.692,29.692,0,0,1,6.482-1.216" transform="translate(-367.831 -377.02)" fill="rgba(0,0,0,0)" stroke="#adc4e4" stroke-linecap="round" stroke-linejoin="round" stroke-miterlimit="10" stroke-width="2"/>
            <path id="Trazado_1027048" data-name="Trazado 1027048" d="M387.829,390.67a20.066,20.066,0,0,0-1.319,4.966" transform="translate(-370.506 -376.387)" fill="rgba(0,0,0,0)" stroke="#adc4e4" stroke-linecap="round" stroke-linejoin="round" stroke-miterlimit="10" stroke-width="2"/>
          </g>
        </g>
        <path id="Trazado_1027049" data-name="Trazado 1027049" d="M420.609,424.925a18.071,18.071,0,0,0-3.1-9.909c-.963-1.405-2.574-2.763-4.145-2.084a3.321,3.321,0,0,0-1.579,3.514,10.1,10.1,0,0,0,1.642,3.679,7.661,7.661,0,0,1,1.39,3.782,14.04,14.04,0,0,1-.671,3.285,4.112,4.112,0,0,0,.261,3.221c.94,1.374,3.127,1.145,4.335-.063A7.264,7.264,0,0,0,420.609,424.925Z" transform="translate(-2472.449 4392.546)" fill="none" stroke="#adc4e4" stroke-linecap="round" stroke-linejoin="round" stroke-miterlimit="10" stroke-width="2"/>
      </g>
    </g>
  </g>
</svg>
