<svg xmlns="http://www.w3.org/2000/svg" xmlns:xlink="http://www.w3.org/1999/xlink" width="110" height="110" viewBox="0 0 110 110">
  <defs>
    <filter id="Trazado_982547" x="0" y="0" width="110" height="110" filterUnits="userSpaceOnUse">
      <feOffset dy="3" input="SourceAlpha"/>
      <feGaussianBlur stdDeviation="3" result="blur"/>
      <feFlood flood-opacity="0.161"/>
      <feComposite operator="in" in2="blur"/>
      <feComposite in="SourceGraphic"/>
    </filter>
    <clipPath id="clip-path">
      <path id="path6885" d="M0-682.665H60.475v60.475H0Z" transform="translate(0 682.665)"/>
    </clipPath>
  </defs>
  <g id="Grupo_1172800" data-name="Grupo 1172800" transform="translate(-374 -5052)">
    <g id="Grupo_1172322" data-name="Grupo 1172322" transform="translate(-738 3092)">
      <g id="Grupo_1164700" data-name="Grupo 1164700" transform="translate(1121 1966)">
        <g id="Grupo_1160931" data-name="Grupo 1160931" transform="translate(0)">
          <g id="Grupo_1160749" data-name="Grupo 1160749" transform="translate(0)">
            <g id="Grupo_1158891" data-name="Grupo 1158891" transform="translate(0 0)">
              <g id="Grupo_1157406" data-name="Grupo 1157406" transform="translate(0)">
                <g id="Grupo_1155793" data-name="Grupo 1155793" transform="translate(0)">
                  <g id="Grupo_1154704" data-name="Grupo 1154704" transform="translate(0)">
                    <g id="Grupo_1150790" data-name="Grupo 1150790" transform="translate(0)">
                      <g id="Grupo_1154214" data-name="Grupo 1154214" transform="translate(0)">
                        <g id="Grupo_1152583" data-name="Grupo 1152583" transform="translate(0 0)">
                          <g id="Grupo_1146973" data-name="Grupo 1146973" transform="translate(0 0)">
                            <g id="Grupo_1146954" data-name="Grupo 1146954">
                              <g transform="matrix(1, 0, 0, 1, -9, -6)" filter="url(#Trazado_982547)">
                                <g id="Trazado_982547-2" data-name="Trazado 982547" transform="translate(9 6)" fill="#edf3fc">
                                  <path d="M 46.00000381469727 90.49988555908203 C 39.99188232421875 90.49988555908203 34.16427230834961 89.32352447509766 28.67905807495117 87.00347137451172 C 23.38020324707031 84.76226043701172 18.62104415893555 81.55342864990234 14.53375053405762 77.46615600585938 C 10.44647026062012 73.37887573242188 7.237643718719482 68.61971282958984 4.996417045593262 63.32085800170898 C 2.676363706588745 57.83565902709961 1.500003814697266 52.00806045532227 1.500003814697266 45.99993896484375 C 1.500003814697266 39.99181747436523 2.676363706588745 34.16421890258789 4.996417045593262 28.67901802062988 C 7.237643718719482 23.38017845153809 10.44647026062012 18.62101936340332 14.53375053405762 14.53373908996582 C 18.62104415893555 10.44645881652832 23.38020324707031 7.237632274627686 28.67905807495117 4.996418952941895 C 34.16427230834961 2.676365613937378 39.99188232421875 1.500005602836609 46.00000381469727 1.500005602836609 C 52.00812530517578 1.500005602836609 57.83573532104492 2.676365613937378 63.32094955444336 4.996418952941895 C 68.61980438232422 7.237632274627686 73.37897491455078 10.44645881652832 77.46625518798828 14.53373908996582 C 81.55355072021484 18.62101936340332 84.76236724853516 23.38017845153809 87.00359344482422 28.67901802062988 C 89.32364654541016 34.16421890258789 90.5 39.99181747436523 90.5 45.99993896484375 C 90.5 52.00806045532227 89.32364654541016 57.83565902709961 87.00359344482422 63.32085800170898 C 84.76236724853516 68.61971282958984 81.55355072021484 73.37887573242188 77.46625518798828 77.46615600585938 C 73.37897491455078 81.55342864990234 68.61980438232422 84.76226043701172 63.32094955444336 87.00347137451172 C 57.83573532104492 89.32352447509766 52.00812530517578 90.49988555908203 46.00000381469727 90.49988555908203 Z" stroke="none"/>
                                  <path d="M 46.00000381469727 2.999992370605469 C 40.19371795654297 2.999992370605469 34.56270217895508 4.136497497558594 29.26338958740234 6.377906799316406 C 24.14333343505859 8.543510437011719 19.54441833496094 11.64437866210938 15.59440612792969 15.59439849853516 C 11.64440155029297 19.54439544677734 8.54351806640625 24.14329528808594 6.377914428710938 29.26335144042969 C 4.136505126953125 34.56266784667969 3.000007629394531 40.19366836547852 3.000007629394531 45.99993896484375 C 3.000007629394531 51.80620956420898 4.136505126953125 57.43722534179688 6.377914428710938 62.73654174804688 C 8.54351806640625 67.85658264160156 11.64440155029297 72.45548248291016 15.59440612792969 76.40549468994141 C 19.54441833496094 80.35549926757812 24.14333343505859 83.45636749267578 29.26337432861328 85.62196350097656 C 34.56270217895508 87.86338043212891 40.19371795654297 88.9998779296875 46.00000381469727 88.9998779296875 C 51.80628967285156 88.9998779296875 57.43730545043945 87.86338043212891 62.73663330078125 85.62196350097656 C 67.85667419433594 83.45636749267578 72.45558929443359 80.35549926757812 76.40560150146484 76.40549468994141 C 80.35560607910156 72.45548248291016 83.45648956298828 67.85658264160156 85.62208557128906 62.73654174804688 C 87.86350250244141 57.43722534179688 89 51.80620956420898 89 45.99993896484375 C 89 40.19366836547852 87.86350250244141 34.56266784667969 85.62208557128906 29.26335144042969 C 83.45648956298828 24.14329528808594 80.35560607910156 19.54439544677734 76.40560150146484 15.59439849853516 C 72.45558929443359 11.64437866210938 67.85667419433594 8.543510437011719 62.73661804199219 6.377906799316406 C 57.43730545043945 4.136497497558594 51.80628967285156 2.999992370605469 46.00000381469727 2.999992370605469 M 46.00000381469727 -7.62939453125e-06 C 71.40510559082031 -7.62939453125e-06 92 20.59487915039062 92 45.99993896484375 C 92 71.40501403808594 71.40510559082031 91.99988555908203 46.00000381469727 91.99988555908203 C 20.59490203857422 91.99988555908203 7.62939453125e-06 71.40501403808594 7.62939453125e-06 45.99993896484375 C 7.62939453125e-06 20.59487915039062 20.59490203857422 -7.62939453125e-06 46.00000381469727 -7.62939453125e-06 Z" stroke="none" fill="#5692e8"/>
                                </g>
                              </g>
                            </g>
                          </g>
                        </g>
                      </g>
                    </g>
                  </g>
                </g>
              </g>
            </g>
          </g>
        </g>
      </g>
    </g>
    <g id="g6879" transform="translate(399 5756.665)">
      <g id="g6881" transform="translate(0 -682.665)">
        <g id="g6883" clip-path="url(#clip-path)">
          <g id="g6889" transform="translate(10.429 43.3)">
            <path id="path6891" d="M-75.987,0s-7.386,1.762-7.386,12.442h9.719V5.673Z" transform="translate(83.373)" fill="#475066"/>
          </g>
          <g id="g6893" transform="translate(40.326 43.153)">
            <path id="path6895" d="M-21.225,0s7.656,1.909,7.656,12.589h-9.719V.147Z" transform="translate(23.288)" fill="#475066"/>
          </g>
          <g id="g6897" transform="translate(5.62 0.886)">
            <path id="path6899" d="M0-253.273A24.645,24.645,0,0,1,24.617-277.89a24.645,24.645,0,0,1,24.617,24.617Z" transform="translate(0 277.89)" fill="#d3918a"/>
          </g>
          <g id="g6901" transform="translate(5.62 1.048)">
            <path id="path6903" d="M-114.778-235.622c0-8.626,4.1-17.716,10.647-22.9a24.652,24.652,0,0,0-21.8,24.455h11.208c-.033-.514-.052-1.032-.052-1.554" transform="translate(125.934 258.523)" fill="#cb827c"/>
          </g>
          <g id="g6905" transform="translate(44.225 19.813)">
            <path id="path6907" d="M0-59.879a5.82,5.82,0,0,0,5.82,5.82,5.82,5.82,0,0,0,5.82-5.82A5.82,5.82,0,0,0,5.82-65.7,5.82,5.82,0,0,0,0-59.879" transform="translate(0 65.699)" fill="#ffbe9c"/>
          </g>
          <g id="g6909" transform="translate(10.819 11.254)">
            <path id="path6911" d="M-352.106-17.335a1.838,1.838,0,0,0-2.158-.487,6.258,6.258,0,0,1-2.6.555,6,6,0,0,1-3.836-1.324,1.853,1.853,0,0,0-2.37,0,6,6,0,0,1-3.836,1.324,6,6,0,0,1-3.836-1.324,1.853,1.853,0,0,0-2.37,0,6,6,0,0,1-3.836,1.324,6.258,6.258,0,0,1-2.6-.555,1.841,1.841,0,0,0-2.162.491,19.34,19.34,0,0,0-4.609,12.56,19.365,19.365,0,0,0,19.3,19.418A19.418,19.418,0,0,0-347.494-4.771a19.341,19.341,0,0,0-4.613-12.564" transform="translate(386.33 19.02)" fill="#ffd3bc"/>
          </g>
          <g id="g6913" transform="translate(4.609 12.288)">
            <path id="path6915" d="M-255.426-335.563a23.662,23.662,0,0,1-12.66-20.954,30.525,30.525,0,0,1,2.156-11.068,6.089,6.089,0,0,1-1.341-.43,1.841,1.841,0,0,0-2.162.491,19.376,19.376,0,0,0-3.8,6.995,5.834,5.834,0,0,0-1.2-.125,5.82,5.82,0,0,0-5.82,5.82,5.82,5.82,0,0,0,5.82,5.82,5.827,5.827,0,0,0,1.267-.14,19.357,19.357,0,0,0,17.739,13.591" transform="translate(280.253 368.179)" fill="#ffbe9c"/>
          </g>
          <g id="g6917" transform="translate(15.318 27.612)">
            <path id="path6919" d="M-82.746-32.947c0,1.769-1.8,3.2-4.021,3.2s-4.021-1.434-4.021-3.2,1.8-3.2,4.021-3.2,4.021,1.434,4.021,3.2" transform="translate(90.789 36.149)" fill="#fd8b9b"/>
          </g>
          <g id="g6921" transform="translate(37.114 27.612)">
            <path id="path6923" d="M0-32.947c0,1.769,1.8,3.2,4.021,3.2s4.021-1.434,4.021-3.2-1.8-3.2-4.021-3.2S0-34.716,0-32.947" transform="translate(0 36.149)" fill="#fd8b9b"/>
          </g>
          <g id="g6925" transform="translate(28.103 25.965)">
            <path id="path6927" d="M-43.924-24.577a2.272,2.272,0,0,0-2.135-2.389,2.273,2.273,0,0,0-2.135,2.389,2.272,2.272,0,0,0,2.135,2.389,2.272,2.272,0,0,0,2.135-2.389" transform="translate(48.193 26.965)" fill="#303646"/>
          </g>
          <g id="g6929" transform="translate(20.148 34.58)">
            <path id="path6931" d="M-207.6-37.934V-39.2a2.415,2.415,0,0,0-3.24-2.27c-.936.341-2.166.787-3.788,1.372a9.284,9.284,0,0,1-3.061.556,9.313,9.313,0,0,1-3.29-.556l-3.562-1.292a2.414,2.414,0,0,0-3.238,2.271v7.7H-207.6Z" transform="translate(227.783 41.621)" fill="#ecebfd"/>
          </g>
          <g id="g6933" transform="translate(17.815 38.246)">
            <path id="path6935" d="M-127.805-31.788a9.312,9.312,0,0,1-3.29-.556l-6.676-2.422a1.832,1.832,0,0,0-2.457,1.722v11.176a3.888,3.888,0,0,0,2.562,3.654l6.571,2.384a9.312,9.312,0,0,0,3.29.556l6.1-10.191Z" transform="translate(140.228 34.878)" fill="#7ce0fd"/>
          </g>
          <g id="g6937" transform="translate(30.237 38.246)">
            <path id="path6939" d="M-100.191-1.146l-6.677,2.422a9.284,9.284,0,0,1-3.061.556V18.347a9.284,9.284,0,0,0,3.061-.556l6.572-2.384a3.887,3.887,0,0,0,2.562-3.654V.576a1.832,1.832,0,0,0-2.457-1.722" transform="translate(109.929 1.257)" fill="#2ecdf9"/>
          </g>
          <g id="g6941" transform="translate(38.414 51.896)">
            <path id="path6943" d="M-39.575,0h5.238A3.847,3.847,0,0,1-30.49,3.847a3.847,3.847,0,0,1-3.847,3.847h-5.238a3.847,3.847,0,0,1-3.847-3.847A3.847,3.847,0,0,1-39.575,0" transform="translate(43.421)" fill="#ffd3bc"/>
          </g>
          <g id="g6945" transform="translate(20.148 34.661)">
            <path id="path6947" d="M-59.435-10.988l-2.539-.921a2.415,2.415,0,0,0-3.238,2.271v7.7h3.266c.2-4,.967-6.945,2.511-9.047" transform="translate(65.212 12.056)" fill="#d1d1fd"/>
          </g>
          <g id="g6949" transform="translate(17.815 38.246)">
            <path id="path6951" d="M-57.051-90.42A29.409,29.409,0,0,1-56.3-97.7L-60.139-99.1A1.832,1.832,0,0,0-62.6-97.375V-86.2a3.888,3.888,0,0,0,2.562,3.654l6.571,2.384c.1.036.2.069.3.1A15.686,15.686,0,0,1-57.051-90.42" transform="translate(62.596 99.208)" fill="#2ecdf9"/>
          </g>
          <g id="g6953" transform="translate(9.129 51.896)">
            <path id="path6955" d="M-93.463,0H-98.7a3.847,3.847,0,0,0-3.847,3.847A3.847,3.847,0,0,0-98.7,7.693h5.238a3.846,3.846,0,0,0,3.847-3.847A3.846,3.846,0,0,0-93.463,0" transform="translate(102.548)" fill="#ffd3bc"/>
          </g>
          <g id="g6957" transform="translate(9.13 52.004)">
            <path id="path6959" d="M-104.413-51.688a7.682,7.682,0,0,1-7.207-5.024,3.847,3.847,0,0,0-2.942,3.738,3.847,3.847,0,0,0,3.847,3.847h5.238a3.848,3.848,0,0,0,3.764-3.051,7.661,7.661,0,0,1-2.7.489" transform="translate(114.561 56.712)" fill="#ffbe9c"/>
          </g>
          <g id="g6961" transform="translate(38.414 52.004)">
            <path id="path6963" d="M-104.413-51.688a7.682,7.682,0,0,1-7.207-5.024,3.847,3.847,0,0,0-2.942,3.738,3.847,3.847,0,0,0,3.847,3.847h5.238a3.848,3.848,0,0,0,3.764-3.051,7.66,7.66,0,0,1-2.7.489" transform="translate(114.561 56.712)" fill="#ffbe9c"/>
          </g>
          <g id="g6965" transform="translate(20.011 25.39)">
            <path id="path6967" d="M0,0V1.56" fill="none" stroke="#000" stroke-linecap="round" stroke-linejoin="round" stroke-miterlimit="10" stroke-width="1.5"/>
          </g>
          <g id="g6969" transform="translate(28.103 25.965)">
            <path id="path6971" d="M-43.924-24.575a2.272,2.272,0,0,0-2.135-2.389,2.272,2.272,0,0,0-2.135,2.389,2.273,2.273,0,0,0,2.135,2.389A2.272,2.272,0,0,0-43.924-24.575Z" transform="translate(48.193 26.964)" fill="none" stroke="#000" stroke-linecap="round" stroke-linejoin="round" stroke-miterlimit="10" stroke-width="1.5"/>
          </g>
          <g id="g6973" transform="translate(40.464 25.39)">
            <path id="path6975" d="M0,0V1.56" fill="none" stroke="#000" stroke-linecap="round" stroke-linejoin="round" stroke-miterlimit="10" stroke-width="1.5"/>
          </g>
          <g id="g6977" transform="translate(5.867 0.886)">
            <path id="path6979" d="M-78.537-67.729A24.59,24.59,0,0,0-86.17-53.177a5.808,5.808,0,0,1,4.562-2.208,5.843,5.843,0,0,1,1.2.124,19.377,19.377,0,0,1,3.8-6.995,1.841,1.841,0,0,1,2.162-.491,6.258,6.258,0,0,0,2.6.555,6,6,0,0,0,3.836-1.324,1.853,1.853,0,0,1,2.37,0A6,6,0,0,0-61.8-62.191a6,6,0,0,0,3.836-1.324,1.853,1.853,0,0,1,2.37,0,6,6,0,0,0,3.836,1.324,6.258,6.258,0,0,0,2.6-.555A1.837,1.837,0,0,1-47-62.259a19.377,19.377,0,0,1,3.8,7,5.844,5.844,0,0,1,1.2-.124,5.808,5.808,0,0,1,4.562,2.208A24.654,24.654,0,0,0-61.8-74.312a24.475,24.475,0,0,0-13.957,4.351" transform="translate(86.17 74.312)" fill="none" stroke="#000" stroke-linecap="round" stroke-linejoin="round" stroke-miterlimit="10" stroke-width="1.5"/>
          </g>
          <g id="g6981" transform="translate(4.609 19.813)">
            <path id="path6983" d="M-63.89-58.542a19.424,19.424,0,0,1,.81-5.566,5.833,5.833,0,0,0-1.2-.124,5.82,5.82,0,0,0-5.82,5.82,5.82,5.82,0,0,0,5.82,5.82,5.834,5.834,0,0,0,1.267-.14A19.551,19.551,0,0,1-63.89-58.542Z" transform="translate(70.1 64.232)" fill="none" stroke="#000" stroke-linecap="round" stroke-linejoin="round" stroke-miterlimit="10" stroke-width="1.5"/>
          </g>
          <g id="g6985" transform="translate(48.771 19.813)">
            <path id="path6987" d="M-13.1,0a5.835,5.835,0,0,0-1.2.124,19.42,19.42,0,0,1,.81,5.566,19.413,19.413,0,0,1-.884,5.809,5.839,5.839,0,0,0,1.274.141,5.82,5.82,0,0,0,5.82-5.82A5.82,5.82,0,0,0-13.1,0Z" transform="translate(14.379)" fill="none" stroke="#000" stroke-linecap="round" stroke-linejoin="round" stroke-miterlimit="10" stroke-width="1.5"/>
          </g>
          <g id="g6989" transform="translate(10.819 11.254)">
            <path id="path6991" d="M-352.106-17.335a1.838,1.838,0,0,0-2.158-.487,6.258,6.258,0,0,1-2.6.555,6,6,0,0,1-3.836-1.324,1.853,1.853,0,0,0-2.37,0,6,6,0,0,1-3.836,1.324,6,6,0,0,1-3.836-1.324,1.853,1.853,0,0,0-2.37,0,6,6,0,0,1-3.836,1.324,6.257,6.257,0,0,1-2.6-.555,1.841,1.841,0,0,0-2.162.491,19.342,19.342,0,0,0-4.609,12.56,19.361,19.361,0,0,0,7,14.953V9.805A1.832,1.832,0,0,1-377,8.044V6.8a2.414,2.414,0,0,1,3.238-2.271l3.562,1.292a9.314,9.314,0,0,0,3.29.556,9.287,9.287,0,0,0,3.061-.556c1.622-.585,2.852-1.031,3.788-1.372a2.415,2.415,0,0,1,3.24,2.27v1.27a1.833,1.833,0,0,1,2.106,1.812v.534a19.38,19.38,0,0,0,7.223-15.11A19.341,19.341,0,0,0-352.106-17.335Z" transform="translate(386.33 19.02)" fill="none" stroke="#000" stroke-linecap="round" stroke-linejoin="round" stroke-miterlimit="10" stroke-width="1.5"/>
          </g>
          <g id="g6993" transform="translate(20.148 34.58)">
            <path id="path6995" d="M-1.271-38.86,5.4-36.438a9.311,9.311,0,0,0,3.29.556,9.284,9.284,0,0,0,3.061-.556l6.677-2.422a1.874,1.874,0,0,1,.351-.09v-1.27a2.415,2.415,0,0,0-3.24-2.27c-.936.341-2.166.787-3.788,1.372a9.287,9.287,0,0,1-3.061.556,9.313,9.313,0,0,1-3.29-.556L1.843-42.409a2.414,2.414,0,0,0-3.238,2.271V-38.9C-1.353-38.887-1.312-38.874-1.271-38.86Z" transform="translate(1.395 42.637)" fill="none" stroke="#000" stroke-linecap="round" stroke-linejoin="round" stroke-miterlimit="10" stroke-width="1.5"/>
          </g>
          <g id="g6997" transform="translate(10.656 43.3)">
            <path id="path6999" d="M-23.869-88.436h4.893a3.9,3.9,0,0,1-.054-.64v-7.955s-5.919,1.414-7.159,9.374A3.829,3.829,0,0,1-23.869-88.436Z" transform="translate(26.189 97.032)" fill="none" stroke="#000" stroke-linecap="round" stroke-linejoin="round" stroke-miterlimit="10" stroke-width="1.5"/>
          </g>
          <g id="g7001" transform="translate(42.378 43.3)">
            <path id="path7003" d="M-38.248-20.359a8.81,8.81,0,0,0-3.663-1.979v7.955a3.9,3.9,0,0,1-.054.64h5.121a3.829,3.829,0,0,1,2.32.779A13.779,13.779,0,0,0-36.062-17.6" transform="translate(41.965 22.337)" fill="none" stroke="#000" stroke-linecap="round" stroke-linejoin="round" stroke-miterlimit="10" stroke-width="1.5"/>
          </g>
          <g id="g7005" transform="translate(17.815 38.246)">
            <path id="path7007" d="M-93.959-26.064l-6.676-2.422a1.832,1.832,0,0,0-2.457,1.722v11.176a3.9,3.9,0,0,0,.054.64h.345a3.846,3.846,0,0,1,3.839,3.622l4.894,1.776a9.312,9.312,0,0,0,3.29.556V-25.508A9.312,9.312,0,0,1-93.959-26.064Z" transform="translate(103.092 28.598)" fill="none" stroke="#000" stroke-linecap="round" stroke-linejoin="round" stroke-miterlimit="10" stroke-width="1.5"/>
          </g>
          <g id="g7009" transform="translate(9.129 51.896)">
            <path id="path7011" d="M-93.463,0H-98.7a3.847,3.847,0,0,0-3.847,3.847A3.847,3.847,0,0,0-98.7,7.693h5.238a3.846,3.846,0,0,0,3.847-3.847A3.846,3.846,0,0,0-93.463,0Z" transform="translate(102.548)" fill="none" stroke="#000" stroke-linecap="round" stroke-linejoin="round" stroke-miterlimit="10" stroke-width="1.5"/>
          </g>
          <g id="g7013" transform="translate(30.237 38.246)">
            <path id="path7015" d="M-123.7-140.434h.117a3.9,3.9,0,0,0,.054-.64v-11.176a1.832,1.832,0,0,0-2.457-1.722l-6.677,2.422a9.285,9.285,0,0,1-3.061.556v16.514a9.285,9.285,0,0,0,3.061-.556l5.129-1.861A3.846,3.846,0,0,1-123.7-140.434Z" transform="translate(135.726 154.084)" fill="none" stroke="#000" stroke-linecap="round" stroke-linejoin="round" stroke-miterlimit="10" stroke-width="1.5"/>
          </g>
          <g id="g7017" transform="translate(38.414 51.896)">
            <path id="path7019" d="M-39.575,0h5.238A3.847,3.847,0,0,1-30.49,3.847a3.847,3.847,0,0,1-3.847,3.847h-5.238a3.847,3.847,0,0,1-3.847-3.847A3.847,3.847,0,0,1-39.575,0Z" transform="translate(43.421)" fill="none" stroke="#000" stroke-linecap="round" stroke-linejoin="round" stroke-miterlimit="10" stroke-width="1.5"/>
          </g>
        </g>
      </g>
    </g>
  </g>
</svg>
