<svg xmlns="http://www.w3.org/2000/svg" xmlns:xlink="http://www.w3.org/1999/xlink" width="110" height="110" viewBox="0 0 110 110">
  <defs>
    <filter id="Trazado_982547" x="0" y="0" width="110" height="110" filterUnits="userSpaceOnUse">
      <feOffset dy="3" input="SourceAlpha"/>
      <feGaussianBlur stdDeviation="3" result="blur"/>
      <feFlood flood-opacity="0.161"/>
      <feComposite operator="in" in2="blur"/>
      <feComposite in="SourceGraphic"/>
    </filter>
  </defs>
  <g id="Grupo_1172804" data-name="Grupo 1172804" transform="translate(-690 -5052)">
    <g id="Grupo_1172323" data-name="Grupo 1172323" transform="translate(-423 3897.853)">
      <g id="Grupo_1166163" data-name="Grupo 1166163" transform="translate(1 -805.853)">
        <g id="Grupo_1164700" data-name="Grupo 1164700" transform="translate(1121 1966)">
          <g id="Grupo_1160931" data-name="Grupo 1160931" transform="translate(0)">
            <g id="Grupo_1160749" data-name="Grupo 1160749" transform="translate(0)">
              <g id="Grupo_1158891" data-name="Grupo 1158891" transform="translate(0 0)">
                <g id="Grupo_1157406" data-name="Grupo 1157406" transform="translate(0)">
                  <g id="Grupo_1155793" data-name="Grupo 1155793" transform="translate(0)">
                    <g id="Grupo_1154704" data-name="Grupo 1154704" transform="translate(0)">
                      <g id="Grupo_1150790" data-name="Grupo 1150790" transform="translate(0)">
                        <g id="Grupo_1154214" data-name="Grupo 1154214" transform="translate(0)">
                          <g id="Grupo_1152583" data-name="Grupo 1152583" transform="translate(0 0)">
                            <g id="Grupo_1146973" data-name="Grupo 1146973" transform="translate(0 0)">
                              <g id="Grupo_1146954" data-name="Grupo 1146954">
                                <g transform="matrix(1, 0, 0, 1, -9, -6)" filter="url(#Trazado_982547)">
                                  <g id="Trazado_982547-2" data-name="Trazado 982547" transform="translate(9 6)" fill="#edf3fc">
                                    <path d="M 46.00000381469727 90.49988555908203 C 39.99188232421875 90.49988555908203 34.16427230834961 89.32352447509766 28.67905807495117 87.00347137451172 C 23.38020324707031 84.76226043701172 18.62104415893555 81.55342864990234 14.53375053405762 77.46615600585938 C 10.44647026062012 73.37887573242188 7.237643718719482 68.61971282958984 4.996417045593262 63.32085800170898 C 2.676363706588745 57.83565902709961 1.500003814697266 52.00806045532227 1.500003814697266 45.99993896484375 C 1.500003814697266 39.99181747436523 2.676363706588745 34.16421890258789 4.996417045593262 28.67901802062988 C 7.237643718719482 23.38017845153809 10.44647026062012 18.62101936340332 14.53375053405762 14.53373908996582 C 18.62104415893555 10.44645881652832 23.38020324707031 7.237632274627686 28.67905807495117 4.996418952941895 C 34.16427230834961 2.676365613937378 39.99188232421875 1.500005602836609 46.00000381469727 1.500005602836609 C 52.00812530517578 1.500005602836609 57.83573532104492 2.676365613937378 63.32094955444336 4.996418952941895 C 68.61980438232422 7.237632274627686 73.37897491455078 10.44645881652832 77.46625518798828 14.53373908996582 C 81.55355072021484 18.62101936340332 84.76236724853516 23.38017845153809 87.00359344482422 28.67901802062988 C 89.32364654541016 34.16421890258789 90.5 39.99181747436523 90.5 45.99993896484375 C 90.5 52.00806045532227 89.32364654541016 57.83565902709961 87.00359344482422 63.32085800170898 C 84.76236724853516 68.61971282958984 81.55355072021484 73.37887573242188 77.46625518798828 77.46615600585938 C 73.37897491455078 81.55342864990234 68.61980438232422 84.76226043701172 63.32094955444336 87.00347137451172 C 57.83573532104492 89.32352447509766 52.00812530517578 90.49988555908203 46.00000381469727 90.49988555908203 Z" stroke="none"/>
                                    <path d="M 46.00000381469727 2.999992370605469 C 40.19371795654297 2.999992370605469 34.56270217895508 4.136497497558594 29.26338958740234 6.377906799316406 C 24.14333343505859 8.543510437011719 19.54441833496094 11.64437866210938 15.59440612792969 15.59439849853516 C 11.64440155029297 19.54439544677734 8.54351806640625 24.14329528808594 6.377914428710938 29.26335144042969 C 4.136505126953125 34.56266784667969 3.000007629394531 40.19366836547852 3.000007629394531 45.99993896484375 C 3.000007629394531 51.80620956420898 4.136505126953125 57.43722534179688 6.377914428710938 62.73654174804688 C 8.54351806640625 67.85658264160156 11.64440155029297 72.45548248291016 15.59440612792969 76.40549468994141 C 19.54441833496094 80.35549926757812 24.14333343505859 83.45636749267578 29.26337432861328 85.62196350097656 C 34.56270217895508 87.86338043212891 40.19371795654297 88.9998779296875 46.00000381469727 88.9998779296875 C 51.80628967285156 88.9998779296875 57.43730545043945 87.86338043212891 62.73663330078125 85.62196350097656 C 67.85667419433594 83.45636749267578 72.45558929443359 80.35549926757812 76.40560150146484 76.40549468994141 C 80.35560607910156 72.45548248291016 83.45648956298828 67.85658264160156 85.62208557128906 62.73654174804688 C 87.86350250244141 57.43722534179688 89 51.80620956420898 89 45.99993896484375 C 89 40.19366836547852 87.86350250244141 34.56266784667969 85.62208557128906 29.26335144042969 C 83.45648956298828 24.14329528808594 80.35560607910156 19.54439544677734 76.40560150146484 15.59439849853516 C 72.45558929443359 11.64437866210938 67.85667419433594 8.543510437011719 62.73661804199219 6.377906799316406 C 57.43730545043945 4.136497497558594 51.80628967285156 2.999992370605469 46.00000381469727 2.999992370605469 M 46.00000381469727 -7.62939453125e-06 C 71.40510559082031 -7.62939453125e-06 92 20.59487915039062 92 45.99993896484375 C 92 71.40501403808594 71.40510559082031 91.99988555908203 46.00000381469727 91.99988555908203 C 20.59490203857422 91.99988555908203 7.62939453125e-06 71.40501403808594 7.62939453125e-06 45.99993896484375 C 7.62939453125e-06 20.59487915039062 20.59490203857422 -7.62939453125e-06 46.00000381469727 -7.62939453125e-06 Z" stroke="none" fill="#5692e8"/>
                                  </g>
                                </g>
                              </g>
                            </g>
                          </g>
                        </g>
                      </g>
                    </g>
                  </g>
                </g>
              </g>
            </g>
          </g>
        </g>
      </g>
    </g>
    <g id="human_9582256" transform="translate(688.912 5067.532)">
      <g id="Grupo_1172801" data-name="Grupo 1172801" transform="translate(30.088 7.468)">
        <path id="Trazado_1027151" data-name="Trazado 1027151" d="M224.447,368.679a3.518,3.518,0,0,1-3.518,3.548h-2.671l-.879-1.172-.879,1.172H205.2s-12.025-5.869,1.426-17.563h8.432A15.975,15.975,0,0,1,224.447,368.679Z" transform="translate(-180.305 -313.96)" fill="#ffa1ac"/>
        <path id="Trazado_1027152" data-name="Trazado 1027152" d="M121.4,372.226h-8.127l-.879-.558-.879.558h-2.672a3.518,3.518,0,0,1-3.518-3.548,15.972,15.972,0,0,1,9.392-14.015h8.109C118.993,357.977,118.232,367.115,121.4,372.226Z" transform="translate(-96.5 -313.959)" fill="#ff6e80"/>
        <path id="Trazado_1027153" data-name="Trazado 1027153" d="M234.4,357.541c.027,3.435-3.6,5.768-7.181,5.258a6.966,6.966,0,0,1-2.06-.63s-2.375-3.217,2.145-5.106h6.924C234.275,357.2,234.329,357.356,234.4,357.541Z" transform="translate(-201.736 -316.079)" fill="#ffccbf"/>
        <path id="Trazado_1027154" data-name="Trazado 1027154" d="M208.984,357.064a10.738,10.738,0,0,0-2.6,5.106,5.155,5.155,0,0,1-3.116-4.628c.048-.163.1-.321.161-.477Z" transform="translate(-182.967 -316.079)" fill="#ffbbae"/>
        <path id="Trazado_1027155" data-name="Trazado 1027155" d="M210.747,21.6a22.538,22.538,0,0,1-11.021,4.186c-19.134-6.756-4.786-18.055-4.786-18.055A13.248,13.248,0,0,1,210.747,21.6Z" transform="translate(-171.055 -7.468)" fill="#fcf5af"/>
        <path id="Trazado_1027156" data-name="Trazado 1027156" d="M157.929,27.806a22.629,22.629,0,0,1-14.869-4.233A13.247,13.247,0,0,1,153.676,9.7C151.268,13.514,147.135,22.562,157.929,27.806Z" transform="translate(-129.79 -9.442)" fill="#fbd788"/>
        <path id="Trazado_1027157" data-name="Trazado 1027157" d="M35.652,158.252a4.414,4.414,0,1,0,.335,8.419c2.514.01,4.547-1.482,4.906-3.18C41.351,161.329,39.2,158.363,35.652,158.252Z" transform="translate(-30.088 -140.439)" fill="#ffbbae"/>
        <path id="Trazado_1027158" data-name="Trazado 1027158" d="M397.37,158.252a4.243,4.243,0,1,1-4.916,4.24A4.416,4.416,0,0,1,397.37,158.252Z" transform="translate(-349.971 -140.439)" fill="#ffccbf"/>
        <path id="Trazado_1027159" data-name="Trazado 1027159" d="M136.676,155.818C114.7,143.045,132.57,128,132.57,128H158.3a3.518,3.518,0,0,1,3.448,2.821A21.214,21.214,0,0,1,136.676,155.818Z" transform="translate(-114.507 -113.872)" fill="#ffded0"/>
        <path id="Trazado_1027160" data-name="Trazado 1027160" d="M92.083,155.818A21.264,21.264,0,0,1,75.642,130.8,3.507,3.507,0,0,1,79.084,128h8.893C86.226,131.8,81.381,144.931,92.083,155.818Z" transform="translate(-69.915 -113.872)" fill="#ffccbf"/>
        <ellipse id="Elipse_12363" data-name="Elipse 12363" cx="3.445" cy="2.744" rx="3.445" ry="2.744" transform="translate(13.699 22.249)" fill="#ffa1ac"/>
        <ellipse id="Elipse_12364" data-name="Elipse 12364" cx="3.445" cy="2.744" rx="3.445" ry="2.744" transform="translate(32.373 22.249)" fill="#ffa1ac"/>
        <path id="Trazado_1027161" data-name="Trazado 1027161" d="M237.833,188.527c0-1.717-1.244-1.878-2.778-1.878s-2.778.161-2.778,1.878a2.8,2.8,0,1,0,5.555,0Z" transform="translate(-208.574 -165.643)" fill="#495560"/>
      </g>
      <g id="Grupo_1172803" data-name="Grupo 1172803" transform="translate(30.088 7.472)">
        <path id="Trazado_1027162" data-name="Trazado 1027162" d="M35.652,158.24a4.414,4.414,0,1,0,.335,8.419" transform="translate(-30.088 -140.435)" fill="none" stroke="#000" stroke-linecap="round" stroke-linejoin="round" stroke-miterlimit="10" stroke-width="1.5"/>
        <path id="Trazado_1027163" data-name="Trazado 1027163" d="M431.867,158.219a4.414,4.414,0,1,1-.335,8.419" transform="translate(-384.469 -140.413)" fill="none" stroke="#000" stroke-linecap="round" stroke-linejoin="round" stroke-miterlimit="10" stroke-width="1.5"/>
        <path id="Trazado_1027164" data-name="Trazado 1027164" d="M131.255,354.62a15.983,15.983,0,0,1,9.388,14.017,3.517,3.517,0,0,1-3.518,3.547H108.841a3.518,3.518,0,0,1-3.518-3.548,15.972,15.972,0,0,1,9.392-14.015" transform="translate(-96.503 -313.925)" fill="none" stroke="#000" stroke-linecap="round" stroke-linejoin="round" stroke-miterlimit="10" stroke-width="1.5"/>
        <line id="Línea_764" data-name="Línea 764" y2="7.062" transform="translate(15.889 51.197)" fill="none" stroke="#000" stroke-linecap="round" stroke-linejoin="round" stroke-miterlimit="10" stroke-width="1.5"/>
        <line id="Línea_765" data-name="Línea 765" y2="7.062" transform="translate(37.074 51.197)" fill="none" stroke="#000" stroke-linecap="round" stroke-linejoin="round" stroke-miterlimit="10" stroke-width="1.5"/>
        <path id="Trazado_1027165" data-name="Trazado 1027165" d="M113.762,127.971H79.138a3.508,3.508,0,0,0-3.442,2.792,21.189,21.189,0,1,0,41.515.028A3.52,3.52,0,0,0,113.762,127.971Z" transform="translate(-69.969 -113.848)" fill="none" stroke="#000" stroke-linecap="round" stroke-linejoin="round" stroke-miterlimit="10" stroke-width="1.5"/>
        <path id="Trazado_1027166" data-name="Trazado 1027166" d="M204.092,363.787a4.708,4.708,0,0,1-.827-2.648c0-.011,0-.022,0-.033" transform="translate(-182.963 -319.651)" fill="none" stroke="#000" stroke-linecap="round" stroke-linejoin="round" stroke-miterlimit="10" stroke-width="1.5"/>
        <path id="Trazado_1027167" data-name="Trazado 1027167" d="M242.21,361.105c0,.011,0,.022,0,.033,0,2.925-2.766,5.3-6.179,5.3a7.019,7.019,0,0,1-2.648-.51" transform="translate(-209.55 -319.65)" fill="none" stroke="#000" stroke-linecap="round" stroke-linejoin="round" stroke-miterlimit="10" stroke-width="1.5"/>
        <g id="Grupo_1172802" data-name="Grupo 1172802" transform="translate(17.72 20.302)">
          <line id="Línea_766" data-name="Línea 766" y2="1.407" fill="none" stroke="#000" stroke-linecap="round" stroke-linejoin="round" stroke-miterlimit="10" stroke-width="1.5"/>
          <path id="Trazado_1027168" data-name="Trazado 1027168" d="M237.833,188.494c0-1.717-1.244-1.878-2.778-1.878s-2.778.161-2.778,1.878a2.8,2.8,0,1,0,5.555,0Z" transform="translate(-226.294 -185.92)" fill="none" stroke="#000" stroke-linecap="round" stroke-linejoin="round" stroke-miterlimit="10" stroke-width="1.5"/>
          <line id="Línea_767" data-name="Línea 767" y2="1.407" transform="translate(17.522)" fill="none" stroke="#000" stroke-linecap="round" stroke-linejoin="round" stroke-miterlimit="10" stroke-width="1.5"/>
        </g>
        <path id="Trazado_1027169" data-name="Trazado 1027169" d="M188.195,10.148a13.242,13.242,0,0,1,21.157,11.475" transform="translate(-169.659 -7.5)" fill="none" stroke="#000" stroke-linecap="round" stroke-linejoin="round" stroke-miterlimit="10" stroke-width="1.5"/>
        <path id="Trazado_1027170" data-name="Trazado 1027170" d="M143.057,61.5a13.2,13.2,0,0,1,2.618-8.827" transform="translate(-129.787 -47.381)" fill="none" stroke="#000" stroke-linecap="round" stroke-linejoin="round" stroke-miterlimit="10" stroke-width="1.5"/>
        <path id="Trazado_1027171" data-name="Trazado 1027171" d="M208.1,79.206a20.045,20.045,0,0,0,.232-2.639,2.9,2.9,0,0,0-3.468-2.893,2.9,2.9,0,0,1-2.177-.431l-.041-.027a2.9,2.9,0,0,0-3.217,0l-.041.027a2.9,2.9,0,0,1-2.177.431,2.9,2.9,0,0,0-3.468,2.893,20.043,20.043,0,0,0,.232,2.639" transform="translate(-174.559 -65.082)" fill="none" stroke="#000" stroke-linecap="round" stroke-linejoin="round" stroke-miterlimit="10" stroke-width="1.5"/>
        <line id="Línea_768" data-name="Línea 768" y1="2.648" x2="4.414" transform="translate(43.308 0.083)" fill="none" stroke="#000" stroke-linecap="round" stroke-linejoin="round" stroke-miterlimit="10" stroke-width="1.5"/>
        <line id="Línea_769" data-name="Línea 769" x2="4.414" y2="0.883" transform="translate(46.839 8.91)" fill="none" stroke="#000" stroke-linecap="round" stroke-linejoin="round" stroke-miterlimit="10" stroke-width="1.5"/>
        <line id="Línea_770" data-name="Línea 770" x1="4.414" y1="2.648" transform="translate(5.351 0.083)" fill="none" stroke="#000" stroke-linecap="round" stroke-linejoin="round" stroke-miterlimit="10" stroke-width="1.5"/>
        <line id="Línea_771" data-name="Línea 771" x1="4.414" y2="0.883" transform="translate(1.821 8.91)" fill="none" stroke="#000" stroke-linecap="round" stroke-linejoin="round" stroke-miterlimit="10" stroke-width="1.5"/>
      </g>
    </g>
  </g>
</svg>
