<svg xmlns="http://www.w3.org/2000/svg" xmlns:xlink="http://www.w3.org/1999/xlink" width="110" height="110" viewBox="0 0 110 110">
  <defs>
    <filter id="Trazado_982547" x="0" y="0" width="110" height="110" filterUnits="userSpaceOnUse">
      <feOffset dy="3" input="SourceAlpha"/>
      <feGaussianBlur stdDeviation="3" result="blur"/>
      <feFlood flood-opacity="0.161"/>
      <feComposite operator="in" in2="blur"/>
      <feComposite in="SourceGraphic"/>
    </filter>
    <clipPath id="clip-path">
      <path id="path16155" d="M0-682.665H55.82v55.82H0Z" transform="translate(0 682.665)"/>
    </clipPath>
  </defs>
  <g id="Grupo_1172805" data-name="Grupo 1172805" transform="translate(-5 -5048)">
    <g id="Grupo_1172325" data-name="Grupo 1172325" transform="translate(-1107 3088)">
      <g id="Grupo_1164700" data-name="Grupo 1164700" transform="translate(1121 1966)">
        <g id="Grupo_1160931" data-name="Grupo 1160931" transform="translate(0)">
          <g id="Grupo_1160749" data-name="Grupo 1160749" transform="translate(0)">
            <g id="Grupo_1158891" data-name="Grupo 1158891" transform="translate(0 0)">
              <g id="Grupo_1157406" data-name="Grupo 1157406" transform="translate(0)">
                <g id="Grupo_1155793" data-name="Grupo 1155793" transform="translate(0)">
                  <g id="Grupo_1154704" data-name="Grupo 1154704" transform="translate(0)">
                    <g id="Grupo_1150790" data-name="Grupo 1150790" transform="translate(0)">
                      <g id="Grupo_1154214" data-name="Grupo 1154214" transform="translate(0)">
                        <g id="Grupo_1152583" data-name="Grupo 1152583" transform="translate(0 0)">
                          <g id="Grupo_1146973" data-name="Grupo 1146973" transform="translate(0 0)">
                            <g id="Grupo_1146954" data-name="Grupo 1146954">
                              <g transform="matrix(1, 0, 0, 1, -9, -6)" filter="url(#Trazado_982547)">
                                <g id="Trazado_982547-2" data-name="Trazado 982547" transform="translate(9 6)" fill="#edf3fc">
                                  <path d="M 46.00000381469727 90.49988555908203 C 39.99188232421875 90.49988555908203 34.16427230834961 89.32352447509766 28.67905807495117 87.00347137451172 C 23.38020324707031 84.76226043701172 18.62104415893555 81.55342864990234 14.53375053405762 77.46615600585938 C 10.44647026062012 73.37887573242188 7.237643718719482 68.61971282958984 4.996417045593262 63.32085800170898 C 2.676363706588745 57.83565902709961 1.500003814697266 52.00806045532227 1.500003814697266 45.99993896484375 C 1.500003814697266 39.99181747436523 2.676363706588745 34.16421890258789 4.996417045593262 28.67901802062988 C 7.237643718719482 23.38017845153809 10.44647026062012 18.62101936340332 14.53375053405762 14.53373908996582 C 18.62104415893555 10.44645881652832 23.38020324707031 7.237632274627686 28.67905807495117 4.996418952941895 C 34.16427230834961 2.676365613937378 39.99188232421875 1.500005602836609 46.00000381469727 1.500005602836609 C 52.00812530517578 1.500005602836609 57.83573532104492 2.676365613937378 63.32094955444336 4.996418952941895 C 68.61980438232422 7.237632274627686 73.37897491455078 10.44645881652832 77.46625518798828 14.53373908996582 C 81.55355072021484 18.62101936340332 84.76236724853516 23.38017845153809 87.00359344482422 28.67901802062988 C 89.32364654541016 34.16421890258789 90.5 39.99181747436523 90.5 45.99993896484375 C 90.5 52.00806045532227 89.32364654541016 57.83565902709961 87.00359344482422 63.32085800170898 C 84.76236724853516 68.61971282958984 81.55355072021484 73.37887573242188 77.46625518798828 77.46615600585938 C 73.37897491455078 81.55342864990234 68.61980438232422 84.76226043701172 63.32094955444336 87.00347137451172 C 57.83573532104492 89.32352447509766 52.00812530517578 90.49988555908203 46.00000381469727 90.49988555908203 Z" stroke="none"/>
                                  <path d="M 46.00000381469727 2.999992370605469 C 40.19371795654297 2.999992370605469 34.56270217895508 4.136497497558594 29.26338958740234 6.377906799316406 C 24.14333343505859 8.543510437011719 19.54441833496094 11.64437866210938 15.59440612792969 15.59439849853516 C 11.64440155029297 19.54439544677734 8.54351806640625 24.14329528808594 6.377914428710938 29.26335144042969 C 4.136505126953125 34.56266784667969 3.000007629394531 40.19366836547852 3.000007629394531 45.99993896484375 C 3.000007629394531 51.80620956420898 4.136505126953125 57.43722534179688 6.377914428710938 62.73654174804688 C 8.54351806640625 67.85658264160156 11.64440155029297 72.45548248291016 15.59440612792969 76.40549468994141 C 19.54441833496094 80.35549926757812 24.14333343505859 83.45636749267578 29.26337432861328 85.62196350097656 C 34.56270217895508 87.86338043212891 40.19371795654297 88.9998779296875 46.00000381469727 88.9998779296875 C 51.80628967285156 88.9998779296875 57.43730545043945 87.86338043212891 62.73663330078125 85.62196350097656 C 67.85667419433594 83.45636749267578 72.45558929443359 80.35549926757812 76.40560150146484 76.40549468994141 C 80.35560607910156 72.45548248291016 83.45648956298828 67.85658264160156 85.62208557128906 62.73654174804688 C 87.86350250244141 57.43722534179688 89 51.80620956420898 89 45.99993896484375 C 89 40.19366836547852 87.86350250244141 34.56266784667969 85.62208557128906 29.26335144042969 C 83.45648956298828 24.14329528808594 80.35560607910156 19.54439544677734 76.40560150146484 15.59439849853516 C 72.45558929443359 11.64437866210938 67.85667419433594 8.543510437011719 62.73661804199219 6.377906799316406 C 57.43730545043945 4.136497497558594 51.80628967285156 2.999992370605469 46.00000381469727 2.999992370605469 M 46.00000381469727 -7.62939453125e-06 C 71.40510559082031 -7.62939453125e-06 92 20.59487915039062 92 45.99993896484375 C 92 71.40501403808594 71.40510559082031 91.99988555908203 46.00000381469727 91.99988555908203 C 20.59490203857422 91.99988555908203 7.62939453125e-06 71.40501403808594 7.62939453125e-06 45.99993896484375 C 7.62939453125e-06 20.59487915039062 20.59490203857422 -7.62939453125e-06 46.00000381469727 -7.62939453125e-06 Z" stroke="none" fill="#5692e8"/>
                                </g>
                              </g>
                            </g>
                          </g>
                        </g>
                      </g>
                    </g>
                  </g>
                </g>
              </g>
            </g>
          </g>
        </g>
      </g>
    </g>
    <g id="g16149" transform="translate(32 5754.665)">
      <g id="g16151" transform="translate(0 -682.665)">
        <g id="g16153" transform="translate(0 0)" clip-path="url(#clip-path)">
          <g id="g16159" transform="translate(34.452 27.91)">
            <path id="path16161" d="M-157.323,0h-2.619a11.39,11.39,0,0,0-11.39,11.39V15.7a11.39,11.39,0,0,0,11.39,11.39h2.619a6.541,6.541,0,0,0,6.541-6.541V6.541A6.541,6.541,0,0,0-157.323,0" transform="translate(171.333)" fill="#ff8e9e"/>
          </g>
          <g id="g16163" transform="translate(27.91 27.91)">
            <path id="path16165" d="M-148.287-244.9a5.2,5.2,0,0,0,1.016.1,5.174,5.174,0,0,0,5.174-5.174,5.174,5.174,0,0,0-5.174-5.174,5.184,5.184,0,0,0-1.138.127v-5.147a6.541,6.541,0,0,1,6.541-6.541H-154.95a6.541,6.541,0,0,0-6.541,6.541v14.01a6.542,6.542,0,0,0,6.541,6.541h13.083a6.543,6.543,0,0,1-6.419-5.284" transform="translate(161.492 266.707)" fill="#ea5b70"/>
          </g>
          <g id="g16167" transform="translate(20.905 0.818)">
            <path id="path16169" d="M-157.323,0h-2.271a11.738,11.738,0,0,0-11.738,11.738v3.616a11.738,11.738,0,0,0,11.738,11.738h2.271a6.541,6.541,0,0,0,6.541-6.541V6.541A6.541,6.541,0,0,0-157.323,0" transform="translate(171.333)" fill="#ffce71"/>
          </g>
          <g id="g16171" transform="translate(14.364 0.818)">
            <path id="path16173" d="M-146.917-230.782v-.646h3.357l-2.731-7.282a.669.669,0,0,0-.626-.434v-5.648a6.541,6.541,0,0,1,6.541-6.541h-13.083A6.541,6.541,0,0,0-160-244.791v14.01a6.541,6.541,0,0,0,6.541,6.541h13.083a6.541,6.541,0,0,1-6.541-6.541" transform="translate(160 251.333)" fill="#ffb357"/>
          </g>
          <g id="g16175" transform="translate(21.942 10.88)">
            <path id="path16177" d="M-132.857-129.723l-3.794-10.118a2.21,2.21,0,0,0-2.069-1.434,2.21,2.21,0,0,0-2.069,1.434l-3.794,10.118a1.636,1.636,0,0,0,1.032,2.132,1.666,1.666,0,0,0,2.047-1.026l.237-.633h5.094l.238.633a1.666,1.666,0,0,0,2.047,1.026,1.636,1.636,0,0,0,1.032-2.132" transform="translate(144.688 141.274)" fill="#fff1d4"/>
          </g>
          <g id="g16179" transform="translate(35.142 37.558)">
            <path id="path16181" d="M-79.921-159.17a7.093,7.093,0,0,1-7.117-7.083,7.131,7.131,0,0,1,12.146-5.014,1.635,1.635,0,0,1,.007,2.313,1.635,1.635,0,0,1-2.313.007,3.855,3.855,0,0,0-6.569,2.695,3.855,3.855,0,0,0,6.569,2.7,1.635,1.635,0,0,1,2.313.007,1.635,1.635,0,0,1-.007,2.313,7.111,7.111,0,0,1-5.029,2.068" transform="translate(87.038 173.344)" fill="#ffdbe0"/>
          </g>
          <g id="g16183" transform="translate(7.359 27.91)">
            <path id="path16185" d="M-157.323,0h-3.571a10.439,10.439,0,0,0-10.439,10.439v6.214a10.439,10.439,0,0,0,10.439,10.439h3.571a6.541,6.541,0,0,0,6.541-6.541V6.541A6.541,6.541,0,0,0-157.323,0" transform="translate(171.333)" fill="#55dafe"/>
          </g>
          <g id="g16187" transform="translate(0.818 27.91)">
            <path id="path16189" d="M-149.232-249.146l2.874-3.271v-5.451l-3.08-2.18v-4.743a6.541,6.541,0,0,1,6.541-6.541H-155.98a6.542,6.542,0,0,0-6.541,6.541v14.01a6.542,6.542,0,0,0,6.541,6.541H-142.9a6.544,6.544,0,0,1-6.335-4.906" transform="translate(162.521 271.333)" fill="#1cbbea"/>
          </g>
          <g id="g16191" transform="translate(9.751 37.612)">
            <path id="path16193" d="M-103.595-47.569a4.241,4.241,0,0,0-4.236-4.236h-3.577a1.412,1.412,0,0,0-1.412,1.412v11.3a1.412,1.412,0,0,0,1.412,1.412h3.577a4.241,4.241,0,0,0,4.236-4.236,4.22,4.22,0,0,0-1.081-2.824,4.22,4.22,0,0,0,1.081-2.824" transform="translate(112.82 51.805)" fill="#b9f0ff"/>
          </g>
          <g id="g16195" transform="translate(0 0)">
            <path id="path16197" d="M-313.422-349.095a7.4,7.4,0,0,0-1.923-2.359h3.846a7.4,7.4,0,0,0-1.923,2.359m-.818,17.374A5.73,5.73,0,0,1-319.964-326h-14.01a5.73,5.73,0,0,1-5.724-5.724v-14.01a5.73,5.73,0,0,1,5.724-5.724h14.01a5.73,5.73,0,0,1,5.724,5.724Zm27.91-7.6a.818.818,0,0,0,.818-.818v-5.591a7.367,7.367,0,0,0-7.359-7.359H-301.8a7.347,7.347,0,0,0,2.741-5.724v-14.01a7.367,7.367,0,0,0-7.359-7.359h-14.01a7.367,7.367,0,0,0-7.359,7.359v5.148a.818.818,0,0,0,.818.818.818.818,0,0,0,.818-.818v-5.148a5.73,5.73,0,0,1,5.724-5.724h14.01a5.73,5.73,0,0,1,5.724,5.724v14.01a5.73,5.73,0,0,1-5.724,5.724h-14.01a5.73,5.73,0,0,1-5.724-5.724V-364.4a.818.818,0,0,0-.818-.818.818.818,0,0,0-.818.818v5.591a7.347,7.347,0,0,0,2.741,5.724h-8.928a7.367,7.367,0,0,0-7.359,7.359v14.01a7.367,7.367,0,0,0,7.359,7.359h14.01a7.365,7.365,0,0,0,6.541-3.994,7.365,7.365,0,0,0,6.541,3.994h14.01a7.367,7.367,0,0,0,7.359-7.359v-5.148a.818.818,0,0,0-.818-.818.818.818,0,0,0-.818.818v5.148A5.73,5.73,0,0,1-292.871-326h-14.01a5.73,5.73,0,0,1-5.724-5.724v-14.01a5.73,5.73,0,0,1,5.724-5.724h14.01a5.73,5.73,0,0,1,5.724,5.724v5.591a.818.818,0,0,0,.818.818" transform="translate(341.332 380.182)"/>
          </g>
          <g id="g16199" transform="translate(25.772 15.294)">
            <path id="path16201" d="M-9.188-57.906h2.641a.818.818,0,0,0,.818-.818.818.818,0,0,0-.818-.818H-8.009l.906-2.416a.818.818,0,0,0-.479-1.053.817.817,0,0,0-1.053.478l-1.32,3.521a.818.818,0,0,0,.766,1.1" transform="translate(10.007 63.063)"/>
          </g>
          <g id="g16203" transform="translate(21.124 10.069)">
            <path id="path16205" d="M-61.575-28.43a1.394,1.394,0,0,1,2.607,0l3.794,10.118a.817.817,0,0,1-.517,1.066.852.852,0,0,1-1.031-.535l-.238-.633a.818.818,0,0,0-.766-.531h-5.094a.818.818,0,0,0-.766.531l-.237.633a.851.851,0,0,1-1.031.535.817.817,0,0,1-.517-1.066ZM-66.9-18.886a2.454,2.454,0,0,0,2.288,3.314,2.5,2.5,0,0,0,2.361-1.737h3.96a2.459,2.459,0,0,0,4.56.352,2.464,2.464,0,0,0,.088-1.929L-57.437-29a3.031,3.031,0,0,0-5.669,0Z" transform="translate(67.058 30.962)"/>
          </g>
          <g id="g16207" transform="translate(8.934 36.794)">
            <path id="path16209" d="M-93.8-94.594a3.421,3.421,0,0,1-2.546,5.7h-3.577a.6.6,0,0,1-.594-.594v-11.3a.6.6,0,0,1,.594-.594h3.577a3.421,3.421,0,0,1,2.546,5.7.818.818,0,0,0,0,1.091m-2.546-8.424h-3.577a2.232,2.232,0,0,0-2.23,2.23v11.3a2.232,2.232,0,0,0,2.23,2.23h3.577a5.058,5.058,0,0,0,4.189-7.878,5.059,5.059,0,0,0-4.189-7.878" transform="translate(102.149 103.017)"/>
          </g>
          <g id="g16211" transform="translate(34.324 36.735)">
            <path id="path16213" d="M-126.157-125.652a.817.817,0,0,1,1.156,0,.817.817,0,0,1,0,1.156,6.311,6.311,0,0,1-10.752-4.435,6.174,6.174,0,0,1,3.886-5.773A6.206,6.206,0,0,1-125-133.361a.817.817,0,0,1,0,1.156.819.819,0,0,1-1.156,0,4.607,4.607,0,0,0-5.1-.993,4.562,4.562,0,0,0-2.868,4.268,4.672,4.672,0,0,0,7.964,3.275m-4.468-6.033a3,3,0,0,1,3.315.643,2.456,2.456,0,0,0,3.469-.01,2.451,2.451,0,0,0-.01-3.469,7.816,7.816,0,0,0-8.647-1.689,7.784,7.784,0,0,0-4.894,7.283,7.948,7.948,0,0,0,13.54,5.594,2.451,2.451,0,0,0,.01-3.469,2.451,2.451,0,0,0-3.469-.01,3.038,3.038,0,0,1-5.175-2.115,2.959,2.959,0,0,1,1.86-2.758" transform="translate(137.392 136.841)"/>
          </g>
          <g id="g16215" transform="translate(21.031 4.762)">
            <path id="path16217" d="M-9.182,0A.818.818,0,0,0-10,.818V2.126a.818.818,0,0,0,.818.818.818.818,0,0,0,.818-.818V.818A.818.818,0,0,0-9.182,0" transform="translate(10)"/>
          </g>
          <g id="g16219" transform="translate(25.207 6.062)">
            <path id="path16221" d="M-58.451-15.216a.818.818,0,0,0-.079-1.154.818.818,0,0,0-1.154.079,1.682,1.682,0,0,1-2.538,0,.818.818,0,0,0-1.154-.079.818.818,0,0,0-.079,1.154,3.318,3.318,0,0,0,5,0" transform="translate(63.656 16.571)"/>
          </g>
          <g id="g16223" transform="translate(31.89 4.518)">
            <path id="path16225" d="M-18.365-26.206a.7.7,0,0,1,.7-.7.7.7,0,0,1,.7.7.818.818,0,0,0,.818.818.818.818,0,0,0,.818-.818,2.336,2.336,0,0,0-2.334-2.334A2.336,2.336,0,0,0-20-26.206a.818.818,0,0,0,.818.818.818.818,0,0,0,.818-.818" transform="translate(20 28.54)"/>
          </g>
          <g id="g16227" transform="translate(33.83 31.343)">
            <path id="path16229" d="M-18.365-23.874v-1.308A.818.818,0,0,0-19.182-26a.818.818,0,0,0-.818.818v1.308a.818.818,0,0,0,.818.818.818.818,0,0,0,.818-.818" transform="translate(20 26)"/>
          </g>
          <g id="g16231" transform="translate(47.447 31.343)">
            <path id="path16233" d="M-18.365-23.874v-1.308A.818.818,0,0,0-19.182-26a.818.818,0,0,0-.818.818v1.308a.818.818,0,0,0,.818.818.818.818,0,0,0,.818-.818" transform="translate(20 26)"/>
          </g>
          <g id="g16235" transform="translate(38.844 32.612)">
            <path id="path16237" d="M-56.419-15.215a.817.817,0,0,0-.079-1.154.817.817,0,0,0-1.154.079,1.562,1.562,0,0,1-2.357,0,.817.817,0,0,0-1.154-.079.818.818,0,0,0-.079,1.154,3.2,3.2,0,0,0,4.823,0" transform="translate(61.443 16.57)"/>
          </g>
          <g id="g16239" transform="translate(5.756 31.406)">
            <path id="path16241" d="M-50.256-15.216a.818.818,0,0,0-.079-1.154.818.818,0,0,0-1.154.079,1.2,1.2,0,0,1-1.808,0,.818.818,0,0,0-1.154-.079.818.818,0,0,0-.079,1.154,2.834,2.834,0,0,0,4.274,0" transform="translate(54.731 16.571)"/>
          </g>
          <g id="g16243" transform="translate(18.295 31.406)">
            <path id="path16245" d="M-49.366-2.26a.818.818,0,0,0-1.154.079,1.2,1.2,0,0,1-1.808,0,.818.818,0,0,0-1.154-.079.818.818,0,0,0-.079,1.154,2.834,2.834,0,0,0,4.274,0,.818.818,0,0,0-.079-1.154" transform="translate(53.762 2.462)"/>
          </g>
          <g id="g16247" transform="translate(11.652 32.296)">
            <path id="path16249" d="M-58.451-15.216a.818.818,0,0,0-.079-1.154.818.818,0,0,0-1.154.079,1.682,1.682,0,0,1-2.538,0,.818.818,0,0,0-1.154-.079.818.818,0,0,0-.079,1.154,3.318,3.318,0,0,0,5,0" transform="translate(63.656 16.571)"/>
          </g>
          <g id="g16251" transform="translate(12.174 45.501)">
            <path id="path16253" d="M-28.579,0h-1.727a.818.818,0,0,0-.818.818V2.852a.818.818,0,0,0,.818.818.818.818,0,0,0,.818-.818V1.635h.91a.2.2,0,0,1,.2.2.818.818,0,0,0,.818.818.818.818,0,0,0,.818-.818A1.837,1.837,0,0,0-28.579,0" transform="translate(31.124)"/>
          </g>
          <g id="g16255" transform="translate(12.174 40.174)">
            <path id="path16257" d="M-28.579,0h-1.727a.818.818,0,0,0-.818.818V2.852a.818.818,0,0,0,.818.818.818.818,0,0,0,.818-.818V1.635h.91a.2.2,0,0,1,.2.2.818.818,0,0,0,.818.818.818.818,0,0,0,.818-.818A1.837,1.837,0,0,0-28.579,0" transform="translate(31.124)"/>
          </g>
        </g>
      </g>
    </g>
  </g>
</svg>
