<svg xmlns="http://www.w3.org/2000/svg" xmlns:xlink="http://www.w3.org/1999/xlink" width="108" height="108" viewBox="0 0 108 108">
  <defs>
    <filter id="Trazado_978624" x="0" y="0" width="108" height="108" filterUnits="userSpaceOnUse">
      <feOffset dy="3" input="SourceAlpha"/>
      <feGaussianBlur stdDeviation="3" result="blur"/>
      <feFlood flood-opacity="0.161"/>
      <feComposite operator="in" in2="blur"/>
      <feComposite in="SourceGraphic"/>
    </filter>
  </defs>
  <g id="Grupo_1172822" data-name="Grupo 1172822" transform="translate(-196.112 -446)">
    <g id="Grupo_1172150" data-name="Grupo 1172150" transform="translate(0.112 -380)">
      <g id="Grupo_1171052" data-name="Grupo 1171052" transform="translate(205 832)">
        <g id="Grupo_1164581" data-name="Grupo 1164581">
          <g id="Grupo_1144123" data-name="Grupo 1144123">
            <g transform="matrix(1, 0, 0, 1, -9, -6)" filter="url(#Trazado_978624)">
              <g id="Trazado_978624-2" data-name="Trazado 978624" transform="translate(9 6)" fill="#f4fdfe">
                <path d="M 45 88.5 C 39.12687683105469 88.5 33.43022537231445 87.35007476806641 28.06830024719238 85.08217620849609 C 22.88852500915527 82.89131164550781 18.23629951477051 79.75458526611328 14.2408504486084 75.75914764404297 C 10.24541282653809 71.76370239257812 7.108687400817871 67.11147308349609 4.917825222015381 61.93170166015625 C 2.649924993515015 56.56977462768555 1.5 50.87312316894531 1.5 45 C 1.5 39.12687683105469 2.649924993515015 33.43022537231445 4.917825222015381 28.06830024719238 C 7.108687400817871 22.88852500915527 10.24541282653809 18.23629951477051 14.2408504486084 14.2408504486084 C 18.23629951477051 10.24541282653809 22.88852500915527 7.108687400817871 28.06830024719238 4.917825222015381 C 33.43022537231445 2.649924993515015 39.12687683105469 1.5 45 1.5 C 50.87312316894531 1.5 56.56977462768555 2.649924993515015 61.93170166015625 4.917825222015381 C 67.11147308349609 7.108687400817871 71.76370239257812 10.24541282653809 75.75914764404297 14.2408504486084 C 79.75458526611328 18.23629951477051 82.89131164550781 22.88852500915527 85.08217620849609 28.06830024719238 C 87.35007476806641 33.43022537231445 88.5 39.12687683105469 88.5 45 C 88.5 50.87312316894531 87.35007476806641 56.56977462768555 85.08217620849609 61.93170166015625 C 82.89131164550781 67.11147308349609 79.75458526611328 71.76370239257812 75.75914764404297 75.75914764404297 C 71.76370239257812 79.75458526611328 67.11147308349609 82.89131164550781 61.93170166015625 85.08217620849609 C 56.56977462768555 87.35007476806641 50.87312316894531 88.5 45 88.5 Z" stroke="none"/>
                <path d="M 45 3 C 39.32871246337891 3 33.82865524291992 4.110054016113281 28.65262985229492 6.299339294433594 C 23.65165710449219 8.414573669433594 19.15968322753906 11.44334411621094 15.301513671875 15.301513671875 C 11.44334411621094 19.15968322753906 8.414573669433594 23.65165710449219 6.299339294433594 28.65262985229492 C 4.110054016113281 33.82865524291992 3 39.32871246337891 3 45 C 3 50.67128753662109 4.110054016113281 56.17134475708008 6.299339294433594 61.34737396240234 C 8.414573669433594 66.34834289550781 11.44334411621094 70.84031677246094 15.301513671875 74.698486328125 C 19.15968322753906 78.55665588378906 23.65165710449219 81.58542633056641 28.65262985229492 83.70066070556641 C 33.82865524291992 85.88994598388672 39.32871246337891 87 45 87 C 50.67128753662109 87 56.17134475708008 85.88994598388672 61.34737396240234 83.70066070556641 C 66.34834289550781 81.58542633056641 70.84031677246094 78.55665588378906 74.698486328125 74.698486328125 C 78.55665588378906 70.84031677246094 81.58542633056641 66.34834289550781 83.70066070556641 61.34737396240234 C 85.88994598388672 56.17134475708008 87 50.67128753662109 87 45 C 87 39.32871246337891 85.88994598388672 33.82865524291992 83.70066070556641 28.65262985229492 C 81.58542633056641 23.65165710449219 78.55665588378906 19.15968322753906 74.698486328125 15.301513671875 C 70.84031677246094 11.44334411621094 66.34834289550781 8.414573669433594 61.34737396240234 6.299339294433594 C 56.17134475708008 4.110054016113281 50.67128753662109 3 45 3 M 45 0 C 69.85281372070312 0 90 20.14718627929688 90 45 C 90 69.85281372070312 69.85281372070312 90 45 90 C 20.14718627929688 90 0 69.85281372070312 0 45 C 0 20.14718627929688 20.14718627929688 0 45 0 Z" stroke="none" fill="#56838a"/>
              </g>
            </g>
          </g>
        </g>
      </g>
    </g>
    <g id="emotional_12649758" transform="translate(183.23 458.5)">
      <g id="Grupo_1172819" data-name="Grupo 1172819" transform="translate(40.882 7.5)">
        <g id="Grupo_1172818" data-name="Grupo 1172818" transform="translate(0 0)">
          <g id="Grupo_1172817" data-name="Grupo 1172817" transform="translate(4.5)">
            <g id="Grupo_1172811" data-name="Grupo 1172811" transform="translate(6.092 5.996)">
              <path id="Trazado_1027189" data-name="Trazado 1027189" d="M169.421,80.144l-3.113-3.206a.793.793,0,0,1-.224-.552v-.552A18.993,18.993,0,0,0,143.4,57.246,11.2,11.2,0,0,1,128.46,72.291a19.017,19.017,0,0,0-.121,6.369,7.528,7.528,0,1,1,6.764,13.2v4.53a7.524,7.524,0,0,1,5,9.248h13.851a1.471,1.471,0,0,0,1.471-1.471v-5.6a3.074,3.074,0,0,1,3.076-3.073h3.8a3.779,3.779,0,0,0,3.781-3.777v-7.5a.793.793,0,0,1,.415-.7l2.625-1.425A1.239,1.239,0,0,0,169.421,80.144Z" transform="translate(-128.127 -56.885)" fill="#ffdfcf"/>
              <path id="Trazado_1027190" data-name="Trazado 1027190" d="M255.834,106.23l-3.113-3.206a.793.793,0,0,1-.224-.552v-.552a18.913,18.913,0,0,0-7.842-15.344,18.842,18.842,0,0,1,3.593,11.094v15.889a3.779,3.779,0,0,1-3.781,3.777h0a6.873,6.873,0,0,0-6.873,6.873V126a1.471,1.471,0,0,1-1.471,1.471h-9.64a7.506,7.506,0,0,1,.038,4.249h13.851a1.471,1.471,0,0,0,1.471-1.471v-5.6a3.074,3.074,0,0,1,3.076-3.073h3.8a3.779,3.779,0,0,0,3.781-3.777v-7.5a.793.793,0,0,1,.414-.7l2.625-1.425A1.239,1.239,0,0,0,255.834,106.23Z" transform="translate(-214.54 -82.971)" fill="#ffcebf"/>
              <path id="Trazado_1027191" data-name="Trazado 1027191" d="M200.659,117.95a11.564,11.564,0,0,0-2.763.334,11.242,11.242,0,0,1-8.455,8.51,11.606,11.606,0,0,0-.167,4.548,7.54,7.54,0,0,1,4.712,6.98c0,.187-.009.372-.023.555a11.535,11.535,0,1,0,6.7-20.927Z" transform="translate(-181.719 -110.536)" fill="#fe4fb7"/>
              <circle id="Elipse_12365" data-name="Elipse 12365" cx="5.714" cy="5.714" r="5.714" transform="translate(13.226 13.234)" fill="#fe2aa8"/>
              <path id="Trazado_1027192" data-name="Trazado 1027192" d="M255.1,166.257a5.713,5.713,0,0,1-4.109,9.684,5.769,5.769,0,0,1-.709-.045,5.713,5.713,0,1,0,4.818-9.638Z" transform="translate(-235.452 -152.978)" fill="#f1239a"/>
            </g>
            <g id="Grupo_1172813" data-name="Grupo 1172813" transform="translate(3.18 26.132)">
              <g id="Grupo_1172812" data-name="Grupo 1172812">
                <circle id="Elipse_12366" data-name="Elipse 12366" cx="7.651" cy="7.651" r="7.651" fill="#cb97e7"/>
                <path id="Trazado_1027193" data-name="Trazado 1027193" d="M141.781,223.4a7.651,7.651,0,0,1-4.771,14.289,7.651,7.651,0,1,0,4.771-14.289Z" transform="translate(-133.02 -223.316)" fill="#bd80e1"/>
              </g>
            </g>
            <g id="Grupo_1172814" data-name="Grupo 1172814" transform="translate(3.18 45.041)">
              <circle id="Elipse_12367" data-name="Elipse 12367" cx="7.651" cy="7.651" r="7.651" fill="#05e39c"/>
              <path id="Trazado_1027194" data-name="Trazado 1027194" d="M141.781,379.143a7.651,7.651,0,0,1-4.771,14.289,7.651,7.651,0,1,0,4.771-14.289Z" transform="translate(-133.02 -379.062)" fill="#0ed290"/>
            </g>
            <path id="Trazado_1027195" data-name="Trazado 1027195" d="M234.11,160.289l-9.611-9.611a11.241,11.241,0,0,1-3.372,3.372l9.571,9.571A5.73,5.73,0,0,0,234.11,160.289Z" transform="translate(-203.743 -133.294)" fill="#b5adb6"/>
            <g id="Grupo_1172815" data-name="Grupo 1172815" transform="translate(24.696 23.933)">
              <path id="Trazado_1027196" data-name="Trazado 1027196" d="M283.959,204.616a5.712,5.712,0,0,1-2.609,4.135l2.259,2.259a5.729,5.729,0,0,0,3.412-3.332Z" transform="translate(-281.35 -204.616)" fill="#a79ba7"/>
            </g>
            <circle id="Elipse_12368" data-name="Elipse 12368" cx="11.327" cy="11.327" r="11.327" fill="#7a6d79"/>
            <g id="Grupo_1172816" data-name="Grupo 1172816" transform="translate(3.677 3.677)">
              <circle id="Elipse_12369" data-name="Elipse 12369" cx="7.651" cy="7.651" r="7.651" fill="#ffe177"/>
              <path id="Trazado_1027197" data-name="Trazado 1027197" d="M145.963,37.8a7.65,7.65,0,0,1-3.509,14.449l-.109,0A7.65,7.65,0,1,0,145.963,37.8Z" transform="translate(-138.203 -37.801)" fill="#ffd15b"/>
            </g>
          </g>
          <path id="Trazado_1027198" data-name="Trazado 1027198" d="M45.8,188.093H42.925a.607.607,0,0,0-.526.3l-1.436,2.487a.607.607,0,0,0,0,.607l1.436,2.487a.607.607,0,0,0,.526.3H45.8a.607.607,0,0,0,.526-.3l1.436-2.487a.607.607,0,0,0,0-.607L46.323,188.4A.607.607,0,0,0,45.8,188.093Z" transform="translate(-40.882 -166.167)" fill="#ffe177"/>
          <path id="Trazado_1027199" data-name="Trazado 1027199" d="M67.407,190.883,65.971,188.4a.607.607,0,0,0-.526-.3h-2.2l1.611,2.79a.607.607,0,0,1,0,.607l-1.611,2.79h2.2a.607.607,0,0,0,.526-.3l1.436-2.487A.607.607,0,0,0,67.407,190.883Z" transform="translate(-60.531 -166.167)" fill="#ffd15b"/>
          <path id="Trazado_1027200" data-name="Trazado 1027200" d="M265.838,371.708h-2.872a.607.607,0,0,0-.526.3L261,374.5a.607.607,0,0,0,0,.607l1.436,2.487a.607.607,0,0,0,.526.3h2.872a.607.607,0,0,0,.526-.3l1.436-2.487a.607.607,0,0,0,0-.607l-1.436-2.487A.607.607,0,0,0,265.838,371.708Z" transform="translate(-234.207 -327.488)" fill="#fe4fb7"/>
          <path id="Trazado_1027201" data-name="Trazado 1027201" d="M287.449,374.5l-1.436-2.487a.607.607,0,0,0-.526-.3h-2.2l1.611,2.79a.607.607,0,0,1,0,.607l-1.611,2.79h2.2a.607.607,0,0,0,.526-.3l1.436-2.487A.607.607,0,0,0,287.449,374.5Z" transform="translate(-253.857 -327.489)" fill="#fe2aa8"/>
        </g>
      </g>
      <g id="Grupo_1172821" data-name="Grupo 1172821" transform="translate(40.882 7.5)">
        <path id="Trazado_1027202" data-name="Trazado 1027202" d="M254.151,333.026a15.238,15.238,0,0,1-6.54-.515" transform="translate(-222.511 -293.05)" fill="none" stroke="#000" stroke-linecap="round" stroke-linejoin="round" stroke-miterlimit="10" stroke-width="1.5"/>
        <path id="Trazado_1027203" data-name="Trazado 1027203" d="M296.03,88.512a15.177,15.177,0,0,1,5,28.849" transform="translate(-265.052 -78.676)" fill="none" stroke="#000" stroke-linecap="round" stroke-linejoin="round" stroke-miterlimit="10" stroke-width="1.5"/>
        <path id="Trazado_1027204" data-name="Trazado 1027204" d="M153.53,297.706a2.2,2.2,0,0,0-4.37,0" transform="translate(-136.014 -260.731)" fill="none" stroke="#000" stroke-linecap="round" stroke-linejoin="round" stroke-miterlimit="10" stroke-width="1.5"/>
        <line id="Línea_774" data-name="Línea 774" x2="0.723" transform="translate(12.619 31.495)" fill="none" stroke="#000" stroke-linecap="round" stroke-linejoin="round" stroke-miterlimit="10" stroke-width="1.5"/>
        <line id="Línea_775" data-name="Línea 775" x1="0.723" transform="translate(17.32 31.495)" fill="none" stroke="#000" stroke-linecap="round" stroke-linejoin="round" stroke-miterlimit="10" stroke-width="1.5"/>
        <line id="Línea_776" data-name="Línea 776" x2="4.37" transform="translate(13.146 55.041)" fill="none" stroke="#000" stroke-linecap="round" stroke-linejoin="round" stroke-miterlimit="10" stroke-width="1.5"/>
        <line id="Línea_777" data-name="Línea 777" y2="0.723" transform="translate(12.981 50.044)" fill="none" stroke="#000" stroke-linecap="round" stroke-linejoin="round" stroke-miterlimit="10" stroke-width="1.5"/>
        <line id="Línea_778" data-name="Línea 778" y2="0.723" transform="translate(17.682 50.044)" fill="none" stroke="#000" stroke-linecap="round" stroke-linejoin="round" stroke-miterlimit="10" stroke-width="1.5"/>
        <path id="Trazado_1027205" data-name="Trazado 1027205" d="M79.568,20.974a11.327,11.327,0,1,0-.008-4.249" transform="translate(-74.864 -7.5)" fill="none" stroke="#000" stroke-linecap="round" stroke-linejoin="round" stroke-miterlimit="10" stroke-width="1.5"/>
        <g id="Grupo_1172820" data-name="Grupo 1172820" transform="translate(13.477 8.679)">
          <line id="Línea_779" data-name="Línea 779" y2="0.723" fill="none" stroke="#000" stroke-linecap="round" stroke-linejoin="round" stroke-miterlimit="10" stroke-width="1.5"/>
          <line id="Línea_780" data-name="Línea 780" y2="0.723" transform="translate(4.701)" fill="none" stroke="#000" stroke-linecap="round" stroke-linejoin="round" stroke-miterlimit="10" stroke-width="1.5"/>
        </g>
        <path id="Trazado_1027206" data-name="Trazado 1027206" d="M153.246,110.779a2.2,2.2,0,0,0,4.37,0" transform="translate(-139.604 -98.24)" fill="none" stroke="#000" stroke-linecap="round" stroke-linejoin="round" stroke-miterlimit="10" stroke-width="1.5"/>
        <circle id="Elipse_12370" data-name="Elipse 12370" cx="7.651" cy="7.651" r="7.651" transform="translate(8.177 3.677)" fill="none" stroke="#000" stroke-linecap="round" stroke-linejoin="round" stroke-miterlimit="10" stroke-width="1.5"/>
        <line id="Línea_781" data-name="Línea 781" x1="9.523" y1="9.523" transform="translate(25.344 17.472)" fill="none" stroke="#000" stroke-linejoin="round" stroke-miterlimit="10" stroke-width="1.5"/>
        <line id="Línea_782" data-name="Línea 782" x2="9.483" y2="9.483" transform="translate(21.972 20.844)" fill="none" stroke="#000" stroke-linejoin="round" stroke-miterlimit="10" stroke-width="1.5"/>
        <path id="Trazado_1027207" data-name="Trazado 1027207" d="M237.391,169.677a5.716,5.716,0,1,0,3.332-3.412" transform="translate(-213.24 -146.654)" fill="none" stroke="#000" stroke-linejoin="round" stroke-miterlimit="10" stroke-width="1.5"/>
        <path id="Trazado_1027208" data-name="Trazado 1027208" d="M229.935,266.034a11.536,11.536,0,0,0,16.415-3.447" transform="translate(-206.981 -231.616)" fill="none" stroke="#000" stroke-linecap="round" stroke-linejoin="round" stroke-miterlimit="10" stroke-width="1.5"/>
        <path id="Trazado_1027209" data-name="Trazado 1027209" d="M276.443,131.532a11.544,11.544,0,0,0-13.983-13.281" transform="translate(-235.557 -104.54)" fill="none" stroke="#000" stroke-linecap="round" stroke-linejoin="round" stroke-miterlimit="10" stroke-width="1.5"/>
        <path id="Trazado_1027210" data-name="Trazado 1027210" d="M189.41,191.882a11.623,11.623,0,0,0-.158,4.274" transform="translate(-171.126 -169.495)" fill="none" stroke="#000" stroke-linejoin="round" stroke-miterlimit="10" stroke-width="1.5"/>
        <circle id="Elipse_12371" data-name="Elipse 12371" cx="7.651" cy="7.651" r="7.651" transform="translate(7.681 26.132)" fill="none" stroke="#000" stroke-linejoin="round" stroke-miterlimit="10" stroke-width="1.5"/>
        <path id="Trazado_1027211" data-name="Trazado 1027211" d="M106.624,388.249a7.651,7.651,0,1,0,0-4.25" transform="translate(-98.642 -333.433)" fill="none" stroke="#000" stroke-linecap="round" stroke-linejoin="round" stroke-miterlimit="10" stroke-width="1.5"/>
        <path id="Trazado_1027212" data-name="Trazado 1027212" d="M265.838,371.708h-2.872a.607.607,0,0,0-.526.3L261,374.5a.607.607,0,0,0,0,.607l1.436,2.487a.607.607,0,0,0,.526.3h2.872a.607.607,0,0,0,.526-.3l1.436-2.487a.607.607,0,0,0,0-.607l-1.436-2.487A.607.607,0,0,0,265.838,371.708Z" transform="translate(-234.207 -327.488)" fill="none" stroke="#000" stroke-linejoin="round" stroke-miterlimit="10" stroke-width="1.5"/>
        <path id="Trazado_1027213" data-name="Trazado 1027213" d="M45.8,188.093H42.925a.607.607,0,0,0-.526.3l-1.436,2.487a.607.607,0,0,0,0,.607l1.436,2.487a.607.607,0,0,0,.526.3H45.8a.607.607,0,0,0,.526-.3l1.436-2.487a.607.607,0,0,0,0-.607L46.323,188.4A.607.607,0,0,0,45.8,188.093Z" transform="translate(-40.882 -166.167)" fill="none" stroke="#000" stroke-linejoin="round" stroke-miterlimit="10" stroke-width="1.5"/>
        <path id="Trazado_1027214" data-name="Trazado 1027214" d="M227.843,105.638h13.724a1.471,1.471,0,0,0,1.471-1.471v-5.6a3.074,3.074,0,0,1,3.076-3.073h3.8a3.779,3.779,0,0,0,3.781-3.777v-7.5a.793.793,0,0,1,.415-.7l2.625-1.425a1.239,1.239,0,0,0,.3-1.952l-3.113-3.206a.793.793,0,0,1-.224-.552v-.552A18.99,18.99,0,0,0,231.14,57.221" transform="translate(-205.143 -50.888)" fill="none" stroke="#000" stroke-linejoin="round" stroke-miterlimit="10" stroke-width="1.5"/>
        <line id="Línea_783" data-name="Línea 783" y2="4.275" transform="translate(17.569 41.1)" fill="none" stroke="#000" stroke-linejoin="round" stroke-miterlimit="10" stroke-width="1.5"/>
        <path id="Trazado_1027215" data-name="Trazado 1027215" d="M128.436,184.823a19.079,19.079,0,0,0-.118,6.1" transform="translate(-117.535 -163.294)" fill="none" stroke="#000" stroke-linejoin="round" stroke-miterlimit="10" stroke-width="1.5"/>
      </g>
    </g>
  </g>
</svg>
