<svg xmlns="http://www.w3.org/2000/svg" xmlns:xlink="http://www.w3.org/1999/xlink" width="97.035" height="97.035" viewBox="0 0 97.035 97.035">
  <defs>
    <filter id="Trazado_982547" x="0" y="0" width="97.035" height="97.035" filterUnits="userSpaceOnUse">
      <feOffset dy="3" input="SourceAlpha"/>
      <feGaussianBlur stdDeviation="3" result="blur"/>
      <feFlood flood-opacity="0.161"/>
      <feComposite operator="in" in2="blur"/>
      <feComposite in="SourceGraphic"/>
    </filter>
    <clipPath id="clip-path">
      <path id="path5130" d="M0-682.665H49.266V-633.4H0Z" transform="translate(0 682.665)"/>
    </clipPath>
  </defs>
  <g id="Grupo_1172513" data-name="Grupo 1172513" transform="translate(-191 -739)">
    <g id="Grupo_1172071" data-name="Grupo 1172071" transform="translate(-838.409 -1797.582)">
      <g id="Grupo_1171112" data-name="Grupo 1171112" transform="translate(232.219 577.058)">
        <g id="Grupo_1164703" data-name="Grupo 1164703" transform="translate(806.19 1965.523)">
          <g id="Grupo_1160931" data-name="Grupo 1160931" transform="translate(0 0)">
            <g id="Grupo_1160749" data-name="Grupo 1160749" transform="translate(0 0)">
              <g id="Grupo_1158891" data-name="Grupo 1158891" transform="translate(0 0)">
                <g id="Grupo_1157406" data-name="Grupo 1157406" transform="translate(0 0)">
                  <g id="Grupo_1155793" data-name="Grupo 1155793" transform="translate(0 0)">
                    <g id="Grupo_1154704" data-name="Grupo 1154704">
                      <g id="Grupo_1150790" data-name="Grupo 1150790">
                        <g id="Grupo_1154214" data-name="Grupo 1154214">
                          <g id="Grupo_1152583" data-name="Grupo 1152583">
                            <g id="Grupo_1146973" data-name="Grupo 1146973">
                              <g id="Grupo_1146954" data-name="Grupo 1146954">
                                <g transform="matrix(1, 0, 0, 1, -9, -6)" filter="url(#Trazado_982547)">
                                  <g id="Trazado_982547-2" data-name="Trazado 982547" transform="translate(9 6)" fill="#edf3fc">
                                    <path d="M 39.51754379272461 77.53498077392578 C 34.38454437255859 77.53498077392578 29.40588760375977 76.53001403808594 24.7198657989502 74.54798889160156 C 20.19293212890625 72.63327026367188 16.12703323364258 69.89185333251953 12.63507747650146 66.39990997314453 C 9.143132209777832 62.90796661376953 6.401721477508545 58.84206771850586 4.486988067626953 54.31515884399414 C 2.504966020584106 49.62913513183594 1.499999403953552 44.65047836303711 1.499999403953552 39.51749038696289 C 1.499999403953552 34.38450241088867 2.504966020584106 29.40584564208984 4.486988067626953 24.71982383728027 C 6.401721477508545 20.19291305541992 9.143132209777832 16.12701225280762 12.63507747650146 12.6350679397583 C 16.12703323364258 9.143123626708984 20.19293212890625 6.401712417602539 24.7198657989502 4.486990451812744 C 29.40588760375977 2.504968166351318 34.38454437255859 1.500001549720764 39.51754379272461 1.500001549720764 C 44.65054321289062 1.500001549720764 49.62919998168945 2.504968166351318 54.31523132324219 4.486990451812744 C 58.84215545654297 6.401712417602539 62.90806579589844 9.143123626708984 66.40000915527344 12.6350679397583 C 69.89195251464844 16.12701225280762 72.63337707519531 20.19291305541992 74.548095703125 24.71982383728027 C 76.53012084960938 29.40584564208984 77.53508758544922 34.38450241088867 77.53508758544922 39.51749038696289 C 77.53508758544922 44.65047836303711 76.53012084960938 49.62913513183594 74.548095703125 54.31515884399414 C 72.63337707519531 58.84206771850586 69.89195251464844 62.90796661376953 66.40000915527344 66.39990997314453 C 62.90806579589844 69.89185333251953 58.84215545654297 72.63327026367188 54.31523132324219 74.54798889160156 C 49.62919998168945 76.53001403808594 44.65054321289062 77.53498077392578 39.51754379272461 77.53498077392578 Z" stroke="none"/>
                                    <path d="M 39.51754379272461 3 C 34.58638000488281 3 29.80431747436523 3.965103149414062 25.30418014526367 5.868492126464844 C 20.9560546875 7.707588195800781 17.05040740966797 10.34104919433594 13.69573211669922 13.69572448730469 C 10.34105682373047 17.0504035949707 7.707595825195312 20.95603942871094 5.868492126464844 25.30415344238281 C 3.965095520019531 29.80427932739258 2.999992370605469 34.58634185791016 2.999992370605469 39.51749038696289 C 2.999992370605469 44.44863891601562 3.965095520019531 49.23070526123047 5.868492126464844 53.73082733154297 C 7.707595825195312 58.07894134521484 10.34105682373047 61.98457717895508 13.69573211669922 65.33924865722656 C 17.05040740966797 68.69392395019531 20.9560546875 71.327392578125 25.30418014526367 73.16648864746094 C 29.80431747436523 75.06987762451172 34.58638000488281 76.03498077392578 39.51754379272461 76.03498077392578 C 44.44870758056641 76.03498077392578 49.23076629638672 75.06987762451172 53.73089599609375 73.16648864746094 C 58.07901763916016 71.327392578125 61.98466873168945 68.69392395019531 65.33934020996094 65.33924865722656 C 68.69401550292969 61.98457717895508 71.32748413085938 58.07894134521484 73.16658020019531 53.73082733154297 C 75.06998443603516 49.23070526123047 76.03507995605469 44.44863891601562 76.03507995605469 39.51749038696289 C 76.03507995605469 34.58634185791016 75.06998443603516 29.80427932739258 73.16658020019531 25.30415344238281 C 71.32748413085938 20.95603942871094 68.69401550292969 17.0504035949707 65.33934020996094 13.69572448730469 C 61.98466873168945 10.34104919433594 58.07901763916016 7.707588195800781 53.73089599609375 5.868492126464844 C 49.23076629638672 3.965103149414062 44.44870758056641 3 39.51754379272461 3 M 39.51754379272461 0 C 61.34248352050781 0 79.03507995605469 17.69257736206055 79.03507995605469 39.51749038696289 C 79.03507995605469 61.34240341186523 61.34248352050781 79.03498077392578 39.51754379272461 79.03498077392578 C 17.69260787963867 79.03498077392578 -7.62939453125e-06 61.34240341186523 -7.62939453125e-06 39.51749038696289 C -7.62939453125e-06 17.69257736206055 17.69260787963867 0 39.51754379272461 0 Z" stroke="none" fill="#5692e8"/>
                                  </g>
                                </g>
                              </g>
                            </g>
                          </g>
                        </g>
                      </g>
                    </g>
                  </g>
                </g>
              </g>
            </g>
          </g>
        </g>
      </g>
    </g>
    <g id="g5128" transform="translate(215 760)" clip-path="url(#clip-path)">
      <g id="g5134" transform="translate(19.054 41.182)">
        <path id="path5136" d="M-90.755,0h-1.667l-5.392,3.35V6.464l1.085.9h11.951A7.538,7.538,0,0,0-86.42,2.67,7.456,7.456,0,0,0-90.755,0" transform="translate(97.814)" fill="#ff8e9e"/>
      </g>
      <g id="g5138" transform="translate(17.176 41.033)">
        <path id="path5140" d="M-95.871,0a7.361,7.361,0,0,0-3.644.962,7.531,7.531,0,0,0-2.171,1.857,7.539,7.539,0,0,0-1.642,4.69h2.963A7.511,7.511,0,0,1-94.39.149,7.4,7.4,0,0,0-95.871,0" transform="translate(103.328)" fill="#ea5b70"/>
      </g>
      <g id="g5142" transform="translate(20.989 39.891)">
        <path id="path5144" d="M-46.855,0-50.5,2.1a5.638,5.638,0,0,0,3.644,4.151A5.637,5.637,0,0,0-43.21,2.1Z" transform="translate(50.5)" fill="#ffbf9d"/>
      </g>
      <g id="g5146" transform="translate(7.197 25.04)">
        <path id="path5148" d="M-44.636,0a3.472,3.472,0,0,0-3.472,3.472,3.472,3.472,0,0,0,3.472,3.472,3.472,3.472,0,0,0,3.472-3.472A3.472,3.472,0,0,0-44.636,0" transform="translate(48.108)" fill="#ffbf9d"/>
      </g>
      <g id="g5150" transform="translate(35.126 25.04)">
        <path id="path5152" d="M-44.637,0a3.472,3.472,0,0,0-3.472,3.472,3.472,3.472,0,0,0,3.472,3.472,3.472,3.472,0,0,0,3.472-3.472A3.472,3.472,0,0,0-44.637,0" transform="translate(48.109)" fill="#ffbf9d"/>
      </g>
      <g id="g5154" transform="translate(10.669 19.852)">
        <path id="path5156" d="M0-111.34,11.964-97.566h4.316q.677-.113,1.331-.29A13.97,13.97,0,0,0,27.929-111.34L13.965-120Z" transform="translate(0 120)" fill="#ffd4bd"/>
      </g>
      <g id="g5158" transform="translate(10.669 26.197)">
        <path id="path5160" d="M-59.515-29.759l-2.315-2.315-2.315,2.315a13.97,13.97,0,0,0,10.32,13.483,13.975,13.975,0,0,0,3.644.481,14.04,14.04,0,0,0,2.315-.191,13.968,13.968,0,0,1-11.65-13.773" transform="translate(64.144 32.073)" fill="#ffbf9d"/>
      </g>
      <g id="g5162" transform="translate(40 37.142)">
        <path id="path5164" d="M-18.557,0-20,1.443v9.373h3.608a4.332,4.332,0,0,0,2.165-3.748V4.33A4.335,4.335,0,0,0-18.557,0" transform="translate(20)" fill="#8288cb"/>
      </g>
      <g id="g5166" transform="translate(37.114 37.142)">
        <path id="path5168" d="M-55.656,0a4.342,4.342,0,0,0-4.329,4.33l2.165,1.924,2.164-1.924Z" transform="translate(59.985)" fill="#676fb2"/>
      </g>
      <g id="g5170" transform="translate(37.113 41.472)">
        <path id="path5172" d="M-55.67-35.238v-2.741H-60c0,.014,0,.027,0,.041v2.7a4.335,4.335,0,0,0,4.33,4.33,4.3,4.3,0,0,0,2.165-.582,4.332,4.332,0,0,1-2.165-3.746" transform="translate(60 37.979)" fill="#4c5699"/>
      </g>
      <g id="g5174" transform="translate(40 40.029)">
        <path id="path5176" d="M-17.658-.021a1.47,1.47,0,0,0-1.373,1.482v.966a1.443,1.443,0,0,0,1.443,1.443,1.443,1.443,0,0,0,1.443-1.443V1.42A1.443,1.443,0,0,0-17.658-.021" transform="translate(19.032 0.023)" fill="#9ea2e3"/>
      </g>
      <g id="g5178" transform="translate(16.166 14.547)">
        <path id="path5180" d="M-217.73-36.767a13.9,13.9,0,0,0-8.468-2.86,13.9,13.9,0,0,0-8.467,2.861V-31.5h12.195l4.74-4.481Z" transform="translate(234.665 39.627)" fill="#ce857a"/>
      </g>
      <g id="g5182" transform="translate(28.36 18.194)">
        <path id="path5184" d="M-73.049,0h-.941l-4.74,4.481,2.647,2.591a10.953,10.953,0,0,0,7.591,3.245A13.928,13.928,0,0,0-73.049,0" transform="translate(78.73)" fill="#ce857a"/>
      </g>
      <g id="g5186" transform="translate(15.291 15.673)">
        <path id="path5188" d="M-265.6-2.687a18.414,18.414,0,0,1-9.75,3h-3.132A18.5,18.5,0,0,1-282-.088l-4.255.962V9.942l8.05,0A15.433,15.433,0,0,0-263.711-1.291a1.251,1.251,0,0,0-1.886-1.4" transform="translate(286.255 2.896)" fill="#d6948c"/>
      </g>
      <g id="g5190" transform="translate(10.669 17.408)">
        <path id="path5192" d="M-114.137-13.8a18.334,18.334,0,0,1-3.381-1.073,13.935,13.935,0,0,0-5.5,11.1h4.623a13.913,13.913,0,0,1,4.255-10.03" transform="translate(123.014 14.869)" fill="#ce857a"/>
      </g>
      <g id="g5194" transform="translate(13.733 29.708)">
        <path id="path5196" d="M-38.272,0c-1.644,0-2.977,1.061-2.977,2.371s1.333,2.371,2.977,2.371S-35.3,3.68-35.3,2.371-36.628,0-38.272,0" transform="translate(41.249)" fill="#ff8e9e"/>
      </g>
      <g id="g5198" transform="translate(29.58 29.708)">
        <path id="path5200" d="M-38.274,0c-1.644,0-2.977,1.061-2.977,2.371s1.333,2.371,2.977,2.371S-35.3,3.68-35.3,2.371-36.63,0-38.274,0" transform="translate(41.251)" fill="#ff8e9e"/>
      </g>
      <g id="g5202" transform="translate(23.101 30.605)">
        <path id="path5204" d="M-20.316,0A1.682,1.682,0,0,0-21.9,1.768a1.682,1.682,0,0,0,1.58,1.768,1.682,1.682,0,0,0,1.58-1.768A1.682,1.682,0,0,0-20.316,0" transform="translate(21.896 0)" fill="#4c5699"/>
      </g>
      <g id="g5206" transform="translate(12.181 5.235)">
        <path id="path5208" d="M-52.7,0a1.437,1.437,0,0,0-.991.4H-56.8V4.215a1.329,1.329,0,0,1,1.328-1.328,1.329,1.329,0,0,1,1.328,1.328,1.329,1.329,0,0,1-1.328,1.328A1.33,1.33,0,0,1-56.8,4.215V8.033h3.108a1.437,1.437,0,0,0,.991.4,1.443,1.443,0,0,0,1.443-1.443V1.443A1.443,1.443,0,0,0-52.7,0" transform="translate(56.801)" fill="#ffce71"/>
      </g>
      <g id="g5210" transform="translate(9.294 5.234)">
        <path id="path5212" d="M-37.113-54.187A3.9,3.9,0,0,1-34-58.005a4.19,4.19,0,0,0-1.78-.4A4.219,4.219,0,0,0-40-54.187a4.219,4.219,0,0,0,4.215,4.215,4.19,4.19,0,0,0,1.78-.4,3.9,3.9,0,0,1-3.108-3.819" transform="translate(40 58.401)" fill="#ffb357"/>
      </g>
      <g id="g5214" transform="translate(21.58 3.146)">
        <path id="path5216" d="M-45.513,0h-2.578V2.887h2.578a1.311,1.311,0,0,1,1.29,1.328,1.311,1.311,0,0,1-1.29,1.328h-3.54l1.95,2.244a1.866,1.866,0,0,0,1.409.642h.181a4.2,4.2,0,0,0,4.177-4.215A4.2,4.2,0,0,0-45.513,0" transform="translate(49.053)" fill="#7ce3ff"/>
      </g>
      <g id="g5218" transform="translate(20.618 0.722)">
        <path id="path5220" d="M-37.113-18.557A1.443,1.443,0,0,0-38.557-20,1.443,1.443,0,0,0-40-18.557v7.967s0,.009,0,.014a1.443,1.443,0,0,0,1.443,1.429h2.877a1.449,1.449,0,0,1-1.434-1.436v-1.451h0Z" transform="translate(40 20)" fill="#55dafe"/>
      </g>
      <g id="g5222" transform="translate(35.08 8.561)">
        <path id="path5224" d="M-40.608-19.595a1.5,1.5,0,0,0-1.417-.259,1.331,1.331,0,0,1-1.741-1.265v3.975h2.741a1.436,1.436,0,0,0,.418-2.451" transform="translate(43.767 21.119)" fill="#ff8e9e"/>
      </g>
      <g id="g5226" transform="translate(35.08 4.586)">
        <path id="path5228" d="M0-51.107v-3.975H2.741a1.436,1.436,0,0,1,.418,2.451,1.5,1.5,0,0,1-1.417.259A1.331,1.331,0,0,0,0-51.107" transform="translate(0 55.083)" fill="#ff8e9e"/>
      </g>
      <g id="g5230" transform="translate(32.192 4.342)">
        <path id="path5232" d="M-37.128-54.248a4.253,4.253,0,0,1,2.741-3.975,4.221,4.221,0,0,0-5.628,3.975,4.221,4.221,0,0,0,5.628,3.975,4.253,4.253,0,0,1-2.741-3.975" transform="translate(40.016 58.467)" fill="#ea5b70"/>
      </g>
      <g id="g5234" transform="translate(5.353 33.467)">
        <path id="path5236" d="M-49.9-56.731l-2.951-4.413h-.931v6.9h1.8l.962-.844.6-.184a.962.962,0,0,0,.519-1.455" transform="translate(53.78 61.144)" fill="#efedff"/>
      </g>
      <g id="g5238" transform="translate(3.493 31.65)">
        <path id="path5240" d="M-64.473-117.752l-.395-1.29A1.416,1.416,0,0,1-66.7-120.4v-4.7l-.905-1.354a1.028,1.028,0,0,0-1.885.581v6.937a.974.974,0,0,0,1.258.916l.6-.184.383,1.251a1.494,1.494,0,0,0,1.4,1.059,1.425,1.425,0,0,0,.352-.043,1.443,1.443,0,0,0,1.025-1.821" transform="translate(69.488 126.91)" fill="#d4d4ff"/>
      </g>
      <g id="g5242" transform="translate(16.667 29.269)">
        <path id="path5244" d="M-26.307,0a2.049,2.049,0,0,0-2.046,2.046.722.722,0,0,0,.722.722.722.722,0,0,0,.722-.722.6.6,0,0,1,.6-.6.6.6,0,0,1,.6.6.722.722,0,0,0,.722.722.722.722,0,0,0,.722-.722A2.049,2.049,0,0,0-26.307,0" transform="translate(28.353)"/>
      </g>
      <g id="g5246" transform="translate(28.507 29.269)">
        <path id="path5248" d="M-9.278-35.587a.722.722,0,0,0,.722-.722.6.6,0,0,1,.6-.6.6.6,0,0,1,.6.6.722.722,0,0,0,.722.722.722.722,0,0,0,.722-.722,2.049,2.049,0,0,0-2.046-2.046A2.049,2.049,0,0,0-10-36.308a.722.722,0,0,0,.722.722" transform="translate(10 38.355)"/>
      </g>
      <g id="g5250" transform="translate(22.379 29.884)">
        <path id="path5252" d="M-18.557-32.013a.968.968,0,0,1,.859-1.047.968.968,0,0,1,.859,1.047.968.968,0,0,1-.859,1.047.968.968,0,0,1-.859-1.047m3.16,0a2.4,2.4,0,0,0-2.3-2.49,2.4,2.4,0,0,0-2.3,2.49,2.4,2.4,0,0,0,2.3,2.49,2.4,2.4,0,0,0,2.3-2.49" transform="translate(20 34.503)"/>
      </g>
      <g id="g5254" transform="translate(8.573 4.511)">
        <path id="path5256" d="M-63.465-18.579a3.454,3.454,0,0,1,1.474.328.721.721,0,0,0,.8-.129.721.721,0,0,1,1.217.523v5.542a.721.721,0,0,1-1.217.523.722.722,0,0,0-.8-.129,3.453,3.453,0,0,1-1.474.328,3.5,3.5,0,0,1-3.493-3.493,3.5,3.5,0,0,1,3.493-3.493m0,8.429a4.883,4.883,0,0,0,1.681-.3,2.167,2.167,0,0,0,3.255-1.87v-5.542a2.167,2.167,0,0,0-3.255-1.87,4.881,4.881,0,0,0-1.681-.3A4.942,4.942,0,0,0-68.4-15.086a4.942,4.942,0,0,0,4.936,4.936" transform="translate(68.401 20.024)"/>
      </g>
      <g id="g5258" transform="translate(11.459 7.4)">
        <path id="path5260" d="M-26.352-18.557a.607.607,0,0,1,.606.606.607.607,0,0,1-.606.606.607.607,0,0,1-.606-.606.607.607,0,0,1,.606-.606m0,2.656a2.052,2.052,0,0,0,2.05-2.05A2.052,2.052,0,0,0-26.352-20,2.052,2.052,0,0,0-28.4-17.95a2.052,2.052,0,0,0,2.05,2.05" transform="translate(28.401 20)"/>
      </g>
      <g id="g5262" transform="translate(31.469 3.622)">
        <path id="path5264" d="M-20.114-51.86a3.5,3.5,0,0,1,4.546-2.39.676.676,0,0,1,.443.528.732.732,0,0,1-.979.815,2.055,2.055,0,0,0-2.616,1.42,2.049,2.049,0,0,0,2.688,2.459.721.721,0,0,1,.929.429.723.723,0,0,1-.431.925,3.492,3.492,0,0,1-4.23-1.535,3.468,3.468,0,0,1-.351-2.653m5.076,5.543a2.168,2.168,0,0,0,1.292-2.776,2.164,2.164,0,0,0-2.787-1.288.6.6,0,0,1-.792-.732.611.611,0,0,1,.777-.42A2.176,2.176,0,0,0-13.7-53.977a2.107,2.107,0,0,0-1.381-1.633,4.944,4.944,0,0,0-6.422,3.376,4.9,4.9,0,0,0,.5,3.749,4.933,4.933,0,0,0,5.974,2.168" transform="translate(21.678 55.894)"/>
      </g>
      <g id="g5266" transform="translate(19.896 0)">
        <path id="path5268" d="M-18.557-27.835a.722.722,0,0,1,.722-.722.722.722,0,0,1,.722.722v.981a.722.722,0,0,0,.722.722h1.616a3.478,3.478,0,0,1,3.455,3.493,3.478,3.478,0,0,1-3.455,3.493h-3.071a.725.725,0,0,1-.709-.722Zm.722,10.132h3.059a4.923,4.923,0,0,0,4.9-4.936,4.923,4.923,0,0,0-4.9-4.936h-.894v-.259A2.167,2.167,0,0,0-17.835-30,2.167,2.167,0,0,0-20-27.835v7.988A2.172,2.172,0,0,0-17.835-17.7" transform="translate(20 30)"/>
      </g>
      <g id="g5270" transform="translate(22.783 5.311)">
        <path id="path5272" d="M-18.557-18.557h.894a.589.589,0,0,1,.569.606.589.589,0,0,1-.569.606h-.894Zm-.722,2.656h1.616a2.033,2.033,0,0,0,2.012-2.049A2.034,2.034,0,0,0-17.663-20h-1.616a.722.722,0,0,0-.722.722v2.656a.722.722,0,0,0,.722.722" transform="translate(20 20)"/>
      </g>
      <g id="g5274" transform="translate(6.476 13.826)">
        <path id="path5276" d="M-63.449-198.093l11.932,0h.013a15.828,15.828,0,0,0,8.254-2.484A11.593,11.593,0,0,0-37-198.12a13.26,13.26,0,0,1-13.225,12.549,13.259,13.259,0,0,1-13.223-12.522m21.52-3.424a16.325,16.325,0,0,0,3.356-3.589,13.169,13.169,0,0,1,1.567,5.536,10.089,10.089,0,0,1-5-1.885l.081-.062m-8.295,19.566a4.905,4.905,0,0,1-2.554-2.4,14.713,14.713,0,0,0,2.552.222,14.717,14.717,0,0,0,2.553-.223,4.911,4.911,0,0,1-2.55,2.4M-64.66-196.1a2.753,2.753,0,0,1-2.28-2.711,2.753,2.753,0,0,1,2.282-2.711,14.673,14.673,0,0,0-.254,2.711h0a14.71,14.71,0,0,0,.252,2.711m28.87-5.421a2.754,2.754,0,0,1,2.28,2.711,2.753,2.753,0,0,1-2.28,2.711,14.709,14.709,0,0,0,.252-2.711h0a14.753,14.753,0,0,0-.251-2.71m-18.492,17.331c.945,2.437,3.228,3.686,4.056,3.686s3.418-1.339,4.245-4.247a14.748,14.748,0,0,0,9.831-9.87,4.191,4.191,0,0,0,4.082-4.19A4.191,4.191,0,0,0-36.147-203a14.6,14.6,0,0,0-1.565-3.5,16.216,16.216,0,0,0,1.383-3.349,1.972,1.972,0,0,0-2.975-2.2,17.824,17.824,0,0,1-2.361,1.3,14.546,14.546,0,0,0-8.56-2.752,14.541,14.541,0,0,0-8.95,3.042.74.74,0,0,0-.2.956.722.722,0,0,0,1.063.2,13.111,13.111,0,0,1,8.091-2.759,13.113,13.113,0,0,1,6.931,1.956,17.641,17.641,0,0,1-5.358.94.738.738,0,0,0-.729.711.72.72,0,0,0,.735.733,19.141,19.141,0,0,0,10.132-3.121.529.529,0,0,1,.8.593,14.625,14.625,0,0,1-13.807,10.709l-11.924,0a13.247,13.247,0,0,1,3.136-7.857.741.741,0,0,0-.044-1.021.721.721,0,0,0-1.036.063A14.679,14.679,0,0,0-64.3-203a4.191,4.191,0,0,0-4.083,4.19,4.191,4.191,0,0,0,4.082,4.19,14.754,14.754,0,0,0,8.838,9.53,8.3,8.3,0,0,0-2.94,6.3.741.741,0,0,0,.77.731l14.824,0a.729.729,0,0,0,.763-.752,8.329,8.329,0,0,0-1.534-4.756.722.722,0,0,0-1.059-.134.716.716,0,0,0-.121.959,6.743,6.743,0,0,1,1.232,3.239h-1.52v-.665a.742.742,0,0,0-.7-.752.722.722,0,0,0-.744.721v.7H-54v-.665a.742.742,0,0,0-.7-.752.722.722,0,0,0-.744.721v.7h-1.479a6.846,6.846,0,0,1,2.639-4.689" transform="translate(68.384 213.501)"/>
      </g>
      <g id="g5278" transform="translate(36.392 36.421)">
        <path id="path5280" d="M-111.34-100.164a3.612,3.612,0,0,1-3.608,3.608,3.612,3.612,0,0,1-3.608-3.608v-1.977h1.443v.245a2.167,2.167,0,0,0,2.165,2.165,2.167,2.167,0,0,0,2.165-2.165v-.285h1.443Zm-4.33-6.274v1.494a2.181,2.181,0,0,0-1.323,1.36h-1.493a3.64,3.64,0,0,1,2.816-2.854m.721,2.813a.721.721,0,0,1,.722.722v1.007a.722.722,0,0,1-.722.722.722.722,0,0,1-.722-.722v-.966a.748.748,0,0,1,.721-.762m.722-2.814a3.619,3.619,0,0,1,2.814,2.814h-1.5a2.162,2.162,0,0,0-1.318-1.32Zm-.722-1.516A5.078,5.078,0,0,0-120-102.862v2.7a5.058,5.058,0,0,0,5.052,5.052,5.058,5.058,0,0,0,5.052-5.052V-102.9a5.057,5.057,0,0,0-5.052-5.052" transform="translate(120 107.954)"/>
      </g>
      <g id="g5282" transform="translate(2.771 30.927)">
        <path id="path5284" d="M-73.708-99.223l-.6.184a.722.722,0,0,0-.479.9l.395,1.29a.721.721,0,0,1-.513.911.755.755,0,0,1-.879-.528l-.383-1.251a.722.722,0,0,0-.9-.479l-.6.184A.252.252,0,0,1-78-98.237v-6.94a.306.306,0,0,1,.563-.177l3.856,5.767h0a.24.24,0,0,1-.13.364m-2.526-6.933a1.75,1.75,0,0,0-3.207.982v6.94a1.7,1.7,0,0,0,2.1,1.628l.172.564a2.192,2.192,0,0,0,2.615,1.5,2.165,2.165,0,0,0,1.537-2.731l-.184-.6a1.683,1.683,0,0,0,.82-2.517Z" transform="translate(79.441 106.94)"/>
      </g>
    </g>
  </g>
</svg>
