<svg xmlns="http://www.w3.org/2000/svg" xmlns:xlink="http://www.w3.org/1999/xlink" width="108" height="108" viewBox="0 0 108 108">
  <defs>
    <filter id="Trazado_978624" x="0" y="0" width="108" height="108" filterUnits="userSpaceOnUse">
      <feOffset dy="3" input="SourceAlpha"/>
      <feGaussianBlur stdDeviation="3" result="blur"/>
      <feFlood flood-opacity="0.161"/>
      <feComposite operator="in" in2="blur"/>
      <feComposite in="SourceGraphic"/>
    </filter>
    <clipPath id="clip-path">
      <path id="path2007" d="M0-682.665H64.133v64.133H0Z" transform="translate(0 682.665)"/>
    </clipPath>
  </defs>
  <g id="Grupo_1172832" data-name="Grupo 1172832" transform="translate(-625 -389.356)">
    <g id="Grupo_1172204" data-name="Grupo 1172204" transform="translate(634 395.356)">
      <g id="Grupo_1171401" data-name="Grupo 1171401">
        <g id="Grupo_1164524" data-name="Grupo 1164524">
          <g id="Grupo_1144123" data-name="Grupo 1144123">
            <g transform="matrix(1, 0, 0, 1, -9, -6)" filter="url(#Trazado_978624)">
              <g id="Trazado_978624-2" data-name="Trazado 978624" transform="translate(9 6)" fill="#d9d5e3">
                <path d="M 45 88.5 C 39.12687683105469 88.5 33.43022537231445 87.35007476806641 28.06830024719238 85.08217620849609 C 22.88852500915527 82.89131164550781 18.23629951477051 79.75458526611328 14.2408504486084 75.75914764404297 C 10.24541282653809 71.76370239257812 7.108687400817871 67.11147308349609 4.917825222015381 61.93170166015625 C 2.649924993515015 56.56977462768555 1.5 50.87312316894531 1.5 45 C 1.5 39.12687683105469 2.649924993515015 33.43022537231445 4.917825222015381 28.06830024719238 C 7.108687400817871 22.88852500915527 10.24541282653809 18.23629951477051 14.2408504486084 14.2408504486084 C 18.23629951477051 10.24541282653809 22.88852500915527 7.108687400817871 28.06830024719238 4.917825222015381 C 33.43022537231445 2.649924993515015 39.12687683105469 1.5 45 1.5 C 50.87312316894531 1.5 56.56977462768555 2.649924993515015 61.93170166015625 4.917825222015381 C 67.11147308349609 7.108687400817871 71.76370239257812 10.24541282653809 75.75914764404297 14.2408504486084 C 79.75458526611328 18.23629951477051 82.89131164550781 22.88852500915527 85.08217620849609 28.06830024719238 C 87.35007476806641 33.43022537231445 88.5 39.12687683105469 88.5 45 C 88.5 50.87312316894531 87.35007476806641 56.56977462768555 85.08217620849609 61.93170166015625 C 82.89131164550781 67.11147308349609 79.75458526611328 71.76370239257812 75.75914764404297 75.75914764404297 C 71.76370239257812 79.75458526611328 67.11147308349609 82.89131164550781 61.93170166015625 85.08217620849609 C 56.56977462768555 87.35007476806641 50.87312316894531 88.5 45 88.5 Z" stroke="none"/>
                <path d="M 45 3 C 39.32871246337891 3 33.82865524291992 4.110054016113281 28.65262985229492 6.299339294433594 C 23.65165710449219 8.414573669433594 19.15968322753906 11.44334411621094 15.301513671875 15.301513671875 C 11.44334411621094 19.15968322753906 8.414573669433594 23.65165710449219 6.299339294433594 28.65262985229492 C 4.110054016113281 33.82865524291992 3 39.32871246337891 3 45 C 3 50.67128753662109 4.110054016113281 56.17134475708008 6.299339294433594 61.34737396240234 C 8.414573669433594 66.34834289550781 11.44334411621094 70.84031677246094 15.301513671875 74.698486328125 C 19.15968322753906 78.55665588378906 23.65165710449219 81.58542633056641 28.65262985229492 83.70066070556641 C 33.82865524291992 85.88994598388672 39.32871246337891 87 45 87 C 50.67128753662109 87 56.17134475708008 85.88994598388672 61.34737396240234 83.70066070556641 C 66.34834289550781 81.58542633056641 70.84031677246094 78.55665588378906 74.698486328125 74.698486328125 C 78.55665588378906 70.84031677246094 81.58542633056641 66.34834289550781 83.70066070556641 61.34737396240234 C 85.88994598388672 56.17134475708008 87 50.67128753662109 87 45 C 87 39.32871246337891 85.88994598388672 33.82865524291992 83.70066070556641 28.65262985229492 C 81.58542633056641 23.65165710449219 78.55665588378906 19.15968322753906 74.698486328125 15.301513671875 C 70.84031677246094 11.44334411621094 66.34834289550781 8.414573669433594 61.34737396240234 6.299339294433594 C 56.17134475708008 4.110054016113281 50.67128753662109 3 45 3 M 45 0 C 69.85281372070312 0 90 20.14718627929688 90 45 C 90 69.85281372070312 69.85281372070312 90 45 90 C 20.14718627929688 90 0 69.85281372070312 0 45 C 0 20.14718627929688 20.14718627929688 0 45 0 Z" stroke="none" fill="#453179"/>
              </g>
            </g>
          </g>
        </g>
      </g>
    </g>
    <g id="g2001" transform="translate(647 1091.021)">
      <g id="g2003" transform="translate(0 -682.665)">
        <g id="g2005" clip-path="url(#clip-path)">
          <g id="g2011" transform="translate(8.906 9.034)">
            <path id="path2013" d="M-223.376,0a23.187,23.187,0,0,0-23.161,23.161,23.187,23.187,0,0,0,23.161,23.161,23.187,23.187,0,0,0,23.161-23.161A23.187,23.187,0,0,0-223.376,0" transform="translate(246.537)" fill="#c8a9f1"/>
          </g>
          <g id="g2015" transform="translate(8.906 9.33)">
            <path id="path2017" d="M-87.548-210.713a29.7,29.7,0,0,1,10.392-21.848A23.2,23.2,0,0,0-96.625-209.7a23.187,23.187,0,0,0,23.161,23.161,23.064,23.064,0,0,0,7.458-1.232,22.993,22.993,0,0,1-21.541-22.946" transform="translate(96.625 232.561)" fill="#b18ae3"/>
          </g>
          <g id="g2019" transform="translate(11.415 41.752)">
            <path id="path2021" d="M-199.172-78.461v8.032a25.685,25.685,0,0,1-20.651-10.406l5.763-5.762Z" transform="translate(219.823 86.596)" fill="#30cc9b"/>
          </g>
          <g id="g2023" transform="translate(32.066 41.752)">
            <path id="path2025" d="M0-78.461v8.032A25.685,25.685,0,0,0,20.651-80.834L14.888-86.6Z" transform="translate(0 86.596)" fill="#30cc9b"/>
          </g>
          <g id="g2027" transform="translate(16.941 47.1)">
            <path id="path2029" d="M-291.756-155.212c0-11.246-5.588-16.093-5.588-16.093h-19.074s-5.588,4.847-5.588,16.093Z" transform="translate(322.007 171.305)" fill="#71dbba"/>
          </g>
          <g id="g2031" transform="translate(6.387 29.592)">
            <path id="path2033" d="M-104.083-117.283l-5.763,5.762a25.578,25.578,0,0,1-5.021-13.624,4.022,4.022,0,0,1,4.007-4.3,4.014,4.014,0,0,1,4.006,3.76Z" transform="translate(114.874 129.444)" fill="#ffd3bc"/>
          </g>
          <g id="g2035" transform="translate(46.954 29.592)">
            <path id="path2037" d="M0-117.283l5.763,5.762a25.579,25.579,0,0,0,5.021-13.624,4.022,4.022,0,0,0-4.007-4.3,4.014,4.014,0,0,0-4.006,3.76Z" transform="translate(0 129.444)" fill="#ffbe9c"/>
          </g>
          <g id="g2039" transform="translate(16.941 47.1)">
            <path id="path2041" d="M-68.377-93.572a15,15,0,0,1,3.542-9.7h-5.043s-5.588,4.847-5.588,16.093h8.51a15,15,0,0,1-1.42-6.391" transform="translate(75.466 103.274)" fill="#30cc9b"/>
          </g>
          <g id="g2043" transform="translate(14.373 20.401)">
            <path id="path2045" d="M-253.71-25.493a16.851,16.851,0,0,1-5.448-.9,1.07,1.07,0,0,0-1.292,1.512,15.525,15.525,0,0,0,1.207,1.93,1.054,1.054,0,0,1-.856,1.672h-.022a15.5,15.5,0,0,1-12.165-5.878,2.575,2.575,0,0,0-4.056.017,17.618,17.618,0,0,0-3.674,11A17.742,17.742,0,0,0-262.451,1.35a17.693,17.693,0,0,0,17.82-17.692,17.608,17.608,0,0,0-2.753-9.482,1.072,1.072,0,0,0-1.225-.453,16.872,16.872,0,0,1-5.1.785" transform="translate(280.016 28.136)" fill="#ffd3bc"/>
          </g>
          <g id="g2047" transform="translate(14.373 20.402)">
            <path id="path2049" d="M-34.814-103.92a27.8,27.8,0,0,1,2.3-10.767,2.551,2.551,0,0,0-2.234.988,17.618,17.618,0,0,0-3.674,11A17.759,17.759,0,0,0-26.414-86.151a22.947,22.947,0,0,1-8.4-17.769" transform="translate(38.424 114.695)" fill="#ffbe9c"/>
          </g>
          <g id="g2051" transform="translate(17.123 34.072)">
            <path id="path2053" d="M-77.69-30.934c0,1.771-1.8,3.207-4.028,3.207s-4.028-1.436-4.028-3.207,1.8-3.207,4.028-3.207,4.028,1.436,4.028,3.207" transform="translate(85.745 34.141)" fill="#ff8d9d"/>
          </g>
          <g id="g2055" transform="translate(38.954 34.072)">
            <path id="path2057" d="M0-30.934c0,1.771,1.8,3.207,4.028,3.207s4.028-1.436,4.028-3.207-1.8-3.207-4.028-3.207S0-32.705,0-30.934" transform="translate(0 34.141)" fill="#ff8d9d"/>
          </g>
          <g id="g2059" transform="translate(29.928 32.422)">
            <path id="path2061" d="M-41.24-23.074a2.276,2.276,0,0,0-2.138-2.392,2.276,2.276,0,0,0-2.138,2.392,2.276,2.276,0,0,0,2.138,2.392,2.276,2.276,0,0,0,2.138-2.392" transform="translate(45.516 25.467)" fill="#423e4f"/>
          </g>
          <g id="g2063" transform="translate(29.928 32.422)">
            <path id="path2065" d="M-41.24-23.074a2.276,2.276,0,0,0-2.138-2.392,2.276,2.276,0,0,0-2.138,2.392,2.276,2.276,0,0,0,2.138,2.392A2.276,2.276,0,0,0-41.24-23.074Z" transform="translate(45.516 25.467)" fill="none" stroke="#000" stroke-linecap="round" stroke-linejoin="round" stroke-miterlimit="10" stroke-width="1.5"/>
          </g>
          <g id="g2067" transform="translate(22.188 31.591)">
            <path id="path2069" d="M-34.567-17.284a1.792,1.792,0,0,0-1.792-1.792,1.792,1.792,0,0,0-1.792,1.792" transform="translate(38.151 19.076)" fill="none" stroke="#000" stroke-linecap="round" stroke-linejoin="round" stroke-miterlimit="10" stroke-width="1.5"/>
          </g>
          <g id="g2071" transform="translate(38.206 31.591)">
            <path id="path2073" d="M0-17.284a1.792,1.792,0,0,1,1.792-1.792,1.792,1.792,0,0,1,1.792,1.792" transform="translate(0 19.076)" fill="none" stroke="#000" stroke-linecap="round" stroke-linejoin="round" stroke-miterlimit="10" stroke-width="1.5"/>
          </g>
          <g id="g2075" transform="translate(6.879 11.241)">
            <path id="path2077" d="M-35.361-25.258l-3.666-2.619" transform="translate(39.028 27.877)" fill="none" stroke="#000" stroke-linecap="round" stroke-linejoin="round" stroke-miterlimit="10" stroke-width="1.5"/>
          </g>
          <g id="g2079" transform="translate(22.479 0.939)">
            <path id="path2081" d="M-15.9-40.444l-1.649-4.193" transform="translate(17.548 44.637)" fill="none" stroke="#000" stroke-linecap="round" stroke-linejoin="round" stroke-miterlimit="10" stroke-width="1.5"/>
          </g>
          <g id="g2083" transform="translate(53.587 11.241)">
            <path id="path2085" d="M0-25.258l3.666-2.619" transform="translate(0 27.877)" fill="none" stroke="#000" stroke-linecap="round" stroke-linejoin="round" stroke-miterlimit="10" stroke-width="1.5"/>
          </g>
          <g id="g2087" transform="translate(40.005 0.939)">
            <path id="path2089" d="M0-40.444l1.649-4.193" transform="translate(0 44.637)" fill="none" stroke="#000" stroke-linecap="round" stroke-linejoin="round" stroke-miterlimit="10" stroke-width="1.5"/>
          </g>
          <g id="g2091" transform="translate(9.025 9.034)">
            <path id="path2093" d="M-78.4-52.605A23.14,23.14,0,0,0-86.53-37.259a4,4,0,0,1,1.376-.243,4.015,4.015,0,0,1,4.006,3.76l.006.018c-.021-.323-.035-.648-.038-.976A17.618,17.618,0,0,1-77.507-45.7a2.574,2.574,0,0,1,4.056-.017,15.5,15.5,0,0,0,12.165,5.878h.022a1.054,1.054,0,0,0,.856-1.672,15.53,15.53,0,0,1-1.207-1.93,1.07,1.07,0,0,1,1.292-1.512,16.848,16.848,0,0,0,5.448.9,16.871,16.871,0,0,0,5.1-.785,1.072,1.072,0,0,1,1.225.453A17.608,17.608,0,0,1-45.8-34.9c0,.4-.014.787-.04,1.176l.007-.02a4.014,4.014,0,0,1,4.006-3.76,4,4,0,0,1,1.376.243,23.194,23.194,0,0,0-23.041-20.8A23.019,23.019,0,0,0-75.3-54.817" transform="translate(86.53 58.06)" fill="none" stroke="#000" stroke-linecap="round" stroke-linejoin="round" stroke-miterlimit="10" stroke-width="1.5"/>
          </g>
          <g id="g2095" transform="translate(6.387 29.592)">
            <path id="path2097" d="M-77.41-36.439l-.006-.018a4.015,4.015,0,0,0-4.006-3.76,4.022,4.022,0,0,0-4.007,4.3,25.578,25.578,0,0,0,5.021,13.624l5.763-5.762-.017-.052A17.551,17.551,0,0,1-77.41-36.439Z" transform="translate(85.436 40.217)" fill="none" stroke="#000" stroke-linecap="round" stroke-linejoin="round" stroke-miterlimit="10" stroke-width="1.5"/>
          </g>
          <g id="g2099" transform="translate(46.957 29.591)">
            <path id="path2101" d="M-90.9-106.148a25.473,25.473,0,0,0,1.357-6.707,4.022,4.022,0,0,0-4.007-4.3,4.015,4.015,0,0,0-4.006,3.76l-.006.02a17.592,17.592,0,0,1-2.763,8.384l5.761,5.759a25.841,25.841,0,0,0,2.045-3.222" transform="translate(100.329 117.154)" fill="none" stroke="#000" stroke-linecap="round" stroke-linejoin="round" stroke-miterlimit="10" stroke-width="1.5"/>
          </g>
          <g id="g2103" transform="translate(11.415 41.752)">
            <path id="path2105" d="M-107.191-51.577h.033a17.9,17.9,0,0,1-5.36-5.335l-.024-.013-5.763,5.762a25.951,25.951,0,0,0,6.989,6.47A16.952,16.952,0,0,1-107.191-51.577Z" transform="translate(118.305 56.925)" fill="none" stroke="#000" stroke-linecap="round" stroke-linejoin="round" stroke-miterlimit="10" stroke-width="1.5"/>
          </g>
          <g id="g2107" transform="translate(41.602 41.755)">
            <path id="path2109" d="M-51.644,0A17.782,17.782,0,0,1-57,5.345h0a16.949,16.949,0,0,1,4.125,6.884,25.949,25.949,0,0,0,6.989-6.47Z" transform="translate(56.999)" fill="none" stroke="#000" stroke-linecap="round" stroke-linejoin="round" stroke-miterlimit="10" stroke-width="1.5"/>
          </g>
          <g id="g2111" transform="translate(16.941 47.1)">
            <path id="path2113" d="M-237.861,0h0a17.611,17.611,0,0,1-9.663,2.787A17.556,17.556,0,0,1-256.9,0h-.032s-5.588,4.847-5.588,16.093h30.251C-232.273,4.847-237.861,0-237.861,0Z" transform="translate(262.523)" fill="none" stroke="#000" stroke-linecap="round" stroke-linejoin="round" stroke-miterlimit="10" stroke-width="1.5"/>
          </g>
          <g id="g2115" transform="translate(14.373 20.401)">
            <path id="path2117" d="M-253.71-25.493a16.851,16.851,0,0,1-5.448-.9,1.07,1.07,0,0,0-1.292,1.512,15.547,15.547,0,0,0,1.207,1.93,1.054,1.054,0,0,1-.856,1.672h-.022a15.5,15.5,0,0,1-12.165-5.878,2.574,2.574,0,0,0-4.056.017,17.617,17.617,0,0,0-3.674,11A17.743,17.743,0,0,0-262.451,1.35a17.693,17.693,0,0,0,17.82-17.693,17.608,17.608,0,0,0-2.754-9.482,1.072,1.072,0,0,0-1.225-.453A16.868,16.868,0,0,1-253.71-25.493Z" transform="translate(280.016 28.136)" fill="none" stroke="#000" stroke-linecap="round" stroke-linejoin="round" stroke-miterlimit="10" stroke-width="1.5"/>
          </g>
        </g>
      </g>
    </g>
  </g>
</svg>
