<svg xmlns="http://www.w3.org/2000/svg" xmlns:xlink="http://www.w3.org/1999/xlink" width="110" height="110" viewBox="0 0 110 110">
  <defs>
    <filter id="Trazado_982547" x="0" y="0" width="110" height="110" filterUnits="userSpaceOnUse">
      <feOffset dy="3" input="SourceAlpha"/>
      <feGaussianBlur stdDeviation="3" result="blur"/>
      <feFlood flood-opacity="0.161"/>
      <feComposite operator="in" in2="blur"/>
      <feComposite in="SourceGraphic"/>
    </filter>
  </defs>
  <g id="Grupo_1172809" data-name="Grupo 1172809" transform="translate(-321 -5048)">
    <g id="Grupo_1172326" data-name="Grupo 1172326" transform="translate(-792 3893.853)">
      <g id="Grupo_1166163" data-name="Grupo 1166163" transform="translate(1 -805.853)">
        <g id="Grupo_1164700" data-name="Grupo 1164700" transform="translate(1121 1966)">
          <g id="Grupo_1160931" data-name="Grupo 1160931" transform="translate(0)">
            <g id="Grupo_1160749" data-name="Grupo 1160749" transform="translate(0)">
              <g id="Grupo_1158891" data-name="Grupo 1158891" transform="translate(0 0)">
                <g id="Grupo_1157406" data-name="Grupo 1157406" transform="translate(0)">
                  <g id="Grupo_1155793" data-name="Grupo 1155793" transform="translate(0)">
                    <g id="Grupo_1154704" data-name="Grupo 1154704" transform="translate(0)">
                      <g id="Grupo_1150790" data-name="Grupo 1150790" transform="translate(0)">
                        <g id="Grupo_1154214" data-name="Grupo 1154214" transform="translate(0)">
                          <g id="Grupo_1152583" data-name="Grupo 1152583" transform="translate(0 0)">
                            <g id="Grupo_1146973" data-name="Grupo 1146973" transform="translate(0 0)">
                              <g id="Grupo_1146954" data-name="Grupo 1146954">
                                <g transform="matrix(1, 0, 0, 1, -9, -6)" filter="url(#Trazado_982547)">
                                  <g id="Trazado_982547-2" data-name="Trazado 982547" transform="translate(9 6)" fill="#edf3fc">
                                    <path d="M 46.00000381469727 90.49988555908203 C 39.99188232421875 90.49988555908203 34.16427230834961 89.32352447509766 28.67905807495117 87.00347137451172 C 23.38020324707031 84.76226043701172 18.62104415893555 81.55342864990234 14.53375053405762 77.46615600585938 C 10.44647026062012 73.37887573242188 7.237643718719482 68.61971282958984 4.996417045593262 63.32085800170898 C 2.676363706588745 57.83565902709961 1.500003814697266 52.00806045532227 1.500003814697266 45.99993896484375 C 1.500003814697266 39.99181747436523 2.676363706588745 34.16421890258789 4.996417045593262 28.67901802062988 C 7.237643718719482 23.38017845153809 10.44647026062012 18.62101936340332 14.53375053405762 14.53373908996582 C 18.62104415893555 10.44645881652832 23.38020324707031 7.237632274627686 28.67905807495117 4.996418952941895 C 34.16427230834961 2.676365613937378 39.99188232421875 1.500005602836609 46.00000381469727 1.500005602836609 C 52.00812530517578 1.500005602836609 57.83573532104492 2.676365613937378 63.32094955444336 4.996418952941895 C 68.61980438232422 7.237632274627686 73.37897491455078 10.44645881652832 77.46625518798828 14.53373908996582 C 81.55355072021484 18.62101936340332 84.76236724853516 23.38017845153809 87.00359344482422 28.67901802062988 C 89.32364654541016 34.16421890258789 90.5 39.99181747436523 90.5 45.99993896484375 C 90.5 52.00806045532227 89.32364654541016 57.83565902709961 87.00359344482422 63.32085800170898 C 84.76236724853516 68.61971282958984 81.55355072021484 73.37887573242188 77.46625518798828 77.46615600585938 C 73.37897491455078 81.55342864990234 68.61980438232422 84.76226043701172 63.32094955444336 87.00347137451172 C 57.83573532104492 89.32352447509766 52.00812530517578 90.49988555908203 46.00000381469727 90.49988555908203 Z" stroke="none"/>
                                    <path d="M 46.00000381469727 2.999992370605469 C 40.19371795654297 2.999992370605469 34.56270217895508 4.136497497558594 29.26338958740234 6.377906799316406 C 24.14333343505859 8.543510437011719 19.54441833496094 11.64437866210938 15.59440612792969 15.59439849853516 C 11.64440155029297 19.54439544677734 8.54351806640625 24.14329528808594 6.377914428710938 29.26335144042969 C 4.136505126953125 34.56266784667969 3.000007629394531 40.19366836547852 3.000007629394531 45.99993896484375 C 3.000007629394531 51.80620956420898 4.136505126953125 57.43722534179688 6.377914428710938 62.73654174804688 C 8.54351806640625 67.85658264160156 11.64440155029297 72.45548248291016 15.59440612792969 76.40549468994141 C 19.54441833496094 80.35549926757812 24.14333343505859 83.45636749267578 29.26337432861328 85.62196350097656 C 34.56270217895508 87.86338043212891 40.19371795654297 88.9998779296875 46.00000381469727 88.9998779296875 C 51.80628967285156 88.9998779296875 57.43730545043945 87.86338043212891 62.73663330078125 85.62196350097656 C 67.85667419433594 83.45636749267578 72.45558929443359 80.35549926757812 76.40560150146484 76.40549468994141 C 80.35560607910156 72.45548248291016 83.45648956298828 67.85658264160156 85.62208557128906 62.73654174804688 C 87.86350250244141 57.43722534179688 89 51.80620956420898 89 45.99993896484375 C 89 40.19366836547852 87.86350250244141 34.56266784667969 85.62208557128906 29.26335144042969 C 83.45648956298828 24.14329528808594 80.35560607910156 19.54439544677734 76.40560150146484 15.59439849853516 C 72.45558929443359 11.64437866210938 67.85667419433594 8.543510437011719 62.73661804199219 6.377906799316406 C 57.43730545043945 4.136497497558594 51.80628967285156 2.999992370605469 46.00000381469727 2.999992370605469 M 46.00000381469727 -7.62939453125e-06 C 71.40510559082031 -7.62939453125e-06 92 20.59487915039062 92 45.99993896484375 C 92 71.40501403808594 71.40510559082031 91.99988555908203 46.00000381469727 91.99988555908203 C 20.59490203857422 91.99988555908203 7.62939453125e-06 71.40501403808594 7.62939453125e-06 45.99993896484375 C 7.62939453125e-06 20.59487915039062 20.59490203857422 -7.62939453125e-06 46.00000381469727 -7.62939453125e-06 Z" stroke="none" fill="#5692e8"/>
                                  </g>
                                </g>
                              </g>
                            </g>
                          </g>
                        </g>
                      </g>
                    </g>
                  </g>
                </g>
              </g>
            </g>
          </g>
        </g>
      </g>
    </g>
    <g id="partner_14751614" transform="translate(338.5 5062.5)">
      <g id="Grupo_1172806" data-name="Grupo 1172806" transform="translate(7.5 7.5)">
        <path id="Trazado_1027172" data-name="Trazado 1027172" d="M139.771,18.794l-1.2,3.647-2.262,6.908a3.625,3.625,0,0,1-3.625,3.625h-4.659a.907.907,0,0,1-.886-1.094,3.639,3.639,0,0,0-3.318-4.356,3.514,3.514,0,0,0-.422,0,3.642,3.642,0,0,0-3.393,4.367.9.9,0,0,1-.887,1.086h-4.659a3.625,3.625,0,0,1-3.625-3.625V24.69a.905.905,0,0,0-1.09-.886,3.645,3.645,0,0,1-4.363-3.351A3.642,3.642,0,0,1,109.02,16.6a3.579,3.579,0,0,1,.733.075.906.906,0,0,0,1.086-.888V11.125A3.625,3.625,0,0,1,114.464,7.5h18.224a3.627,3.627,0,0,1,3.625,3.625Z" transform="translate(-93.553 -7.5)" fill="#a29cde"/>
        <path id="Trazado_1027173" data-name="Trazado 1027173" d="M291.9,31.314l-1.2,3.647a2.248,2.248,0,0,1-2.262-1.667,2.965,2.965,0,0,0-2.991-2.357h-1.828a5.206,5.206,0,0,1-5.206-5.206h0a3.99,3.99,0,0,1,3.99-3.99H287.9a3.6,3.6,0,0,1,.541,1.9Z" transform="translate(-245.685 -20.019)" fill="#827cd2"/>
        <path id="Trazado_1027174" data-name="Trazado 1027174" d="M122.833,25.093a5,5,0,0,0,.57,2.428,3.642,3.642,0,0,0-3.393,4.367.9.9,0,0,1-.887,1.086h-4.659a3.625,3.625,0,0,1-3.625-3.625V24.69a.905.905,0,0,0-1.09-.886,3.645,3.645,0,0,1-4.363-3.351A3.642,3.642,0,0,1,109.02,16.6a3.579,3.579,0,0,1,.733.075.906.906,0,0,0,1.086-.888V11.125A3.625,3.625,0,0,1,114.464,7.5h9.893a2.584,2.584,0,0,0-1.524,2.687V25.093Z" transform="translate(-93.553 -7.5)" fill="#827cd2"/>
        <path id="Trazado_1027175" data-name="Trazado 1027175" d="M319.1,44.891v5.474a1.812,1.812,0,0,1-1.812,1.813h-6.366a1.828,1.828,0,0,0-1.458.737,7.238,7.238,0,0,1-5.8,2.9h-1.849V47.254l.207-1.147-.207-1.211v-.006A1.813,1.813,0,0,0,300,43.078h-2.73a3.646,3.646,0,0,1-3.646-3.646,1.811,1.811,0,0,1,1.812-1.813h8.224a7.254,7.254,0,0,1,6.647,4.351,1.825,1.825,0,0,0,1.669,1.107h5.309A1.813,1.813,0,0,1,319.1,44.891Z" transform="translate(-259.048 -33.98)" fill="#ffddcf"/>
        <path id="Trazado_1027176" data-name="Trazado 1027176" d="M167.9,266.85a3.64,3.64,0,0,1-4.363,3.351.907.907,0,0,0-1.09.887v4.659a3.625,3.625,0,0,1-3.625,3.625H140.594a3.625,3.625,0,0,1-3.625-3.625v-.015l-1.868-5.984,1.867-4.938h0v-7.289a3.625,3.625,0,0,1,3.625-3.625h4.68a.894.894,0,0,0,.866-1.087,3.7,3.7,0,0,1-.071-.87,3.66,3.66,0,0,1,3.422-3.5,3.642,3.642,0,0,1,3.855,3.633,3.665,3.665,0,0,1-.074.733.9.9,0,0,0,.887,1.086h4.659a3.625,3.625,0,0,1,3.625,3.625v4.659a.9.9,0,0,0,1.086.887,3.644,3.644,0,0,1,4.367,3.781Z" transform="translate(-119.683 -219.325)" fill="#fad989"/>
        <path id="Trazado_1027177" data-name="Trazado 1027177" d="M148.388,276.042a4.6,4.6,0,0,0,1.4,3.33h-9.191a3.625,3.625,0,0,1-3.625-3.625v-.015l-1.868-5.984,1.867-4.938h0v-7.289a3.625,3.625,0,0,1,3.625-3.625h4.68a.894.894,0,0,0,.866-1.087,3.7,3.7,0,0,1-.071-.87,3.66,3.66,0,0,1,3.422-3.5,3.621,3.621,0,0,1,1.6.267c-1.1.51-2.7,1.968-2.7,6.147Z" transform="translate(-119.683 -219.325)" fill="#f6ca56"/>
        <path id="Trazado_1027178" data-name="Trazado 1027178" d="M32.975,325.552A3.646,3.646,0,0,1,29.33,329.2H26.6a1.813,1.813,0,0,0-1.813,1.813v0l-.491,1.562.491.77v8.589H22.939a7.242,7.242,0,0,1-5.8-2.9,1.824,1.824,0,0,0-1.4-.736H9.313A1.813,1.813,0,0,1,7.5,336.484v-5.474A1.813,1.813,0,0,1,9.313,329.2h5.309a1.779,1.779,0,0,0,.573-.094,1.842,1.842,0,0,0,1.1-1.014,7.253,7.253,0,0,1,6.647-4.35h8.224a1.811,1.811,0,0,1,1.813,1.813Z" transform="translate(-7.501 -285.528)" fill="#db9e82"/>
        <path id="Trazado_1027179" data-name="Trazado 1027179" d="M15.732,377.324H9.314A1.813,1.813,0,0,1,7.5,375.51v-5.474a1.813,1.813,0,0,1,1.813-1.812h5.309a1.778,1.778,0,0,0,.573-.094C14.373,369.5,12.926,372.956,15.732,377.324Z" transform="translate(-7.501 -324.554)" fill="#c8866a"/>
      </g>
      <g id="Grupo_1172808" data-name="Grupo 1172808" transform="translate(7.5 7.5)">
        <path id="Trazado_1027180" data-name="Trazado 1027180" d="M222.211,7.5H235.4a3.625,3.625,0,0,1,3.625,3.625" transform="translate(-196.267 -7.5)" fill="none" stroke="#000" stroke-linecap="round" stroke-linejoin="round" stroke-miterlimit="10" stroke-width="1.5"/>
        <path id="Trazado_1027181" data-name="Trazado 1027181" d="M136.313,29.335a3.624,3.624,0,0,1-3.625,3.64h-4.659a.907.907,0,0,1-.886-1.094,3.64,3.64,0,1,0-7.133.007.9.9,0,0,1-.887,1.086h-4.659a3.625,3.625,0,0,1-3.625-3.625V24.69a.905.905,0,0,0-1.09-.886,3.64,3.64,0,1,1,0-7.132.906.906,0,0,0,1.086-.888V11.125A3.625,3.625,0,0,1,114.464,7.5h.8" transform="translate(-93.552 -7.5)" fill="none" stroke="#000" stroke-linecap="round" stroke-linejoin="round" stroke-miterlimit="10" stroke-width="1.5"/>
        <path id="Trazado_1027182" data-name="Trazado 1027182" d="M316.913,43.078h.37a1.813,1.813,0,0,1,1.813,1.813v5.474a1.812,1.812,0,0,1-1.812,1.813h-6.366a1.828,1.828,0,0,0-1.458.737,7.238,7.238,0,0,1-5.8,2.9h-1.849V44.891A1.813,1.813,0,0,0,300,43.078h-2.73a3.646,3.646,0,0,1-3.646-3.646,1.811,1.811,0,0,1,1.812-1.813h8.224a7.254,7.254,0,0,1,6.647,4.351,1.825,1.825,0,0,0,1.669,1.107h.711" transform="translate(-259.048 -33.98)" fill="none" stroke="#000" stroke-linecap="round" stroke-linejoin="round" stroke-miterlimit="10" stroke-width="1.5"/>
        <path id="Trazado_1027183" data-name="Trazado 1027183" d="M361.381,97.852s.91,1.82,4.549,1.82" transform="translate(-318.62 -86.934)" fill="none" stroke="#000" stroke-linecap="round" stroke-linejoin="round" stroke-miterlimit="10" stroke-width="1.5"/>
        <path id="Trazado_1027184" data-name="Trazado 1027184" d="M150.561,257.523a3.625,3.625,0,0,1,3.625-3.625h4.68a.894.894,0,0,0,.866-1.087,3.64,3.64,0,1,1,7.132,0,.9.9,0,0,0,.887,1.086h4.659a3.625,3.625,0,0,1,3.625,3.625v4.659a.9.9,0,0,0,1.086.887,3.64,3.64,0,1,1,0,7.132.907.907,0,0,0-1.09.887v4.659a3.625,3.625,0,0,1-3.625,3.625h-.768" transform="translate(-133.274 -219.325)" fill="none" stroke="#000" stroke-linecap="round" stroke-linejoin="round" stroke-miterlimit="10" stroke-width="1.5"/>
        <path id="Trazado_1027185" data-name="Trazado 1027185" d="M150.561,474.32a3.624,3.624,0,0,0,3.625,3.64h13.226" transform="translate(-133.274 -417.913)" fill="none" stroke="#000" stroke-linecap="round" stroke-linejoin="round" stroke-miterlimit="10" stroke-width="1.5"/>
        <path id="Trazado_1027186" data-name="Trazado 1027186" d="M7.5,331.012v5.474A1.813,1.813,0,0,0,9.313,338.3h6.365a1.825,1.825,0,0,1,1.458.737,7.242,7.242,0,0,0,5.8,2.9h1.849V331.012A1.813,1.813,0,0,1,26.6,329.2h2.73a3.646,3.646,0,0,0,3.646-3.646,1.811,1.811,0,0,0-1.813-1.812H22.938a7.253,7.253,0,0,0-6.646,4.35,1.827,1.827,0,0,1-1.669,1.108H9.313A1.812,1.812,0,0,0,7.5,331.012Z" transform="translate(-7.5 -285.528)" fill="none" stroke="#000" stroke-linecap="round" stroke-linejoin="round" stroke-miterlimit="10" stroke-width="1.5"/>
        <path id="Trazado_1027187" data-name="Trazado 1027187" d="M117.46,383.969s-.91,1.82-4.549,1.82" transform="translate(-100.174 -338.479)" fill="none" stroke="#000" stroke-linecap="round" stroke-linejoin="round" stroke-miterlimit="10" stroke-width="1.5"/>
        <g id="Grupo_1172807" data-name="Grupo 1172807" transform="translate(22.478 50.643)">
          <line id="Línea_772" data-name="Línea 772" y2="1.45" fill="none" stroke="#000" stroke-linecap="round" stroke-linejoin="round" stroke-miterlimit="10" stroke-width="1.5"/>
          <line id="Línea_773" data-name="Línea 773" y2="1.45" transform="translate(15.092)" fill="none" stroke="#000" stroke-linecap="round" stroke-linejoin="round" stroke-miterlimit="10" stroke-width="1.5"/>
          <path id="Trazado_1027188" data-name="Trazado 1027188" d="M239.506,438.26a2.637,2.637,0,0,0,3.979,0" transform="translate(-233.95 -436.853)" fill="none" stroke="#000" stroke-linecap="round" stroke-linejoin="round" stroke-miterlimit="10" stroke-width="1.5"/>
        </g>
      </g>
    </g>
  </g>
</svg>
