<svg xmlns="http://www.w3.org/2000/svg" xmlns:xlink="http://www.w3.org/1999/xlink" width="110" height="110" viewBox="0 0 110 110">
  <defs>
    <filter id="Trazado_982547" x="0" y="0" width="110" height="110" filterUnits="userSpaceOnUse">
      <feOffset dy="3" input="SourceAlpha"/>
      <feGaussianBlur stdDeviation="3" result="blur"/>
      <feFlood flood-opacity="0.161"/>
      <feComposite operator="in" in2="blur"/>
      <feComposite in="SourceGraphic"/>
    </filter>
    <clipPath id="clip-path">
      <path id="path5214" d="M0-682.665H60.96v60.96H0Z" transform="translate(0 682.665)"/>
    </clipPath>
  </defs>
  <g id="Grupo_1172810" data-name="Grupo 1172810" transform="translate(-5 -5419)">
    <g id="Grupo_1172327" data-name="Grupo 1172327" transform="translate(-1107 3459)">
      <g id="Grupo_1164700" data-name="Grupo 1164700" transform="translate(1121 1966)">
        <g id="Grupo_1160931" data-name="Grupo 1160931" transform="translate(0)">
          <g id="Grupo_1160749" data-name="Grupo 1160749" transform="translate(0)">
            <g id="Grupo_1158891" data-name="Grupo 1158891" transform="translate(0 0)">
              <g id="Grupo_1157406" data-name="Grupo 1157406" transform="translate(0)">
                <g id="Grupo_1155793" data-name="Grupo 1155793" transform="translate(0)">
                  <g id="Grupo_1154704" data-name="Grupo 1154704" transform="translate(0)">
                    <g id="Grupo_1150790" data-name="Grupo 1150790" transform="translate(0)">
                      <g id="Grupo_1154214" data-name="Grupo 1154214" transform="translate(0)">
                        <g id="Grupo_1152583" data-name="Grupo 1152583" transform="translate(0 0)">
                          <g id="Grupo_1146973" data-name="Grupo 1146973" transform="translate(0 0)">
                            <g id="Grupo_1146954" data-name="Grupo 1146954">
                              <g transform="matrix(1, 0, 0, 1, -9, -6)" filter="url(#Trazado_982547)">
                                <g id="Trazado_982547-2" data-name="Trazado 982547" transform="translate(9 6)" fill="#edf3fc">
                                  <path d="M 46.00000381469727 90.49988555908203 C 39.99188232421875 90.49988555908203 34.16427230834961 89.32352447509766 28.67905807495117 87.00347137451172 C 23.38020324707031 84.76226043701172 18.62104415893555 81.55342864990234 14.53375053405762 77.46615600585938 C 10.44647026062012 73.37887573242188 7.237643718719482 68.61971282958984 4.996417045593262 63.32085800170898 C 2.676363706588745 57.83565902709961 1.500003814697266 52.00806045532227 1.500003814697266 45.99993896484375 C 1.500003814697266 39.99181747436523 2.676363706588745 34.16421890258789 4.996417045593262 28.67901802062988 C 7.237643718719482 23.38017845153809 10.44647026062012 18.62101936340332 14.53375053405762 14.53373908996582 C 18.62104415893555 10.44645881652832 23.38020324707031 7.237632274627686 28.67905807495117 4.996418952941895 C 34.16427230834961 2.676365613937378 39.99188232421875 1.500005602836609 46.00000381469727 1.500005602836609 C 52.00812530517578 1.500005602836609 57.83573532104492 2.676365613937378 63.32094955444336 4.996418952941895 C 68.61980438232422 7.237632274627686 73.37897491455078 10.44645881652832 77.46625518798828 14.53373908996582 C 81.55355072021484 18.62101936340332 84.76236724853516 23.38017845153809 87.00359344482422 28.67901802062988 C 89.32364654541016 34.16421890258789 90.5 39.99181747436523 90.5 45.99993896484375 C 90.5 52.00806045532227 89.32364654541016 57.83565902709961 87.00359344482422 63.32085800170898 C 84.76236724853516 68.61971282958984 81.55355072021484 73.37887573242188 77.46625518798828 77.46615600585938 C 73.37897491455078 81.55342864990234 68.61980438232422 84.76226043701172 63.32094955444336 87.00347137451172 C 57.83573532104492 89.32352447509766 52.00812530517578 90.49988555908203 46.00000381469727 90.49988555908203 Z" stroke="none"/>
                                  <path d="M 46.00000381469727 2.999992370605469 C 40.19371795654297 2.999992370605469 34.56270217895508 4.136497497558594 29.26338958740234 6.377906799316406 C 24.14333343505859 8.543510437011719 19.54441833496094 11.64437866210938 15.59440612792969 15.59439849853516 C 11.64440155029297 19.54439544677734 8.54351806640625 24.14329528808594 6.377914428710938 29.26335144042969 C 4.136505126953125 34.56266784667969 3.000007629394531 40.19366836547852 3.000007629394531 45.99993896484375 C 3.000007629394531 51.80620956420898 4.136505126953125 57.43722534179688 6.377914428710938 62.73654174804688 C 8.54351806640625 67.85658264160156 11.64440155029297 72.45548248291016 15.59440612792969 76.40549468994141 C 19.54441833496094 80.35549926757812 24.14333343505859 83.45636749267578 29.26337432861328 85.62196350097656 C 34.56270217895508 87.86338043212891 40.19371795654297 88.9998779296875 46.00000381469727 88.9998779296875 C 51.80628967285156 88.9998779296875 57.43730545043945 87.86338043212891 62.73663330078125 85.62196350097656 C 67.85667419433594 83.45636749267578 72.45558929443359 80.35549926757812 76.40560150146484 76.40549468994141 C 80.35560607910156 72.45548248291016 83.45648956298828 67.85658264160156 85.62208557128906 62.73654174804688 C 87.86350250244141 57.43722534179688 89 51.80620956420898 89 45.99993896484375 C 89 40.19366836547852 87.86350250244141 34.56266784667969 85.62208557128906 29.26335144042969 C 83.45648956298828 24.14329528808594 80.35560607910156 19.54439544677734 76.40560150146484 15.59439849853516 C 72.45558929443359 11.64437866210938 67.85667419433594 8.543510437011719 62.73661804199219 6.377906799316406 C 57.43730545043945 4.136497497558594 51.80628967285156 2.999992370605469 46.00000381469727 2.999992370605469 M 46.00000381469727 -7.62939453125e-06 C 71.40510559082031 -7.62939453125e-06 92 20.59487915039062 92 45.99993896484375 C 92 71.40501403808594 71.40510559082031 91.99988555908203 46.00000381469727 91.99988555908203 C 20.59490203857422 91.99988555908203 7.62939453125e-06 71.40501403808594 7.62939453125e-06 45.99993896484375 C 7.62939453125e-06 20.59487915039062 20.59490203857422 -7.62939453125e-06 46.00000381469727 -7.62939453125e-06 Z" stroke="none" fill="#5692e8"/>
                                </g>
                              </g>
                            </g>
                          </g>
                        </g>
                      </g>
                    </g>
                  </g>
                </g>
              </g>
            </g>
          </g>
        </g>
      </g>
    </g>
    <g id="g5208" transform="translate(30 6122.665)">
      <g id="g5210" transform="translate(0 -682.665)">
        <g id="g5212" transform="translate(0 0)" clip-path="url(#clip-path)">
          <g id="g5218" transform="translate(8.186 36.851)">
            <path id="path5220" d="M-55.592,0a5.451,5.451,0,0,0-5.451,5.451A5.451,5.451,0,0,0-55.592,10.9a5.413,5.413,0,0,0,.607-.033L-54.4.131A5.471,5.471,0,0,0-55.592,0" transform="translate(61.043 0)" fill="#ffcbbe"/>
          </g>
          <g id="g5222" transform="translate(46.135 36.84)">
            <path id="path5224" d="M-12.169,0a5.471,5.471,0,0,0-1.193.131l.592,10.738a5.307,5.307,0,0,0,.6.033A5.451,5.451,0,0,0-6.718,5.451,5.451,5.451,0,0,0-12.169,0" transform="translate(13.363)" fill="#ffcbbe"/>
          </g>
          <g id="g5226" transform="translate(13.636 28.486)">
            <path id="path5228" d="M-319.352-150.266c0,9.3-5.161,16.847-14.466,16.847a16.847,16.847,0,0,1-16.847-16.847,16.765,16.765,0,0,1,2.316-8.529L-333.822-165l13.705,9.7a16.857,16.857,0,0,1,.764,5.034" transform="translate(350.666 165)" fill="#ffddcf"/>
          </g>
          <g id="g5230" transform="translate(26.292 34.647)">
            <path id="path5232" d="M-206.768-36.088l-3.764-3.539-1.157,3.029a16.856,16.856,0,0,1,.764,5.034,16.848,16.848,0,0,1-16.118,16.832,16.875,16.875,0,0,0,4.191.526A16.847,16.847,0,0,0-206-31.054a16.856,16.856,0,0,0-.764-5.034" transform="translate(227.042 39.627)" fill="#ffcbbe"/>
          </g>
          <g id="g5234" transform="translate(0.897 0.893)">
            <path id="path5236" d="M-212.189-137.869a10.606,10.606,0,0,0,.386-3.579,10.637,10.637,0,0,0-10.436-9.939,10.607,10.607,0,0,0-10.748,11.029,10.632,10.632,0,0,0,9.762,10.151,10.6,10.6,0,0,0,3.888-.416,3.014,3.014,0,0,1,.868-.128h5.325a.84.84,0,0,0,.84-.84v-5.456a3,3,0,0,1,.114-.822" transform="translate(232.994 151.387)" fill="#e48895"/>
          </g>
          <g id="g5238" transform="translate(8.662 1.135)">
            <path id="path5240" d="M-136.941-98.9a10.646,10.646,0,0,0-8.334-9.7,12.2,12.2,0,0,1,3.752,9.313,12.277,12.277,0,0,1-8.846,11.271,10.508,10.508,0,0,0,2.005.354,10.606,10.606,0,0,0,3.888-.416,3.014,3.014,0,0,1,.868-.128h5.325a.84.84,0,0,0,.84-.84V-94.5a2.993,2.993,0,0,1,.114-.822,10.609,10.609,0,0,0,.386-3.579" transform="translate(150.369 108.598)" fill="#e06e7e"/>
          </g>
          <g id="g5242" transform="translate(38.851 0.893)">
            <path id="path5244" d="M-4.153-137.869a10.606,10.606,0,0,1-.386-3.579A10.637,10.637,0,0,1,5.9-151.386a10.607,10.607,0,0,1,10.748,11.029,10.632,10.632,0,0,1-9.762,10.151,10.6,10.6,0,0,1-3.888-.416,3.014,3.014,0,0,0-.868-.128H-3.2a.84.84,0,0,1-.84-.84v-5.456a3,3,0,0,0-.114-.822" transform="translate(4.56 151.387)" fill="#8cf4d6"/>
          </g>
          <g id="g5246" transform="translate(47.204 1.002)">
            <path id="path5248" d="M-38.532,0a16.321,16.321,0,0,1,2.195,8.871A16.37,16.37,0,0,1-42.311,20.86a10.617,10.617,0,0,0,3.09.212,10.632,10.632,0,0,0,9.762-10.151A10.609,10.609,0,0,0-38.532,0" transform="translate(42.311)" fill="#6ad5bc"/>
          </g>
          <g id="g5250" transform="translate(15.952 26.381)">
            <path id="path5252" d="M-257.558-50.229a16.766,16.766,0,0,0-9.187-4.713,9.662,9.662,0,0,0-2.267-.205,16.787,16.787,0,0,0-11.181,4.919,16.8,16.8,0,0,0-2.619,3.384h0a16.072,16.072,0,0,0,3.161.312,15.981,15.981,0,0,0,12.269-5.722,16.048,16.048,0,0,0,10.263,8.4,21,21,0,0,0,3.728.509,16.772,16.772,0,0,0-4.167-6.879" transform="translate(282.813 55.154)" fill="#f5ed85"/>
          </g>
          <g id="g5254" transform="translate(29.753 26.372)">
            <path id="path5256" d="M-128.956-50.323a16.767,16.767,0,0,0-9.187-4.713h0a16.939,16.939,0,0,0-3.458-.2,16.767,16.767,0,0,1,7.727,4.409,16.771,16.771,0,0,1,4.167,6.879h0a16.045,16.045,0,0,0,4.1.53c.274,0,.548-.007.818-.02a16.771,16.771,0,0,0-4.167-6.879" transform="translate(141.601 55.257)" fill="#edcf76"/>
          </g>
          <g id="g5258" transform="translate(17.517 41.873)">
            <path id="path5260" d="M-71.29-28.386c0,1.537-1.565,2.783-3.5,2.783s-3.5-1.246-3.5-2.783,1.565-2.783,3.5-2.783,3.5,1.246,3.5,2.783" transform="translate(78.28 31.169)" fill="#ffa1ac"/>
          </g>
          <g id="g5262" transform="translate(36.461 41.873)">
            <path id="path5264" d="M0-28.386C0-26.849,1.565-25.6,3.5-25.6s3.5-1.246,3.5-2.783-1.565-2.783-3.5-2.783S0-29.923,0-28.386" transform="translate(0 31.169)" fill="#ffa1ac"/>
          </g>
          <g id="g5266" transform="translate(13.634 26.372)">
            <path id="path5268" d="M-298.436-288.01a16.806,16.806,0,0,1-12.413,5.455A16.848,16.848,0,0,1-327.7-299.4a16.763,16.763,0,0,1,2.316-8.529,16.841,16.841,0,0,1,14.333-8.318h.2a16.868,16.868,0,0,1,2.727.22,16.87,16.87,0,0,1,13.358,11.593A16.857,16.857,0,0,1-294-299.4a16.772,16.772,0,0,1-1.982,7.935" transform="translate(327.699 316.25)" fill="none" stroke="#000" stroke-linecap="round" stroke-linejoin="round" stroke-miterlimit="10" stroke-width="1.5"/>
          </g>
          <g id="g5270" transform="translate(23.048 40.548)">
            <path id="path5272" d="M0,0V1.429" fill="none" stroke="#000" stroke-linecap="round" stroke-linejoin="round" stroke-miterlimit="10" stroke-width="1.5"/>
          </g>
          <g id="g5274" transform="translate(37.92 40.548)">
            <path id="path5276" d="M0,0V1.429" fill="none" stroke="#000" stroke-linecap="round" stroke-linejoin="round" stroke-miterlimit="10" stroke-width="1.5"/>
          </g>
          <g id="g5278" transform="translate(21.712 39)">
            <path id="path5280" d="M0,0A2.586,2.586,0,0,0,1.336.369,2.586,2.586,0,0,0,2.672,0" fill="none" stroke="#000" stroke-linecap="round" stroke-linejoin="round" stroke-miterlimit="10" stroke-width="1.5"/>
          </g>
          <g id="g5282" transform="translate(28.523 42.301)">
            <path id="path5284" d="M0,0A11.3,11.3,0,0,1,3.921.526" transform="translate(0 0)" fill="none" stroke="#000" stroke-linecap="round" stroke-linejoin="round" stroke-miterlimit="10" stroke-width="1.5"/>
          </g>
          <g id="g5286" transform="translate(15.95 26.593)">
            <path id="path5288" d="M-176.031,0a16.03,16.03,0,0,1-1.828,2.688A15.983,15.983,0,0,1-190.13,8.411a16.078,16.078,0,0,1-3.162-.312" transform="translate(193.292)" fill="none" stroke="#000" stroke-linecap="round" stroke-linejoin="round" stroke-miterlimit="10" stroke-width="1.5"/>
          </g>
          <g id="g5290" transform="translate(31.383 29.281)">
            <path id="path5292" d="M-154.875-90.815c-.271.013-.545.02-.82.02a16.015,16.015,0,0,1-14.366-8.925" transform="translate(170.061 99.72)" fill="none" stroke="#000" stroke-linecap="round" stroke-linejoin="round" stroke-miterlimit="10" stroke-width="1.5"/>
          </g>
          <g id="g5294" transform="translate(8.183 36.85)">
            <path id="path5296" d="M-61.793-110.842a5.415,5.415,0,0,1-.607.033,5.451,5.451,0,0,1-5.452-5.451A5.451,5.451,0,0,1-62.4-121.71a5.467,5.467,0,0,1,1.193.131" transform="translate(67.852 121.71)" fill="none" stroke="#000" stroke-linecap="round" stroke-linejoin="round" stroke-miterlimit="10" stroke-width="1.5"/>
          </g>
          <g id="g5298" transform="translate(46.137 36.84)">
            <path id="path5300" d="M-6.037-110.848a5.308,5.308,0,0,0,.6.033,5.451,5.451,0,0,0,5.452-5.451,5.451,5.451,0,0,0-5.452-5.451,5.474,5.474,0,0,0-1.193.131" transform="translate(6.629 121.717)" fill="none" stroke="#000" stroke-linecap="round" stroke-linejoin="round" stroke-miterlimit="10" stroke-width="1.5"/>
          </g>
          <g id="g5302" transform="translate(0.893 0.893)">
            <path id="path5304" d="M-194.231-42.752a10.621,10.621,0,0,0-8.287-4.191,10.608,10.608,0,0,0-10.75,11.029A10.633,10.633,0,0,0-203.5-25.763a10.606,10.606,0,0,0,3.888-.416,3.016,3.016,0,0,1,.868-.128h5.326a.84.84,0,0,0,.84-.84V-32.6a2.992,2.992,0,0,1,.114-.822A10.61,10.61,0,0,0-192.081-37a10.51,10.51,0,0,0-.29-1.886" transform="translate(213.276 46.943)" fill="none" stroke="#000" stroke-linecap="round" stroke-linejoin="round" stroke-miterlimit="10" stroke-width="1.5"/>
          </g>
          <g id="g5306" transform="translate(7.397 7.481)">
            <path id="path5308" d="M0,0,8.216,8.215" fill="none" stroke="#000" stroke-linecap="round" stroke-linejoin="round" stroke-miterlimit="10" stroke-width="1.5"/>
          </g>
          <g id="g5310" transform="translate(7.397 7.481)">
            <path id="path5312" d="M-83.8,0l-8.216,8.215" transform="translate(92.012)" fill="none" stroke="#000" stroke-linecap="round" stroke-linejoin="round" stroke-miterlimit="10" stroke-width="1.5"/>
          </g>
          <g id="g5314" transform="translate(38.852 0.893)">
            <path id="path5316" d="M-207.828-65.972A10.592,10.592,0,0,1-207-61.411a10.633,10.633,0,0,1-9.763,10.151,10.606,10.606,0,0,1-3.888-.416,3.016,3.016,0,0,0-.868-.128h-5.326a.84.84,0,0,1-.84-.84V-58.1a3,3,0,0,0-.114-.822,10.6,10.6,0,0,1-.387-3.579,10.638,10.638,0,0,1,10.437-9.939A10.573,10.573,0,0,1-210.37-69.6" transform="translate(228.206 72.441)" fill="none" stroke="#000" stroke-linecap="round" stroke-linejoin="round" stroke-miterlimit="10" stroke-width="1.5"/>
          </g>
          <g id="g5318" transform="translate(45.351 8.87)">
            <path id="path5320" d="M-83.8,0l-4.847,4.763-3.369-3.311" transform="translate(92.012)" fill="none" stroke="#000" stroke-linecap="round" stroke-linejoin="round" stroke-miterlimit="10" stroke-width="1.5"/>
          </g>
        </g>
      </g>
    </g>
  </g>
</svg>
