<svg xmlns="http://www.w3.org/2000/svg" xmlns:xlink="http://www.w3.org/1999/xlink" width="97.035" height="97.035" viewBox="0 0 97.035 97.035">
  <defs>
    <filter id="Trazado_982547" x="0" y="0" width="97.035" height="97.035" filterUnits="userSpaceOnUse">
      <feOffset dy="3" input="SourceAlpha"/>
      <feGaussianBlur stdDeviation="3" result="blur"/>
      <feFlood flood-opacity="0.161"/>
      <feComposite operator="in" in2="blur"/>
      <feComposite in="SourceGraphic"/>
    </filter>
  </defs>
  <g id="Grupo_1172514" data-name="Grupo 1172514" transform="translate(-610 -739)">
    <g id="Grupo_1172072" data-name="Grupo 1172072" transform="translate(-419.409 -1797.582)">
      <g id="Grupo_1171112" data-name="Grupo 1171112" transform="translate(232.219 577.058)">
        <g id="Grupo_1164703" data-name="Grupo 1164703" transform="translate(806.19 1965.523)">
          <g id="Grupo_1160931" data-name="Grupo 1160931" transform="translate(0 0)">
            <g id="Grupo_1160749" data-name="Grupo 1160749" transform="translate(0 0)">
              <g id="Grupo_1158891" data-name="Grupo 1158891" transform="translate(0 0)">
                <g id="Grupo_1157406" data-name="Grupo 1157406" transform="translate(0 0)">
                  <g id="Grupo_1155793" data-name="Grupo 1155793" transform="translate(0 0)">
                    <g id="Grupo_1154704" data-name="Grupo 1154704">
                      <g id="Grupo_1150790" data-name="Grupo 1150790">
                        <g id="Grupo_1154214" data-name="Grupo 1154214">
                          <g id="Grupo_1152583" data-name="Grupo 1152583">
                            <g id="Grupo_1146973" data-name="Grupo 1146973">
                              <g id="Grupo_1146954" data-name="Grupo 1146954">
                                <g transform="matrix(1, 0, 0, 1, -9, -6)" filter="url(#Trazado_982547)">
                                  <g id="Trazado_982547-2" data-name="Trazado 982547" transform="translate(9 6)" fill="#edf3fc">
                                    <path d="M 39.51754379272461 77.53498077392578 C 34.38454437255859 77.53498077392578 29.40588760375977 76.53001403808594 24.7198657989502 74.54798889160156 C 20.19293212890625 72.63327026367188 16.12703323364258 69.89185333251953 12.63507747650146 66.39990997314453 C 9.143132209777832 62.90796661376953 6.401721477508545 58.84206771850586 4.486988067626953 54.31515884399414 C 2.504966020584106 49.62913513183594 1.499999403953552 44.65047836303711 1.499999403953552 39.51749038696289 C 1.499999403953552 34.38450241088867 2.504966020584106 29.40584564208984 4.486988067626953 24.71982383728027 C 6.401721477508545 20.19291305541992 9.143132209777832 16.12701225280762 12.63507747650146 12.6350679397583 C 16.12703323364258 9.143123626708984 20.19293212890625 6.401712417602539 24.7198657989502 4.486990451812744 C 29.40588760375977 2.504968166351318 34.38454437255859 1.500001549720764 39.51754379272461 1.500001549720764 C 44.65054321289062 1.500001549720764 49.62919998168945 2.504968166351318 54.31523132324219 4.486990451812744 C 58.84215545654297 6.401712417602539 62.90806579589844 9.143123626708984 66.40000915527344 12.6350679397583 C 69.89195251464844 16.12701225280762 72.63337707519531 20.19291305541992 74.548095703125 24.71982383728027 C 76.53012084960938 29.40584564208984 77.53508758544922 34.38450241088867 77.53508758544922 39.51749038696289 C 77.53508758544922 44.65047836303711 76.53012084960938 49.62913513183594 74.548095703125 54.31515884399414 C 72.63337707519531 58.84206771850586 69.89195251464844 62.90796661376953 66.40000915527344 66.39990997314453 C 62.90806579589844 69.89185333251953 58.84215545654297 72.63327026367188 54.31523132324219 74.54798889160156 C 49.62919998168945 76.53001403808594 44.65054321289062 77.53498077392578 39.51754379272461 77.53498077392578 Z" stroke="none"/>
                                    <path d="M 39.51754379272461 3 C 34.58638000488281 3 29.80431747436523 3.965103149414062 25.30418014526367 5.868492126464844 C 20.9560546875 7.707588195800781 17.05040740966797 10.34104919433594 13.69573211669922 13.69572448730469 C 10.34105682373047 17.0504035949707 7.707595825195312 20.95603942871094 5.868492126464844 25.30415344238281 C 3.965095520019531 29.80427932739258 2.999992370605469 34.58634185791016 2.999992370605469 39.51749038696289 C 2.999992370605469 44.44863891601562 3.965095520019531 49.23070526123047 5.868492126464844 53.73082733154297 C 7.707595825195312 58.07894134521484 10.34105682373047 61.98457717895508 13.69573211669922 65.33924865722656 C 17.05040740966797 68.69392395019531 20.9560546875 71.327392578125 25.30418014526367 73.16648864746094 C 29.80431747436523 75.06987762451172 34.58638000488281 76.03498077392578 39.51754379272461 76.03498077392578 C 44.44870758056641 76.03498077392578 49.23076629638672 75.06987762451172 53.73089599609375 73.16648864746094 C 58.07901763916016 71.327392578125 61.98466873168945 68.69392395019531 65.33934020996094 65.33924865722656 C 68.69401550292969 61.98457717895508 71.32748413085938 58.07894134521484 73.16658020019531 53.73082733154297 C 75.06998443603516 49.23070526123047 76.03507995605469 44.44863891601562 76.03507995605469 39.51749038696289 C 76.03507995605469 34.58634185791016 75.06998443603516 29.80427932739258 73.16658020019531 25.30415344238281 C 71.32748413085938 20.95603942871094 68.69401550292969 17.0504035949707 65.33934020996094 13.69572448730469 C 61.98466873168945 10.34104919433594 58.07901763916016 7.707588195800781 53.73089599609375 5.868492126464844 C 49.23076629638672 3.965103149414062 44.44870758056641 3 39.51754379272461 3 M 39.51754379272461 0 C 61.34248352050781 0 79.03507995605469 17.69257736206055 79.03507995605469 39.51749038696289 C 79.03507995605469 61.34240341186523 61.34248352050781 79.03498077392578 39.51754379272461 79.03498077392578 C 17.69260787963867 79.03498077392578 -7.62939453125e-06 61.34240341186523 -7.62939453125e-06 39.51749038696289 C -7.62939453125e-06 17.69257736206055 17.69260787963867 0 39.51754379272461 0 Z" stroke="none" fill="#5692e8"/>
                                  </g>
                                </g>
                              </g>
                            </g>
                          </g>
                        </g>
                      </g>
                    </g>
                  </g>
                </g>
              </g>
            </g>
          </g>
        </g>
      </g>
    </g>
    <g id="storytelling_1702323" transform="translate(632.5 758.491)">
      <path id="Trazado_1026345" data-name="Trazado 1026345" d="M277.523,247.16l-3.953-13.148a2.174,2.174,0,0,0-2.172-1.544h-5.454a8.85,8.85,0,0,1-1.246.557v1.268a2.953,2.953,0,0,1-2.061,2.81l0-.026a6.729,6.729,0,0,1,.093,1.095h.525a1.522,1.522,0,0,1,1.525,1.509v1.262a1.522,1.522,0,0,1-1.525,1.509h-.74a6.388,6.388,0,0,1-1.155,2.3l9.882-5.692c.555-.319,1.009-.058,1.009.581V244.6h1.277a.931.931,0,0,1,.931.93v4.532a.93.93,0,0,1-.931.929h-1.277v2.077h1.034a4.436,4.436,0,0,0,3.615-1.733,4.659,4.659,0,0,0,.627-4.174Zm0,0" transform="translate(-231.805 -206.578)" fill="#ef5050"/>
      <path id="Trazado_1026346" data-name="Trazado 1026346" d="M176.453,96.2h-1.466V93.769a.892.892,0,0,0-.895-.89H157.927a.892.892,0,0,0-.894.89V96.2h-1.466a1.915,1.915,0,0,0-1.93,1.9v2.01a1.915,1.915,0,0,0,1.93,1.9h1.611a9.139,9.139,0,0,0,3.079,5.361,6.865,6.865,0,0,1,6.658,5.689,2.952,2.952,0,0,0,2.061-2.81v-1.268a9.1,9.1,0,0,0,5.866-6.973h1.611a1.914,1.914,0,0,0,1.929-1.9V98.1a1.914,1.914,0,0,0-1.929-1.9Zm0,0" transform="translate(-136.083 -82.536)" fill="#ffd5b3"/>
      <path id="Trazado_1026347" data-name="Trazado 1026347" d="M167.112,20.332h1.466V17.9a.892.892,0,0,1,.894-.89h16.165a.892.892,0,0,1,.895.89v2.434H188a1.947,1.947,0,0,1,.483.063V14.1a4.747,4.747,0,0,0-7.451-3.872A8.128,8.128,0,0,0,174.448,7.5a7.8,7.8,0,0,0-7.819,7.779v5.116a1.94,1.94,0,0,1,.483-.063Zm0,0" transform="translate(-147.628 -6.665)" fill="#f7931e"/>
      <path id="Trazado_1026348" data-name="Trazado 1026348" d="M167.112,20.332h1.466V17.9a.892.892,0,0,1,.894-.89h.572v-1.73a7.791,7.791,0,0,1,6.275-7.626,11.274,11.274,0,0,0-1.871-.153,7.8,7.8,0,0,0-7.82,7.779v5.116a1.941,1.941,0,0,1,.483-.063Zm0,0" transform="translate(-147.628 -6.665)" fill="#de841b"/>
      <path id="Trazado_1026349" data-name="Trazado 1026349" d="M239.45,189.575a3.311,3.311,0,0,1-3.169-3.43.449.449,0,0,1,.453-.445h5.432a.449.449,0,0,1,.453.445A3.311,3.311,0,0,1,239.45,189.575Zm0,0" transform="translate(-209.523 -165.019)" fill="#fb8276"/>
      <path id="Trazado_1026350" data-name="Trazado 1026350" d="M238.621,186.144a.449.449,0,0,1,.453-.445h-2.34a.449.449,0,0,0-.453.445,3.311,3.311,0,0,0,3.169,3.43,2.939,2.939,0,0,0,1.17-.244A3.441,3.441,0,0,1,238.621,186.144Zm0,0" transform="translate(-209.523 -165.019)" fill="#e1756a"/>
      <path id="Trazado_1026351" data-name="Trazado 1026351" d="M131.544,238.186a2.245,2.245,0,0,0,2.018,0l3.233-1.862a6.388,6.388,0,0,0,1.155-2.3h.74a1.522,1.522,0,0,0,1.525-1.509v-1.262a1.522,1.522,0,0,0-1.525-1.509h-.525a6.843,6.843,0,0,0-6.909-6.762h-1.114a6.843,6.843,0,0,0-6.908,6.762h-.525a1.522,1.522,0,0,0-1.525,1.509v.971Zm0,0" transform="translate(-107.244 -198.145)" fill="#ffd5b3"/>
      <path id="Trazado_1026352" data-name="Trazado 1026352" d="M154.045,224.4a6.967,6.967,0,0,0-4.232-1.422H148.7a6.892,6.892,0,0,0-6.632,4.88,1.486,1.486,0,0,0,1.941-.135l.823-.82a1.483,1.483,0,0,0,2.517.834l.823-.821a1.469,1.469,0,0,0,.418.834,1.486,1.486,0,0,0,2.1,0Zm0,0" transform="translate(-125.801 -198.145)" fill="#f7931e"/>
      <path id="Trazado_1026353" data-name="Trazado 1026353" d="M142.294,261.062a6.647,6.647,0,0,1,.459-2.431,1.506,1.506,0,0,1-.127-.42l-.823.821a1.486,1.486,0,0,1-1.941.135,6.642,6.642,0,0,0-.276,1.9v2.621a6.408,6.408,0,0,0,.093,1.08l2.647,1.525c-.021-1.114-.032-2.393-.032-2.6Zm0,0" transform="translate(-123.596 -229.455)" fill="#e5bfa1"/>
      <path id="Trazado_1026354" data-name="Trazado 1026354" d="M150.607,223.024a7.035,7.035,0,0,0-.794-.047H148.7a6.892,6.892,0,0,0-6.632,4.88,1.486,1.486,0,0,0,1.941-.135l.823-.82a1.493,1.493,0,0,0,.127.42A6.894,6.894,0,0,1,150.607,223.024Zm0,0" transform="translate(-125.801 -198.145)" fill="#de841b"/>
      <path id="Trazado_1026355" data-name="Trazado 1026355" d="M116.6,296.165h1.052v-4.953c0-.639-.454-.9-1.009-.581l-13.115,7.554a2.242,2.242,0,0,1-2.018,0l-13.115-7.554c-.555-.319-1.009-.058-1.009.581v4.953h1.259a.931.931,0,0,1,.931.93v4.532a.93.93,0,0,1-.931.929H87.386v2.236a2.233,2.233,0,0,0,1.009,1.743l13.115,7.554a2.242,2.242,0,0,0,2.018,0l13.115-7.554a2.233,2.233,0,0,0,1.009-1.743v-2.236H116.6a.93.93,0,0,1-.932-.929V297.1a.931.931,0,0,1,.932-.93Zm0,0" transform="translate(-77.21 -258.145)" fill="#d5e962"/>
      <path id="Trazado_1026356" data-name="Trazado 1026356" d="M101.51,298.186,88.4,290.632c-.555-.319-1.009-.058-1.009.581v4.953h1.259a.931.931,0,0,1,.931.93v4.532a.93.93,0,0,1-.931.929H87.386v2.236a2.233,2.233,0,0,0,1.009,1.743l13.115,7.554a2.067,2.067,0,0,0,1.009.24v-15.9a2.07,2.07,0,0,1-1.009-.239Zm0,0" transform="translate(-77.21 -258.145)" fill="#89c947"/>
      <path id="Trazado_1026357" data-name="Trazado 1026357" d="M88.646,296.165a.931.931,0,0,1,.917.768v-4.477c0-.591.388-.858.885-.642L88.4,290.632c-.555-.319-1.009-.058-1.009.581v4.953Zm0,0" transform="translate(-77.211 -258.145)" fill="#7bb540"/>
      <path id="Trazado_1026358" data-name="Trazado 1026358" d="M89.926,375.95q-.172-.171-.349-.332v1.652a.93.93,0,0,1-.931.929H87.386v2.236a2.233,2.233,0,0,0,1.009,1.743l4.871,2.806a11.228,11.228,0,0,0-3.341-9.033Zm0,0" transform="translate(-77.21 -333.787)" fill="#ffc502"/>
      <path id="Trazado_1026359" data-name="Trazado 1026359" d="M91.155,398.224l-.584-.336a2.231,2.231,0,0,1-1.008-1.743V391.9a.931.931,0,0,1-.917.768H87.387V394.9a2.233,2.233,0,0,0,1.009,1.743l2.768,1.594Zm0,0" transform="translate(-77.211 -348.255)" fill="#e5b102"/>
      <path id="Trazado_1026360" data-name="Trazado 1026360" d="M253.447,369.764a1.166,1.166,0,0,0,.319-.228l1.888-1.873,1.888.112a.676.676,0,0,0,.32-.07,1.194,1.194,0,0,0,.4-.32,1.035,1.035,0,0,0,.274-.8l-.361-1.934,1.527-2.2a.9.9,0,0,0,.174-.786.406.406,0,0,0-.555-.209l-2.11.678-.944-1.472a.456.456,0,0,0-.616-.1,1.289,1.289,0,0,0-.616.67l-.944,2.353-2.11,1.291a1.3,1.3,0,0,0-.555.726c-.082.288-.015.527.174.624l1.527.776-.36,2.27c-.044.28.06.489.273.545A.6.6,0,0,0,253.447,369.764Zm0,0" transform="translate(-222.954 -320.348)" fill="#ffc502"/>
      <path id="Trazado_1026361" data-name="Trazado 1026361" d="M254.875,394.7l.361-2.27-1.527-.776c-.188-.1-.255-.335-.174-.624a1.178,1.178,0,0,1,.106-.25l-1.656,1.013a1.3,1.3,0,0,0-.555.726c-.082.288-.015.527.174.624l1.527.777-.361,2.27c-.044.28.06.489.274.545a.606.606,0,0,0,.4-.057,1.178,1.178,0,0,0,.319-.228l1.267-1.257a.475.475,0,0,1-.16-.492Zm0,0" transform="translate(-222.954 -347.262)" fill="#e5b102"/>
      <path id="Trazado_1026362" data-name="Trazado 1026362" d="M73.6,346.871a.931.931,0,0,1-.931.93h-2.33a.931.931,0,0,1-.932-.93v-4.531a.931.931,0,0,1,.932-.93h2.33a.93.93,0,0,1,.931.93Zm0,0" transform="translate(-61.236 -303.389)" fill="#ffd5b3"/>
      <path id="Trazado_1026363" data-name="Trazado 1026363" d="M71.107,346.871v-4.531a.931.931,0,0,1,.932-.93h-1.7a.93.93,0,0,0-.932.93v4.531a.931.931,0,0,0,.932.93h1.7A.931.931,0,0,1,71.107,346.871Zm0,0" transform="translate(-61.236 -303.389)" fill="#e5bfa1"/>
      <path id="Trazado_1026364" data-name="Trazado 1026364" d="M345.528,346.871a.931.931,0,0,1-.931.93h-2.33a.931.931,0,0,1-.932-.93v-4.531a.931.931,0,0,1,.932-.93h2.33a.93.93,0,0,1,.931.93Zm0,0" transform="translate(-302.878 -303.389)" fill="#ffd5b3"/>
      <path id="Trazado_1026365" data-name="Trazado 1026365" d="M343.041,346.871v-4.531a.931.931,0,0,1,.932-.93h-1.7a.93.93,0,0,0-.932.93v4.531a.931.931,0,0,0,.932.93h1.7A.931.931,0,0,1,343.041,346.871Zm0,0" transform="translate(-302.879 -303.389)" fill="#e5bfa1"/>
      <path id="Trazado_1026366" data-name="Trazado 1026366" d="M23.62,151.708l-1.7-1.072v-5.522A1.117,1.117,0,0,0,20.807,144H9.114A1.117,1.117,0,0,0,8,145.114v8.909a1.117,1.117,0,0,0,1.114,1.114H20.807a1.117,1.117,0,0,0,1.114-1.114v-.648l1.7-1.072A.324.324,0,0,0,23.62,151.708Zm0,0" transform="translate(-6.665 -127.964)" fill="#fcdb67"/>
      <path id="Trazado_1026367" data-name="Trazado 1026367" d="M11.374,154.023v-8.909A1.117,1.117,0,0,1,12.487,144H9.114A1.117,1.117,0,0,0,8,145.114v8.909a1.117,1.117,0,0,0,1.114,1.114h3.374A1.117,1.117,0,0,1,11.374,154.023Zm0,0" transform="translate(-6.665 -127.964)" fill="#e2c55c"/>
      <path id="Trazado_1026368" data-name="Trazado 1026368" d="M193.474,100.379h-1.791a.057.057,0,0,0-.059.055v6.619a8.312,8.312,0,0,0,2.715,6.161,7.82,7.82,0,0,1,1.822.332,9.143,9.143,0,0,1-2.69-6.494v-6.619C193.472,100.415,193.473,100.4,193.474,100.379Zm0,0" transform="translate(-169.84 -89.201)" fill="#e5bfa1"/>
      <path id="Trazado_1026369" data-name="Trazado 1026369" d="M101.09,40.341l-2.224-7.395a.835.835,0,1,0-1.6.481l2.224,7.395a3.834,3.834,0,0,1-.5,3.434,3.609,3.609,0,0,1-2.946,1.4h-.2v-.407h.442a1.768,1.768,0,0,0,1.767-1.764V38.951a1.768,1.768,0,0,0-1.767-1.765h-.442V33.068a1.432,1.432,0,0,0-1.4-1.553,1.728,1.728,0,0,0-.865.248l-5.251,3.024a2.329,2.329,0,0,0,.04-.422V33.1a2.349,2.349,0,0,0-1.743-2.259A3.778,3.778,0,0,0,88.3,27.715v-.7c.211-.09.419-.187.623-.292H94.2a1.336,1.336,0,0,1,1.337.95l.591,1.966a.835.835,0,1,0,1.6-.481l-.592-1.966a3,3,0,0,0-2.988-2.139H91.254a9.979,9.979,0,0,0,2.754-4.745h.934a2.753,2.753,0,0,0,2.765-2.734V15.565a2.733,2.733,0,0,0-1.446-2.4V7.436a5.579,5.579,0,0,0-8.119-4.941A9.182,9.182,0,0,0,81.392,0a8.644,8.644,0,0,0-8.655,8.614v4.549a2.732,2.732,0,0,0-1.447,2.4v2.01a2.753,2.753,0,0,0,2.765,2.734h.934a9.971,9.971,0,0,0,1.824,3.715,7.694,7.694,0,0,0-7.04,6.749,2.359,2.359,0,0,0-2.053,1.88l-1.547-.89a1.721,1.721,0,0,0-.865-.248,1.432,1.432,0,0,0-1.4,1.553v4.117h-.235a1.768,1.768,0,0,0-1.767,1.765v4.531a1.768,1.768,0,0,0,1.767,1.765h.235v1.4a3.059,3.059,0,0,0,1.427,2.467l13.115,7.553a3.069,3.069,0,0,0,2.852,0l13.115-7.554a3.081,3.081,0,0,0,1.329-1.79h.3a5.263,5.263,0,0,0,4.285-2.069,5.486,5.486,0,0,0,.757-4.914ZM86.707,33.1v1.262a.675.675,0,0,1-.42.62,7.256,7.256,0,0,0,.041-.757V32.5a.672.672,0,0,1,.379.6Zm-.759-3.843a7.507,7.507,0,0,0-.684-1.5,9.669,9.669,0,0,0,1.365-.205v.157A2.1,2.1,0,0,1,85.947,29.26ZM94.941,14.5a1.08,1.08,0,0,1,1.094,1.064v2.01a1.08,1.08,0,0,1-1.094,1.064H94.28q.031-.39.031-.787V14.5ZM90.681,3.554a3.9,3.9,0,0,1,3.908,3.883v5.4h-.278v-1.6a1.729,1.729,0,0,0-1.73-1.725H90.047v-2.1a7.162,7.162,0,0,0-.888-3.542,3.9,3.9,0,0,1,1.522-.309ZM74.055,18.639a1.081,1.081,0,0,1-1.095-1.064v-2.01A1.081,1.081,0,0,1,74.055,14.5h.63v3.35c0,.265.011.527.031.787Zm.63-7.406v1.6h-.278V8.613A6.972,6.972,0,0,1,81.392,1.67a8.171,8.171,0,0,1,5.015,1.5,5.169,5.169,0,0,1,1.969,4.238v2.1H76.415a1.729,1.729,0,0,0-1.73,1.725Zm1.67,6.619V11.233a.057.057,0,0,1,.059-.055H92.581a.057.057,0,0,1,.06.055v6.619A8.218,8.218,0,0,1,84.5,26.125c-.193,0-.385-.008-.574-.022a7.777,7.777,0,0,0-4.852-2.09,8.312,8.312,0,0,1-2.715-6.161Zm1.113,7.815h1.114a6.146,6.146,0,0,1,2.909.727l-2.624,2.618a.652.652,0,0,1-.919,0,.636.636,0,0,1-.181-.363.835.835,0,0,0-1.416-.472L75.528,29a.652.652,0,0,1-.92,0,.636.636,0,0,1-.181-.363.836.836,0,0,0-1.417-.472l-.823.821a.639.639,0,0,1-.238.148,6.089,6.089,0,0,1,5.519-3.466ZM71.4,31.607a5.847,5.847,0,0,1,.055-.785,2.321,2.321,0,0,0,1.917-.654l.024-.024.037.037a2.325,2.325,0,0,0,3.279,0l.024-.024.037.037a2.325,2.325,0,0,0,3.279,0l2.81-2.8a5.857,5.857,0,0,1,1.8,4.216v2.621a5.529,5.529,0,0,1-1.1,3.314l-3.083,1.776a1.432,1.432,0,0,1-1.183,0l-7.863-4.529a5.553,5.553,0,0,1-.029-.561Zm-2.049,1.5a.673.673,0,0,1,.379-.6v1.307l-.379-.218ZM63.677,43.576a.1.1,0,0,1-.1-.094V38.951a.1.1,0,0,1,.1-.094h2.33a.1.1,0,0,1,.1.094v4.531a.1.1,0,0,1-.1.094Zm2.5,4.091a1.41,1.41,0,0,1-.591-1.02v-1.4h.424a1.768,1.768,0,0,0,1.709-1.325,10.3,10.3,0,0,1,2.123,5.856Zm28-1.02a1.41,1.41,0,0,1-.59,1.019L80.716,55.08V54.012a.835.835,0,0,0-1.67,0V55.08L71.5,50.734a12.042,12.042,0,0,0-3.623-9.163c-.034-.034-.07-.065-.1-.1V38.951a1.768,1.768,0,0,0-1.767-1.765h-.424V33.351l12.872,7.414a2.524,2.524,0,0,0,.59.24v9.109a.835.835,0,1,0,1.67,0V41a2.506,2.506,0,0,0,.59-.24l12.872-7.414v3.835h-.217a1.768,1.768,0,0,0-1.767,1.765v1.892a1.2,1.2,0,0,0-1.058-.6,1.465,1.465,0,0,0-.449.073l-1.5.481-.6-.932a1.2,1.2,0,0,0-1.028-.552,1.521,1.521,0,0,0-.644.15,2.129,2.129,0,0,0-1.039,1.116l-.841,2.1L83.166,43.82a2.141,2.141,0,0,0-.923,1.212,1.319,1.319,0,0,0,.6,1.6l.985.5-.265,1.67a1.254,1.254,0,0,0,.887,1.483,1.289,1.289,0,0,0,.326.041,1.523,1.523,0,0,0,.645-.15,2.021,2.021,0,0,0,.553-.392l1.623-1.61,1.516.09a1.5,1.5,0,0,0,.72-.147,2.042,2.042,0,0,0,.691-.54,1.854,1.854,0,0,0,.455-1.489l-.3-1.591,1.329-1.915a2.106,2.106,0,0,0,.184-.321v1.223a1.768,1.768,0,0,0,1.767,1.765h.217v1.4Zm-5.2-2.19.354,1.9a.443.443,0,0,1-.086.147.429.429,0,0,1-.1.089l-1.823-.108a.824.824,0,0,0-.638.241l-1.306,1.3.195-1.229a.835.835,0,0,0-.446-.875l-1.174-.6a.4.4,0,0,1,.085-.072l2.11-1.291a.837.837,0,0,0,.339-.4L87.43,41.2c0-.01.009-.021.014-.031l.684,1.068a.835.835,0,0,0,.959.345l1.142-.366L89.11,43.828a.834.834,0,0,0-.135.629Zm4.985-.881a.1.1,0,0,1-.1-.094V38.951a.1.1,0,0,1,.1-.094h2.33a.1.1,0,0,1,.1.094v4.531a.1.1,0,0,1-.1.094Zm0,0" transform="translate(-54.571)"/>
      <path id="Trazado_1026370" data-name="Trazado 1026370" d="M215.1,133.327a.835.835,0,0,0,.835-.835v-1.141a.835.835,0,0,0-1.67,0v1.141A.835.835,0,0,0,215.1,133.327Zm0,0" transform="translate(-189.96 -115.981)"/>
      <path id="Trazado_1026371" data-name="Trazado 1026371" d="M301.038,133.327a.835.835,0,0,0,.835-.835v-1.141a.835.835,0,1,0-1.67,0v1.141A.835.835,0,0,0,301.038,133.327Zm0,0" transform="translate(-266.327 -115.981)"/>
      <path id="Trazado_1026372" data-name="Trazado 1026372" d="M251.681,137.136h.99a.835.835,0,1,0,0-1.67h-.712v-2.012a.835.835,0,0,0-1.671,0v2.291A1.394,1.394,0,0,0,251.681,137.136Zm0,0" transform="translate(-221.971 -117.849)"/>
      <path id="Trazado_1026373" data-name="Trazado 1026373" d="M232.785,183.745a4.146,4.146,0,0,0,4-4.265A1.286,1.286,0,0,0,235.5,178.2h-5.432a1.286,1.286,0,0,0-1.288,1.281A4.146,4.146,0,0,0,232.785,183.745Zm2.307-3.876a2.309,2.309,0,0,1-4.614,0Zm0,0" transform="translate(-202.858 -158.354)"/>
      <path id="Trazado_1026374" data-name="Trazado 1026374" d="M165.952,299.658a.835.835,0,0,0,.835-.835v-.5a.835.835,0,0,0-1.67,0v.5A.835.835,0,0,0,165.952,299.658Zm0,0" transform="translate(-146.284 -264.362)"/>
      <path id="Trazado_1026375" data-name="Trazado 1026375" d="M233.968,299.658a.835.835,0,0,0,.835-.835v-.5a.835.835,0,1,0-1.67,0v.5A.835.835,0,0,0,233.968,299.658Zm0,0" transform="translate(-206.726 -264.362)"/>
      <path id="Trazado_1026376" data-name="Trazado 1026376" d="M196.583,304.41h.424a.835.835,0,0,0,0-1.671h-.012v-.333a.835.835,0,1,0-1.67,0v.612A1.331,1.331,0,0,0,196.583,304.41Zm0,0" transform="translate(-173.128 -267.987)"/>
      <path id="Trazado_1026377" data-name="Trazado 1026377" d="M10.333,148.472a.835.835,0,0,0-.835-.835H2.449a.282.282,0,0,1-.278-.278v-8.909a.282.282,0,0,1,.278-.278H14.142a.282.282,0,0,1,.278.278v5.522a.836.836,0,0,0,.389.706l1.051.663L14.81,146a.834.834,0,0,0-.389.706v.648a.282.282,0,0,1-.278.278H13.4a.835.835,0,1,0,0,1.67h.747a1.951,1.951,0,0,0,1.949-1.949v-.187l1.309-.827a1.155,1.155,0,0,0,0-2.007l-1.309-.827v-5.061a1.951,1.951,0,0,0-1.949-1.949H2.449A1.951,1.951,0,0,0,.5,138.449v8.909a1.951,1.951,0,0,0,1.949,1.949H9.5A.835.835,0,0,0,10.333,148.472Zm0,0" transform="translate(0 -121.299)"/>
      <path id="Trazado_1026378" data-name="Trazado 1026378" d="M27.941,163.85h8.106a.835.835,0,1,0,0-1.67H27.941a.835.835,0,1,0,0,1.67Zm0,0" transform="translate(-23.643 -144.119)"/>
      <path id="Trazado_1026379" data-name="Trazado 1026379" d="M36.882,185.835a.835.835,0,0,0-.835-.835H27.941a.835.835,0,1,0,0,1.67h8.106A.835.835,0,0,0,36.882,185.835Zm0,0" transform="translate(-23.643 -164.398)"/>
      <path id="Trazado_1026380" data-name="Trazado 1026380" d="M27.941,207.82a.835.835,0,1,0,0,1.67h4.721a.835.835,0,1,0,0-1.67Zm0,0" transform="translate(-23.643 -184.676)"/>
    </g>
  </g>
</svg>
