<svg xmlns="http://www.w3.org/2000/svg" xmlns:xlink="http://www.w3.org/1999/xlink" width="97.035" height="97.035" viewBox="0 0 97.035 97.035">
  <defs>
    <filter id="Trazado_982547" x="0" y="0" width="97.035" height="97.035" filterUnits="userSpaceOnUse">
      <feOffset dy="3" input="SourceAlpha"/>
      <feGaussianBlur stdDeviation="3" result="blur"/>
      <feFlood flood-opacity="0.161"/>
      <feComposite operator="in" in2="blur"/>
      <feComposite in="SourceGraphic"/>
    </filter>
  </defs>
  <g id="Grupo_1172849" data-name="Grupo 1172849" transform="translate(-819 -871)">
    <g id="Grupo_1172234" data-name="Grupo 1172234" transform="translate(629.591 -1665.582)">
      <g id="Grupo_1166162" data-name="Grupo 1166162" transform="translate(-607.781 577.058)">
        <g id="Grupo_1164703" data-name="Grupo 1164703" transform="translate(806.19 1965.523)">
          <g id="Grupo_1160931" data-name="Grupo 1160931" transform="translate(0 0)">
            <g id="Grupo_1160749" data-name="Grupo 1160749" transform="translate(0 0)">
              <g id="Grupo_1158891" data-name="Grupo 1158891" transform="translate(0 0)">
                <g id="Grupo_1157406" data-name="Grupo 1157406" transform="translate(0 0)">
                  <g id="Grupo_1155793" data-name="Grupo 1155793" transform="translate(0 0)">
                    <g id="Grupo_1154704" data-name="Grupo 1154704">
                      <g id="Grupo_1150790" data-name="Grupo 1150790">
                        <g id="Grupo_1154214" data-name="Grupo 1154214">
                          <g id="Grupo_1152583" data-name="Grupo 1152583">
                            <g id="Grupo_1146973" data-name="Grupo 1146973">
                              <g id="Grupo_1146954" data-name="Grupo 1146954">
                                <g transform="matrix(1, 0, 0, 1, -9, -6)" filter="url(#Trazado_982547)">
                                  <g id="Trazado_982547-2" data-name="Trazado 982547" transform="translate(9 6)" fill="#edf3fc">
                                    <path d="M 39.51754379272461 77.53498077392578 C 34.38454437255859 77.53498077392578 29.40588760375977 76.53001403808594 24.7198657989502 74.54798889160156 C 20.19293212890625 72.63327026367188 16.12703323364258 69.89185333251953 12.63507747650146 66.39990997314453 C 9.143132209777832 62.90796661376953 6.401721477508545 58.84206771850586 4.486988067626953 54.31515884399414 C 2.504966020584106 49.62913513183594 1.499999403953552 44.65047836303711 1.499999403953552 39.51749038696289 C 1.499999403953552 34.38450241088867 2.504966020584106 29.40584564208984 4.486988067626953 24.71982383728027 C 6.401721477508545 20.19291305541992 9.143132209777832 16.12701225280762 12.63507747650146 12.6350679397583 C 16.12703323364258 9.143123626708984 20.19293212890625 6.401712417602539 24.7198657989502 4.486990451812744 C 29.40588760375977 2.504968166351318 34.38454437255859 1.500001549720764 39.51754379272461 1.500001549720764 C 44.65054321289062 1.500001549720764 49.62919998168945 2.504968166351318 54.31523132324219 4.486990451812744 C 58.84215545654297 6.401712417602539 62.90806579589844 9.143123626708984 66.40000915527344 12.6350679397583 C 69.89195251464844 16.12701225280762 72.63337707519531 20.19291305541992 74.548095703125 24.71982383728027 C 76.53012084960938 29.40584564208984 77.53508758544922 34.38450241088867 77.53508758544922 39.51749038696289 C 77.53508758544922 44.65047836303711 76.53012084960938 49.62913513183594 74.548095703125 54.31515884399414 C 72.63337707519531 58.84206771850586 69.89195251464844 62.90796661376953 66.40000915527344 66.39990997314453 C 62.90806579589844 69.89185333251953 58.84215545654297 72.63327026367188 54.31523132324219 74.54798889160156 C 49.62919998168945 76.53001403808594 44.65054321289062 77.53498077392578 39.51754379272461 77.53498077392578 Z" stroke="none"/>
                                    <path d="M 39.51754379272461 3 C 34.58638000488281 3 29.80431747436523 3.965103149414062 25.30418014526367 5.868492126464844 C 20.9560546875 7.707588195800781 17.05040740966797 10.34104919433594 13.69573211669922 13.69572448730469 C 10.34105682373047 17.0504035949707 7.707595825195312 20.95603942871094 5.868492126464844 25.30415344238281 C 3.965095520019531 29.80427932739258 2.999992370605469 34.58634185791016 2.999992370605469 39.51749038696289 C 2.999992370605469 44.44863891601562 3.965095520019531 49.23070526123047 5.868492126464844 53.73082733154297 C 7.707595825195312 58.07894134521484 10.34105682373047 61.98457717895508 13.69573211669922 65.33924865722656 C 17.05040740966797 68.69392395019531 20.9560546875 71.327392578125 25.30418014526367 73.16648864746094 C 29.80431747436523 75.06987762451172 34.58638000488281 76.03498077392578 39.51754379272461 76.03498077392578 C 44.44870758056641 76.03498077392578 49.23076629638672 75.06987762451172 53.73089599609375 73.16648864746094 C 58.07901763916016 71.327392578125 61.98466873168945 68.69392395019531 65.33934020996094 65.33924865722656 C 68.69401550292969 61.98457717895508 71.32748413085938 58.07894134521484 73.16658020019531 53.73082733154297 C 75.06998443603516 49.23070526123047 76.03507995605469 44.44863891601562 76.03507995605469 39.51749038696289 C 76.03507995605469 34.58634185791016 75.06998443603516 29.80427932739258 73.16658020019531 25.30415344238281 C 71.32748413085938 20.95603942871094 68.69401550292969 17.0504035949707 65.33934020996094 13.69572448730469 C 61.98466873168945 10.34104919433594 58.07901763916016 7.707588195800781 53.73089599609375 5.868492126464844 C 49.23076629638672 3.965103149414062 44.44870758056641 3 39.51754379272461 3 M 39.51754379272461 0 C 61.34248352050781 0 79.03507995605469 17.69257736206055 79.03507995605469 39.51749038696289 C 79.03507995605469 61.34240341186523 61.34248352050781 79.03498077392578 39.51754379272461 79.03498077392578 C 17.69260787963867 79.03498077392578 -7.62939453125e-06 61.34240341186523 -7.62939453125e-06 39.51749038696289 C -7.62939453125e-06 17.69257736206055 17.69260787963867 0 39.51754379272461 0 Z" stroke="none" fill="#5692e8"/>
                                  </g>
                                </g>
                              </g>
                            </g>
                          </g>
                        </g>
                      </g>
                    </g>
                  </g>
                </g>
              </g>
            </g>
          </g>
        </g>
      </g>
    </g>
    <g id="stress-management_11264324" transform="translate(834.5 844.236)">
      <g id="Grupo_1172843" data-name="Grupo 1172843" transform="translate(7.5 50.764)">
        <g id="Grupo_1172842" data-name="Grupo 1172842" transform="translate(0 0)">
          <path id="Trazado_1027258" data-name="Trazado 1027258" d="M127.452,135.364a8.526,8.526,0,0,1,6.624-8.3,16.143,16.143,0,0,0-22.439-18.79c0,.094.007.188.007.284a7.589,7.589,0,0,1-7.581,7.581c-.079,0-.158,0-.236-.006a16.188,16.188,0,0,0-.933,10.931,8.506,8.506,0,0,1,6.575,9.211,16.146,16.146,0,0,0,18.033,0A8.535,8.535,0,0,1,127.452,135.364Z" transform="translate(-92.387 -100.873)" fill="#efe2dd"/>
          <path id="Trazado_1027259" data-name="Trazado 1027259" d="M201.753,137.526a8.526,8.526,0,0,1,6.624-8.3,16.151,16.151,0,0,0-12.725-20.058,16.142,16.142,0,0,1-10.284,30.218,16.153,16.153,0,0,0,16.434-.949A8.54,8.54,0,0,1,201.753,137.526Z" transform="translate(-166.687 -103.035)" fill="#e1d3ce"/>
          <g id="Grupo_1172837" data-name="Grupo 1172837" transform="translate(16.583 12.502)">
            <path id="Trazado_1027260" data-name="Trazado 1027260" d="M184.427,180.435V178.2a.423.423,0,0,0-.423-.423h-1.648a.424.424,0,0,1-.409-.318,7.231,7.231,0,0,0-.748-1.8.424.424,0,0,1,.064-.514l1.166-1.166a.423.423,0,0,0,0-.6L180.85,171.8a.423.423,0,0,0-.6,0l-1.166,1.166a.424.424,0,0,1-.514.064,7.229,7.229,0,0,0-1.8-.748.424.424,0,0,1-.318-.409v-1.648a.423.423,0,0,0-.423-.423h-2.233a.423.423,0,0,0-.423.423v1.648a.424.424,0,0,1-.318.409,7.23,7.23,0,0,0-1.8.748.424.424,0,0,1-.514-.064L169.57,171.8a.423.423,0,0,0-.6,0l-1.579,1.579a.423.423,0,0,0,0,.6l1.166,1.166a.424.424,0,0,1,.064.514,7.231,7.231,0,0,0-.748,1.8.424.424,0,0,1-.409.318h-1.648a.423.423,0,0,0-.423.423v2.233a.423.423,0,0,0,.423.423h1.648a.424.424,0,0,1,.409.318,7.23,7.23,0,0,0,.748,1.8.424.424,0,0,1-.064.514l-1.166,1.166a.423.423,0,0,0,0,.6l1.579,1.579a.423.423,0,0,0,.6,0l1.166-1.166a.424.424,0,0,1,.514-.064,7.23,7.23,0,0,0,1.8.748.423.423,0,0,1,.318.409v1.648a.423.423,0,0,0,.423.423h2.233a.423.423,0,0,0,.423-.423v-1.648a.424.424,0,0,1,.318-.409,7.231,7.231,0,0,0,1.8-.748.424.424,0,0,1,.514.064l1.166,1.166a.423.423,0,0,0,.6,0l1.579-1.579a.423.423,0,0,0,0-.6l-1.166-1.166a.424.424,0,0,1-.064-.514,7.23,7.23,0,0,0,.748-1.8.423.423,0,0,1,.409-.318H184A.423.423,0,0,0,184.427,180.435Z" transform="translate(-165.396 -169.803)" fill="#26a6fe"/>
            <circle id="Elipse_12379" data-name="Elipse 12379" cx="3.381" cy="3.381" r="3.381" transform="translate(6.135 6.135)" fill="#0593fc"/>
            <path id="Trazado_1027261" data-name="Trazado 1027261" d="M229.865,233.814a3.381,3.381,0,0,1-5.2,3.567,3.381,3.381,0,1,0,5.2-3.567Z" transform="translate(-218.444 -227.091)" fill="#0182fc"/>
          </g>
          <g id="Grupo_1172840" data-name="Grupo 1172840" transform="translate(0 25.873)">
            <g id="Grupo_1172838" data-name="Grupo 1172838" transform="translate(34.961)">
              <circle id="Elipse_12380" data-name="Elipse 12380" cx="8.618" cy="8.618" r="8.618" fill="#ffe177"/>
              <path id="Trazado_1027262" data-name="Trazado 1027262" d="M367.334,301.438a8.617,8.617,0,0,1-9.55,13.468,8.617,8.617,0,1,0,9.55-13.468Z" transform="translate(-355.956 -300.984)" fill="#ffd15b"/>
            </g>
            <g id="Grupo_1172839" data-name="Grupo 1172839">
              <circle id="Elipse_12381" data-name="Elipse 12381" cx="8.618" cy="8.618" r="8.618" fill="#fe76a8"/>
              <path id="Trazado_1027263" data-name="Trazado 1027263" d="M34.454,301.438a8.617,8.617,0,0,1-9.55,13.468,8.617,8.617,0,1,0,9.55-13.468Z" transform="translate(-23.076 -300.984)" fill="#fe5694"/>
            </g>
          </g>
          <g id="Grupo_1172841" data-name="Grupo 1172841" transform="translate(3.991)">
            <circle id="Elipse_12382" data-name="Elipse 12382" cx="7.686" cy="7.686" r="7.686" fill="#c8effe"/>
            <path id="Trazado_1027264" data-name="Trazado 1027264" d="M70.456,52.347a7.686,7.686,0,0,1-7.44,12.505,7.685,7.685,0,1,0,7.44-12.505Z" transform="translate(-61.177 -52.181)" fill="#99e6fc"/>
          </g>
        </g>
      </g>
      <g id="Grupo_1172848" data-name="Grupo 1172848" transform="translate(7.5 50.764)">
        <path id="Trazado_1027265" data-name="Trazado 1027265" d="M105.509,197.057a16.027,16.027,0,0,0-1.228,4.09" transform="translate(-94.117 -181.693)" fill="none" stroke="#000" stroke-linecap="round" stroke-linejoin="round" stroke-miterlimit="10" stroke-width="1.5"/>
        <path id="Trazado_1027266" data-name="Trazado 1027266" d="M214.153,126.949a16.144,16.144,0,0,0-22.366-18.722" transform="translate(-172.432 -100.873)" fill="none" stroke="#000" stroke-linecap="round" stroke-linejoin="round" stroke-miterlimit="10" stroke-width="1.5"/>
        <path id="Trazado_1027267" data-name="Trazado 1027267" d="M171.083,388.468a16.142,16.142,0,0,0,17.837,0" transform="translate(-153.903 -353.001)" fill="none" stroke="#000" stroke-linecap="round" stroke-linejoin="round" stroke-miterlimit="10" stroke-width="1.5"/>
        <path id="Trazado_1027268" data-name="Trazado 1027268" d="M102.717,271a16.11,16.11,0,0,0,.476,2.946" transform="translate(-92.717 -247.87)" fill="none" stroke="#000" stroke-linecap="round" stroke-linejoin="round" stroke-miterlimit="10" stroke-width="1.5"/>
        <path id="Trazado_1027269" data-name="Trazado 1027269" d="M184.427,180.435V178.2a.423.423,0,0,0-.423-.423h-1.648a.424.424,0,0,1-.409-.318,7.231,7.231,0,0,0-.748-1.8.424.424,0,0,1,.064-.514l1.166-1.166a.423.423,0,0,0,0-.6L180.85,171.8a.423.423,0,0,0-.6,0l-1.166,1.166a.424.424,0,0,1-.514.064,7.229,7.229,0,0,0-1.8-.748.424.424,0,0,1-.318-.409v-1.648a.423.423,0,0,0-.423-.423h-2.233a.423.423,0,0,0-.423.423v1.648a.424.424,0,0,1-.318.409,7.23,7.23,0,0,0-1.8.748.424.424,0,0,1-.514-.064L169.57,171.8a.423.423,0,0,0-.6,0l-1.579,1.579a.423.423,0,0,0,0,.6l1.166,1.166a.424.424,0,0,1,.064.514,7.231,7.231,0,0,0-.748,1.8.424.424,0,0,1-.409.318h-1.648a.423.423,0,0,0-.423.423v2.233a.423.423,0,0,0,.423.423h1.648a.424.424,0,0,1,.409.318,7.23,7.23,0,0,0,.748,1.8.424.424,0,0,1-.064.514l-1.166,1.166a.423.423,0,0,0,0,.6l1.579,1.579a.423.423,0,0,0,.6,0l1.166-1.166a.424.424,0,0,1,.514-.064,7.23,7.23,0,0,0,1.8.748.423.423,0,0,1,.318.409v1.648a.423.423,0,0,0,.423.423h2.233a.423.423,0,0,0,.423-.423v-1.648a.424.424,0,0,1,.318-.409,7.231,7.231,0,0,0,1.8-.748.424.424,0,0,1,.514.064l1.166,1.166a.423.423,0,0,0,.6,0l1.579-1.579a.423.423,0,0,0,0-.6l-1.166-1.166a.424.424,0,0,1-.064-.514,7.23,7.23,0,0,0,.748-1.8.423.423,0,0,1,.409-.318H184A.423.423,0,0,0,184.427,180.435Z" transform="translate(-148.813 -157.301)" fill="none" stroke="#000" stroke-linecap="round" stroke-linejoin="round" stroke-miterlimit="10" stroke-width="1.5"/>
        <g id="Grupo_1172845" data-name="Grupo 1172845" transform="translate(40.612 31.948)">
          <g id="Grupo_1172844" data-name="Grupo 1172844">
            <line id="Línea_795" data-name="Línea 795" y2="1.219" fill="none" stroke="#000" stroke-linecap="round" stroke-linejoin="round" stroke-miterlimit="10" stroke-width="1.5"/>
            <line id="Línea_796" data-name="Línea 796" y2="1.219" transform="translate(5.934)" fill="none" stroke="#000" stroke-linecap="round" stroke-linejoin="round" stroke-miterlimit="10" stroke-width="1.5"/>
          </g>
          <path id="Trazado_1027270" data-name="Trazado 1027270" d="M397.959,404.358a3,3,0,0,0,5.142,0" transform="translate(-397.563 -399.17)" fill="none" stroke="#000" stroke-linecap="round" stroke-linejoin="round" stroke-miterlimit="10" stroke-width="1.5"/>
        </g>
        <g id="Grupo_1172847" data-name="Grupo 1172847" transform="translate(5.651 31.948)">
          <g id="Grupo_1172846" data-name="Grupo 1172846">
            <line id="Línea_797" data-name="Línea 797" y2="1.219" fill="none" stroke="#000" stroke-linecap="round" stroke-linejoin="round" stroke-miterlimit="10" stroke-width="1.5"/>
            <line id="Línea_798" data-name="Línea 798" y2="1.219" transform="translate(5.934)" fill="none" stroke="#000" stroke-linecap="round" stroke-linejoin="round" stroke-miterlimit="10" stroke-width="1.5"/>
          </g>
          <path id="Trazado_1027271" data-name="Trazado 1027271" d="M70.221,398.216a3,3,0,0,0-5.142,0" transform="translate(-64.683 -392.37)" fill="none" stroke="#000" stroke-linecap="round" stroke-linejoin="round" stroke-miterlimit="10" stroke-width="1.5"/>
        </g>
        <path id="Trazado_1027272" data-name="Trazado 1027272" d="M118.686,85.452v4.043h3.2" transform="translate(-107.009 -81.809)" fill="none" stroke="#000" stroke-linecap="round" stroke-linejoin="round" stroke-miterlimit="10" stroke-width="1.5"/>
        <circle id="Elipse_12383" data-name="Elipse 12383" cx="3.381" cy="3.381" r="3.381" transform="translate(22.718 18.637)" fill="none" stroke="#000" stroke-linecap="round" stroke-linejoin="round" stroke-miterlimit="10" stroke-width="1.5"/>
        <path id="Trazado_1027273" data-name="Trazado 1027273" d="M46.586,54.521a7.685,7.685,0,1,0,2.58-2.618" transform="translate(-41.514 -50.764)" fill="none" stroke="#000" stroke-linecap="round" stroke-linejoin="round" stroke-miterlimit="10" stroke-width="1.5"/>
        <path id="Trazado_1027274" data-name="Trazado 1027274" d="M342.558,311.459a8.589,8.589,0,1,0-1.8-3.207" transform="translate(-305.419 -271.243)" fill="none" stroke="#000" stroke-linecap="round" stroke-linejoin="round" stroke-miterlimit="10" stroke-width="1.5"/>
        <circle id="Elipse_12384" data-name="Elipse 12384" cx="8.618" cy="8.618" r="8.618" transform="translate(0 25.873)" fill="none" stroke="#000" stroke-linecap="round" stroke-linejoin="round" stroke-miterlimit="10" stroke-width="1.5"/>
      </g>
    </g>
  </g>
</svg>
