<svg xmlns="http://www.w3.org/2000/svg" xmlns:xlink="http://www.w3.org/1999/xlink" width="97.035" height="97.035" viewBox="0 0 97.035 97.035">
  <defs>
    <filter id="Trazado_982547" x="0" y="0" width="97.035" height="97.035" filterUnits="userSpaceOnUse">
      <feOffset dy="3" input="SourceAlpha"/>
      <feGaussianBlur stdDeviation="3" result="blur"/>
      <feFlood flood-opacity="0.161"/>
      <feComposite operator="in" in2="blur"/>
      <feComposite in="SourceGraphic"/>
    </filter>
  </defs>
  <g id="Grupo_1172863" data-name="Grupo 1172863" transform="translate(-189 -1032)">
    <g id="Grupo_1172235" data-name="Grupo 1172235" transform="translate(-0.409 -1504.582)">
      <g id="Grupo_1166162" data-name="Grupo 1166162" transform="translate(-607.781 577.058)">
        <g id="Grupo_1164703" data-name="Grupo 1164703" transform="translate(806.19 1965.523)">
          <g id="Grupo_1160931" data-name="Grupo 1160931" transform="translate(0 0)">
            <g id="Grupo_1160749" data-name="Grupo 1160749" transform="translate(0 0)">
              <g id="Grupo_1158891" data-name="Grupo 1158891" transform="translate(0 0)">
                <g id="Grupo_1157406" data-name="Grupo 1157406" transform="translate(0 0)">
                  <g id="Grupo_1155793" data-name="Grupo 1155793" transform="translate(0 0)">
                    <g id="Grupo_1154704" data-name="Grupo 1154704">
                      <g id="Grupo_1150790" data-name="Grupo 1150790">
                        <g id="Grupo_1154214" data-name="Grupo 1154214">
                          <g id="Grupo_1152583" data-name="Grupo 1152583">
                            <g id="Grupo_1146973" data-name="Grupo 1146973">
                              <g id="Grupo_1146954" data-name="Grupo 1146954">
                                <g transform="matrix(1, 0, 0, 1, -9, -6)" filter="url(#Trazado_982547)">
                                  <g id="Trazado_982547-2" data-name="Trazado 982547" transform="translate(9 6)" fill="#edf3fc">
                                    <path d="M 39.51754379272461 77.53498077392578 C 34.38454437255859 77.53498077392578 29.40588760375977 76.53001403808594 24.7198657989502 74.54798889160156 C 20.19293212890625 72.63327026367188 16.12703323364258 69.89185333251953 12.63507747650146 66.39990997314453 C 9.143132209777832 62.90796661376953 6.401721477508545 58.84206771850586 4.486988067626953 54.31515884399414 C 2.504966020584106 49.62913513183594 1.499999403953552 44.65047836303711 1.499999403953552 39.51749038696289 C 1.499999403953552 34.38450241088867 2.504966020584106 29.40584564208984 4.486988067626953 24.71982383728027 C 6.401721477508545 20.19291305541992 9.143132209777832 16.12701225280762 12.63507747650146 12.6350679397583 C 16.12703323364258 9.143123626708984 20.19293212890625 6.401712417602539 24.7198657989502 4.486990451812744 C 29.40588760375977 2.504968166351318 34.38454437255859 1.500001549720764 39.51754379272461 1.500001549720764 C 44.65054321289062 1.500001549720764 49.62919998168945 2.504968166351318 54.31523132324219 4.486990451812744 C 58.84215545654297 6.401712417602539 62.90806579589844 9.143123626708984 66.40000915527344 12.6350679397583 C 69.89195251464844 16.12701225280762 72.63337707519531 20.19291305541992 74.548095703125 24.71982383728027 C 76.53012084960938 29.40584564208984 77.53508758544922 34.38450241088867 77.53508758544922 39.51749038696289 C 77.53508758544922 44.65047836303711 76.53012084960938 49.62913513183594 74.548095703125 54.31515884399414 C 72.63337707519531 58.84206771850586 69.89195251464844 62.90796661376953 66.40000915527344 66.39990997314453 C 62.90806579589844 69.89185333251953 58.84215545654297 72.63327026367188 54.31523132324219 74.54798889160156 C 49.62919998168945 76.53001403808594 44.65054321289062 77.53498077392578 39.51754379272461 77.53498077392578 Z" stroke="none"/>
                                    <path d="M 39.51754379272461 3 C 34.58638000488281 3 29.80431747436523 3.965103149414062 25.30418014526367 5.868492126464844 C 20.9560546875 7.707588195800781 17.05040740966797 10.34104919433594 13.69573211669922 13.69572448730469 C 10.34105682373047 17.0504035949707 7.707595825195312 20.95603942871094 5.868492126464844 25.30415344238281 C 3.965095520019531 29.80427932739258 2.999992370605469 34.58634185791016 2.999992370605469 39.51749038696289 C 2.999992370605469 44.44863891601562 3.965095520019531 49.23070526123047 5.868492126464844 53.73082733154297 C 7.707595825195312 58.07894134521484 10.34105682373047 61.98457717895508 13.69573211669922 65.33924865722656 C 17.05040740966797 68.69392395019531 20.9560546875 71.327392578125 25.30418014526367 73.16648864746094 C 29.80431747436523 75.06987762451172 34.58638000488281 76.03498077392578 39.51754379272461 76.03498077392578 C 44.44870758056641 76.03498077392578 49.23076629638672 75.06987762451172 53.73089599609375 73.16648864746094 C 58.07901763916016 71.327392578125 61.98466873168945 68.69392395019531 65.33934020996094 65.33924865722656 C 68.69401550292969 61.98457717895508 71.32748413085938 58.07894134521484 73.16658020019531 53.73082733154297 C 75.06998443603516 49.23070526123047 76.03507995605469 44.44863891601562 76.03507995605469 39.51749038696289 C 76.03507995605469 34.58634185791016 75.06998443603516 29.80427932739258 73.16658020019531 25.30415344238281 C 71.32748413085938 20.95603942871094 68.69401550292969 17.0504035949707 65.33934020996094 13.69572448730469 C 61.98466873168945 10.34104919433594 58.07901763916016 7.707588195800781 53.73089599609375 5.868492126464844 C 49.23076629638672 3.965103149414062 44.44870758056641 3 39.51754379272461 3 M 39.51754379272461 0 C 61.34248352050781 0 79.03507995605469 17.69257736206055 79.03507995605469 39.51749038696289 C 79.03507995605469 61.34240341186523 61.34248352050781 79.03498077392578 39.51754379272461 79.03498077392578 C 17.69260787963867 79.03498077392578 -7.62939453125e-06 61.34240341186523 -7.62939453125e-06 39.51749038696289 C -7.62939453125e-06 17.69257736206055 17.69260787963867 0 39.51754379272461 0 Z" stroke="none" fill="#5692e8"/>
                                  </g>
                                </g>
                              </g>
                            </g>
                          </g>
                        </g>
                      </g>
                    </g>
                  </g>
                </g>
              </g>
            </g>
          </g>
        </g>
      </g>
    </g>
    <g id="adhd_10315298" transform="translate(205.5 1045.5)">
      <g id="Grupo_1172857" data-name="Grupo 1172857" transform="translate(7.5 7.5)">
        <g id="Grupo_1172856" data-name="Grupo 1172856" transform="translate(0 0)">
          <g id="Grupo_1172854" data-name="Grupo 1172854" transform="translate(0 10.202)">
            <g id="Grupo_1172850" data-name="Grupo 1172850" transform="translate(6.148 27.351)">
              <path id="Trazado_1027275" data-name="Trazado 1027275" d="M150,397.936a12.029,12.029,0,0,0-8.484-9.156H136.24l-3.446,3.446v8.089h15.263A1.982,1.982,0,0,0,150,397.936Z" transform="translate(-126.453 -388.327)" fill="#ffddcf"/>
              <path id="Trazado_1027276" data-name="Trazado 1027276" d="M84.241,384.686a11.99,11.99,0,0,0-15.021,9.178,1.977,1.977,0,0,0,1.945,2.357h4.358a11.909,11.909,0,0,1,1.424-5.655h0a12.077,12.077,0,0,1,5.31-5.118A11.89,11.89,0,0,1,84.241,384.686Z" transform="translate(-69.181 -384.233)" fill="#ffcbbe"/>
            </g>
            <g id="Grupo_1172851" data-name="Grupo 1172851" transform="translate(0 10.679)">
              <circle id="Elipse_12385" data-name="Elipse 12385" cx="3.573" cy="3.573" r="3.573" fill="#ffcbbe"/>
              <circle id="Elipse_12386" data-name="Elipse 12386" cx="3.573" cy="3.573" r="3.573" transform="translate(28.74)" fill="#ffddcf"/>
            </g>
            <path id="Trazado_1027277" data-name="Trazado 1027277" d="M143.52,248.046h-1.245a.968.968,0,0,0-.853,1.4,3.351,3.351,0,1,1-6.012,0,.968.968,0,0,0-.853-1.4h-9.549v9.578l6.229,5.268A14.373,14.373,0,0,0,145.5,250.28,1.992,1.992,0,0,0,143.52,248.046Z" transform="translate(-113.294 -234.27)" fill="#ff8e9e"/>
            <g id="Grupo_1172852" data-name="Grupo 1172852" transform="translate(3.581)">
              <path id="Trazado_1027278" data-name="Trazado 1027278" d="M111.615,113.514a.954.954,0,0,1-1.263-.908v-1.03a1.728,1.728,0,0,0-1.971-1.716l-6.57,2.8V125.2h6.52l2.021-1.585v-2.884a.957.957,0,0,1,1.278-.9,3.354,3.354,0,1,0-.015-6.319Z" transform="translate(-95.991 -109.843)" fill="#70dcba"/>
              <path id="Trazado_1027279" data-name="Trazado 1027279" d="M43.429,123.771l1.2,1.588h6.465v-7.777a20.157,20.157,0,0,1,4.728-7.567A14.372,14.372,0,0,0,43.429,123.771Z" transform="translate(-43.429 -109.998)" fill="#30cd9c"/>
            </g>
            <g id="Grupo_1172853" data-name="Grupo 1172853" transform="translate(3.574 7.545)">
              <path id="Trazado_1027280" data-name="Trazado 1027280" d="M109.077,201.959a3.354,3.354,0,1,1,0-6.321.956.956,0,0,0,1.272-.9V192.1h-3.323a.961.961,0,0,1-.854-1.393,3.361,3.361,0,0,0-2.521-4.8l-1.843.794V202.6l6.567,4.2a14.5,14.5,0,0,0,1.975.136v-4.078A.957.957,0,0,0,109.077,201.959Z" transform="translate(-95.983 -185.865)" fill="#ffce71"/>
              <path id="Trazado_1027281" data-name="Trazado 1027281" d="M51.02,185.573a3.357,3.357,0,0,0-3.49,4.809.957.957,0,0,1-.858,1.383H43.358a14.37,14.37,0,0,0,12.386,14.713A20.242,20.242,0,0,1,51.02,185.573Z" transform="translate(-43.35 -185.537)" fill="#ffb357"/>
            </g>
          </g>
          <g id="Grupo_1172855" data-name="Grupo 1172855" transform="translate(28.01)">
            <path id="Trazado_1027282" data-name="Trazado 1027282" d="M378.147,93.2a.9.9,0,0,1-.353-1.479l2.191-2.19a.929.929,0,0,0,0-1.316l-2.428-2.424a.891.891,0,0,0-1.434.242,3.131,3.131,0,0,1-5.017.88H367.9v3.208a3.131,3.131,0,0,1-.88,5.017.889.889,0,0,0-.242,1.433L369.2,99a.929.929,0,0,0,1.314,0l2.189-2.189a.9.9,0,0,1,1.479.353,3.126,3.126,0,1,0,3.964-3.964Z" transform="translate(-358.735 -77.746)" fill="#c9aaf2"/>
            <path id="Trazado_1027283" data-name="Trazado 1027283" d="M300.869,16.662a3.131,3.131,0,0,1,.877-5.015.892.892,0,0,0,.246-1.436l-2.424-2.428a.929.929,0,0,0-1.316,0l-2.19,2.191a.9.9,0,0,1-1.479-.353,3.126,3.126,0,1,0-3.964,3.964.9.9,0,0,1,.353,1.479l-2.19,2.19a.929.929,0,0,0,0,1.316l2.428,2.424a.892.892,0,0,0,1.436-.246,3.131,3.131,0,0,1,5.015-.876A3.208,3.208,0,0,1,300.869,16.662Z" transform="translate(-288.5 -7.5)" fill="#b28ae4"/>
          </g>
        </g>
      </g>
      <g id="Grupo_1172862" data-name="Grupo 1172862" transform="translate(7.5 7.5)">
        <path id="Trazado_1027284" data-name="Trazado 1027284" d="M307.87,22.949a.9.9,0,0,1-.353-1.479l2.191-2.19a.929.929,0,0,0,0-1.316l-2.428-2.424a.892.892,0,0,0-1.435.242,3.111,3.111,0,1,1-4.141-4.135.892.892,0,0,0,.246-1.436l-2.425-2.428a.929.929,0,0,0-1.316,0l-2.191,2.191a.9.9,0,0,1-1.48-.353,3.126,3.126,0,1,0-3.964,3.964.9.9,0,0,1,.353,1.479l-2.191,2.19a.928.928,0,0,0,0,1.316l2.428,2.424a.892.892,0,0,0,1.436-.246,3.111,3.111,0,1,1,4.135,4.14.889.889,0,0,0-.242,1.433l2.428,2.429a.93.93,0,0,0,1.315,0l2.19-2.189a.9.9,0,0,1,1.48.353,3.126,3.126,0,1,0,3.965-3.964Z" transform="translate(-260.448 -7.5)" fill="none" stroke="#000" stroke-linecap="round" stroke-linejoin="round" stroke-miterlimit="10" stroke-width="1.5" stroke-dasharray="66 30 1000 0 1000 0"/>
        <g id="Grupo_1172861" data-name="Grupo 1172861" transform="translate(0 10.219)">
          <g id="Grupo_1172859" data-name="Grupo 1172859" transform="translate(3.572)">
            <g id="Grupo_1172858" data-name="Grupo 1172858">
              <path id="Trazado_1027285" data-name="Trazado 1027285" d="M57.7,138.627v-4.076a.956.956,0,0,0-1.274-.9,3.352,3.352,0,1,1,0-6.316.961.961,0,0,0,1.27-.916v-5.507a.957.957,0,0,1,1.277-.9,3.352,3.352,0,1,0-.015-6.315.953.953,0,0,1-1.262-.907v-1.073a1.689,1.689,0,0,0-1.9-1.681,14.362,14.362,0,1,0,16.154,16,2,2,0,0,0-1.977-2.246H68.738a.958.958,0,0,0-.854,1.39,3.351,3.351,0,1,1-6.013,0,.958.958,0,0,0-.854-1.39H54.375a.958.958,0,0,1-.854-1.389,3.352,3.352,0,1,0-6.009.007.956.956,0,0,1-.857,1.382H43.342" transform="translate(-43.334 -110.016)" fill="none" stroke="#000" stroke-linejoin="round" stroke-miterlimit="10" stroke-width="1.5"/>
              <path id="Trazado_1027286" data-name="Trazado 1027286" d="M299.2,224.1a3.572,3.572,0,1,0-3.1-4.024" transform="translate(-270.909 -206.317)" fill="none" stroke="#000" stroke-linejoin="round" stroke-miterlimit="10" stroke-width="1.5"/>
            </g>
          </g>
          <path id="Trazado_1027287" data-name="Trazado 1027287" d="M76.919,391.3a12.029,12.029,0,0,0-7.726,8.929,1.976,1.976,0,0,0,1.944,2.355H90.749a1.981,1.981,0,0,0,1.94-2.378,12.025,12.025,0,0,0-7.72-8.906" transform="translate(-63.009 -363.257)" fill="none" stroke="#000" stroke-linecap="round" stroke-linejoin="round" stroke-miterlimit="10" stroke-width="1.5" stroke-dasharray="50 30 1000 0 1000 0"/>
          <g id="Grupo_1172860" data-name="Grupo 1172860" transform="translate(9.202 34.041)">
            <path id="Trazado_1027288" data-name="Trazado 1027288" d="M258.991,456.794a8.758,8.758,0,0,0-1.776-5.282" transform="translate(-241.525 -451.512)" fill="none" stroke="#000" stroke-linecap="round" stroke-linejoin="round" stroke-miterlimit="10" stroke-width="1.5"/>
            <path id="Trazado_1027289" data-name="Trazado 1027289" d="M101.587,451.512a8.756,8.756,0,0,0-1.775,5.282" transform="translate(-99.812 -451.512)" fill="none" stroke="#000" stroke-linecap="round" stroke-linejoin="round" stroke-miterlimit="10" stroke-width="1.5"/>
          </g>
          <path id="Trazado_1027290" data-name="Trazado 1027290" d="M11.513,217.195a3.57,3.57,0,1,0,0,7.084" transform="translate(-7.5 -206.486)" fill="none" stroke="#000" stroke-linejoin="round" stroke-miterlimit="10" stroke-width="1.5"/>
        </g>
      </g>
    </g>
  </g>
</svg>
