<svg xmlns="http://www.w3.org/2000/svg" xmlns:xlink="http://www.w3.org/1999/xlink" width="103" height="103" viewBox="0 0 103 103">
  <defs>
    <filter id="Trazado_978624" x="0" y="0" width="103" height="103" filterUnits="userSpaceOnUse">
      <feOffset dy="3" input="SourceAlpha"/>
      <feGaussianBlur stdDeviation="3" result="blur"/>
      <feFlood flood-opacity="0.161"/>
      <feComposite operator="in" in2="blur"/>
      <feComposite in="SourceGraphic"/>
    </filter>
  </defs>
  <g id="Grupo_1172927" data-name="Grupo 1172927" transform="translate(-171 -1389)">
    <g id="Grupo_1172319" data-name="Grupo 1172319" transform="translate(180 1395)">
      <g id="Grupo_1144531" data-name="Grupo 1144531">
        <g transform="matrix(1, 0, 0, 1, -9, -6)" filter="url(#Trazado_978624)">
          <g id="Trazado_978624-2" data-name="Trazado 978624" transform="translate(9 6)" fill="#edf3fc">
            <path d="M 42.5 83.5 C 36.96437835693359 83.5 31.59512901306152 82.41617584228516 26.54141235351562 80.27863311767578 C 21.65934181213379 78.21369171142578 17.27447128295898 75.25723266601562 13.50862312316895 71.49137878417969 C 9.742764472961426 67.72553253173828 6.786305904388428 63.34066009521484 4.721364498138428 58.45858764648438 C 2.583823442459106 53.40486907958984 1.5 48.03562164306641 1.5 42.5 C 1.5 36.96437835693359 2.583823442459106 31.59512901306152 4.721364498138428 26.54141235351562 C 6.786305904388428 21.65934181213379 9.742764472961426 17.27447128295898 13.50862312316895 13.50862312316895 C 17.27447128295898 9.742764472961426 21.65934181213379 6.786305904388428 26.54141235351562 4.721364498138428 C 31.59512901306152 2.583823442459106 36.96437835693359 1.5 42.5 1.5 C 48.03562164306641 1.5 53.40486907958984 2.583823442459106 58.45858764648438 4.721364498138428 C 63.34066009521484 6.786305904388428 67.72553253173828 9.742764472961426 71.49137878417969 13.50862312316895 C 75.25723266601562 17.27447128295898 78.21369171142578 21.65934181213379 80.27863311767578 26.54141235351562 C 82.41617584228516 31.59512901306152 83.5 36.96437835693359 83.5 42.5 C 83.5 48.03562164306641 82.41617584228516 53.40486907958984 80.27863311767578 58.45858764648438 C 78.21369171142578 63.34066009521484 75.25723266601562 67.72553253173828 71.49137878417969 71.49137878417969 C 67.72553253173828 75.25723266601562 63.34066009521484 78.21369171142578 58.45858764648438 80.27863311767578 C 53.40486907958984 82.41617584228516 48.03562164306641 83.5 42.5 83.5 Z" stroke="none"/>
            <path d="M 42.5 3 C 37.16621398925781 3 31.99356079101562 4.043960571289062 27.125732421875 6.102882385253906 C 22.42246627807617 8.092185974121094 18.19785308837891 10.94070434570312 14.56928253173828 14.56928253173828 C 10.94070434570312 18.19785308837891 8.092185974121094 22.42246627807617 6.102882385253906 27.125732421875 C 4.043960571289062 31.99356079101562 3 37.16621398925781 3 42.5 C 3 47.83378601074219 4.043960571289062 53.00643920898438 6.102882385253906 57.87425231933594 C 8.092185974121094 62.57753372192383 10.94070434570312 66.80213165283203 14.56928253173828 70.43071746826172 C 18.19786834716797 74.05929565429688 22.42246627807617 76.90781402587891 27.125732421875 78.89711761474609 C 31.99356079101562 80.95603942871094 37.16621398925781 82 42.5 82 C 47.83378601074219 82 53.00642395019531 80.95603942871094 57.87425231933594 78.89711761474609 C 62.57753372192383 76.90781402587891 66.80213165283203 74.05929565429688 70.43071746826172 70.43071746826172 C 74.05929565429688 66.80213165283203 76.90781402587891 62.57753372192383 78.89711761474609 57.87425231933594 C 80.95603942871094 53.00642395019531 82 47.83378601074219 82 42.5 C 82 37.16621398925781 80.95603942871094 31.99356079101562 78.89711761474609 27.125732421875 C 76.90781402587891 22.42246627807617 74.05929565429688 18.19786834716797 70.43071746826172 14.56928253173828 C 66.80213165283203 10.94070434570312 62.57753372192383 8.092185974121094 57.87425231933594 6.102882385253906 C 53.00643920898438 4.043960571289062 47.83378601074219 3 42.5 3 M 42.5 0 C 65.97209167480469 0 85 19.02789306640625 85 42.5 C 85 65.97209167480469 65.97209167480469 85 42.5 85 C 19.02789306640625 85 0 65.97209167480469 0 42.5 C 0 19.02789306640625 19.02789306640625 0 42.5 0 Z" stroke="none" fill="#56838a"/>
          </g>
        </g>
      </g>
    </g>
    <g id="books_5010276" transform="translate(168.99 1410.999)">
      <path id="Trazado_1027394" data-name="Trazado 1027394" d="M69.805,414.591a3.166,3.166,0,0,0,3.162,3.162h34.92a4.472,4.472,0,0,1,0-6.325H72.967A3.166,3.166,0,0,0,69.805,414.591Z" transform="translate(-34.83 -369.381)" fill="#f2f3ed"/>
      <path id="Trazado_1027395" data-name="Trazado 1027395" d="M74.915,414.591a3.166,3.166,0,0,1,3.162-3.162h-5.11a3.162,3.162,0,0,0,0,6.325h5.11A3.166,3.166,0,0,1,74.915,414.591Z" transform="translate(-34.83 -369.381)" fill="#ddd"/>
      <path id="Trazado_1027396" data-name="Trazado 1027396" d="M132.481,290.342a3.166,3.166,0,0,0-3.162-3.162H100.748a4.477,4.477,0,0,1,.018,6.325h28.553A3.166,3.166,0,0,0,132.481,290.342Z" transform="translate(-62.611 -257.83)" fill="#f2f3ed"/>
      <path id="Trazado_1027397" data-name="Trazado 1027397" d="M105.858,287.179h-5.11a4.476,4.476,0,0,1,.018,6.325h5.11A4.477,4.477,0,0,0,105.858,287.179Z" transform="translate(-62.611 -257.829)" fill="#ddd"/>
      <g id="Grupo_1172925" data-name="Grupo 1172925" transform="translate(31.776 38.849)">
        <path id="Trazado_1027398" data-name="Trazado 1027398" d="M81.372,392.85H44.865a6.361,6.361,0,0,1,0-12.722H81.372a1.6,1.6,0,1,1,0,3.2H44.865a3.162,3.162,0,0,0,0,6.325H81.372a1.6,1.6,0,0,1,0,3.2Z" transform="translate(-38.504 -380.128)" fill="#e5925a"/>
      </g>
      <g id="Grupo_1172926" data-name="Grupo 1172926" transform="translate(34.95 26.151)">
        <path id="Trazado_1027399" data-name="Trazado 1027399" d="M101.324,268.6H71.165a1.6,1.6,0,1,1,0-3.2h30.158a3.162,3.162,0,1,0,0-6.325H71.165a1.6,1.6,0,1,1,0-3.2h30.158a6.361,6.361,0,1,1,0,12.722Z" transform="translate(-69.566 -255.881)" fill="#64b9fc"/>
      </g>
      <path id="Trazado_1027400" data-name="Trazado 1027400" d="M158.278,67.959c-8.775-1.95-11.479,2.413-11.1,9.986.727,6.772,6.581,10.541,11.1,7.93,4.515,2.611,10.369-1.157,11.1-7.93.383-7.573-2.321-11.936-11.1-9.986Z" transform="translate(-104.268 -60.596)" fill="#ff6372"/>
      <path id="Trazado_1027401" data-name="Trazado 1027401" d="M152.293,77.945c-.274-5.41,1.028-9.182,4.994-10.184-7.988-1.409-10.472,2.9-10.1,10.184.7,6.5,6.121,10.235,10.548,8.212C155,84.983,152.728,82,152.293,77.945Z" transform="translate(-104.269 -60.597)" fill="#e35269"/>
      <path id="Trazado_1027402" data-name="Trazado 1027402" d="M293.47,330.906l-3.175-3.168-3.174,3.168v-12.7h6.349Z" transform="translate(-229.937 -285.69)" fill="#ff6372"/>
      <path id="Trazado_1027403" data-name="Trazado 1027403" d="M290.187,318.211h-3.066v12.7l3.066-3.06Z" transform="translate(-229.937 -285.69)" fill="#e35269"/>
      <path id="Trazado_1027404" data-name="Trazado 1027404" d="M263.787,28.245v.149a4.388,4.388,0,0,1-4.321,4.387h-2.759a.5.5,0,0,1-.495-.495v-.149A4.389,4.389,0,0,1,260.6,27.75h2.691a.464.464,0,0,1,.055,0A.5.5,0,0,1,263.787,28.245Z" transform="translate(-202.187 -24.913)" fill="#68ca44"/>
      <path id="Trazado_1027405" data-name="Trazado 1027405" d="M259.277,32.288v-.149a4.389,4.389,0,0,1,4.106-4.38l-.038-.006a.463.463,0,0,0-.055,0H260.6a4.389,4.389,0,0,0-4.388,4.389v.149a.5.5,0,0,0,.495.495h2.759c.071,0,.141,0,.211-.008A.5.5,0,0,1,259.277,32.288Z" transform="translate(-202.186 -24.913)" fill="#4fc123"/>
      <path id="Trazado_1027406" data-name="Trazado 1027406" d="M74.644,47.607H73.392a3.736,3.736,0,0,1,0-4.792h1.252a2.366,2.366,0,0,0,0-4.732H71.15a7.125,7.125,0,0,0-4.442-12.7H61.53a10.932,10.932,0,0,0,4.244-7.256.767.767,0,0,0-1.514-.243c-.7,4.336-5.081,9.5-9.866,6.73a.766.766,0,0,0-.768,0c-5.038,2.914-9.457-2.833-9.948-7.327-.206-4.132.534-6.851,2.263-8.311,1.54-1.3,4-1.633,7.307-.99.007.151.011,2.565.011,2.565H52.218l-.8-.844A.767.767,0,1,0,50.3,10.763l1.028,1.083a.767.767,0,0,0,.556.239H56.13a.766.766,0,0,0,.481-.169l1.06-.853a.766.766,0,0,0-.961-1.194l-.85.684H54.792V8.635c1.644.108,3.63.132,5.073-.743,2.789.677,4.208,2.855,4.468,6.823a.752.752,0,0,0,.815.715.767.767,0,0,0,.715-.815c-.269-4.152-1.83-6.8-4.647-7.9a5.125,5.125,0,0,0,1.15-3.233,1.358,1.358,0,0,0-1.115-1.4c-.049-.006-2.838-.009-2.838-.009a5.155,5.155,0,0,0-4.339,2.375,11.629,11.629,0,0,0-2.7-4.222A.766.766,0,0,0,50.295,1.31a10.132,10.132,0,0,1,2.75,5.08c-3.583-.617-6.238-.151-8.092,1.415-2.122,1.793-3.04,4.927-2.8,9.582a10.957,10.957,0,0,0,4.341,8H36.55a2.366,2.366,0,1,0,0,4.732H37.8a3.74,3.74,0,0,1,.015,4.792H36.55A2.365,2.365,0,0,0,34.83,38.9a7.127,7.127,0,0,0,3.307,13.441H74.644a2.366,2.366,0,1,0,0-4.732Zm-16.23-44h2.418a3.637,3.637,0,0,1-3.564,3.5H54.794a3.626,3.626,0,0,1,3.62-3.5Zm16.23,36.013a.833.833,0,0,1,0,1.666H64.3V39.64Zm-35-9.5h4.948a.766.766,0,1,0,0-1.533H36.55a.833.833,0,1,1,0-1.666H66.708a5.6,5.6,0,0,1,.526,11.165H64.3V36.442h2.408a3.929,3.929,0,0,0,0-7.858H47.927a.766.766,0,0,0,0,1.533H66.708a2.4,2.4,0,0,1,0,4.792H64.3V32.522a.774.774,0,0,0-.766-.776h-12.7a.766.766,0,0,0,0,1.533l5.584.008v1.622H39.649a5.266,5.266,0,0,0-.009-4.792Zm18.311,3.172h4.816V43.369L60.9,41.506a.766.766,0,0,0-1.083,0l-1.867,1.863V33.288Zm-21.4,4.819a.833.833,0,1,1,0-1.666H56.418v1.641Zm38.094,12.7H38.137a5.6,5.6,0,0,1-.526-11.165H56.418v1.641H38.137a3.929,3.929,0,0,0,0,7.858H58.689a.766.766,0,0,0,0-1.533H38.137a2.4,2.4,0,0,1,0-4.792H56.418v2.4c0,.773.63.944,1.308.543l2.633-2.628,2.633,2.628a.769.769,0,0,0,1.308-.543v-2.4h7.258a5.262,5.262,0,0,0,0,4.792H62.029a.766.766,0,1,0,0,1.533H74.644a.833.833,0,1,1,0,1.666Z" transform="translate(0 0)"/>
    </g>
  </g>
</svg>
