<svg xmlns="http://www.w3.org/2000/svg" xmlns:xlink="http://www.w3.org/1999/xlink" width="113" height="113" viewBox="0 0 113 113">
  <defs>
    <filter id="Trazado_982547" x="0" y="0" width="113" height="113" filterUnits="userSpaceOnUse">
      <feOffset dy="3" input="SourceAlpha"/>
      <feGaussianBlur stdDeviation="3" result="blur"/>
      <feFlood flood-opacity="0.161"/>
      <feComposite operator="in" in2="blur"/>
      <feComposite in="SourceGraphic"/>
    </filter>
  </defs>
  <g id="Grupo_1172831" data-name="Grupo 1172831" transform="translate(-271.112 -1246)">
    <g id="Grupo_1172151" data-name="Grupo 1172151" transform="translate(-0.388 -52.145)">
      <g id="Grupo_1171046" data-name="Grupo 1171046" transform="translate(280.5 1304.145)">
        <g id="Grupo_1148525" data-name="Grupo 1148525" transform="translate(0)">
          <g transform="matrix(1, 0, 0, 1, -9, -6)" filter="url(#Trazado_982547)">
            <g id="Trazado_982547-2" data-name="Trazado 982547" transform="translate(9 6)" fill="#f4fdfe">
              <path d="M 47.5 93.5 C 41.28937149047852 93.5 35.26533508300781 92.28397369384766 29.59518623352051 89.88570404052734 C 24.11771965026855 87.56893157958984 19.19813346862793 84.25196075439453 14.97309303283691 80.02691650390625 C 10.74804019927979 75.80186462402344 7.431066513061523 70.88229370117188 5.114293098449707 65.40481567382812 C 2.716026782989502 59.73468017578125 1.5 53.71062850952148 1.5 47.5 C 1.5 41.28937149047852 2.716026782989502 35.26533508300781 5.114293098449707 29.59518623352051 C 7.431066513061523 24.11771965026855 10.74804019927979 19.19813346862793 14.97309303283691 14.97309303283691 C 19.19813346862793 10.74804019927979 24.11771965026855 7.431066513061523 29.59518623352051 5.114293098449707 C 35.26533508300781 2.716026782989502 41.28937149047852 1.5 47.5 1.5 C 53.71062850952148 1.5 59.73468017578125 2.716026782989502 65.40481567382812 5.114293098449707 C 70.88229370117188 7.431066513061523 75.80186462402344 10.74804019927979 80.02691650390625 14.97309303283691 C 84.25196075439453 19.19813346862793 87.56893157958984 24.11771965026855 89.88570404052734 29.59518623352051 C 92.28397369384766 35.26533508300781 93.5 41.28937149047852 93.5 47.5 C 93.5 53.71062850952148 92.28397369384766 59.73468017578125 89.88570404052734 65.40481567382812 C 87.56893157958984 70.88229370117188 84.25196075439453 75.80186462402344 80.02691650390625 80.02691650390625 C 75.80186462402344 84.25196075439453 70.88229370117188 87.56893157958984 65.40481567382812 89.88570404052734 C 59.73468017578125 92.28397369384766 53.71062850952148 93.5 47.5 93.5 Z" stroke="none"/>
              <path d="M 47.5 3 C 41.49121475219727 3 35.66376876831055 4.176155090332031 30.17950439453125 6.495796203613281 C 24.88084411621094 8.736953735351562 20.12152099609375 11.94598388671875 16.03375244140625 16.03375244140625 C 11.94598388671875 20.12152099609375 8.736953735351562 24.88084411621094 6.495796203613281 30.17950439453125 C 4.176155090332031 35.66376876831055 3 41.49121475219727 3 47.5 C 3 53.50878524780273 4.176155090332031 59.33623123168945 6.495796203613281 64.82049560546875 C 8.736953735351562 70.11915588378906 11.94598388671875 74.87847900390625 16.03375244140625 78.96624755859375 C 20.12152099609375 83.05401611328125 24.88084411621094 86.26304626464844 30.17950439453125 88.50419616699219 C 35.66376876831055 90.82384490966797 41.49121475219727 92 47.5 92 C 53.50878524780273 92 59.33623123168945 90.82384490966797 64.82049560546875 88.50419616699219 C 70.11915588378906 86.26304626464844 74.87847900390625 83.05401611328125 78.96624755859375 78.96624755859375 C 83.05401611328125 74.87847900390625 86.26304626464844 70.11915588378906 88.50419616699219 64.82049560546875 C 90.82384490966797 59.33623123168945 92 53.50878524780273 92 47.5 C 92 41.49121475219727 90.82384490966797 35.66376876831055 88.50419616699219 30.17950439453125 C 86.26304626464844 24.88084411621094 83.05401611328125 20.12152099609375 78.96624755859375 16.03375244140625 C 74.87847900390625 11.94598388671875 70.11915588378906 8.736953735351562 64.82049560546875 6.495796203613281 C 59.33623123168945 4.176155090332031 53.50878524780273 3 47.5 3 M 47.5 0 C 73.7335205078125 0 95 21.2664794921875 95 47.5 C 95 73.7335205078125 73.7335205078125 95 47.5 95 C 21.2664794921875 95 0 73.7335205078125 0 47.5 C 0 21.2664794921875 21.2664794921875 0 47.5 0 Z" stroke="none" fill="#56838a"/>
            </g>
          </g>
        </g>
      </g>
    </g>
    <g id="student_2278702" transform="translate(278.336 1270)">
      <ellipse id="Elipse_12372" data-name="Elipse 12372" cx="7.304" cy="6.335" rx="7.304" ry="6.335" transform="translate(27.664 0.878)" fill="#e16e7e"/>
      <g id="Grupo_1172825" data-name="Grupo 1172825" transform="translate(23.788 6.441)">
        <circle id="Elipse_12373" data-name="Elipse 12373" cx="5.815" cy="5.815" r="5.815" transform="translate(39.702 13.556)" fill="#ffbe9d"/>
        <circle id="Elipse_12374" data-name="Elipse 12374" cx="5.815" cy="5.815" r="5.815" transform="translate(0 13.556)" fill="#ffd3bd"/>
        <path id="Trazado_1027216" data-name="Trazado 1027216" d="M142.881,330.394a2.092,2.092,0,0,0,2.082-2.357,17.423,17.423,0,0,0-34.525,0,2.092,2.092,0,0,0,2.082,2.357Z" transform="translate(-102.035 -282.709)" fill="#8daee1"/>
        <path id="Trazado_1027217" data-name="Trazado 1027217" d="M199.559,418.186h13.655c-.924-3.339-3.631-5.757-6.827-5.757S200.483,414.847,199.559,418.186Z" transform="translate(-180.72 -370.501)" fill="#f6ee86"/>
        <path id="Trazado_1027218" data-name="Trazado 1027218" d="M127.306,73.038c0-10.193-8.95-18.121-19.99-18.121s-19.99,7.928-19.99,18.121,8.95,18.271,19.99,18.271S127.306,83.232,127.306,73.038Z" transform="translate(-81.65 -54.917)" fill="#ffd3bd"/>
        <path id="Trazado_1027219" data-name="Trazado 1027219" d="M100.893,62.91C93,65.293,87.326,71.975,87.326,80.094c0,10.193,8.95,18.27,19.99,18.27a21.693,21.693,0,0,0,8-1.506C90.792,95.5,94.253,70.309,100.893,62.91Z" transform="translate(-81.65 -61.973)" fill="#ffbe9d"/>
        <g id="Grupo_1172824" data-name="Grupo 1172824" transform="translate(10.085 19.429)">
          <g id="Grupo_1172823" data-name="Grupo 1172823">
            <ellipse id="Elipse_12375" data-name="Elipse 12375" cx="4.2" cy="3.344" rx="4.2" ry="3.344" transform="translate(0 1.514)" fill="#e7889d"/>
            <ellipse id="Elipse_12376" data-name="Elipse 12376" cx="4.2" cy="3.344" rx="4.2" ry="3.344" transform="translate(22.763 1.514)" fill="#e7889d"/>
            <path id="Trazado_1027220" data-name="Trazado 1027220" d="M235.675,222.873c0-2.092-1.516-2.289-3.386-2.289s-3.386.2-3.386,2.289a3.407,3.407,0,1,0,6.772,0Z" transform="translate(-216.708 -220.584)" fill="#4e5660"/>
          </g>
        </g>
      </g>
      <path id="Trazado_1027221" data-name="Trazado 1027221" d="M75.6,99.564c2.669-2.256,6.019-7.523,7.756-15.463-.635-1.564-1.721-1.564-2.86-1.392-2.825.458-10.614,6.731-7.99,15.921A1.927,1.927,0,0,0,75.6,99.564Z" transform="translate(-44.314 -72.942)" fill="#e7889d"/>
      <path id="Trazado_1027222" data-name="Trazado 1027222" d="M354.277,99.564c-2.669-2.256-6.019-7.523-7.756-15.463.635-1.564,1.721-1.564,2.86-1.392,2.825.458,10.614,6.731,7.99,15.921A1.927,1.927,0,0,1,354.277,99.564Z" transform="translate(-286.659 -72.942)" fill="#e7889d"/>
      <path id="Trazado_1027223" data-name="Trazado 1027223" d="M349.381,82.708c-1.139-.172-2.225-.172-2.86,1.392a41.335,41.335,0,0,0,2.025,6.637c3.532-1.674,4.8-3.728,5.208-5.3a9.6,9.6,0,0,0-4.373-2.729Z" transform="translate(-286.659 -72.942)" fill="#e16e7e"/>
      <path id="Trazado_1027224" data-name="Trazado 1027224" d="M111.725,82.708a9.6,9.6,0,0,0-4.373,2.729c.407,1.573,1.676,3.627,5.208,5.3a41.338,41.338,0,0,0,2.025-6.637C113.95,82.536,112.864,82.536,111.725,82.708Z" transform="translate(-75.539 -72.942)" fill="#e16e7e"/>
      <ellipse id="Elipse_12377" data-name="Elipse 12377" cx="15.455" cy="6.689" rx="15.455" ry="6.689" transform="translate(33.999 4.47)" fill="#e7889d"/>
      <g id="Grupo_1172826" data-name="Grupo 1172826" transform="translate(50.676 34.471)">
        <path id="Trazado_1027225" data-name="Trazado 1027225" d="M277.562,317.821l-8.9-8.9a1.612,1.612,0,0,1,0-2.279l11.924-11.924a2.724,2.724,0,0,1,3.852,0l8.109,8.109a2.724,2.724,0,0,1,0,3.852l-11.137,11.137A2.724,2.724,0,0,1,277.562,317.821Z" transform="translate(-268.194 -293.925)" fill="#88d37f"/>
        <path id="Trazado_1027226" data-name="Trazado 1027226" d="M277.937,323.354l-9.271,9.271a1.611,1.611,0,0,0,0,2.279l8.9,8.9a2.724,2.724,0,0,0,3.852,0l1.338-1.338C278.213,338.745,276.377,328.116,277.937,323.354Z" transform="translate(-268.194 -319.903)" fill="#5ec682"/>
        <path id="Trazado_1027227" data-name="Trazado 1027227" d="M374.111,352.251l-3.232-3.232a1.474,1.474,0,0,0-2.085,0l-.925.925a1.474,1.474,0,0,0,0,2.085l3.232,3.232a1.474,1.474,0,0,0,2.085,0l.925-.925A1.474,1.474,0,0,0,374.111,352.251Z" transform="translate(-355.798 -342.177)" fill="#fff"/>
      </g>
      <g id="Grupo_1172827" data-name="Grupo 1172827" transform="translate(22.657 39.645)">
        <path id="Trazado_1027228" data-name="Trazado 1027228" d="M46.522,352.254l.573,2.63a.815.815,0,0,1-.97.97l-2.629-.573a4.941,4.941,0,0,1-2.441-1.334l-11.4-11.4a1.252,1.252,0,0,1,0-1.771l2.363-2.363a1.252,1.252,0,0,1,1.771,0l11.4,11.4A4.94,4.94,0,0,1,46.522,352.254Z" transform="translate(-29.283 -338.042)" fill="#f6ee86"/>
        <path id="Trazado_1027229" data-name="Trazado 1027229" d="M36.057,340.682l-4.134,4.134-2.274-2.273a1.252,1.252,0,0,1,0-1.771l2.363-2.363a1.252,1.252,0,0,1,1.771,0Z" transform="translate(-29.282 -338.042)" fill="#e7889d"/>
        <path id="Trazado_1027230" data-name="Trazado 1027230" d="M0,0H5.846V4.438H0Z" transform="translate(2.635 6.77) rotate(-45)" fill="#8daee1"/>
        <path id="Trazado_1027231" data-name="Trazado 1027231" d="M138.319,450.972a4.936,4.936,0,0,0,1.425.556l2.63.573a.815.815,0,0,0,.97-.97l-.573-2.63a4.938,4.938,0,0,0-.556-1.425Z" transform="translate(-125.531 -434.289)" fill="#4e5660"/>
      </g>
      <path id="Trazado_1027232" data-name="Trazado 1027232" d="M59.913,47.146a.88.88,0,0,0,0,1.244l2,2a.88.88,0,0,0,1.244-1.244l-2-2A.88.88,0,0,0,59.913,47.146Zm15.742-4.39c-8.615-8.608-8.088-8.1-8.307-8.292A18.465,18.465,0,0,0,68.5,32.456a6.694,6.694,0,0,0,3.413-12.812,14.933,14.933,0,0,0-6.249-9.473C64.25,4.792,52.047,2.25,42.454,4.294c-2.662-5.336-11.064-5.8-14.489-.819a.88.88,0,1,0,1.45,1C31.989.727,38.4.9,40.69,4.732c-2.887.829-6.682,2.536-7.443,5.439a14.806,14.806,0,0,0-1.9,1.545A5.427,5.427,0,0,1,28.594,7.9a.88.88,0,1,0-1.74.258,7.115,7.115,0,0,0,3.274,4.873A14.359,14.359,0,0,0,27,19.644a6.694,6.694,0,0,0,3.418,12.811,19.5,19.5,0,0,0,7.073,7.827,18.461,18.461,0,0,0-3.972,4.846L27.779,39.39a2.131,2.131,0,0,0-3.015,0L22.4,41.753a2.131,2.131,0,0,0,0,3.015l11.4,11.4a5.808,5.808,0,0,0,2.876,1.571l2.63.573A1.7,1.7,0,0,0,41.328,56.3l-.282-1.295H55.437l3.984,3.984a3.608,3.608,0,0,0,5.1,0l.48-.48a.88.88,0,1,0-1.244-1.244l-.48.48a1.846,1.846,0,0,1-2.608,0l-8.9-8.9a.733.733,0,0,1,0-1.035L63.693,35.891a1.846,1.846,0,0,1,2.608,0L74.411,44a1.843,1.843,0,0,1,0,2.608l-7.634,7.634a.88.88,0,1,0,1.244,1.244l7.634-7.634a3.6,3.6,0,0,0,0-5.1Zm-4.1-16.828a14.226,14.226,0,0,0,.558-4.174,4.935,4.935,0,0,1-2.889,8.991,17.8,17.8,0,0,0,.822-3.053,2.781,2.781,0,0,0,1.509-1.764Zm-5.95-13.6a12.374,12.374,0,0,1,4.259,13.115,1.047,1.047,0,0,1-1.68.505c-2.258-1.909-4.488-5.6-6.037-9.954a6.9,6.9,0,0,0,3.458-3.666ZM38.875,7.236c5.818-2.518,15.34-2.518,21.158,0,2.54,1.1,4,2.529,4,3.922s-1.457,2.823-4,3.922c-5.817,2.518-15.34,2.518-21.158,0-2.54-1.1-4-2.529-4-3.922s1.457-2.823,4-3.922ZM24.667,25.812a4.925,4.925,0,0,1,2.125-4.058,14.227,14.227,0,0,0,.558,4.174,2.781,2.781,0,0,0,1.509,1.764,17.817,17.817,0,0,0,.826,3.052,4.937,4.937,0,0,1-5.018-4.933Zm4.375-.367A12.375,12.375,0,0,1,33.3,12.33,6.9,6.9,0,0,0,36.759,16c-1.549,4.358-3.779,8.045-6.037,9.954A1.047,1.047,0,0,1,29.042,25.445Zm-5.4,18.078a.373.373,0,0,1,0-.527l2.363-2.363a.373.373,0,0,1,.527,0l1.651,1.651-2.89,2.89Zm2.9,2.9,2.89-2.89,1.894,1.894-2.89,2.89Zm8.8,8.769c-.324-.267.018.035-5.661-5.632l2.89-2.89c5.685,5.7,5.365,5.338,5.632,5.661ZM37,56.011l2.018-2.018c.055.237.41,1.873.565,2.584-1.115-.244-2.348-.511-2.584-.566Zm13.521-9.44a2.494,2.494,0,0,0,0,3.523l3.152,3.152H40.646a5.807,5.807,0,0,0-1.462-2.451l-4.37-4.37a16.679,16.679,0,0,1,4.3-5.206A22.71,22.71,0,0,0,53.8,43.3Zm15.235-12.9a3.6,3.6,0,0,0-3.31.972l-6.176,6.176c-10.938,3.77-23.327-2.175-25.586-12.943a2.8,2.8,0,0,0,1.169-.587c2.491-2.105,4.831-5.908,6.494-10.526a29.471,29.471,0,0,0,11.1,1.959,29.471,29.471,0,0,0,11.1-1.959c1.664,4.617,4,8.42,6.494,10.526a2.8,2.8,0,0,0,1.172.587A16.214,16.214,0,0,1,65.76,33.675Zm2.925,14.5.925-.925a2.352,2.352,0,0,0,0-3.329h0l-3.232-3.232a2.356,2.356,0,0,0-3.329,0l-.925.925a2.352,2.352,0,0,0,0,3.329l3.232,3.232a2.356,2.356,0,0,0,3.328,0Zm-5.317-5.317.925-.925a.6.6,0,0,1,.841,0l3.232,3.232a.594.594,0,0,1,0,.841l-.925.925a.6.6,0,0,1-.841,0L63.368,43.7A.594.594,0,0,1,63.369,42.861ZM60.133,24.141a.88.88,0,0,0-.88.88v1.715a.88.88,0,0,0,1.759,0V25.021A.88.88,0,0,0,60.133,24.141Zm-21.359,0a.88.88,0,0,0-.88.88v1.715a.88.88,0,1,0,1.759,0V25.021A.88.88,0,0,0,38.774,24.141Zm10.68.849c-1.385,0-4.266,0-4.266,3.169a4.283,4.283,0,1,0,8.531,0C53.719,24.99,50.838,24.99,49.454,24.99Zm0,6.078a2.734,2.734,0,0,1-2.506-2.909c0-1.075.346-1.409,2.506-1.409s2.506.335,2.506,1.409A2.734,2.734,0,0,1,49.454,31.068Z"/>
    </g>
  </g>
</svg>
