<svg xmlns="http://www.w3.org/2000/svg" xmlns:xlink="http://www.w3.org/1999/xlink" width="400" height="292" viewBox="0 0 400 292">
  <defs>
    <clipPath id="clip-path">
      <rect id="Rectángulo_414544" data-name="Rectángulo 414544" width="400" height="292" fill="#fff" stroke="#707070" stroke-width="1"/>
    </clipPath>
    <clipPath id="clip-path-2">
      <rect id="Rectángulo_414543" data-name="Rectángulo 414543" width="337.222" height="287.674" fill="none"/>
    </clipPath>
    <clipPath id="clip-path-4">
      <rect id="Rectángulo_414518" data-name="Rectángulo 414518" width="251.293" height="174.317" fill="none"/>
    </clipPath>
    <clipPath id="clip-path-5">
      <rect id="Rectángulo_414519" data-name="Rectángulo 414519" width="32.119" height="85.896" fill="none"/>
    </clipPath>
    <clipPath id="clip-path-6">
      <rect id="Rectángulo_414520" data-name="Rectángulo 414520" width="20.932" height="73.392" fill="none"/>
    </clipPath>
    <clipPath id="clip-path-7">
      <rect id="Rectángulo_414521" data-name="Rectángulo 414521" width="9.589" height="12.151" fill="none"/>
    </clipPath>
    <clipPath id="clip-path-8">
      <rect id="Rectángulo_414522" data-name="Rectángulo 414522" width="9.588" height="12.151" fill="none"/>
    </clipPath>
    <clipPath id="clip-path-9">
      <rect id="Rectángulo_414523" data-name="Rectángulo 414523" width="5.345" height="9.544" fill="none"/>
    </clipPath>
    <clipPath id="clip-path-10">
      <rect id="Rectángulo_414524" data-name="Rectángulo 414524" width="10.564" height="5.502" fill="none"/>
    </clipPath>
    <clipPath id="clip-path-12">
      <rect id="Rectángulo_414526" data-name="Rectángulo 414526" width="35.489" height="53.456" fill="none"/>
    </clipPath>
    <clipPath id="clip-path-13">
      <rect id="Rectángulo_414532" data-name="Rectángulo 414532" width="17.11" height="20.6" fill="none"/>
    </clipPath>
    <clipPath id="clip-path-14">
      <rect id="Rectángulo_414533" data-name="Rectángulo 414533" width="30.669" height="20.6" fill="none"/>
    </clipPath>
    <clipPath id="clip-path-15">
      <rect id="Rectángulo_414534" data-name="Rectángulo 414534" width="79.861" height="20.6" fill="none"/>
    </clipPath>
    <clipPath id="clip-path-16">
      <rect id="Rectángulo_414535" data-name="Rectángulo 414535" width="26.994" height="2.59" fill="none"/>
    </clipPath>
    <clipPath id="clip-path-17">
      <rect id="Rectángulo_414536" data-name="Rectángulo 414536" width="21.659" height="14.548" fill="none"/>
    </clipPath>
    <clipPath id="clip-path-18">
      <rect id="Rectángulo_414537" data-name="Rectángulo 414537" width="21.33" height="14.327" fill="none"/>
    </clipPath>
    <clipPath id="clip-path-19">
      <rect id="Rectángulo_414538" data-name="Rectángulo 414538" width="28.423" height="14.327" fill="none"/>
    </clipPath>
    <clipPath id="clip-path-20">
      <rect id="Rectángulo_414540" data-name="Rectángulo 414540" width="20.593" height="51.947" fill="none"/>
    </clipPath>
    <clipPath id="clip-path-21">
      <rect id="Rectángulo_414541" data-name="Rectángulo 414541" width="122.856" height="10.852" fill="none"/>
    </clipPath>
  </defs>
  <g id="Enmascarar_grupo_1098719" data-name="Enmascarar grupo 1098719" clip-path="url(#clip-path)">
    <g id="Grupo_1172294" data-name="Grupo 1172294" transform="translate(31.778 4.452)">
      <g id="Grupo_1172293" data-name="Grupo 1172293" clip-path="url(#clip-path-2)">
        <rect id="Rectángulo_414516" data-name="Rectángulo 414516" width="259.448" height="184.208" transform="translate(46.937 22.605)" fill="#fff2e3"/>
        <rect id="Rectángulo_414517" data-name="Rectángulo 414517" width="251.293" height="174.317" transform="translate(51.014 27.258)" fill="#2c4556"/>
        <g id="Grupo_1172292" data-name="Grupo 1172292">
          <g id="Grupo_1172291" data-name="Grupo 1172291" clip-path="url(#clip-path-2)">
            <g id="Grupo_1172239" data-name="Grupo 1172239" transform="translate(51.014 27.258)" opacity="0.46">
              <g id="Grupo_1172238" data-name="Grupo 1172238">
                <g id="Grupo_1172237" data-name="Grupo 1172237" clip-path="url(#clip-path-4)">
                  <path id="Trazado_1025799" data-name="Trazado 1025799" d="M295.642,34.623S96.291,39.052,72.845,52.91s6.8,15.071,30.126,34.939S47.291,168.341,44.349,208.94V34.623Z" transform="translate(-44.349 -34.623)" fill="#1a2d38"/>
                </g>
              </g>
            </g>
            <path id="Trazado_1025800" data-name="Trazado 1025800" d="M34.859,270.712H299.406a3.969,3.969,0,0,0,3.969-3.969v-.08a3.969,3.969,0,0,0-3.969-3.969H34.859a3.969,3.969,0,0,0-3.969,3.969v.08a3.969,3.969,0,0,0,3.969,3.969" transform="translate(9.529 -55.881)" fill="#b5aaa0"/>
            <ellipse id="Elipse_12313" data-name="Elipse 12313" cx="7.7" cy="24.934" rx="7.7" ry="24.934" transform="translate(258.41 39.327)" fill="none" stroke="#d3cabe" stroke-miterlimit="10" stroke-width="1"/>
            <path id="Trazado_1025801" data-name="Trazado 1025801" d="M80.528,84.42c11.885,6.956,23.26,9.621,25.408,5.951S100.192,78.086,88.308,71.13,65.047,61.509,62.9,65.179,68.644,77.463,80.528,84.42Z" transform="translate(181.692 -13.514)" fill="none" stroke="#d3cabe" stroke-miterlimit="10" stroke-width="1"/>
            <path id="Trazado_1025802" data-name="Trazado 1025802" d="M88.308,84.42C76.423,91.376,65.047,94.04,62.9,90.371S68.644,78.086,80.528,71.13s23.26-9.621,25.408-5.951S100.192,77.463,88.308,84.42Z" transform="translate(181.692 -13.514)" fill="none" stroke="#d3cabe" stroke-miterlimit="10" stroke-width="1"/>
            <path id="Trazado_1025803" data-name="Trazado 1025803" d="M85.765,80.654a3.592,3.592,0,1,0,3.592-3.592A3.592,3.592,0,0,0,85.765,80.654Z" transform="translate(176.753 -16.393)" fill="none" stroke="#d3cabe" stroke-miterlimit="10" stroke-width="1"/>
            <path id="Trazado_1025804" data-name="Trazado 1025804" d="M111.262,185.605v14.51L98.7,207.369l-12.565-7.254v-14.51L98.7,178.35Z" transform="translate(158.152 -37.939)" fill="#2c4556"/>
            <path id="Trazado_1025805" data-name="Trazado 1025805" d="M111.262,185.605v14.51L98.7,207.369l-12.565-7.254v-14.51L98.7,178.35Z" transform="translate(158.152 -37.939)" fill="none" stroke="#d3cabe" stroke-miterlimit="10" stroke-width="1"/>
            <line id="Línea_686" data-name="Línea 686" x1="11.467" y2="7.869" transform="translate(232.816 162.175)" fill="#2c4556"/>
            <line id="Línea_687" data-name="Línea 687" x1="11.467" y2="7.869" transform="translate(232.816 162.175)" fill="none" stroke="#d3cabe" stroke-miterlimit="10" stroke-width="1"/>
            <line id="Línea_688" data-name="Línea 688" y1="7.592" x2="12.682" transform="translate(269.413 140.074)" fill="#2c4556"/>
            <line id="Línea_689" data-name="Línea 689" y1="7.592" x2="12.682" transform="translate(269.413 140.074)" fill="none" stroke="#d3cabe" stroke-miterlimit="10" stroke-width="1"/>
            <line id="Línea_690" data-name="Línea 690" y2="16.475" transform="translate(256.848 169.43)" fill="#2c4556"/>
            <line id="Línea_691" data-name="Línea 691" y2="16.475" transform="translate(256.848 169.43)" fill="none" stroke="#d3cabe" stroke-miterlimit="10" stroke-width="1"/>
            <path id="Trazado_1025806" data-name="Trazado 1025806" d="M69.4,175.006a2.3,2.3,0,1,0,2.3,2.3,2.3,2.3,0,0,0-2.3-2.3" transform="translate(212.694 -37.228)" fill="#2c4556"/>
            <path id="Trazado_1025807" data-name="Trazado 1025807" d="M69.4,175.006a2.3,2.3,0,1,0,2.3,2.3A2.3,2.3,0,0,0,69.4,175.006Z" transform="translate(212.694 -37.228)" fill="none" stroke="#d3cabe" stroke-miterlimit="10" stroke-width="1"/>
            <path id="Trazado_1025808" data-name="Trazado 1025808" d="M85.511,184.146a2.3,2.3,0,1,0,2.3,2.3,2.3,2.3,0,0,0-2.3-2.3" transform="translate(183.902 -39.172)" fill="#2c4556"/>
            <path id="Trazado_1025809" data-name="Trazado 1025809" d="M85.511,184.146a2.3,2.3,0,1,0,2.3,2.3A2.3,2.3,0,0,0,85.511,184.146Z" transform="translate(183.902 -39.172)" fill="none" stroke="#d3cabe" stroke-miterlimit="10" stroke-width="1"/>
            <path id="Trazado_1025810" data-name="Trazado 1025810" d="M101.481,233.221a2.3,2.3,0,1,0,2.3,2.3,2.3,2.3,0,0,0-2.3-2.3" transform="translate(155.358 -49.611)" fill="#2c4556"/>
            <path id="Trazado_1025811" data-name="Trazado 1025811" d="M101.481,233.221a2.3,2.3,0,1,0,2.3,2.3A2.3,2.3,0,0,0,101.481,233.221Z" transform="translate(155.358 -49.611)" fill="none" stroke="#d3cabe" stroke-miterlimit="10" stroke-width="1"/>
            <path id="Trazado_1025812" data-name="Trazado 1025812" d="M101.021,212.293a2.3,2.3,0,1,0,2.3,2.3,2.3,2.3,0,0,0-2.3-2.3" transform="translate(156.182 -45.16)" fill="#2c4556"/>
            <path id="Trazado_1025813" data-name="Trazado 1025813" d="M101.021,212.293a2.3,2.3,0,1,0,2.3,2.3A2.3,2.3,0,0,0,101.021,212.293Z" transform="translate(156.182 -45.16)" fill="none" stroke="#d3cabe" stroke-miterlimit="10" stroke-width="1"/>
            <path id="Trazado_1025814" data-name="Trazado 1025814" d="M117.086,202.842a2.3,2.3,0,1,0,2.3,2.3,2.3,2.3,0,0,0-2.3-2.3" transform="translate(127.468 -43.149)" fill="#2c4556"/>
            <path id="Trazado_1025815" data-name="Trazado 1025815" d="M117.086,202.842a2.3,2.3,0,1,0,2.3,2.3A2.3,2.3,0,0,0,117.086,202.842Z" transform="translate(127.468 -43.149)" fill="none" stroke="#d3cabe" stroke-miterlimit="10" stroke-width="1"/>
            <path id="Trazado_1025816" data-name="Trazado 1025816" d="M132.219,213.227a2.3,2.3,0,1,0,2.3,2.3,2.3,2.3,0,0,0-2.3-2.3" transform="translate(100.421 -45.358)" fill="#2c4556"/>
            <path id="Trazado_1025817" data-name="Trazado 1025817" d="M132.219,213.227a2.3,2.3,0,1,0,2.3,2.3A2.3,2.3,0,0,0,132.219,213.227Z" transform="translate(100.421 -45.358)" fill="none" stroke="#d3cabe" stroke-miterlimit="10" stroke-width="1"/>
            <path id="Trazado_1025818" data-name="Trazado 1025818" d="M317.167,159.454l.172,24.568a16.958,16.958,0,1,1-11.638.039l-.4-24.567" transform="translate(-223.253 -33.919)" fill="none" stroke="#d3cabe" stroke-miterlimit="10" stroke-width="1"/>
            <path id="Trazado_1025819" data-name="Trazado 1025819" d="M326.431,207.346a14.6,14.6,0,1,1-28.468.1" transform="translate(-223.886 -44.107)" fill="none" stroke="#d3cabe" stroke-miterlimit="10" stroke-width="1"/>
            <path id="Trazado_1025820" data-name="Trazado 1025820" d="M298.083,206.95c0,1.037,6.448,1.856,14.392,1.829s14.382-.89,14.379-1.926-6.447-1.856-14.391-1.829S298.08,205.913,298.083,206.95Z" transform="translate(-224.306 -43.613)" fill="none" stroke="#d3cabe" stroke-miterlimit="10" stroke-width="1"/>
            <path id="Trazado_1025821" data-name="Trazado 1025821" d="M306.278,156.127a2.191,2.191,0,0,0,2.2,2.184l11.865-.041a2.19,2.19,0,1,0-.015-4.38l-11.865.04A2.191,2.191,0,0,0,306.278,156.127Z" transform="translate(-226.428 -32.736)" fill="none" stroke="#d3cabe" stroke-miterlimit="10" stroke-width="1"/>
            <path id="Trazado_1025822" data-name="Trazado 1025822" d="M309.662,217.208a1.543,1.543,0,1,0,.645-2.085A1.542,1.542,0,0,0,309.662,217.208Z" transform="translate(-218.997 -45.724)" fill="none" stroke="#d3cabe" stroke-miterlimit="10" stroke-width="1"/>
            <path id="Trazado_1025823" data-name="Trazado 1025823" d="M322.465,216.553a1.543,1.543,0,1,0,.645-2.086A1.544,1.544,0,0,0,322.465,216.553Z" transform="translate(-241.88 -45.584)" fill="none" stroke="#d3cabe" stroke-miterlimit="10" stroke-width="1"/>
            <path id="Trazado_1025824" data-name="Trazado 1025824" d="M316.239,224.156a1.543,1.543,0,1,0,.645-2.085A1.544,1.544,0,0,0,316.239,224.156Z" transform="translate(-230.752 -47.202)" fill="none" stroke="#d3cabe" stroke-miterlimit="10" stroke-width="1"/>
            <path id="Trazado_1025825" data-name="Trazado 1025825" d="M300.861,83.891h16.275l8.137,14.094-8.137,14.094H300.861l-8.137-14.094Z" transform="translate(-218.506 -17.845)" fill="none" stroke="#d3cabe" stroke-miterlimit="10" stroke-width="1"/>
            <path id="Trazado_1025826" data-name="Trazado 1025826" d="M292.706,70.893h11.815l5.908,10.232-5.908,10.232H292.706L286.8,81.126Z" transform="translate(-198.997 -15.081)" fill="none" stroke="#d3cabe" stroke-miterlimit="10" stroke-width="1"/>
            <path id="Trazado_1025827" data-name="Trazado 1025827" d="M63.695,147.449a2.382,2.382,0,1,0,2.382-2.382A2.383,2.383,0,0,0,63.695,147.449Z" transform="translate(218.618 -30.859)" fill="none" stroke="#d3cabe" stroke-miterlimit="10" stroke-width="0.5"/>
            <path id="Trazado_1025828" data-name="Trazado 1025828" d="M335.886,56.248a7.6,7.6,0,1,0,7.6-7.6A7.6,7.6,0,0,0,335.886,56.248Z" transform="translate(-278.297 -10.349)" fill="none" stroke="#d3cabe" stroke-miterlimit="10" stroke-width="1.268"/>
            <path id="Trazado_1025829" data-name="Trazado 1025829" d="M270.771,52.448a3.8,3.8,0,1,0,3.8-3.8A3.8,3.8,0,0,0,270.771,52.448Z" transform="translate(-154.32 -10.349)" fill="none" stroke="#d3cabe" stroke-miterlimit="10" stroke-width="0.634"/>
            <path id="Trazado_1025830" data-name="Trazado 1025830" d="M124.81,50.054a2.37,2.37,0,1,0,2.37-2.37A2.37,2.37,0,0,0,124.81,50.054Z" transform="translate(109.412 -10.143)" fill="none" stroke="#d3cabe" stroke-miterlimit="10" stroke-width="0.634"/>
            <path id="Trazado_1025831" data-name="Trazado 1025831" d="M340.711,137.145a3.8,3.8,0,1,0,3.8-3.8A3.8,3.8,0,0,0,340.711,137.145Z" transform="translate(-279.322 -28.366)" fill="none" stroke="#d3cabe" stroke-miterlimit="10" stroke-width="1"/>
            <path id="Trazado_1025832" data-name="Trazado 1025832" d="M159.864,254.3l33.977,1.156,33.977-1.156s25.9,53.446.986,85.9H158.878c-24.909-32.45.986-85.9.986-85.9" transform="translate(-18.963 -54.095)" fill="#2c4556"/>
            <g id="Grupo_1172242" data-name="Grupo 1172242" transform="translate(188.542 200.204)" opacity="0.45">
              <g id="Grupo_1172241" data-name="Grupo 1172241">
                <g id="Grupo_1172240" data-name="Grupo 1172240" clip-path="url(#clip-path-5)">
                  <path id="Trazado_1025833" data-name="Trazado 1025833" d="M169.355,340.195h-9.56c17.655-32.518-11.738-85.2-11.738-85.2l20.312-.691s25.9,53.447.986,85.9" transform="translate(-148.057 -254.299)" fill="#1b2e38"/>
                </g>
              </g>
            </g>
            <path id="Trazado_1025834" data-name="Trazado 1025834" d="M138.166,137.143c1.527-10.816,7-22.778,17.943-26.469,4.843-1.633,18.324-6.362,24.91-12.343S184.1,81.024,184.1,81.024h14.761s-3.5,11.326,3.085,17.307,20.068,10.71,24.91,12.343c10.944,3.691,16.416,15.653,17.943,26.469.994,7.039,1.394,41.452,1.553,64.632A16.236,16.236,0,0,1,225.671,217.5l-.21-.06s-17.561,9.544-33.977,9.544-33.977-9.544-33.977-9.544l-21,5.981s.127-75.461,1.654-86.278" transform="translate(-16.608 -17.236)" fill="#4b72b7"/>
            <path id="Trazado_1025835" data-name="Trazado 1025835" d="M248.274,145.09c1.527-10.816,7-22.778,17.943-26.469.214-.072.451-.153.7-.237,1.649,12.868,5.218,46.39-.7,57.336-3.351,6.2-11.422,7.957-19.237,8.029.24-17.412.638-34.01,1.294-38.659" transform="translate(-126.716 -25.183)" fill="#fff2e3"/>
            <path id="Trazado_1025836" data-name="Trazado 1025836" d="M157.967,145.09c-1.527-10.816-7-22.778-17.943-26.469-.214-.072-.452-.153-.7-.237-1.649,12.868-5.219,46.39.7,57.336,3.351,6.2,11.422,7.957,19.237,8.029-.24-17.412-.638-34.01-1.294-38.659" transform="translate(70.307 -25.183)" fill="#fff2e3"/>
            <path id="Trazado_1025837" data-name="Trazado 1025837" d="M245.388,210.584l-30.129,11.638s.314,9.544-12.134,4.2l-8.248-1.909s-6.252,37.241-28.849,45.432a138.581,138.581,0,0,1,9.634-29.78l-21,5.981s.043-25.69.383-49.24l95.172-9.052Z" transform="translate(-34.763 -39.961)" fill="#2c4556"/>
            <path id="Trazado_1025838" data-name="Trazado 1025838" d="M227.631,119.192s-6.557,14.142-16.672,9.943-.921-19.954-.921-19.954Z" transform="translate(-52.753 -23.225)" fill="#fff2e3"/>
            <path id="Trazado_1025839" data-name="Trazado 1025839" d="M179.176,119.12s6.557,14.142,16.672,9.943.439-20.221.439-20.221Z" transform="translate(-4.299 -23.153)" fill="#fff2e3"/>
            <path id="Trazado_1025840" data-name="Trazado 1025840" d="M251.012,145.546c1.364-9.666,5.884-20.242,14.639-25.017,1.6,6.392,3.619,17.768,4.067,35.452.763,30.159.636,69.862.636,69.862l-21,5.981s.127-75.461,1.654-86.278" transform="translate(-129.454 -25.639)" fill="#e48464"/>
            <path id="Trazado_1025841" data-name="Trazado 1025841" d="M155.863,145.546c-1.364-9.666-5.883-20.242-14.639-25.017-1.6,6.392-3.619,17.768-4.067,35.452-.763,30.159-.636,69.862-.636,69.862l.21.06a16.235,16.235,0,0,0,20.686-15.724c-.158-23.18-.56-57.593-1.553-64.632" transform="translate(72.332 -25.639)" fill="#e48464"/>
            <line id="Línea_692" data-name="Línea 692" y2="113.781" transform="translate(174.877 95.967)" fill="none" stroke="#2c4556" stroke-miterlimit="10" stroke-width="0.776"/>
            <path id="Trazado_1025842" data-name="Trazado 1025842" d="M195.478,146.692a2.83,2.83,0,1,0,2.83-2.83,2.83,2.83,0,0,0-2.83,2.83" transform="translate(-17.812 -30.603)" fill="#fff2e3"/>
            <path id="Trazado_1025843" data-name="Trazado 1025843" d="M195.478,179.343a2.83,2.83,0,1,0,2.83-2.83,2.83,2.83,0,0,0-2.83,2.83" transform="translate(-17.812 -37.548)" fill="#fff2e3"/>
            <path id="Trazado_1025844" data-name="Trazado 1025844" d="M195.478,211.993a2.83,2.83,0,1,0,2.83-2.83,2.83,2.83,0,0,0-2.83,2.83" transform="translate(-17.812 -44.494)" fill="#fff2e3"/>
            <path id="Trazado_1025845" data-name="Trazado 1025845" d="M195.478,244.644a2.83,2.83,0,1,0,2.83-2.83,2.83,2.83,0,0,0-2.83,2.83" transform="translate(-17.812 -51.439)" fill="#fff2e3"/>
            <path id="Trazado_1025846" data-name="Trazado 1025846" d="M92.943,218.359s7.174-5.269,13.792-16.212S125.059,152,128.621,146.023s14.244-19.226,15.525-24.683c1.146-4.879-1.018-6.311-1.4-7.253-2.672-3.945-4.454-5.853-6.49-5.853,3.308-11.2,2.8-16.388-.764-12.011s-8.908,19.613-9.672,19.884c-4.326-.492-7.4,3.357-7.645,10.722.01,6.6.265,3.8-1.262,8.128S94.34,176.379,88.83,184.809s-10.9,27.221-7.312,36.023c5.62,1.42,7.974.567,11.425-2.473" transform="translate(129.479 -20.139)" fill="#e48464"/>
            <path id="Trazado_1025847" data-name="Trazado 1025847" d="M92.053,121.9s5.345,2.689,7,4.6,3.563,3.818,1.654,5.472-4.835.763-6.617,0a13.629,13.629,0,0,1,.891,8.907" transform="translate(163.247 -25.93)" fill="none" stroke="#a0533f" stroke-miterlimit="10" stroke-width="0.75"/>
            <line id="Línea_693" data-name="Línea 693" x1="4.632" y2="11.389" transform="translate(261.104 88.094)" fill="none" stroke="#a0533f" stroke-miterlimit="10" stroke-width="0.75"/>
            <line id="Línea_694" data-name="Línea 694" x1="5.378" y2="12.804" transform="translate(264.751 91.069)" fill="none" stroke="#a0533f" stroke-miterlimit="10" stroke-width="0.75"/>
            <line id="Línea_695" data-name="Línea 695" x1="5.392" y2="12.928" transform="translate(267.44 94.89)" fill="none" stroke="#a0533f" stroke-miterlimit="10" stroke-width="0.75"/>
            <line id="Línea_696" data-name="Línea 696" x1="4.97" y1="3.849" transform="translate(264.462 105.455)" fill="none" stroke="#a0533f" stroke-miterlimit="10" stroke-width="0.75"/>
            <path id="Trazado_1025848" data-name="Trazado 1025848" d="M239.3,13.85s.8-11.015-12.48-13.306S203.55,3.407,198.142,12s-1.209,25.9-9.608,39.384.955,26.087.955,26.087,17.368-10,31.877-12.6C237.972,25.74,239.3,13.85,239.3,13.85" transform="translate(-47.761 0)" fill="#7c2e25"/>
            <g id="Grupo_1172245" data-name="Grupo 1172245" transform="translate(137.273 4.077)" opacity="0.17" style="mix-blend-mode: overlay;isolation: isolate">
              <g id="Grupo_1172244" data-name="Grupo 1172244">
                <g id="Grupo_1172243" data-name="Grupo 1172243" clip-path="url(#clip-path-6)">
                  <path id="Trazado_1025849" data-name="Trazado 1025849" d="M240.5,13.1a25.345,25.345,0,0,1,7.824-7.92s-8.4,11.681-7.824,23.544-2.6,18.895-4.58,25.606c-2.1,7.1,1.569,15.627,3.666,20.217-4.65,2.248-7.739,4.025-7.739,4.025s-9.353-12.6-.955-26.086,4.2-30.8,9.608-39.385" transform="translate(-227.389 -5.178)" fill="#fff"/>
                </g>
              </g>
            </g>
            <path id="Trazado_1025850" data-name="Trazado 1025850" d="M158.455,13.85s-.8-11.015,12.48-13.306S194.206,3.407,199.614,12s1.209,25.9,9.608,39.384-.955,26.087-.955,26.087-17.369-10-31.877-12.6C159.784,25.74,158.455,13.85,158.455,13.85" transform="translate(-0.241 0)" fill="#872a21"/>
            <path id="Trazado_1025851" data-name="Trazado 1025851" d="M191.6,98.331c6.586-5.981,3.085-17.307,3.085-17.307h14.761s-3.5,11.326,3.085,17.307a36.774,36.774,0,0,0,6.645,4.593,19.908,19.908,0,0,1-34.7.268,37.84,37.84,0,0,0,7.127-4.861" transform="translate(-27.193 -17.236)" fill="#e48464"/>
            <path id="Trazado_1025852" data-name="Trazado 1025852" d="M197.648,85.415a24.494,24.494,0,0,0-.812-4.391H211.6s-2.015,6.531-.1,12.294c-7.694-.868-12.679-6.458-13.848-7.9" transform="translate(-29.34 -17.236)" fill="#380403"/>
            <path id="Trazado_1025853" data-name="Trazado 1025853" d="M229.57,54.666c1.669,4.1,5.687,6.341,8.975,5s4.6-5.747,2.929-9.848-5.688-6.341-8.975-5-4.6,5.747-2.929,9.848" transform="translate(-85.142 -9.451)" fill="#e48464"/>
            <path id="Trazado_1025854" data-name="Trazado 1025854" d="M172.469,75.564l1-9.884,19.375-11.326,4.04,3.818s4.2,16.7-2.846,25.454c-6.131-2.8-14.018-5.907-21.2-7.193-.126-.3-.242-.576-.366-.868" transform="translate(3.314 -11.562)" fill="#420e0c"/>
            <g id="Grupo_1172248" data-name="Grupo 1172248" transform="translate(143.704 38.451)" opacity="0.32">
              <g id="Grupo_1172247" data-name="Grupo 1172247">
                <g id="Grupo_1172246" data-name="Grupo 1172246" clip-path="url(#clip-path-7)">
                  <path id="Trazado_1025855" data-name="Trazado 1025855" d="M234.352,55.6a8.893,8.893,0,0,1-.172-6.6c3.147-.813,6.752,1.391,8.311,5.22a8.891,8.891,0,0,1,.172,6.6c-3.147.813-6.752-1.39-8.311-5.22" transform="translate(-233.628 -48.841)" fill="#590a06"/>
                </g>
              </g>
            </g>
            <path id="Trazado_1025856" data-name="Trazado 1025856" d="M179.245,54.666c-1.669,4.1-5.687,6.341-8.975,5s-4.6-5.747-2.929-9.848,5.687-6.341,8.975-5,4.6,5.747,2.929,9.848" transform="translate(26.08 -9.451)" fill="#e48464"/>
            <path id="Trazado_1025857" data-name="Trazado 1025857" d="M184.147,17.592c1.108,3.4,3.73,9.629,8.392,11,4.835.636-1.782-3.563-1.273-8.272,15.163,8.581,24.345,11.027,29.37,11.073.709,11.963-.829,24.3-3.57,29.5-3.308,6.28-6.586,11.578-16.256,12.363-9.671-.785-12.948-6.083-16.257-12.363s-4.868-22.962-2.832-36.83a15.949,15.949,0,0,1,2.426-6.473" transform="translate(-25.933 -3.742)" fill="#e48464"/>
            <g id="Grupo_1172251" data-name="Grupo 1172251" transform="translate(196.461 38.451)" opacity="0.32">
              <g id="Grupo_1172250" data-name="Grupo 1172250">
                <g id="Grupo_1172249" data-name="Grupo 1172249" clip-path="url(#clip-path-8)">
                  <path id="Trazado_1025858" data-name="Trazado 1025858" d="M175.48,55.6a8.893,8.893,0,0,0,.172-6.6c-3.147-.813-6.752,1.391-8.311,5.22a8.891,8.891,0,0,0-.172,6.6c3.147.813,6.752-1.39,8.311-5.22" transform="translate(-166.616 -48.841)" fill="#590a06"/>
                </g>
              </g>
            </g>
            <path id="Trazado_1025859" data-name="Trazado 1025859" d="M224.8,51.5c-1.29-2.489-4.98-7.507-12.525-3.681a1.378,1.378,0,0,0-.624,1.791c1.91,4.256,7.9,4.721,12.42,3.534A1.155,1.155,0,0,0,224.8,51.5" transform="translate(-54.231 -9.877)" fill="#fff2e3"/>
            <path id="Trazado_1025860" data-name="Trazado 1025860" d="M222.258,47.7a4.032,4.032,0,0,1-1.694,6.009,12.413,12.413,0,0,1-4.268-.664,4,4,0,0,1,.63-6.524,7.422,7.422,0,0,1,5.332,1.179" transform="translate(-54.948 -9.878)" fill="#651d13"/>
            <path id="Trazado_1025861" data-name="Trazado 1025861" d="M224.676,51.291a4.087,4.087,0,0,0-.179-.662,7.381,7.381,0,0,0-.789-1.635,6.59,6.59,0,0,0-.737-.987,8.006,8.006,0,0,0-1-.979l-.613-.431a3.122,3.122,0,0,0-.668-.39c-.236-.11-.471-.236-.717-.334l-.77-.225-.388-.1-.4-.044-.79-.071c-.521,0-1.031.088-1.517.133-.473.118-.921.264-1.34.4a9.569,9.569,0,0,0-1.1.541l-.473.257c-.143.094-.268.2-.39.292-.244.183-.446.356-.612.494-.331.282-.506.452-.506.452s.25-.054.662-.168c.205-.058.454-.124.728-.216a6.394,6.394,0,0,1,.935-.239c.345-.065.705-.169,1.087-.239.39-.039.794-.076,1.2-.145l1.257.023c.209.031.419.068.63.091l.317.038.306.09.617.164.589.242a9.313,9.313,0,0,1,1.126.561c.328.25.7.433.991.69.31.235.6.476.857.706.515.468.941.89,1.227,1.2s.456.5.456.5" transform="translate(-54.111 -9.664)" fill="#590a06"/>
            <path id="Trazado_1025862" data-name="Trazado 1025862" d="M184.007,51.5c1.29-2.489,4.98-7.507,12.526-3.681a1.379,1.379,0,0,1,.624,1.791c-1.909,4.256-7.9,4.721-12.42,3.534a1.156,1.156,0,0,1-.729-1.645" transform="translate(-4.818 -9.877)" fill="#fff2e3"/>
            <path id="Trazado_1025863" data-name="Trazado 1025863" d="M187.979,47.7a4.032,4.032,0,0,0,1.694,6.009,12.413,12.413,0,0,0,4.268-.664,4,4,0,0,0-.63-6.524,7.422,7.422,0,0,0-5.332,1.179" transform="translate(-5.535 -9.878)" fill="#651d13"/>
            <path id="Trazado_1025864" data-name="Trazado 1025864" d="M184.237,51.291s.161-.191.456-.5.712-.733,1.227-1.2c.262-.231.547-.472.857-.706.294-.257.663-.441.991-.69a9.312,9.312,0,0,1,1.126-.561l.589-.242.617-.164.306-.09.317-.038c.211-.023.42-.059.63-.091l1.257-.023c.408.069.812.105,1.2.145.382.069.742.174,1.087.239a6.392,6.392,0,0,1,.934.239c.274.092.523.158.728.216.413.113.662.168.662.168s-.176-.17-.505-.452c-.167-.139-.368-.312-.613-.494-.122-.091-.247-.2-.39-.292l-.473-.257a9.569,9.569,0,0,0-1.1-.541c-.419-.132-.867-.278-1.34-.4-.487-.045-1-.135-1.517-.133l-.79.071-.4.044-.388.1-.77.225c-.246.1-.481.224-.717.334a3.123,3.123,0,0,0-.668.39l-.612.431a8.006,8.006,0,0,0-1,.979,6.593,6.593,0,0,0-.737.987,7.384,7.384,0,0,0-.789,1.635,4.086,4.086,0,0,0-.179.662" transform="translate(-5.048 -9.664)" fill="#590a06"/>
            <path id="Trazado_1025865" data-name="Trazado 1025865" d="M223.392,38.677c-2.583-.453-7-.684-10.23,2.034,3.333-5.55,6.663-5.678,10.584-5.62a1.79,1.79,0,0,1,1.763,1.788v.041a1.793,1.793,0,0,1-2.117,1.757" transform="translate(-56.104 -7.463)" fill="#651d13"/>
            <path id="Trazado_1025866" data-name="Trazado 1025866" d="M185.695,38.677c2.583-.453,7-.684,10.23,2.034-3.333-5.55-6.663-5.678-10.584-5.62a1.79,1.79,0,0,0-1.763,1.788v.041a1.793,1.793,0,0,0,2.117,1.757" transform="translate(-3.229 -7.463)" fill="#651d13"/>
            <g id="Grupo_1172254" data-name="Grupo 1172254" transform="translate(171.441 46.609)" opacity="0.62">
              <g id="Grupo_1172253" data-name="Grupo 1172253">
                <g id="Grupo_1172252" data-name="Grupo 1172252" clip-path="url(#clip-path-9)">
                  <path id="Trazado_1025867" data-name="Trazado 1025867" d="M205.314,59.2v8.144l3.818-.636-5.345,2.036Z" transform="translate(-203.787 -59.203)" fill="#651d13"/>
                </g>
              </g>
            </g>
            <path id="Trazado_1025868" data-name="Trazado 1025868" d="M210.841,73.452s-9.657,1.4-11.58-.509c2.785,3.436,7.381,4.072,11.58.509" transform="translate(-30.492 -15.517)" fill="#fff2e3"/>
            <g id="Grupo_1172257" data-name="Grupo 1172257" transform="translate(158.205 46.77)" opacity="0.32">
              <g id="Grupo_1172256" data-name="Grupo 1172256">
                <g id="Grupo_1172255" data-name="Grupo 1172255" clip-path="url(#clip-path-10)">
                  <path id="Trazado_1025869" data-name="Trazado 1025869" d="M213.97,62.158c0-1.519,2.365-2.752,5.282-2.752s5.282,1.232,5.282,2.752-2.364,2.752-5.282,2.752-5.282-1.232-5.282-2.752" transform="translate(-213.97 -59.407)" fill="#af0808"/>
                </g>
              </g>
            </g>
            <g id="Grupo_1172260" data-name="Grupo 1172260" transform="translate(180.985 46.77)" opacity="0.32">
              <g id="Grupo_1172259" data-name="Grupo 1172259">
                <g id="Grupo_1172258" data-name="Grupo 1172258" clip-path="url(#clip-path-10)">
                  <path id="Trazado_1025870" data-name="Trazado 1025870" d="M195.6,62.158c0-1.519-2.364-2.752-5.281-2.752s-5.282,1.232-5.282,2.752,2.364,2.752,5.282,2.752,5.281-1.232,5.281-2.752" transform="translate(-185.034 -59.407)" fill="#af0808"/>
                </g>
              </g>
            </g>
            <g id="Grupo_1172263" data-name="Grupo 1172263" transform="translate(154.876 13.85)" opacity="0.17" style="mix-blend-mode: overlay;isolation: isolate">
              <g id="Grupo_1172262" data-name="Grupo 1172262">
                <g id="Grupo_1172261" data-name="Grupo 1172261" clip-path="url(#clip-path-12)">
                  <path id="Trazado_1025871" data-name="Trazado 1025871" d="M189.875,17.592c1.108,3.4,3.73,9.629,8.392,11,4.835.636-1.782-3.563-1.273-8.272,11.368,6.434,19.374,9.418,24.787,10.529.481,11.813,2.576,42.926-23.418,40.007-3.823-2.286-5.951-5.916-8.082-9.961-3.309-6.279-4.868-22.962-2.832-36.83a15.948,15.948,0,0,1,2.426-6.473" transform="translate(-186.537 -17.592)" fill="#fff"/>
                </g>
              </g>
            </g>
            <path id="Trazado_1025872" data-name="Trazado 1025872" d="M160.8,156a90.816,90.816,0,0,1,32.316-14.019v6.948Z" transform="translate(17.507 -30.202)" fill="#fff2e3"/>
            <path id="Trazado_1025873" data-name="Trazado 1025873" d="M154.666,158.6v-1.842s24.656-10.253,37.148-11.2l-3.064,31.7-34.084-9.428Z" transform="translate(23.644 -30.965)" fill="#d1beae"/>
            <path id="Trazado_1025874" data-name="Trazado 1025874" d="M201.851,159.785a4.74,4.74,0,0,0,7.5,0v1.842s-.524,6.408-3.318,6.408-4.184-6.408-4.184-6.408Z" transform="translate(-31.043 -33.99)" fill="#ececec"/>
            <path id="Trazado_1025875" data-name="Trazado 1025875" d="M243.7,156a90.808,90.808,0,0,0-32.316-14.019v6.948Z" transform="translate(-72.888 -30.202)" fill="#fff2e3"/>
            <path id="Trazado_1025876" data-name="Trazado 1025876" d="M248.528,158.6v-1.842s-24.655-10.253-37.148-11.2l3.064,31.7,34.084-9.428Z" transform="translate(-77.72 -30.965)" fill="#d1beae"/>
            <path id="Trazado_1025877" data-name="Trazado 1025877" d="M205.565,165.464h.075a3.714,3.714,0,0,0,3.695-3.34h.019V210.8a3.714,3.714,0,0,1-3.714,3.714h-.075a3.714,3.714,0,0,1-3.714-3.714V162.124h.02a3.712,3.712,0,0,0,3.694,3.34" transform="translate(-31.043 -34.487)" fill="#e5ac3c"/>
            <path id="Trazado_1025878" data-name="Trazado 1025878" d="M255.108,159.274,211.38,148.726l8.438,48.52,35.29,10.7Z" transform="translate(-84.3 -31.637)" fill="#ffcb57"/>
            <path id="Trazado_1025879" data-name="Trazado 1025879" d="M146.308,159.274l43.728-10.548-8.438,48.52-35.29,10.7Z" transform="translate(32.001 -31.637)" fill="#bc8d2f"/>
            <path id="Trazado_1025880" data-name="Trazado 1025880" d="M211.38,148.394l1.136-1.231,42.592,9.936v1.842Z" transform="translate(-84.299 -31.305)" fill="#f9d180"/>
            <path id="Trazado_1025881" data-name="Trazado 1025881" d="M190.036,148.394l-1.136-1.231L146.308,157.1v1.842Z" transform="translate(32.001 -31.305)" fill="#f9d180"/>
            <path id="Trazado_1025882" data-name="Trazado 1025882" d="M216.4,187.441s-3.7-13.234-3.289-19.224c2.826,3.681,7.482,2.617,7.482,2.617l7.921-10.69.35,11.263,2.625-5.217s2.592,11.58,2.085,14.177a41.085,41.085,0,0,1-5.855,14.836,38.022,38.022,0,0,0-5.036,11.445l-4.934-1.5Z" transform="translate(-64.165 -34.066)" fill="#2c4556"/>
            <path id="Trazado_1025883" data-name="Trazado 1025883" d="M211.328,239.55s1.789,11.708,10.5,11.58,14.058-9.544,17.493-21,9.926-32.7,13.743-36.649,8.271-11.2,9.035-16.161-1.272-3.945-1.272-3.945,2.163-6.235-.128-6.745c.891-6.745.382-8.152-1.018-7.385s-7.253,13.081-7.253,13.081,4.326-12.822,3.181-14.6-2.291-.645-3.691,1.523-5.981,12.348-5.981,12.348-2.672.89-3.69-1.464-3.563-4.263-4.835-4.263-2.5,1.909-.615,4.263,2.4,10.88,2.141,12.789-1.97,11.064-6.712,16.794-19.63,26.217-20.9,39.833" transform="translate(-91.425 -33.365)" fill="#e48464"/>
            <path id="Trazado_1025884" data-name="Trazado 1025884" d="M217.236,169.278s-2.576,7.476-3.912,10.149" transform="translate(-47.959 -36.009)" fill="none" stroke="#a0533f" stroke-miterlimit="10" stroke-width="0.75"/>
            <path id="Trazado_1025885" data-name="Trazado 1025885" d="M215.246,177.845a40.473,40.473,0,0,1-2.084,7.412" transform="translate(-45.841 -37.832)" fill="none" stroke="#a0533f" stroke-miterlimit="10" stroke-width="0.75"/>
            <path id="Trazado_1025886" data-name="Trazado 1025886" d="M265.252,212.187c-.246-.575-10.415,11.764-15.1,23.321" transform="translate(-124.967 -45.133)" fill="none" stroke="#a0533f" stroke-miterlimit="10" stroke-width="1"/>
            <path id="Trazado_1025887" data-name="Trazado 1025887" d="M258.506,260.582a12.242,12.242,0,0,1,9.7,4.772c-3.04,4.716-6.893,7.771-11.83,7.843-4.538.067-7.195-3.077-8.7-6.106a12.269,12.269,0,0,1,10.833-6.508" transform="translate(-125.97 -55.432)" fill="#c6684f"/>
            <path id="Trazado_1025888" data-name="Trazado 1025888" d="M152.112,186.338s-11.724,16.675-14.651,25.883" transform="translate(76.89 -39.638)" fill="none" stroke="#a0533f" stroke-miterlimit="10" stroke-width="1"/>
            <path id="Trazado_1025889" data-name="Trazado 1025889" d="M145.461,234.985a12.309,12.309,0,0,1,7.591,2.616,54.183,54.183,0,0,1-10.025,10.605c-2.994,2.636-5.165,3.625-9.354,2.914a12.372,12.372,0,0,1,11.789-16.136" transform="translate(79.395 -49.987)" fill="#c6684f"/>
            <path id="Trazado_1025890" data-name="Trazado 1025890" d="M240.009,261.181s-14.149,46.119-1.3,80.478" transform="translate(-86.47 -55.559)" fill="none" stroke="#fff2e3" stroke-miterlimit="10" stroke-width="0.97"/>
            <path id="Trazado_1025891" data-name="Trazado 1025891" d="M194.674,12c2.111,3.354,2.758,8.04,3.262,13.3A32.344,32.344,0,0,0,188,20.4c-10.116-3.357-15.1-14.6-17.044-20.372C181.769-.362,189.961,4.512,194.674,12" transform="translate(4.7 0)" fill="#541610"/>
            <path id="Trazado_1025892" data-name="Trazado 1025892" d="M98.608,273.132l-2.4-1.558H29.014L0,328.369H61.272Z" transform="translate(238.614 -57.77)" fill="#b2b2b2"/>
            <rect id="Rectángulo_414527" data-name="Rectángulo 414527" width="103.356" height="6.223" transform="translate(205.948 270.599)" fill="#cecece"/>
            <path id="Trazado_1025893" data-name="Trazado 1025893" d="M27.919,273.553H96.126L68.208,328.79H0Z" transform="translate(241.096 -58.191)" fill="#cecece"/>
            <path id="Trazado_1025894" data-name="Trazado 1025894" d="M46.11,312.172c2.67,3.663,8.461,3.991,12.933.732s5.934-8.872,3.265-12.536-8.459-3.991-12.932-.731-5.936,8.871-3.266,12.535" transform="translate(238.328 -63.262)" fill="#fff"/>
            <line id="Línea_697" data-name="Línea 697" x1="70.689" transform="translate(238.615 270.599)" fill="none" stroke="#b2b2b2" stroke-miterlimit="10" stroke-width="0.97"/>
            <rect id="Rectángulo_414528" data-name="Rectángulo 414528" width="48.498" height="6.223" transform="translate(190.116 270.599)" fill="#b2b2b2"/>
            <rect id="Rectángulo_414529" data-name="Rectángulo 414529" width="14.03" height="2.672" transform="translate(250.353 272.499)" fill="#b2b2b2"/>
            <rect id="Rectángulo_414530" data-name="Rectángulo 414530" width="7.349" height="2.672" transform="translate(227.925 272.499)" fill="#7a7774"/>
            <rect id="Rectángulo_414531" data-name="Rectángulo 414531" width="7.349" height="2.672" transform="translate(216.663 272.499)" fill="#7a7774"/>
            <path id="Trazado_1025895" data-name="Trazado 1025895" d="M320.086,345.912H283.977a10.3,10.3,0,1,1,0-20.6h36.109Z" transform="translate(-198.324 -69.201)" fill="#af1018"/>
            <path id="Trazado_1025896" data-name="Trazado 1025896" d="M320.086,345.912H283.977a10.3,10.3,0,1,1,0-20.6h36.109Z" transform="translate(-198.324 -69.201)" fill="#db5e1f"/>
            <path id="Trazado_1025897" data-name="Trazado 1025897" d="M224.787,344.911h45.221V328.556H224.787a7.761,7.761,0,0,0-7.761,7.761v.833a7.761,7.761,0,0,0,7.761,7.761" transform="translate(-103.645 -69.891)" fill="#fff"/>
            <path id="Trazado_1025898" data-name="Trazado 1025898" d="M224.786,328.556a7.76,7.76,0,0,0-7.76,7.744,7.748,7.748,0,0,1,7.576-6.131h45.405v-1.614Z" transform="translate(-103.645 -69.891)" fill="#d6c7b4"/>
            <g id="Grupo_1172266" data-name="Grupo 1172266" transform="translate(86.652 256.111)" opacity="0.35">
              <g id="Grupo_1172265" data-name="Grupo 1172265">
                <g id="Grupo_1172264" data-name="Grupo 1172264" clip-path="url(#clip-path-13)">
                  <path id="Trazado_1025899" data-name="Trazado 1025899" d="M303.351,335.612h0a10.3,10.3,0,0,1,10.3-10.3h-6.81a10.3,10.3,0,0,0,0,20.6h6.81a10.3,10.3,0,0,1-10.3-10.3" transform="translate(-296.541 -325.312)" fill="#590a06"/>
                </g>
              </g>
            </g>
            <path id="Trazado_1025900" data-name="Trazado 1025900" d="M266.364,341.271l-1.9-.074c-1.207-.031-2.932-.106-5-.141s-4.484-.1-7.071-.117l-8.107-.051-8.106.05c-2.587.013-5,.086-7.071.117s-3.794.11-5,.141l-1.9.075,1.9.075c1.208.031,2.933.107,5,.141s4.484.1,7.071.117l8.106.05,8.107-.051c2.587-.015,5-.086,7.071-.117s3.795-.109,5-.141l1.9-.074" transform="translate(-104.085 -72.515)" fill="#d3cabe"/>
            <path id="Trazado_1025901" data-name="Trazado 1025901" d="M261.515,338.84l-1.9-.074c-1.207-.031-2.932-.106-5-.141s-4.484-.1-7.071-.117l-8.107-.05-8.106.05c-2.587.013-5,.086-7.071.117s-3.795.11-5,.141l-1.9.075,1.9.075c1.207.031,2.932.107,5,.141s4.484.1,7.071.117l8.106.05,8.107-.051c2.587-.015,5-.086,7.071-.117s3.795-.109,5-.141l1.9-.074" transform="translate(-95.419 -71.997)" fill="#d3cabe"/>
            <path id="Trazado_1025902" data-name="Trazado 1025902" d="M263.872,334.24l-1.9-.074c-1.207-.031-2.932-.106-5-.141s-4.484-.1-7.071-.117l-8.106-.051-8.106.05c-2.587.013-5,.086-7.071.117s-3.794.11-5,.141l-1.9.075,1.9.075c1.208.031,2.933.107,5,.141s4.484.1,7.071.117l8.106.05,8.106-.05c2.588-.015,5-.086,7.071-.117s3.795-.109,5-.141l1.9-.074" transform="translate(-99.631 -71.019)" fill="#d3cabe"/>
            <path id="Trazado_1025903" data-name="Trazado 1025903" d="M225.392,343.358a7.746,7.746,0,1,1,0-15.492h45.483v-2.554h-45.7a10.3,10.3,0,0,0,0,20.6h45.7v-2.554Z" transform="translate(-102.821 -69.201)" fill="#f27740"/>
            <g id="Grupo_1172269" data-name="Grupo 1172269" transform="translate(75.353 256.111)" opacity="0.2" style="mix-blend-mode: multiply;isolation: isolate">
              <g id="Grupo_1172268" data-name="Grupo 1172268">
                <g id="Grupo_1172267" data-name="Grupo 1172267" clip-path="url(#clip-path-14)">
                  <path id="Trazado_1025904" data-name="Trazado 1025904" d="M324.34,325.312H303.971a10.3,10.3,0,1,0,0,20.6c0-19.138,20.369-20.6,20.369-20.6" transform="translate(-293.671 -325.312)" fill="#560410"/>
                </g>
              </g>
            </g>
            <g id="Grupo_1172272" data-name="Grupo 1172272" transform="translate(75.353 256.111)" opacity="0.16" style="mix-blend-mode: multiply;isolation: isolate">
              <g id="Grupo_1172271" data-name="Grupo 1172271">
                <g id="Grupo_1172270" data-name="Grupo 1172270" clip-path="url(#clip-path-15)">
                  <path id="Trazado_1025905" data-name="Trazado 1025905" d="M307.252,325.312H278.19c-.2,0-.4.007-.6.018v-.018H241.486a10.3,10.3,0,1,0,0,20.6H277.6v-.018c.2.011.4.018.6.018l32.857-20.256Z" transform="translate(-231.186 -325.312)" fill="#1b2942"/>
                </g>
              </g>
            </g>
            <path id="Trazado_1025906" data-name="Trazado 1025906" d="M302.706,303.323h-25.5a7.274,7.274,0,1,1,0-14.548h25.5Z" transform="translate(-177.994 -61.429)" fill="#af1018"/>
            <path id="Trazado_1025907" data-name="Trazado 1025907" d="M302.706,303.323h-25.5a7.274,7.274,0,1,1,0-14.548h25.5Z" transform="translate(-177.994 -61.429)" fill="#6fb590"/>
            <path id="Trazado_1025908" data-name="Trazado 1025908" d="M235.4,302.616H267.34v-11.55H235.4a5.481,5.481,0,0,0-5.481,5.481v.588a5.481,5.481,0,0,0,5.481,5.481" transform="translate(-111.131 -61.916)" fill="#fff"/>
            <path id="Trazado_1025909" data-name="Trazado 1025909" d="M235.4,291.065a5.48,5.48,0,0,0-5.48,5.469,5.471,5.471,0,0,1,5.35-4.329h32.066v-1.14Z" transform="translate(-111.13 -61.916)" fill="#d6c7b4"/>
            <g id="Grupo_1172275" data-name="Grupo 1172275" transform="translate(91.937 233.407)" opacity="0.49" style="mix-blend-mode: multiply;isolation: isolate">
              <g id="Grupo_1172274" data-name="Grupo 1172274">
                <g id="Grupo_1172273" data-name="Grupo 1172273" clip-path="url(#clip-path-16)">
                  <path id="Trazado_1025910" data-name="Trazado 1025910" d="M277.274,297.686a7.341,7.341,0,0,0,.134,1.377h26.86v-2.59H277.383a7.249,7.249,0,0,0-.109,1.213" transform="translate(-277.274 -296.473)" fill="#1b2942"/>
                </g>
              </g>
            </g>
            <path id="Trazado_1025911" data-name="Trazado 1025911" d="M235.831,301.519a5.47,5.47,0,0,1,0-10.941h32.121v-1.8H235.68a7.274,7.274,0,0,0,0,14.548h32.272v-1.8Z" transform="translate(-110.548 -61.429)" fill="#2d4f3b"/>
            <g id="Grupo_1172278" data-name="Grupo 1172278" transform="translate(91.937 227.346)" opacity="0.49" style="mix-blend-mode: multiply;isolation: isolate">
              <g id="Grupo_1172277" data-name="Grupo 1172277">
                <g id="Grupo_1172276" data-name="Grupo 1172276" clip-path="url(#clip-path-17)">
                  <path id="Trazado_1025912" data-name="Trazado 1025912" d="M305.711,288.774H291.326a7.274,7.274,0,1,0,0,14.548c0-13.515,14.384-14.548,14.384-14.548" transform="translate(-284.052 -288.774)" fill="#1b2942"/>
                </g>
              </g>
            </g>
            <path id="Trazado_1025913" data-name="Trazado 1025913" d="M263.968,301.62l-1.261-.086c-.8-.036-1.949-.123-3.325-.163s-2.981-.113-4.7-.142-3.555-.044-5.389-.054c-1.834.009-3.669.015-5.389.053s-3.325.1-4.7.141-2.522.128-3.325.164l-1.261.087,1.261.087c.8.036,1.949.124,3.325.164s2.981.115,4.7.141,3.555.044,5.389.053c1.834-.009,3.67-.016,5.389-.054s3.325-.1,4.7-.141,2.523-.128,3.325-.164l1.261-.086" transform="translate(-111.453 -64.067)" fill="#d3cabe"/>
            <path id="Trazado_1025914" data-name="Trazado 1025914" d="M261.195,298.341l-1.261-.037-3.325-.087-4.7-.068-5.389-.029-5.389.029-4.7.068c-2.752.06-4.587.125-4.587.125s1.834.065,4.587.125l4.7.068,5.389.029,5.389-.03,4.7-.068,3.325-.087,1.261-.037" transform="translate(-106.496 -63.417)" fill="#d3cabe"/>
            <path id="Trazado_1025915" data-name="Trazado 1025915" d="M220.985,321.581H246.1a7.164,7.164,0,0,0,0-14.328H220.985Z" transform="translate(-90.017 -65.36)" fill="#af1018"/>
            <path id="Trazado_1025916" data-name="Trazado 1025916" d="M220.985,321.581H246.1a7.164,7.164,0,0,0,0-14.328H220.985Z" transform="translate(-90.017 -65.36)" fill="#fdb03e"/>
            <path id="Trazado_1025917" data-name="Trazado 1025917" d="M286.031,320.885H254.58V309.51h31.451a5.4,5.4,0,0,1,5.4,5.4v.579a5.4,5.4,0,0,1-5.4,5.4" transform="translate(-154.631 -65.84)" fill="#fff"/>
            <path id="Trazado_1025918" data-name="Trazado 1025918" d="M286.031,309.51a5.4,5.4,0,0,1,5.4,5.386,5.389,5.389,0,0,0-5.269-4.263H254.58V309.51Z" transform="translate(-154.631 -65.84)" fill="#d6c7b4"/>
            <path id="Trazado_1025919" data-name="Trazado 1025919" d="M234.138,314.417h0a7.163,7.163,0,0,0-7.163-7.163h4.736a7.163,7.163,0,1,1,0,14.327h-4.736a7.164,7.164,0,0,0,7.163-7.163" transform="translate(-80.345 -65.36)" fill="#bc8d2f"/>
            <path id="Trazado_1025920" data-name="Trazado 1025920" d="M285.044,319.8a5.387,5.387,0,1,0,0-10.775H253.411v-1.776h31.782a7.163,7.163,0,1,1,0,14.327H253.411V319.8Z" transform="translate(-154.638 -65.36)" fill="#bc8d2f"/>
            <g id="Grupo_1172281" data-name="Grupo 1172281" transform="translate(141.915 241.894)" opacity="0.2" style="mix-blend-mode: overlay;isolation: isolate">
              <g id="Grupo_1172280" data-name="Grupo 1172280">
                <g id="Grupo_1172279" data-name="Grupo 1172279" clip-path="url(#clip-path-18)">
                  <path id="Trazado_1025921" data-name="Trazado 1025921" d="M220.985,307.254h14.167a7.164,7.164,0,0,1,0,14.328c0-13.31-14.167-14.328-14.167-14.328" transform="translate(-220.985 -307.254)" fill="#fefefe"/>
                </g>
              </g>
            </g>
            <path id="Trazado_1025922" data-name="Trazado 1025922" d="M290.795,319.992l-1.312-.067c-.836-.028-2.029-.1-3.462-.128s-3.1-.093-4.893-.106l-5.609-.046-5.609.046c-1.79.011-3.461.077-4.894.105s-2.625.1-3.461.128l-1.312.068,1.312.068c.836.028,2.029.1,3.461.128s3.1.094,4.894.105l5.609.046,5.609-.046c1.79-.013,3.461-.078,4.893-.106s2.626-.1,3.462-.128l1.312-.067" transform="translate(-158.456 -67.996)" fill="#d3cabe"/>
            <path id="Trazado_1025923" data-name="Trazado 1025923" d="M288.422,318.1l-1.313-.067c-.835-.028-2.029-.1-3.461-.128s-3.1-.093-4.893-.106l-5.609-.046-5.609.046c-1.79.011-3.461.077-4.894.105s-2.626.1-3.461.128l-1.312.068,1.312.068c.835.028,2.029.1,3.461.128s3.1.094,4.894.105l5.609.046,5.609-.046c1.79-.013,3.461-.078,4.893-.106s2.626-.1,3.461-.128l1.313-.067" transform="translate(-154.215 -67.593)" fill="#d3cabe"/>
            <path id="Trazado_1025924" data-name="Trazado 1025924" d="M291.916,313.576l-1.313-.067c-.835-.028-2.029-.1-3.461-.128s-3.1-.093-4.893-.106l-5.609-.046-5.609.046c-1.79.011-3.461.077-4.893.105s-2.626.1-3.462.128l-1.312.068,1.312.068c.835.028,2.029.1,3.462.128s3.1.094,4.893.105l5.609.046,5.609-.046c1.79-.013,3.461-.078,4.893-.106s2.626-.1,3.461-.128l1.313-.067" transform="translate(-160.459 -66.631)" fill="#d3cabe"/>
            <g id="Grupo_1172284" data-name="Grupo 1172284" transform="translate(98.773 241.894)" opacity="0.16" style="mix-blend-mode: multiply;isolation: isolate">
              <g id="Grupo_1172283" data-name="Grupo 1172283">
                <g id="Grupo_1172282" data-name="Grupo 1172282" clip-path="url(#clip-path-19)">
                  <path id="Trazado_1025925" data-name="Trazado 1025925" d="M266.776,307.254v1.776h1.176V319.8h-1.176v1.777h4.768L295.2,307.254Z" transform="translate(-266.776 -307.254)" fill="#1b2942"/>
                </g>
              </g>
            </g>
            <rect id="Rectángulo_414539" data-name="Rectángulo 414539" width="4.251" height="6.418" transform="translate(146.503 232.94)" fill="#f27740"/>
            <path id="Trazado_1025926" data-name="Trazado 1025926" d="M234.615,295.834s.475.055,1.186.1c.356.014.771.046,1.216.053l1.394.023,1.394-.023c.445-.006.86-.039,1.216-.053.712-.042,1.186-.1,1.186-.1s-.475-.056-1.186-.1c-.356-.014-.771-.047-1.216-.053l-1.394-.023-1.394.023c-.445.007-.86.039-1.216.053-.712.043-1.186.1-1.186.1" transform="translate(-89.692 -62.894)" fill="#d3cabe"/>
            <path id="Trazado_1025927" data-name="Trazado 1025927" d="M367.589,196.222s28.77,35.016,10.335,76.46c-31.995-27.695-10.82-62.789-10.335-76.46" transform="translate(-330.503 -41.741)" fill="#599172"/>
            <path id="Trazado_1025928" data-name="Trazado 1025928" d="M367.4,196.222s13.777,49.37,10.335,76.46" transform="translate(-330.318 -41.741)" fill="none" stroke="#427824" stroke-miterlimit="10" stroke-width="1"/>
            <path id="Trazado_1025929" data-name="Trazado 1025929" d="M384.959,234.344s-6.953-5.928-13.086-6.987" transform="translate(-340.504 -48.364)" fill="none" stroke="#427824" stroke-miterlimit="10" stroke-width="1"/>
            <path id="Trazado_1025930" data-name="Trazado 1025930" d="M385.311,264.235a26.219,26.219,0,0,0-17.284-9.749" transform="translate(-337.828 -54.135)" fill="none" stroke="#427824" stroke-miterlimit="10" stroke-width="1"/>
            <path id="Trazado_1025931" data-name="Trazado 1025931" d="M361.765,247.405s2.053-4.848,6.543-6.826" transform="translate(-315.895 -51.177)" fill="none" stroke="#427824" stroke-miterlimit="10" stroke-width="1"/>
            <path id="Trazado_1025932" data-name="Trazado 1025932" d="M370.433,220.464s1.52-5.181,3.587-6.414" transform="translate(-328.431 -45.533)" fill="none" stroke="#427824" stroke-miterlimit="10" stroke-width="1"/>
            <path id="Trazado_1025933" data-name="Trazado 1025933" d="M363.73,198.863s11.8,43.756-22.067,73.932c-17.752-38.413,16-61.673,22.067-73.932" transform="translate(-293.46 -42.303)" fill="#6fb590"/>
            <path id="Trazado_1025934" data-name="Trazado 1025934" d="M361.15,198.863s-7.777,50.663-22.067,73.932" transform="translate(-290.88 -42.303)" fill="none" stroke="#448260" stroke-miterlimit="10" stroke-width="1"/>
            <path id="Trazado_1025935" data-name="Trazado 1025935" d="M356.077,236s-3.895-8.266-9.047-11.756" transform="translate(-292.064 -47.702)" fill="none" stroke="#448260" stroke-miterlimit="10" stroke-width="1"/>
            <path id="Trazado_1025936" data-name="Trazado 1025936" d="M367.877,264.355a26.221,26.221,0,0,0-11.736-16" transform="translate(-311.036 -52.831)" fill="none" stroke="#448260" stroke-miterlimit="10" stroke-width="1"/>
            <path id="Trazado_1025937" data-name="Trazado 1025937" d="M339.609,250.826s3.867-3.572,8.773-3.526" transform="translate(-278.527 -52.606)" fill="none" stroke="#448260" stroke-miterlimit="10" stroke-width="1"/>
            <path id="Trazado_1025938" data-name="Trazado 1025938" d="M336.583,223.924s3.519-4.1,5.91-4.368" transform="translate(-270.255 -46.705)" fill="none" stroke="#448260" stroke-miterlimit="10" stroke-width="1"/>
            <path id="Trazado_1025939" data-name="Trazado 1025939" d="M424.411,217.194s-7.824-11.041-13-6.719,3.591,10.292,13,6.719" transform="translate(-409.874 -44.559)" fill="#417556"/>
            <path id="Trazado_1025940" data-name="Trazado 1025940" d="M408.769,250.97s-.329-13.528-7.034-12.829-2.765,10.543,7.034,12.829" transform="translate(-385.197 -50.653)" fill="#417556"/>
            <path id="Trazado_1025941" data-name="Trazado 1025941" d="M406.626,212.836s-.329-13.528-7.034-12.829-2.765,10.543,7.034,12.829" transform="translate(-381.367 -42.54)" fill="#417556"/>
            <path id="Trazado_1025942" data-name="Trazado 1025942" d="M372.015,263.343s11.785-6.651,8.016-12.241-10.605,2.517-8.016,12.241" transform="translate(-335.981 -53.026)" fill="#417556"/>
            <path id="Trazado_1025943" data-name="Trazado 1025943" d="M407.536,280.857s-13.072-8.344-7.907-30.279-15.221-31.472-19.709-33.265" transform="translate(-369.415 -46.227)" fill="none" stroke="#133f1a" stroke-linecap="round" stroke-miterlimit="10" stroke-width="2"/>
            <path id="Trazado_1025944" data-name="Trazado 1025944" d="M398.86,227.528s.794-9.687-3.959-16.11" transform="translate(-372.584 -44.973)" fill="none" stroke="#133f1a" stroke-linecap="round" stroke-miterlimit="10" stroke-width="2"/>
            <path id="Trazado_1025945" data-name="Trazado 1025945" d="M400.569,257.036s-7.727-2.124-10.605-9.362" transform="translate(-370.357 -52.686)" fill="none" stroke="#133f1a" stroke-linecap="round" stroke-miterlimit="10" stroke-width="2"/>
            <path id="Trazado_1025946" data-name="Trazado 1025946" d="M379.3,273.376s7.227-4.485,9.326-15.208" transform="translate(-350.009 -54.918)" fill="none" stroke="#133f1a" stroke-linecap="round" stroke-miterlimit="10" stroke-width="2"/>
            <path id="Trazado_1025947" data-name="Trazado 1025947" d="M363.013,285.637h20.428s-3.149,36.952-11.114,51.947H353.7c-7.965-14.994-11.114-51.947-11.114-51.947Z" transform="translate(-315.929 -60.761)" fill="#2c4556"/>
            <g id="Grupo_1172287" data-name="Grupo 1172287" transform="translate(46.92 224.875)" opacity="0.45">
              <g id="Grupo_1172286" data-name="Grupo 1172286">
                <g id="Grupo_1172285" data-name="Grupo 1172285" clip-path="url(#clip-path-20)">
                  <path id="Trazado_1025948" data-name="Trazado 1025948" d="M363.178,285.637s-3.149,36.952-11.114,51.947h-9.479c7.965-14.994,11.114-51.947,11.114-51.947Z" transform="translate(-342.585 -285.637)" fill="#1b2e38"/>
                </g>
              </g>
            </g>
            <path id="Trazado_1025949" data-name="Trazado 1025949" d="M383.441,285.637s-.259,3.04-.816,7.724H343.4c-.557-4.684-.816-7.724-.816-7.724h40.857Z" transform="translate(-315.929 -60.761)" fill="#4b72b7"/>
            <path id="Trazado_1025950" data-name="Trazado 1025950" d="M21.885,357.046a5.426,5.426,0,0,0,5.426,5.426H317.794a5.426,5.426,0,0,0,0-10.852H27.311a5.426,5.426,0,0,0-5.426,5.426" transform="translate(-3.227 -74.798)" fill="#4b72b7"/>
            <g id="Grupo_1172290" data-name="Grupo 1172290" transform="translate(197.137 276.822)" opacity="0.52">
              <g id="Grupo_1172289" data-name="Grupo 1172289">
                <g id="Grupo_1172288" data-name="Grupo 1172288" clip-path="url(#clip-path-21)">
                  <path id="Trazado_1025951" data-name="Trazado 1025951" d="M21.885,357.046a5.426,5.426,0,0,0,5.426,5.426h112a5.426,5.426,0,1,0,0-10.852h-112a5.426,5.426,0,0,0-5.426,5.426" transform="translate(-21.885 -351.62)" fill="#2c4556"/>
                </g>
              </g>
            </g>
          </g>
        </g>
      </g>
    </g>
  </g>
</svg>
