<svg xmlns="http://www.w3.org/2000/svg" xmlns:xlink="http://www.w3.org/1999/xlink" width="97.035" height="97.035" viewBox="0 0 97.035 97.035">
  <defs>
    <filter id="Trazado_982547" x="0" y="0" width="97.035" height="97.035" filterUnits="userSpaceOnUse">
      <feOffset dy="3" input="SourceAlpha"/>
      <feGaussianBlur stdDeviation="3" result="blur"/>
      <feFlood flood-opacity="0.161"/>
      <feComposite operator="in" in2="blur"/>
      <feComposite in="SourceGraphic"/>
    </filter>
    <clipPath id="clip-path">
      <path id="path3015" d="M0-682.665H46.544v46.544H0Z" transform="translate(0 682.665)"/>
    </clipPath>
  </defs>
  <g id="Grupo_1172864" data-name="Grupo 1172864" transform="translate(-819 -1032)">
    <g id="Grupo_1172236" data-name="Grupo 1172236" transform="translate(629.591 -1504.582)">
      <g id="Grupo_1166162" data-name="Grupo 1166162" transform="translate(-607.781 577.058)">
        <g id="Grupo_1164703" data-name="Grupo 1164703" transform="translate(806.19 1965.523)">
          <g id="Grupo_1160931" data-name="Grupo 1160931" transform="translate(0 0)">
            <g id="Grupo_1160749" data-name="Grupo 1160749" transform="translate(0 0)">
              <g id="Grupo_1158891" data-name="Grupo 1158891" transform="translate(0 0)">
                <g id="Grupo_1157406" data-name="Grupo 1157406" transform="translate(0 0)">
                  <g id="Grupo_1155793" data-name="Grupo 1155793" transform="translate(0 0)">
                    <g id="Grupo_1154704" data-name="Grupo 1154704">
                      <g id="Grupo_1150790" data-name="Grupo 1150790">
                        <g id="Grupo_1154214" data-name="Grupo 1154214">
                          <g id="Grupo_1152583" data-name="Grupo 1152583">
                            <g id="Grupo_1146973" data-name="Grupo 1146973">
                              <g id="Grupo_1146954" data-name="Grupo 1146954">
                                <g transform="matrix(1, 0, 0, 1, -9, -6)" filter="url(#Trazado_982547)">
                                  <g id="Trazado_982547-2" data-name="Trazado 982547" transform="translate(9 6)" fill="#edf3fc">
                                    <path d="M 39.51754379272461 77.53498077392578 C 34.38454437255859 77.53498077392578 29.40588760375977 76.53001403808594 24.7198657989502 74.54798889160156 C 20.19293212890625 72.63327026367188 16.12703323364258 69.89185333251953 12.63507747650146 66.39990997314453 C 9.143132209777832 62.90796661376953 6.401721477508545 58.84206771850586 4.486988067626953 54.31515884399414 C 2.504966020584106 49.62913513183594 1.499999403953552 44.65047836303711 1.499999403953552 39.51749038696289 C 1.499999403953552 34.38450241088867 2.504966020584106 29.40584564208984 4.486988067626953 24.71982383728027 C 6.401721477508545 20.19291305541992 9.143132209777832 16.12701225280762 12.63507747650146 12.6350679397583 C 16.12703323364258 9.143123626708984 20.19293212890625 6.401712417602539 24.7198657989502 4.486990451812744 C 29.40588760375977 2.504968166351318 34.38454437255859 1.500001549720764 39.51754379272461 1.500001549720764 C 44.65054321289062 1.500001549720764 49.62919998168945 2.504968166351318 54.31523132324219 4.486990451812744 C 58.84215545654297 6.401712417602539 62.90806579589844 9.143123626708984 66.40000915527344 12.6350679397583 C 69.89195251464844 16.12701225280762 72.63337707519531 20.19291305541992 74.548095703125 24.71982383728027 C 76.53012084960938 29.40584564208984 77.53508758544922 34.38450241088867 77.53508758544922 39.51749038696289 C 77.53508758544922 44.65047836303711 76.53012084960938 49.62913513183594 74.548095703125 54.31515884399414 C 72.63337707519531 58.84206771850586 69.89195251464844 62.90796661376953 66.40000915527344 66.39990997314453 C 62.90806579589844 69.89185333251953 58.84215545654297 72.63327026367188 54.31523132324219 74.54798889160156 C 49.62919998168945 76.53001403808594 44.65054321289062 77.53498077392578 39.51754379272461 77.53498077392578 Z" stroke="none"/>
                                    <path d="M 39.51754379272461 3 C 34.58638000488281 3 29.80431747436523 3.965103149414062 25.30418014526367 5.868492126464844 C 20.9560546875 7.707588195800781 17.05040740966797 10.34104919433594 13.69573211669922 13.69572448730469 C 10.34105682373047 17.0504035949707 7.707595825195312 20.95603942871094 5.868492126464844 25.30415344238281 C 3.965095520019531 29.80427932739258 2.999992370605469 34.58634185791016 2.999992370605469 39.51749038696289 C 2.999992370605469 44.44863891601562 3.965095520019531 49.23070526123047 5.868492126464844 53.73082733154297 C 7.707595825195312 58.07894134521484 10.34105682373047 61.98457717895508 13.69573211669922 65.33924865722656 C 17.05040740966797 68.69392395019531 20.9560546875 71.327392578125 25.30418014526367 73.16648864746094 C 29.80431747436523 75.06987762451172 34.58638000488281 76.03498077392578 39.51754379272461 76.03498077392578 C 44.44870758056641 76.03498077392578 49.23076629638672 75.06987762451172 53.73089599609375 73.16648864746094 C 58.07901763916016 71.327392578125 61.98466873168945 68.69392395019531 65.33934020996094 65.33924865722656 C 68.69401550292969 61.98457717895508 71.32748413085938 58.07894134521484 73.16658020019531 53.73082733154297 C 75.06998443603516 49.23070526123047 76.03507995605469 44.44863891601562 76.03507995605469 39.51749038696289 C 76.03507995605469 34.58634185791016 75.06998443603516 29.80427932739258 73.16658020019531 25.30415344238281 C 71.32748413085938 20.95603942871094 68.69401550292969 17.0504035949707 65.33934020996094 13.69572448730469 C 61.98466873168945 10.34104919433594 58.07901763916016 7.707588195800781 53.73089599609375 5.868492126464844 C 49.23076629638672 3.965103149414062 44.44870758056641 3 39.51754379272461 3 M 39.51754379272461 0 C 61.34248352050781 0 79.03507995605469 17.69257736206055 79.03507995605469 39.51749038696289 C 79.03507995605469 61.34240341186523 61.34248352050781 79.03498077392578 39.51754379272461 79.03498077392578 C 17.69260787963867 79.03498077392578 -7.62939453125e-06 61.34240341186523 -7.62939453125e-06 39.51749038696289 C -7.62939453125e-06 17.69257736206055 17.69260787963867 0 39.51754379272461 0 Z" stroke="none" fill="#5692e8"/>
                                  </g>
                                </g>
                              </g>
                            </g>
                          </g>
                        </g>
                      </g>
                    </g>
                  </g>
                </g>
              </g>
            </g>
          </g>
        </g>
      </g>
    </g>
    <g id="g3009" transform="translate(845 1737.665)">
      <g id="g3011" transform="translate(0 -682.665)">
        <g id="g3013" clip-path="url(#clip-path)">
          <g id="g3019" transform="translate(11.116 29.005)">
            <path id="path3021" d="M0-162.786c0-7.948,5.047-11,5.047-11l14.218-.909a15.575,15.575,0,0,1,5.047,11.911Z" transform="translate(0 174.697)" fill="#ffb4bf"/>
          </g>
          <g id="g3023" transform="translate(31.85 0.702)">
            <path id="path3025" d="M-23.865-19.047a4.758,4.758,0,0,1,6.729,0,4.758,4.758,0,0,1,0,6.729c-1.858,1.858-5.5,2.485-7.356.627s-1.231-5.5.627-7.356" transform="translate(25.611 20.441)" fill="#4c5698"/>
          </g>
          <g id="g3027" transform="translate(5.951 0.697)">
            <path id="path3029" d="M0-236.724a17.34,17.34,0,0,1,17.321-17.321,17.34,17.34,0,0,1,17.321,17.321Z" transform="translate(0 254.045)" fill="#696eb1"/>
          </g>
          <g id="g3031" transform="translate(4.825 0.702)">
            <path id="path3033" d="M-124.41-37.435a5.655,5.655,0,0,0-.98-1.345,4.758,4.758,0,0,0-6.729,0,4.758,4.758,0,0,0,0,6.729,5.82,5.82,0,0,0,1.712,1.161,17.213,17.213,0,0,0-1.979,8.032h6.149A21.8,21.8,0,0,1-117.561-40a17.214,17.214,0,0,0-6.85,2.564" transform="translate(133.513 40.174)" fill="#4c5698"/>
          </g>
          <g id="g3035" transform="translate(34.066 16.013)">
            <path id="path3037" d="M0-49.214a3.6,3.6,0,0,0,3.6,3.6,3.6,3.6,0,0,0,3.6-3.6,3.6,3.6,0,0,0-3.6-3.6,3.6,3.6,0,0,0-3.6,3.6" transform="translate(0 52.815)" fill="#c7856a"/>
          </g>
          <g id="g3039" transform="translate(14.534 29.005)">
            <path id="path3041" d="M-216.579,0-230.8.909a8.463,8.463,0,0,0-1.629,1.421,17.5,17.5,0,0,0,8.721,2.264h.163a17.531,17.531,0,0,0,8.928-2.436A11.772,11.772,0,0,0-216.579,0" transform="translate(232.426 0)" fill="#ff8d9d"/>
          </g>
          <g id="g3043" transform="translate(9.055 10.35)">
            <path id="path3045" d="M-368.37-18.369a1.087,1.087,0,0,0-1.623-.393,4.551,4.551,0,0,1-2.733.907,4.563,4.563,0,0,1-3.393-1.506,1.081,1.081,0,0,0-1.595,0,4.563,4.563,0,0,1-3.393,1.506,4.563,4.563,0,0,1-3.393-1.506,1.081,1.081,0,0,0-1.595,0,4.563,4.563,0,0,1-3.393,1.506,4.551,4.551,0,0,1-2.733-.907,1.084,1.084,0,0,0-1.617.382,14.156,14.156,0,0,0-1.486,6.335c0,7.846,6.5,13.376,14.343,13.308,7.794-.068,14.091-5.5,14.091-13.307a14.155,14.155,0,0,0-1.481-6.324" transform="translate(395.323 19.713)" fill="#da9d81"/>
          </g>
          <g id="g3047" transform="translate(5.277 11.085)">
            <path id="path3049" d="M-130.038-242.345a21.733,21.733,0,0,1-2.695-10.513,21.826,21.826,0,0,1,.976-6.473,4.571,4.571,0,0,1-.914-.53,1.084,1.084,0,0,0-1.617.382,14.119,14.119,0,0,0-1.347,4.345c-.1-.009-.208-.015-.317-.015a3.6,3.6,0,0,0-3.6,3.6,3.6,3.6,0,0,0,3.6,3.6,3.079,3.079,0,0,0,1.141-.207,12.917,12.917,0,0,0,4.773,5.81" transform="translate(139.553 260.077)" fill="#c7856a"/>
          </g>
          <g id="g3051" transform="translate(12.038 21.458)">
            <path id="path3053" d="M-82.762-32.954c0,1.332-1.355,2.411-3.028,2.411s-3.028-1.08-3.028-2.411,1.356-2.411,3.028-2.411,3.028,1.08,3.028,2.411" transform="translate(88.817 35.365)" fill="#eeedff"/>
          </g>
          <g id="g3055" transform="translate(28.45 21.458)">
            <path id="path3057" d="M0-32.954c0,1.332,1.356,2.411,3.028,2.411s3.028-1.08,3.028-2.411S4.7-35.365,3.028-35.365,0-34.286,0-32.954" transform="translate(0 35.365)" fill="#eeedff"/>
          </g>
          <path id="path3059" d="M55.18-91.779H10v-5.968H55.18Z" transform="translate(-9.318 137.626)" fill="#71dbba"/>
          <g id="g3061" transform="translate(9.055 27.785)">
            <path id="path3063" d="M-57.364,0h0a4.2,4.2,0,0,0-4.2,4.2,2.524,2.524,0,0,0,2.524,2.524h3.346A2.524,2.524,0,0,0-53.167,4.2a4.2,4.2,0,0,0-4.2-4.2" transform="translate(61.561 0)" fill="#c7856a"/>
          </g>
          <g id="g3065" transform="translate(16.106 34.506)">
            <path id="path3067" d="M-172.962-87.6H-183.94l-1.677-3.2,1.677-3.2h10.978l1.666,3.2Z" transform="translate(185.617 94.014)" fill="#fce29f"/>
          </g>
          <g id="g3069" transform="translate(6.804 34.506)">
            <path id="path3071" d="M-29.434,0a2.154,2.154,0,0,0-2.154,2.154v2.1A2.154,2.154,0,0,0-29.434,6.41h8.825V0Z" transform="translate(31.588)" fill="#ff8d9d"/>
          </g>
          <g id="g3073" transform="translate(28.761 34.506)">
            <path id="path3075" d="M-120.608,0h-8.825V6.41h8.825a2.154,2.154,0,0,0,2.154-2.154v-2.1A2.154,2.154,0,0,0-120.608,0" transform="translate(129.433)" fill="#c8a9f1"/>
          </g>
          <g id="g3077" transform="translate(6.804 34.506)">
            <path id="path3079" d="M-42.008-21.673a7,7,0,0,1,.183-1.586h-1.1A2.154,2.154,0,0,0-45.081-21.1V-19a2.154,2.154,0,0,0,2.154,2.154h2.858a6.954,6.954,0,0,1-1.938-4.824" transform="translate(45.081 23.259)" fill="#e95b70"/>
          </g>
          <g id="g3081" transform="translate(17.783 34.506)">
            <path id="path3083" d="M-68.5-87.6a6.953,6.953,0,0,1-1.938-4.824,7,7,0,0,1,.183-1.586h-3.257v6.41Z" transform="translate(73.512 94.014)" fill="#ffcd71"/>
          </g>
          <g id="g3085" transform="translate(28.761 34.506)">
            <path id="path3087" d="M-68.5-87.6a6.954,6.954,0,0,1-1.938-4.824,7,7,0,0,1,.183-1.586h-3.257v6.41Z" transform="translate(73.513 94.014)" fill="#b18ae3"/>
          </g>
          <g id="g3089" transform="translate(16.831 20.31)">
            <path id="path3091" d="M0,0V1.238" fill="none" stroke="#000" stroke-linecap="round" stroke-linejoin="round" stroke-miterlimit="10" stroke-width="1.5"/>
          </g>
          <g id="g3093" transform="translate(29.713 20.31)">
            <path id="path3095" d="M0,0V1.238" fill="none" stroke="#000" stroke-linecap="round" stroke-linejoin="round" stroke-miterlimit="10" stroke-width="1.5"/>
          </g>
          <g id="g3097" transform="translate(21.574 21.511)">
            <path id="path3099" d="M0,0A2.246,2.246,0,0,0,1.7.774,2.246,2.246,0,0,0,3.4,0" fill="none" stroke="#000" stroke-linecap="round" stroke-linejoin="round" stroke-miterlimit="10" stroke-width="1.5"/>
          </g>
          <g id="g3101" transform="translate(6.804 34.506)">
            <path id="path3103" d="M-29.434,0a2.154,2.154,0,0,0-2.154,2.154v2.1A2.154,2.154,0,0,0-29.434,6.41h8.825V0Z" transform="translate(31.588)" fill="none" stroke="#000" stroke-linecap="round" stroke-linejoin="round" stroke-miterlimit="10" stroke-width="1.5"/>
          </g>
          <g id="g3105" transform="translate(28.761 34.506)">
            <path id="path3107" d="M-120.608,0h-8.825V6.41h8.825a2.154,2.154,0,0,0,2.154-2.154v-2.1A2.154,2.154,0,0,0-120.608,0Z" transform="translate(129.433)" fill="none" stroke="#000" stroke-linecap="round" stroke-linejoin="round" stroke-miterlimit="10" stroke-width="1.5"/>
          </g>
          <path id="path3109" d="M271.8-170.155H260.822v-6.41H271.8Z" transform="translate(-243.039 211.071)" fill="none" stroke="#000" stroke-linecap="round" stroke-linejoin="round" stroke-miterlimit="10" stroke-width="1.5"/>
          <g id="g3111" transform="translate(4.825 0.702)">
            <path id="path3113" d="M-42.452-126.882a17.446,17.446,0,0,1,6-6.545,5.66,5.66,0,0,0-.98-1.346,4.758,4.758,0,0,0-6.729,0,4.758,4.758,0,0,0,0,6.729A5.82,5.82,0,0,0-42.452-126.882Z" transform="translate(45.558 136.166)" fill="none" stroke="#000" stroke-linecap="round" stroke-linejoin="round" stroke-miterlimit="10" stroke-width="1.5"/>
          </g>
          <g id="g3115" transform="translate(32.617 0.859)">
            <path id="path3117" d="M-42.815,0a4.734,4.734,0,0,0-2.153,1.236,5.654,5.654,0,0,0-.98,1.346,17.446,17.446,0,0,1,6,6.545,5.82,5.82,0,0,0,1.712-1.161,4.758,4.758,0,0,0,0-6.729A4.738,4.738,0,0,0-40.091.089" transform="translate(45.948)" fill="none" stroke="#000" stroke-linecap="round" stroke-linejoin="round" stroke-miterlimit="10" stroke-width="1.5"/>
          </g>
          <g id="g3119" transform="translate(5.959 0.697)">
            <path id="path3121" d="M-39.883-209.326c.107,0,.212.006.317.015a14.116,14.116,0,0,1,1.347-4.345,1.084,1.084,0,0,1,1.617-.382,4.551,4.551,0,0,0,2.733.907,4.563,4.563,0,0,0,3.393-1.506,1.081,1.081,0,0,1,1.595,0,4.563,4.563,0,0,0,3.393,1.506,4.563,4.563,0,0,0,3.393-1.506,1.081,1.081,0,0,1,1.595,0,4.563,4.563,0,0,0,3.393,1.506,4.551,4.551,0,0,0,2.733-.907,1.087,1.087,0,0,1,1.623.393,14.115,14.115,0,0,1,1.342,4.334c.1-.009.21-.015.317-.015a3.6,3.6,0,0,1,2.918,1.492,17.341,17.341,0,0,0-17.313-16.808A17.341,17.341,0,0,0-42.8-207.834,3.6,3.6,0,0,1-39.883-209.326Z" transform="translate(42.801 224.642)" fill="none" stroke="#000" stroke-linecap="round" stroke-linejoin="round" stroke-miterlimit="10" stroke-width="1.5"/>
          </g>
          <g id="g3123" transform="translate(5.277 16.013)">
            <path id="path3125" d="M-51.638-27.4a14.337,14.337,0,0,1,.139-1.99c-.1-.009-.21-.015-.317-.015a3.6,3.6,0,0,0-3.6,3.6,3.6,3.6,0,0,0,3.6,3.6,3.6,3.6,0,0,0,1.148-.188A13.1,13.1,0,0,1-51.638-27.4Z" transform="translate(55.416 29.401)" fill="none" stroke="#000" stroke-linecap="round" stroke-linejoin="round" stroke-miterlimit="10" stroke-width="1.5"/>
          </g>
          <g id="g3127" transform="translate(36.532 16.013)">
            <path id="path3129" d="M-15.508,0c-.107,0-.212.006-.317.015A14.338,14.338,0,0,1-15.685,2a13.237,13.237,0,0,1-.957,5.014,3.6,3.6,0,0,0,1.135.184,3.6,3.6,0,0,0,3.6-3.6A3.6,3.6,0,0,0-15.508,0Z" transform="translate(16.643)" fill="none" stroke="#000" stroke-linecap="round" stroke-linejoin="round" stroke-miterlimit="10" stroke-width="1.5"/>
          </g>
          <g id="g3131" transform="translate(14.925 29.407)">
            <path id="path3133" d="M-217.376,0a15.419,15.419,0,0,1-7.432,1.917A15.5,15.5,0,0,1-231.245.61a4.179,4.179,0,0,1,.488,1.964A2.524,2.524,0,0,1-233.281,5.1H-214A15.039,15.039,0,0,0-217.376,0Z" transform="translate(233.281)" fill="none" stroke="#000" stroke-linecap="round" stroke-linejoin="round" stroke-miterlimit="10" stroke-width="1.5"/>
          </g>
          <g id="g3135" transform="translate(9.055 10.35)">
            <path id="path3137" d="M-368.369-18.369a1.087,1.087,0,0,0-1.623-.393,4.551,4.551,0,0,1-2.733.907,4.562,4.562,0,0,1-3.393-1.506,1.081,1.081,0,0,0-1.595,0,4.563,4.563,0,0,1-3.393,1.506,4.563,4.563,0,0,1-3.393-1.506,1.081,1.081,0,0,0-1.595,0,4.562,4.562,0,0,1-3.393,1.506,4.552,4.552,0,0,1-2.733-.906,1.084,1.084,0,0,0-1.617.382,14.152,14.152,0,0,0-1.487,6.335,12.767,12.767,0,0,0,4.4,9.772,4.2,4.2,0,0,1,3.506,2.228,15.5,15.5,0,0,0,6.437,1.308c7.794-.068,14.091-5.5,14.091-13.307A14.154,14.154,0,0,0-368.369-18.369Z" transform="translate(395.322 19.713)" fill="none" stroke="#000" stroke-linecap="round" stroke-linejoin="round" stroke-miterlimit="10" stroke-width="1.5"/>
          </g>
          <g id="g3139" transform="translate(9.055 27.785)">
            <path id="path3141" d="M-57.364,0h0a4.2,4.2,0,0,0-4.2,4.2,2.524,2.524,0,0,0,2.524,2.524h3.346A2.524,2.524,0,0,0-53.167,4.2,4.2,4.2,0,0,0-57.364,0Z" transform="translate(61.561)" fill="none" stroke="#000" stroke-linecap="round" stroke-linejoin="round" stroke-miterlimit="10" stroke-width="1.5"/>
          </g>
          <g id="g3143" transform="translate(0.682 39.88)">
            <path id="path3145" d="M-161.052-81.56h33.4v-5.968h-6.435a2.152,2.152,0,0,1-1.841,1.036h-28.628a2.152,2.152,0,0,1-1.841-1.036h-6.435v5.968h9.057" transform="translate(172.836 87.528)" fill="none" stroke="#000" stroke-linecap="round" stroke-linejoin="round" stroke-miterlimit="10" stroke-width="1.5"/>
          </g>
        </g>
      </g>
    </g>
  </g>
</svg>
