<svg xmlns="http://www.w3.org/2000/svg" xmlns:xlink="http://www.w3.org/1999/xlink" width="295" height="304" viewBox="0 0 295 304">
  <defs>
    <clipPath id="clip-path">
      <rect id="Rectángulo_414593" data-name="Rectángulo 414593" width="295" height="304" transform="translate(180 1353)" fill="#fff" stroke="#707070" stroke-width="1" opacity="0.61"/>
    </clipPath>
  </defs>
  <g id="Enmascarar_grupo_1098723" data-name="Enmascarar grupo 1098723" transform="translate(-180 -1353)" clip-path="url(#clip-path)">
    <g id="Grupo_1172924" data-name="Grupo 1172924">
      <g id="Grupo_1172923" data-name="Grupo 1172923" transform="translate(-7615.781 -36.379)">
        <path id="Trazado_1027356" data-name="Trazado 1027356" d="M280.207,46.176c22.759,25.426,39.041,57.193,44.883,90.835s-.842,70.3-22.481,96.726c-20.348,24.856-52.236,38.663-84.281,41.274s-64.261-5.142-93.923-17.559c-20.384-8.53-40.147-19.514-55.467-35.425S43.07,184.753,43.612,162.687s13.622-44.255,34.2-52.286c14.428-5.634,32.48-4.992,42.579-16.725,7.025-8.159,7.767-19.8,11.369-29.941,8.637-24.349,34.47-39.469,60.181-42.251S253.547,16.392,280.207,46.176Z" transform="translate(7753.539 1408.448)" fill="#f6ecaa"/>
        <g id="Grupo_1172922" data-name="Grupo 1172922" transform="translate(7795.781 1496.097)">
          <g id="Grupo_1172912" data-name="Grupo 1172912" transform="translate(181.428 19.407)">
            <g id="Grupo_1172908" data-name="Grupo 1172908" transform="translate(22.031)">
              <g id="Grupo_1172906" data-name="Grupo 1172906" transform="translate(0 4.379)">
                <path id="Trazado_1027357" data-name="Trazado 1027357" d="M349.672,148.22a353.77,353.77,0,0,1-22.7,55.895" transform="translate(-326.97 -148.22)" fill="none" stroke="#4d223d" stroke-miterlimit="10" stroke-width="1"/>
                <path id="Trazado_1027358" data-name="Trazado 1027358" d="M339.21,190.72a150.027,150.027,0,0,0,36.945-26.04" transform="translate(-330.48 -152.94)" fill="none" stroke="#4d223d" stroke-miterlimit="10" stroke-width="1"/>
                <path id="Trazado_1027359" data-name="Trazado 1027359" d="M358.97,190.225a65.913,65.913,0,0,0,29.335-.485" transform="translate(-336.147 -160.127)" fill="none" stroke="#4d223d" stroke-miterlimit="10" stroke-width="1"/>
              </g>
              <g id="Grupo_1172907" data-name="Grupo 1172907" transform="translate(18.323)">
                <circle id="Elipse_12388" data-name="Elipse 12388" cx="4.379" cy="4.379" r="4.379" fill="#e64363"/>
                <circle id="Elipse_12389" data-name="Elipse 12389" cx="4.379" cy="4.379" r="4.379" transform="translate(23.508 10.919)" fill="#e64363"/>
                <circle id="Elipse_12390" data-name="Elipse 12390" cx="4.379" cy="4.379" r="4.379" transform="translate(29.456 29.613)" fill="#e64363"/>
              </g>
            </g>
            <g id="Grupo_1172911" data-name="Grupo 1172911" transform="translate(0 9.464)">
              <g id="Grupo_1172909" data-name="Grupo 1172909" transform="translate(4.985 4.386)">
                <path id="Trazado_1027360" data-name="Trazado 1027360" d="M319.7,161.5a235.409,235.409,0,0,0,3.438,45.325" transform="translate(-307.824 -161.5)" fill="none" stroke="#4d223d" stroke-miterlimit="10" stroke-width="1"/>
                <path id="Trazado_1027361" data-name="Trazado 1027361" d="M332.14,173.73a38.135,38.135,0,0,1-11.39,12.117" transform="translate(-308.14 -165.007)" fill="none" stroke="#4d223d" stroke-miterlimit="10" stroke-width="1"/>
                <path id="Trazado_1027362" data-name="Trazado 1027362" d="M315.252,183.171a37.378,37.378,0,0,1-12.182-8.751" transform="translate(-303.07 -165.205)" fill="none" stroke="#4d223d" stroke-miterlimit="10" stroke-width="1"/>
              </g>
              <g id="Grupo_1172910" data-name="Grupo 1172910">
                <circle id="Elipse_12391" data-name="Elipse 12391" cx="4.379" cy="4.379" r="4.379" transform="translate(24.92 8.295)" fill="#e64363"/>
                <circle id="Elipse_12392" data-name="Elipse 12392" cx="4.379" cy="4.379" r="4.379" transform="translate(12.631)" fill="#e64363"/>
                <circle id="Elipse_12393" data-name="Elipse 12393" cx="4.379" cy="4.379" r="4.379" transform="translate(0 8.758)" fill="#e64363"/>
              </g>
            </g>
          </g>
          <g id="Grupo_1172915" data-name="Grupo 1172915" transform="translate(41.338)">
            <g id="Grupo_1172913" data-name="Grupo 1172913" transform="translate(7.154 6.854)">
              <path id="Trazado_1027363" data-name="Trazado 1027363" d="M123.85,132.75a195.9,195.9,0,0,0,47.037,67.677" transform="translate(-113.751 -126.852)" fill="none" stroke="#4d223d" stroke-miterlimit="10" stroke-width="1"/>
              <path id="Trazado_1027364" data-name="Trazado 1027364" d="M172.17,144.26q6.226,27.944,9.921,56.38" transform="translate(-127.608 -130.153)" fill="none" stroke="#4d223d" stroke-miterlimit="10" stroke-width="1"/>
              <path id="Trazado_1027365" data-name="Trazado 1027365" d="M161.42,181.37a38.167,38.167,0,0,0,15.534,11.4" transform="translate(-124.525 -140.795)" fill="none" stroke="#4d223d" stroke-miterlimit="10" stroke-width="1"/>
              <path id="Trazado_1027366" data-name="Trazado 1027366" d="M146.27,124.48a110.739,110.739,0,0,1-.67,35.154" transform="translate(-119.988 -124.48)" fill="none" stroke="#4d223d" stroke-miterlimit="10" stroke-width="1"/>
              <path id="Trazado_1027367" data-name="Trazado 1027367" d="M129.3,157.161a34.476,34.476,0,0,1-19.606-9.621" transform="translate(-109.69 -131.093)" fill="none" stroke="#4d223d" stroke-miterlimit="10" stroke-width="1"/>
            </g>
            <g id="Grupo_1172914" data-name="Grupo 1172914">
              <circle id="Elipse_12394" data-name="Elipse 12394" cx="5.114" cy="5.114" r="5.114" transform="translate(11.212 5.114)" fill="#e64363"/>
              <circle id="Elipse_12395" data-name="Elipse 12395" cx="5.114" cy="5.114" r="5.114" transform="translate(28.743)" fill="#e64363"/>
              <circle id="Elipse_12396" data-name="Elipse 12396" cx="5.114" cy="5.114" r="5.114" transform="translate(0 17.424)" fill="#e64363"/>
              <circle id="Elipse_12397" data-name="Elipse 12397" cx="5.114" cy="5.114" r="5.114" transform="translate(38.963 41.409)" fill="#e64363"/>
            </g>
          </g>
          <g id="Grupo_1172916" data-name="Grupo 1172916" transform="translate(201.918 47.614)">
            <path id="Trazado_1027368" data-name="Trazado 1027368" d="M325.53,287.641l-.72-.285a153.853,153.853,0,0,1,61.222-73.575l.414.656A153.145,153.145,0,0,0,325.53,287.641Z" transform="translate(-324.81 -190.85)" fill="#46b08d"/>
            <path id="Trazado_1027369" data-name="Trazado 1027369" d="M391.544,217.588c-1.369-5.913,1.569-12.225,6.169-16.176s10.62-5.877,16.6-6.925a71.022,71.022,0,0,1,22.623-.328A39.3,39.3,0,0,1,418.2,214.464,39.816,39.816,0,0,1,391.544,217.588Z" transform="translate(-343.851 -185.008)" fill="#46b08d"/>
            <path id="Trazado_1027370" data-name="Trazado 1027370" d="M375.02,239.8a36.748,36.748,0,0,1,47.992,1.526c-7.71,3.973-15.962,7.275-24.62,7.838S380.569,247.227,375.02,239.8Z" transform="translate(-339.209 -195.968)" fill="#46b08d"/>
            <path id="Trazado_1027371" data-name="Trazado 1027371" d="M350.18,268.28a39.842,39.842,0,0,1,49.276-1.02A39.094,39.094,0,0,1,374.593,277.7C365.421,278.087,356.143,275.077,350.18,268.28Z" transform="translate(-332.086 -203.884)" fill="#46b08d"/>
            <path id="Trazado_1027372" data-name="Trazado 1027372" d="M371.91,224.865c3.466-6.968,6.6-14.293,7.211-22.053s-1.69-16.1-7.589-21.182c-3.63,7.054-7.332,14.314-8.173,22.2S365.156,220.486,371.91,224.865Z" transform="translate(-335.822 -181.63)" fill="#46b08d"/>
            <path id="Trazado_1027373" data-name="Trazado 1027373" d="M348.41,248.327c8.837-14.257,7.517-34.077-3.131-47.037C336.514,214.47,336.107,232.729,348.41,248.327Z" transform="translate(-328.854 -187.268)" fill="#46b08d"/>
          </g>
          <g id="Grupo_1172918" data-name="Grupo 1172918" transform="translate(186.591 127.275)">
            <path id="Trazado_1027374" data-name="Trazado 1027374" d="M303.32,343.9a84.318,84.318,0,0,1,44.348-44.227,83.339,83.339,0,0,1,63.833.014,81.71,81.71,0,0,1-44.918,45.738C346.227,353.687,322.456,353.145,303.32,343.9Z" transform="translate(-303.32 -293.323)" fill="#62bbbf"/>
            <g id="Grupo_1172917" data-name="Grupo 1172917" transform="translate(7.981 2.002)">
              <path id="Trazado_1027375" data-name="Trazado 1027375" d="M405.238,307.73a191.137,191.137,0,0,0-90.728,44.512" transform="translate(-314.51 -299.457)" fill="none" stroke="#33819e" stroke-miterlimit="10" stroke-width="1"/>
              <path id="Trazado_1027376" data-name="Trazado 1027376" d="M404.188,296.13a64.951,64.951,0,0,0-11.868,18.508" transform="translate(-336.825 -296.13)" fill="none" stroke="#33819e" stroke-miterlimit="10" stroke-width="1"/>
              <path id="Trazado_1027377" data-name="Trazado 1027377" d="M374.939,299.12a54.9,54.9,0,0,0-18.009,28.55" transform="translate(-326.675 -296.987)" fill="none" stroke="#33819e" stroke-miterlimit="10" stroke-width="1"/>
              <path id="Trazado_1027378" data-name="Trazado 1027378" d="M426.6,323.595a71.019,71.019,0,0,0-19.271-6.455" transform="translate(-341.129 -302.155)" fill="none" stroke="#33819e" stroke-miterlimit="10" stroke-width="1"/>
              <path id="Trazado_1027379" data-name="Trazado 1027379" d="M395.283,347.617A78.74,78.74,0,0,0,366.49,334.95" transform="translate(-329.417 -307.263)" fill="none" stroke="#33819e" stroke-miterlimit="10" stroke-width="1"/>
              <path id="Trazado_1027380" data-name="Trazado 1027380" d="M351.058,364.912q-7.36-6.141-14.728-12.282" transform="translate(-320.768 -312.333)" fill="none" stroke="#33819e" stroke-miterlimit="10" stroke-width="1"/>
            </g>
          </g>
          <g id="Grupo_1172919" data-name="Grupo 1172919" transform="translate(0 117.944)">
            <path id="Trazado_1027381" data-name="Trazado 1027381" d="M159.492,354.947c-23.372-20.655-55.189-29.77-85.115-24.378l-.107-.685c30.112-5.42,62.128,3.744,85.643,24.527Z" transform="translate(-51.041 -294.038)" fill="#46b08d"/>
            <path id="Trazado_1027382" data-name="Trazado 1027382" d="M87.332,325.823A30.345,30.345,0,0,0,62.6,319.711a31.926,31.926,0,0,0-20.9,15.363C56.214,339.111,72.375,335.773,87.332,325.823Z" transform="translate(-41.7 -291.396)" fill="#46b08d"/>
            <path id="Trazado_1027383" data-name="Trazado 1027383" d="M112.855,316.464a34.447,34.447,0,0,1-17.8-12.845,38.357,38.357,0,0,1-7.1-21.639,28.033,28.033,0,0,1,20.976,10.941C114.039,299.518,116.329,308.512,112.855,316.464Z" transform="translate(-54.964 -280.739)" fill="#46b08d"/>
            <path id="Trazado_1027384" data-name="Trazado 1027384" d="M118.988,333.943c-8.48-.414-17.246.128-24.927,3.965s-14.107,11.568-14.721,20.6C94.617,357.279,109.167,348.079,118.988,333.943Z" transform="translate(-52.495 -295.608)" fill="#46b08d"/>
            <path id="Trazado_1027385" data-name="Trazado 1027385" d="M149.221,323.5a32.419,32.419,0,0,1-15.448-18.508,35.074,35.074,0,0,1,1.177-24.749C145.983,290.56,151.6,307.078,149.221,323.5Z" transform="translate(-67.615 -280.24)" fill="#46b08d"/>
            <path id="Trazado_1027386" data-name="Trazado 1027386" d="M151.207,345.9a29.551,29.551,0,0,0-22.445,2.924,32.916,32.916,0,0,0-14.592,18.43C128.72,368.086,143.362,359.107,151.207,345.9Z" transform="translate(-62.483 -298.776)" fill="#46b08d"/>
            <path id="Trazado_1027387" data-name="Trazado 1027387" d="M179.78,362.259a20.8,20.8,0,0,0-17.288-3.8,22.09,22.09,0,0,0-14.172,11.233C159.2,372.223,170.929,370.447,179.78,362.259Z" transform="translate(-72.277 -302.52)" fill="#46b08d"/>
            <path id="Trazado_1027388" data-name="Trazado 1027388" d="M171.26,334.895c-8.031-12.217-9.172-29.2-2.86-42.515a50.1,50.1,0,0,1,8.152,20.327C177.644,320.046,176.738,327.813,171.26,334.895Z" transform="translate(-76.873 -283.722)" fill="#46b08d"/>
          </g>
          <g id="Grupo_1172921" data-name="Grupo 1172921" transform="translate(7.503 72.403)">
            <path id="Trazado_1027389" data-name="Trazado 1027389" d="M146.079,281.384a71.594,71.594,0,0,0-31.838-53.727,71.538,71.538,0,0,0-62.021-7.3,76.782,76.782,0,0,0,31.56,51.166C100.662,283.339,122.493,287.818,146.079,281.384Z" transform="translate(-52.22 -216.387)" fill="#62bbbf"/>
            <g id="Grupo_1172920" data-name="Grupo 1172920" transform="translate(6.982 5.801)">
              <path id="Trazado_1027390" data-name="Trazado 1027390" d="M143.951,281.636c-12.132-11.411-24.3-22.851-37.715-32.715S78.05,230.755,62.01,226.29" transform="translate(-62.01 -225.028)" fill="none" stroke="#33829e" stroke-miterlimit="10" stroke-width="1"/>
              <path id="Trazado_1027391" data-name="Trazado 1027391" d="M69.89,246.992a146.714,146.714,0,0,1,21.96-4.472" transform="translate(-64.27 -229.682)" fill="none" stroke="#33829e" stroke-miterlimit="10" stroke-width="1"/>
              <path id="Trazado_1027392" data-name="Trazado 1027392" d="M95.85,277.868q12.816-6.751,25.626-13.508" transform="translate(-71.715 -235.945)" fill="none" stroke="#33829e" stroke-miterlimit="10" stroke-width="1"/>
              <path id="Trazado_1027393" data-name="Trazado 1027393" d="M112.43,224.52a84.994,84.994,0,0,1,1.861,18.95" transform="translate(-76.47 -224.52)" fill="none" stroke="#33829e" stroke-miterlimit="10" stroke-width="1"/>
            </g>
          </g>
        </g>
      </g>
      <g id="Grupo_1172905" data-name="Grupo 1172905" transform="translate(-90.056 1181.751)">
        <g id="Grupo_1172869" data-name="Grupo 1172869" transform="translate(509.969 428.778)">
          <path id="Trazado_1027291" data-name="Trazado 1027291" d="M1587.242,2017.918c.3,4.184-20.3,25.977-23.29,27.174a4.957,4.957,0,0,1-2.821-.425c-.433-.142-.906-.323-1.4-.536-6.5-2.687-17.57-9.7-17.57-10.384l8.359-17.318s6.933-.512,14.781-.741l1.576-.047c1.174-.024,2.364-.047,3.538-.055.528-.008,1.056-.008,1.584-.008a87.822,87.822,0,0,1,10.589.481c.473.063.922.126,1.332.2C1585.934,2016.626,1587.187,2017.155,1587.242,2017.918Z" transform="translate(-1542.159 -2015.578)" fill="#fd5636"/>
          <g id="Grupo_1172866" data-name="Grupo 1172866" transform="translate(22.8 0.064)">
            <g id="Grupo_1172865" data-name="Grupo 1172865">
              <path id="Trazado_1027292" data-name="Trazado 1027292" d="M1709.719,2016.04l-.339,7.587a.8.8,0,0,1-.788.756h-.039a.786.786,0,0,1-.748-.827l.339-7.469Z" transform="translate(-1707.802 -2016.04)" fill="#f6e3d2"/>
            </g>
          </g>
          <g id="Grupo_1172868" data-name="Grupo 1172868" transform="translate(27.573 0)">
            <g id="Grupo_1172867" data-name="Grupo 1172867">
              <path id="Trazado_1027293" data-name="Trazado 1027293" d="M1744.743,2015.58l-.686,7.493a.794.794,0,0,1-.788.717.225.225,0,0,1-.071-.008.793.793,0,0,1-.717-.859l.678-7.335C1743.687,2015.58,1744.216,2015.58,1744.743,2015.58Z" transform="translate(-1742.478 -2015.58)" fill="#f6e3d2"/>
            </g>
          </g>
          <circle id="Elipse_12387" data-name="Elipse 12387" cx="4.08" cy="4.08" r="4.08" transform="translate(11.446 11.201)" fill="#f6e3d2"/>
          <path id="Trazado_1027294" data-name="Trazado 1027294" d="M1694,2019.276c-1.072,2.017-2.277,3.963-3.514,5.846a124.446,124.446,0,0,1-14.718,18q-2.245,2.316-4.554,4.562c-.433-.142-.906-.323-1.4-.536a166.248,166.248,0,0,0,13.512-14.56,109.613,109.613,0,0,0,6.815-9.337q1.336-2.056,2.529-4.176C1693.141,2019.134,1693.589,2019.2,1694,2019.276Z" transform="translate(-1652.241 -2018.59)" fill="#dd341d"/>
        </g>
        <path id="Trazado_1027295" data-name="Trazado 1027295" d="M522.631,1770.741c-1.41,1.4-9.841-.7-15.214-2.23-.488-.142-.953-.276-1.379-.4-1.875-.551-3.12-.953-3.12-.953l-84.194-3.577s-57.327-1.8-60.313-17.318,21.8-34.336,21.8-34.336l.347-.024,1.111-.079,40.214-2.813,12.638-.883,43.917-3.073s23.14,15.253,39.221,26.449c.292.213.591.418.875.615,7.934,5.539,13.946,9.975,14.245,10.857C533.677,1745.663,524.717,1768.653,522.631,1770.741Z" transform="translate(-11.164 -1319.019)" fill="#7a7ab6"/>
        <path id="Trazado_1027296" data-name="Trazado 1027296" d="M480.707,1140.924c-4.775,10.755-19.705,6.87-19.705,6.87l-23.881,5.673s-46.281,2.387-68.074-2.687l1.489-22.392s-16.12,6.862-23.881-1.8c-7.312-8.147,15.025-38.276,26.386-46.753a19.078,19.078,0,0,1,1.978-1.316,31.167,31.167,0,0,1,5.57-2.45,60.207,60.207,0,0,1,12.086-2.442c4.357-.512,7.627-.717,8.312-1.67,1.5-2.1,1.2-17.019,1.2-17.019l17.018-.6s-.3,15.521.9,16.719c.378.386,3.207.859,7.1,1.528,2.876.5,6.342,1.111,9.833,1.867,2.718.591,5.46,1.277,7.95,2.08,3.483,1.119,6.476,2.466,8.257,4.081,6.87,6.264,5.972,28.065,5.972,28.065l19.705,5.074a56.366,56.366,0,0,1,3.483,16.018c.024.378.031.748.039,1.127A23.678,23.678,0,0,1,480.707,1140.924Z" transform="translate(0 -757.874)" fill="#f7e8e1"/>
        <path id="Trazado_1027297" data-name="Trazado 1027297" d="M521.041,1483.19s23.885-10.45,28.961-17.018l47.675-.74,2.485,41.943s-65.084,6.271-81.806-2.089l1.489-22.392Z" transform="translate(-149.308 -1112.378)" fill="#7a7ab6"/>
        <g id="Grupo_1172874" data-name="Grupo 1172874" transform="translate(369.367 360.169)">
          <g id="Grupo_1172870" data-name="Grupo 1172870" transform="translate(22.679 44.53)">
            <path id="Trazado_1027298" data-name="Trazado 1027298" d="M711.064,1858.243a49.924,49.924,0,0,0-8.972-8.14,89.875,89.875,0,0,0-10.176-6.7,22.632,22.632,0,0,0-6.192-2.759.248.248,0,0,0-.194.435,33.6,33.6,0,0,0,5.056,3.2c1.71,1,3.4,2.037,5.057,3.124a113.714,113.714,0,0,1,9.64,7.139c1.736,1.422,3.41,2.906,5.21,4.249C710.842,1859.053,711.359,1858.609,711.064,1858.243Z" transform="translate(-685.445 -1840.642)" fill="#4e4e93"/>
          </g>
          <g id="Grupo_1172871" data-name="Grupo 1172871" transform="translate(0 32.497)">
            <path id="Trazado_1027299" data-name="Trazado 1027299" d="M597.648,1758.728c-2.526.065-5.034.373-7.554.549s-5.032.388-7.555.514q-7.469.372-14.953.162a193.678,193.678,0,0,1-29.9-3.2c-2.787-.518-5.562-1.1-8.329-1.721-1.367-.306-2.73-.63-4.093-.955-.665-.158-1.331-.316-2-.465-.729-.163-1.464-.236-2.2-.384-.368-.074-.552.506-.191.637.58.212,1.135.495,1.721.68.611.193,1.22.386,1.837.559q1.848.52,3.709.984,3.63.908,7.3,1.642,7.47,1.5,15.044,2.4a193.756,193.756,0,0,0,30.327,1.171c2.8-.112,5.6-.28,8.4-.527a60.182,60.182,0,0,0,8.523-1.2A.425.425,0,0,0,597.648,1758.728Z" transform="translate(-520.679 -1753.223)" fill="#4e4e93"/>
          </g>
          <g id="Grupo_1172872" data-name="Grupo 1172872" transform="translate(125.506 52.316)">
            <path id="Trazado_1027300" data-name="Trazado 1027300" d="M1444.982,1897.821c-.347,2.309-.851,4.6-1.363,6.862a172.825,172.825,0,0,1-5.334,18.256q-1.572,4.443-3.372,8.808c-.339.82-.686,1.647-1.048,2.466-.488-.142-.953-.276-1.379-.4q.78-1.832,1.521-3.672a187.247,187.247,0,0,0,6.2-17.8q1.312-4.538,2.45-9.108c.5-2,.946-4.026,1.45-6.027C1444.4,1897.419,1444.7,1897.625,1444.982,1897.821Z" transform="translate(-1432.486 -1897.207)" fill="#4e4e93"/>
          </g>
          <g id="Grupo_1172873" data-name="Grupo 1172873" transform="translate(26.75)">
            <path id="Trazado_1027301" data-name="Trazado 1027301" d="M747.811,1518.447l-7.556-1.316-24.283.614-.134.607c-.126.559-2.955,13.843,2.671,22.211a14.369,14.369,0,0,0,9.9,6.2q.615.106,1.205.189a35.888,35.888,0,0,0,5.09.394,20.393,20.393,0,0,0,7.548-1.277c5.57-2.19,6.7-6.484,6.768-6.768l.024-.11Zm-19.13,26.765a12.88,12.88,0,0,1-8.864-5.523c-4.6-6.847-3.033-17.735-2.553-20.4l22.872-.583,6.177,1.08,1.15,19.248C747.149,1540.012,744.155,1547.874,728.681,1545.212Z" transform="translate(-715.017 -1517.131)" fill="#4e4e93"/>
          </g>
        </g>
        <path id="Trazado_1027302" data-name="Trazado 1027302" d="M551.626,1228.072l.232-.1c.162-.1.323-.2.486-.3.915-.559,1.832-1.117,2.731-1.7.252-.164.5-.336.746-.508l-.9-13.251a31.2,31.2,0,0,0-5.57,2.45,19.039,19.039,0,0,0-1.978,1.316l1.978,12.717Z" transform="translate(-174.336 -894.01)" fill="#7a7ab6"/>
        <path id="Trazado_1027303" data-name="Trazado 1027303" d="M1013.275,1202.559l-2.49,16.018-6.571-1.788,1.111-16.309C1008.043,1201.069,1010.785,1201.755,1013.275,1202.559Z" transform="translate(-568.29 -883.895)" fill="#7a7ab6"/>
        <g id="Grupo_1172879" data-name="Grupo 1172879" transform="translate(360.789 324.536)">
          <g id="Grupo_1172876" data-name="Grupo 1172876" transform="translate(0)">
            <g id="Grupo_1172875" data-name="Grupo 1172875">
              <path id="Trazado_1027304" data-name="Trazado 1027304" d="M468.1,1304.625a.394.394,0,0,1-.1-.775c27.1-7.227,38.762-28.474,38.336-30.178-.589-2.356-8.707-14.633-11.671-14.633l-.064,0c-2.454.154-24.406,11.236-35.671,17.075a.394.394,0,0,1-.363-.7c1.337-.692,32.755-16.959,35.985-17.161l.087,0c3.531,0,11.882,12.912,12.462,15.228.652,2.611-11.707,23.881-38.9,31.131A.4.4,0,0,1,468.1,1304.625Z" transform="translate(-458.356 -1258.252)" fill="#e5c4a8"/>
            </g>
          </g>
          <g id="Grupo_1172878" data-name="Grupo 1172878" transform="translate(19.307 7.565)">
            <g id="Grupo_1172877" data-name="Grupo 1172877">
              <path id="Trazado_1027305" data-name="Trazado 1027305" d="M614.945,1338.283a.455.455,0,0,1-.058,0c-12.484-1.812-16.108-23.682-16.256-24.611a.394.394,0,1,1,.779-.125c.035.222,3.679,22.227,15.592,23.956a.394.394,0,0,1-.056.784Z" transform="translate(-598.626 -1313.212)" fill="#e5c4a8"/>
            </g>
          </g>
        </g>
        <g id="Grupo_1172880" data-name="Grupo 1172880" transform="translate(457.125 370.717)">
          <path id="Trazado_1027306" data-name="Trazado 1027306" d="M1183.56,1596.071c-3.758,4-7.713,6.02-11.8,6.02h-.063c-7.808-.039-13.15-7.4-13.378-7.706a.4.4,0,0,1,.095-.551.394.394,0,0,1,.552.094c.055.071,5.342,7.343,12.74,7.374h.055c4.05,0,8-2.135,11.763-6.358C1183.545,1595.323,1183.551,1595.693,1183.56,1596.071Z" transform="translate(-1158.245 -1593.76)" fill="#e5c4a8"/>
        </g>
        <g id="Grupo_1172881" data-name="Grupo 1172881" transform="translate(392.676 296.469)">
          <path id="Trazado_1027307" data-name="Trazado 1027307" d="M724.545,1072.588c-3.23,4.3-8.722,9.218-16.955,9.218-9.983,0-15.23-5-17.57-8.178,4.357-.512,7.627-.717,8.312-1.67.638-.9.953-4.136,1.1-7.548.2-4.578.1-9.47.1-9.47l17.018-.6s-.11,5.72.071,10.487c.118,3.081.355,5.76.827,6.232C717.825,1071.446,720.653,1071.918,724.545,1072.588Z" transform="translate(-690.02 -1054.341)" fill="#f48e68"/>
          <path id="Trazado_1027308" data-name="Trazado 1027308" d="M775.557,1064.831c-5.949,1.812-12.661.756-17.192-.418.2-4.578.1-9.47.1-9.47l17.018-.6S775.376,1060.064,775.557,1064.831Z" transform="translate(-748.958 -1054.344)" fill="#d66441"/>
        </g>
        <g id="Grupo_1172882" data-name="Grupo 1172882" transform="translate(392.055 322.873)">
          <path id="Trazado_1027309" data-name="Trazado 1027309" d="M1186.676,2100.638s27.17-2.239,27.916-.747-1.045,28.364-1.195,28.961-25.677.3-26.423,0S1186.676,2100.638,1186.676,2100.638Z" transform="translate(-1117.578 -1981.938)" fill="#7f3442"/>
          <path id="Trazado_1027310" data-name="Trazado 1027310" d="M718.478,2114.3s-31.35-.6-32.395.9-.6,26.423.746,27.17,30.156,2.239,30.753,0S719.076,2114.6,718.478,2114.3Z" transform="translate(-685.506 -1994.705)" fill="#ffa7b3"/>
          <path id="Trazado_1027311" data-name="Trazado 1027311" d="M842.387,1865.382s-33.29-.3-33.888.9-.746,32.843.747,33.291,32.842.6,33.29-.746S843.581,1865.531,842.387,1865.382Z" transform="translate(-791.202 -1780.122)" fill="#7f3442"/>
          <path id="Trazado_1027312" data-name="Trazado 1027312" d="M1052.035,1861.556s31.8-1.344,32.544-.149,2.09,32.395,1.493,33.141-32.992,1.642-33.888.448S1050.542,1861.7,1052.035,1861.556Z" transform="translate(-1000.85 -1776.295)" fill="#ffa7b3"/>
          <path id="Trazado_1027313" data-name="Trazado 1027313" d="M944.592,1683.557s-.6,23.587.448,24.035,32.693.3,33.44-.6.6-23.288-.149-24.184S944.592,1682.512,944.592,1683.557Z" transform="translate(-908.784 -1622.332)" fill="#fd5636"/>
          <path id="Trazado_1027314" data-name="Trazado 1027314" d="M864.571,1487.108s-.6,27.021.746,27.916,37.022-.3,37.62-1.642-.448-25.08-.747-26.423S864.571,1485.915,864.571,1487.108Z" transform="translate(-839.809 -1453.053)" fill="#ffa7b3"/>
          <path id="Trazado_1027315" data-name="Trazado 1027315" d="M911.761,1279.177s-1.194-31.8.6-32.544,31.648-.6,32.693.448,1.194,31.051.6,31.947S912.059,1280.671,911.761,1279.177Z" transform="translate(-880.282 -1246.167)" fill="#7f3442"/>
          <path id="Trazado_1027316" data-name="Trazado 1027316" d="M948.16,2096.96s-39.6,0-40.266,1.073-1.83,33.265-1,33.623,41.1,0,41.6-.894S948.16,2096.96,948.16,2096.96Z" transform="translate(-876.174 -1979.852)" fill="#fd5636"/>
          <path id="Trazado_1027317" data-name="Trazado 1027317" d="M1017.974,1722.155s-5.374-5.673-8.957-3.881,9.554,15.824,9.554,15.824,9.853-12.242,7.464-16.123S1017.974,1722.155,1017.974,1722.155Z" transform="translate(-963.954 -1652.122)" fill="#d62c16"/>
          <path id="Trazado_1027318" data-name="Trazado 1027318" d="M973.38,1292.278l-8.359-6.568,2.388,9.853-6.568,7.166,7.166-2.388,1.791,10.151,4.479-8.062,10.151,3.583-7.763-9.554,5.076-8.36Z" transform="translate(-922.942 -1280.267)" fill="#fff"/>
        </g>
        <g id="Grupo_1172886" data-name="Grupo 1172886" transform="translate(444.649 341.101)">
          <path id="Trazado_1027319" data-name="Trazado 1027319" d="M1101.925,1400.293s-3.185,7.166-9.156,6.369-9.562-4.976-12.15-6.17-8.957,1.791-10.55.2,1.593-4.777,1.593-4.777-1.593,1.99-2.986.4,2.986-5.972,2.986-5.972-3.185,2.986-3.981.6,4.976-5.374,4.976-5.374-4.18,1.99-4.578.4,4.18-7.166,13.336-7.365S1105.706,1387.554,1101.925,1400.293Z" transform="translate(-1067.605 -1378.594)" fill="#f48e68"/>
          <g id="Grupo_1172883" data-name="Grupo 1172883" transform="translate(3.662 14.268)">
            <path id="Trazado_1027320" data-name="Trazado 1027320" d="M1094.607,1485.7a.389.389,0,0,0,.222-.069c.056-.039,5.7-3.853,11.61-2.136a.394.394,0,1,0,.22-.757c-6.279-1.821-12.035,2.078-12.277,2.245a.394.394,0,0,0,.224.718Z" transform="translate(-1094.212 -1482.255)" fill="#d66441"/>
          </g>
          <g id="Grupo_1172884" data-name="Grupo 1172884" transform="translate(3.662 8.877)">
            <path id="Trazado_1027321" data-name="Trazado 1027321" d="M1094.606,1446.351a.389.389,0,0,0,.2-.058c.061-.037,6.091-3.664,11.62-1.95a.394.394,0,1,0,.234-.752c-5.875-1.823-12.008,1.872-12.266,2.03a.394.394,0,0,0,.207.73Z" transform="translate(-1094.211 -1443.087)" fill="#d66441"/>
          </g>
          <g id="Grupo_1172885" data-name="Grupo 1172885" transform="translate(4.658 4.55)">
            <path id="Trazado_1027322" data-name="Trazado 1027322" d="M1101.839,1414.464a.391.391,0,0,0,.247-.088,11.46,11.46,0,0,1,10.183-1.324.394.394,0,1,0,.235-.752,12.034,12.034,0,0,0-10.914,1.464.394.394,0,0,0,.249.7Z" transform="translate(-1101.444 -1411.649)" fill="#d66441"/>
          </g>
        </g>
        <g id="Grupo_1172890" data-name="Grupo 1172890" transform="translate(399.846 311.695)">
          <path id="Trazado_1027323" data-name="Trazado 1027323" d="M742.609,1189.756s2.982,6.71,8.574,5.964,11-9.133,13.42-10.252,8.388,1.677,9.879.186-1.491-4.473-1.491-4.473,1.491,1.864,2.8.373-2.8-5.592-2.8-5.592,2.982,2.8,3.728.559-4.66-5.033-4.66-5.033,3.914,1.864,4.287.373-3.914-6.71-12.488-6.9S739.067,1177.826,742.609,1189.756Z" transform="translate(-742.111 -1164.964)" fill="#f48e68"/>
          <g id="Grupo_1172887" data-name="Grupo 1172887" transform="translate(19.327 13.36)">
            <path id="Trazado_1027324" data-name="Trazado 1027324" d="M894.073,1265.255a.365.365,0,0,1-.208-.065c-.053-.036-5.336-3.608-10.872-2a.369.369,0,1,1-.206-.709c5.879-1.705,11.27,1.945,11.5,2.1a.369.369,0,0,1-.21.672Z" transform="translate(-882.521 -1262.028)" fill="#d66441"/>
          </g>
          <g id="Grupo_1172888" data-name="Grupo 1172888" transform="translate(19.327 8.311)">
            <path id="Trazado_1027325" data-name="Trazado 1027325" d="M894.076,1228.4a.362.362,0,0,1-.192-.054c-.057-.034-5.7-3.431-10.882-1.825a.369.369,0,0,1-.219-.7c5.5-1.707,11.244,1.753,11.486,1.9a.369.369,0,0,1-.194.684Z" transform="translate(-882.524 -1225.345)" fill="#d66441"/>
          </g>
          <g id="Grupo_1172889" data-name="Grupo 1172889" transform="translate(19.7 4.258)">
            <path id="Trazado_1027326" data-name="Trazado 1027326" d="M895.479,1198.535a.367.367,0,0,1-.231-.082,10.731,10.731,0,0,0-9.536-1.239.369.369,0,1,1-.22-.7,11.27,11.27,0,0,1,10.22,1.37.369.369,0,0,1-.233.656Z" transform="translate(-885.233 -1195.899)" fill="#d66441"/>
          </g>
        </g>
        <g id="Grupo_1172891" data-name="Grupo 1172891" transform="translate(403.405 312.497)">
          <path id="Trazado_1027327" data-name="Trazado 1027327" d="M784.343,1170.821c.085.269-4.259,1.459-8.8,4.5-4.568,2.99-7.361,6.524-7.575,6.341a7.668,7.668,0,0,1,1.7-2.418,27.566,27.566,0,0,1,11.788-7.8A7.639,7.639,0,0,1,784.343,1170.821Z" transform="translate(-767.963 -1170.79)" fill="#d66441"/>
        </g>
        <g id="Grupo_1172892" data-name="Grupo 1172892" transform="translate(440.337 449.502)">
          <path id="Trazado_1027328" data-name="Trazado 1027328" d="M1042.855,2183.484a3.7,3.7,0,0,1-.8.226,7.916,7.916,0,0,1-1.033.107c-.254,0-.464-.008-.63-.024s-.336-.04-.511-.072q0-.784.036-1.557t.107-1.913q.094-1.877.38-4.193t.736-4.6q-.808.57-1.533,1.058t-1.414.914a6.193,6.193,0,0,1-1.093-1.14,7.29,7.29,0,0,1-.832-1.472,41.585,41.585,0,0,0,4.016-2.21,29.79,29.79,0,0,0,3.4-2.471,5.8,5.8,0,0,1,1.153.57,5.488,5.488,0,0,1,.962.808,42.114,42.114,0,0,0-1.711,6.831A91.98,91.98,0,0,0,1042.855,2183.484Z" transform="translate(-1036.274 -2166.139)" fill="#d62c16"/>
        </g>
        <g id="Grupo_1172893" data-name="Grupo 1172893" transform="translate(452.935 415.854)">
          <path id="Trazado_1027329" data-name="Trazado 1027329" d="M1137.969,1936.889q-.094.76-.166,1.64t-.142,1.924a3.749,3.749,0,0,1-.832.214,6.888,6.888,0,0,1-1.022.072q-.357-.024-.582-.06a4.3,4.3,0,0,1-.487-.107q-.023-.523-.047-1.081t-.024-1.152v-1.07q0-.357.024-.666-1.878-.189-3.588-.392t-2.828-.369c-.08-.19-.155-.4-.226-.629s-.154-.566-.249-1.01a49.467,49.467,0,0,0,3.386-5.988,51.14,51.14,0,0,0,2.435-6.534,8.265,8.265,0,0,1,1.568.214,13.938,13.938,0,0,1,1.877.594q-1.164,3.184-2.388,5.762a50.562,50.562,0,0,1-2.744,5.025q.642.143,1.355.262t1.592.261q.095-1.116.226-2.031t.273-1.6a4.37,4.37,0,0,1,1.033-.345,6,6,0,0,1,1.176-.107,6.238,6.238,0,0,1,.855.059,6.7,6.7,0,0,1,.784.155q-.213.664-.451,1.734t-.476,2.566q.714.072,1.486.131t1.627.107a5.875,5.875,0,0,1-.179,1.414,4.352,4.352,0,0,1-.463,1.2q-.5-.023-1.188-.072C1139.125,1936.975,1138.587,1936.937,1137.969,1936.889Z" transform="translate(-1127.799 -1921.682)" fill="#e03258"/>
        </g>
        <g id="Grupo_1172894" data-name="Grupo 1172894" transform="translate(470.378 446.744)">
          <path id="Trazado_1027330" data-name="Trazado 1027330" d="M1265.46,2157.336a5.849,5.849,0,0,1-1.533,4.158,5.689,5.689,0,0,1-7.817.166,6.234,6.234,0,0,1-1.58-4.182,13.9,13.9,0,0,1,1.687.107q.878.107,1.758.3a4.547,4.547,0,0,0,.511,2.388,1.626,1.626,0,0,0,1.461.82,1.554,1.554,0,0,0,1.378-.713,3.833,3.833,0,0,0,.475-2.115,3.749,3.749,0,0,0-.784-2.483,2.64,2.64,0,0,0-2.138-.938,3.892,3.892,0,0,0-.784.083,6.1,6.1,0,0,0-.856.25,4.228,4.228,0,0,1-.7-.57,3.824,3.824,0,0,1-.559-.642c-.031-.3-.052-.586-.059-.855s-.012-.546-.012-.832q0-1.356.142-2.9t.428-3.279a43.5,43.5,0,0,0,4.645.772q2.126.226,4.977.25a10.749,10.749,0,0,1-.166,1.639,6.615,6.615,0,0,1-.4,1.4q-1.782-.1-3.2-.25t-3.029-.439q-.1.951-.143,1.723t-.024,1.414a5.606,5.606,0,0,1,.784-.154,6.581,6.581,0,0,1,.855-.06,4.462,4.462,0,0,1,3.4,1.355A5.007,5.007,0,0,1,1265.46,2157.336Z" transform="translate(-1254.53 -2146.097)" fill="#fff"/>
        </g>
        <g id="Grupo_1172895" data-name="Grupo 1172895" transform="translate(402.377 448.58)">
          <path id="Trazado_1027331" data-name="Trazado 1027331" d="M771.384,2170.942a5.105,5.105,0,0,1-1.616,3.8,5.393,5.393,0,0,1-3.9,1.568,5.1,5.1,0,0,1-3.719-1.354,5.485,5.485,0,0,1-1.509-3.826,5.6,5.6,0,0,1,1.438-.451,12.2,12.2,0,0,1,1.841-.167,5.336,5.336,0,0,0,.605,2.733,1.755,1.755,0,0,0,1.509,1.021,1.431,1.431,0,0,0,1.271-.665,3.439,3.439,0,0,0,.44-1.9,3.6,3.6,0,0,0-1.081-2.768,4.424,4.424,0,0,0-3.077-1.034,11.016,11.016,0,0,1-.214-1.164,8.481,8.481,0,0,1-.048-.95,19.574,19.574,0,0,0,2.162-1.556,14.868,14.868,0,0,0,1.71-1.676q-1.639.119-3.219.356t-3.148.594a7.9,7.9,0,0,1-.261-1.283,9.09,9.09,0,0,1-.071-1.473,37.059,37.059,0,0,1,4.907-.926,44.754,44.754,0,0,1,5.239-.38,7.279,7.279,0,0,1,.356,1.389,8.214,8.214,0,0,1,.1,1.533,18.519,18.519,0,0,1-1.841,2.162,20.223,20.223,0,0,1-2.174,1.83,6.511,6.511,0,0,1,3.232,1.687A4.07,4.07,0,0,1,771.384,2170.942Z" transform="translate(-760.497 -2159.442)" fill="#e03258"/>
        </g>
        <g id="Grupo_1172896" data-name="Grupo 1172896" transform="translate(430.753 364.469)">
          <path id="Trazado_1027332" data-name="Trazado 1027332" d="M977.247,1561.582a9.964,9.964,0,0,1-.166,1.6,7.238,7.238,0,0,1-.4,1.389,53.537,53.537,0,0,1-5.5-.475,32.263,32.263,0,0,1-4.526-.9,9.441,9.441,0,0,1,.06-1.14,6.249,6.249,0,0,1,.178-.9,26.232,26.232,0,0,0,5.31-4.645,6.633,6.633,0,0,0,1.77-4.075,2.475,2.475,0,0,0-.38-1.474,1.249,1.249,0,0,0-1.069-.522,1.5,1.5,0,0,0-1.3.819,7.886,7.886,0,0,0-.843,2.6,9.494,9.494,0,0,1-1.782-.155,5.632,5.632,0,0,1-1.474-.487,6.654,6.654,0,0,1,1.972-3.635,5.326,5.326,0,0,1,3.612-1.212,5.152,5.152,0,0,1,3.528,1.2,3.937,3.937,0,0,1,1.367,3.1,6.761,6.761,0,0,1-1.592,4.217,24.3,24.3,0,0,1-5.3,4.574q2.637.142,3.956.166T977.247,1561.582Z" transform="translate(-966.65 -1548.371)" fill="#e03258"/>
        </g>
        <path id="Trazado_1027333" data-name="Trazado 1027333" d="M906.87,1930.67a10.55,10.55,0,1,1,0-19.382,10.554,10.554,0,0,0,0,19.382Z" transform="translate(-471.64 -1496.124)" fill="#fff"/>
        <g id="Grupo_1172904" data-name="Grupo 1172904" transform="translate(359.06 175.501)">
          <g id="Grupo_1172901" data-name="Grupo 1172901" transform="translate(0 0)">
            <g id="Grupo_1172897" data-name="Grupo 1172897" transform="translate(17.037)">
              <path id="Trazado_1027334" data-name="Trazado 1027334" d="M594.358,212.75l7.7-1.695s13.117-5.889,12.313-21.4-18.422-17.807-35.018-9.193S566.968,220.39,594.358,212.75Z" transform="translate(-569.572 -175.501)" fill="#7f3442"/>
              <path id="Trazado_1027335" data-name="Trazado 1027335" d="M657.6,305.376c-.3-.228-.586-.478-.874-.723-.325-.277-.717-.484-1.07-.728a22.785,22.785,0,0,1-1.891-1.423,19.437,19.437,0,0,1-3.216-3.562,23.305,23.305,0,0,1-3.81-9.7c-.341-2.068-.3-4.188-.684-6.244-.051-.272-.5-.386-.585-.072a14.786,14.786,0,0,0-.14,5.791,26.417,26.417,0,0,0,1.4,5.762,22.046,22.046,0,0,0,5.728,8.637,17.171,17.171,0,0,0,2.282,1.791,8.4,8.4,0,0,0,1.2.694,8.863,8.863,0,0,0,1.418.378C657.7,306.066,657.852,305.565,657.6,305.376Z" transform="translate(-634.718 -267.979)" fill="#602330"/>
              <path id="Trazado_1027336" data-name="Trazado 1027336" d="M722.554,373.6c-.216-.466-.438-.93-.662-1.392-.434-.9-.829-1.817-1.2-2.743-.748-1.843-1.29-3.765-2.1-5.582a.356.356,0,0,0-.676.188,19.121,19.121,0,0,0,1.466,5.855c.355.933.76,1.848,1.192,2.748.21.437.439.865.68,1.286a3.176,3.176,0,0,0,.947,1.223c.264.152.719.069.728-.312A2.923,2.923,0,0,0,722.554,373.6Z" transform="translate(-697.497 -337.771)" fill="#602330"/>
              <path id="Trazado_1027337" data-name="Trazado 1027337" d="M744.573,232.66a38.074,38.074,0,0,0-3.5-12.176q-.759-1.682-1.615-3.315c-.577-1.108-1.3-2.1-1.93-3.174-.226-.383-.848-.152-.656.282.42.953.72,1.955,1.163,2.9s.878,1.895,1.308,2.846a57.192,57.192,0,0,1,2.289,5.812,28.084,28.084,0,0,1,1.457,11.679,23.356,23.356,0,0,1-.563,3.156c-.13.517-.258,1.033-.422,1.541a6.5,6.5,0,0,0-.419,1.582c-.02.32.372.615.647.362a6.356,6.356,0,0,0,1.368-2.577,15.856,15.856,0,0,0,.715-2.876A24.6,24.6,0,0,0,744.573,232.66Z" transform="translate(-713.81 -208.53)" fill="#602330"/>
              <path id="Trazado_1027338" data-name="Trazado 1027338" d="M813.9,297.056a11.637,11.637,0,0,0-.445-2.418,8.978,8.978,0,0,0-.436-1.141,12.692,12.692,0,0,0-.656-1.145.3.3,0,0,0-.549.235c.111.375.164.79.248,1.176.08.37.147.745.215,1.118a22.131,22.131,0,0,1,.316,2.273,19.042,19.042,0,0,1,.015,2.291,11.571,11.571,0,0,0-.075,2.231.367.367,0,0,0,.652.166,5.059,5.059,0,0,0,.681-2.241A12.115,12.115,0,0,0,813.9,297.056Z" transform="translate(-778.453 -276.121)" fill="#602330"/>
            </g>
            <path id="Trazado_1027339" data-name="Trazado 1027339" d="M723.349,433.778s-.346-3.771.808-4.812,11.19-4.221,12.629-3.082,1.41,5.523,1.41,5.523Z" transform="translate(-685.103 -391.211)" fill="#fd755b"/>
            <path id="Trazado_1027340" data-name="Trazado 1027340" d="M466.989,513.658s-9.56-40.861,37.766-48.084,52.911,23.634,52.126,44.381-5.7,27.512-11.476,27.538-61.588,4.193-61.588,4.193S471.215,535.206,466.989,513.658Z" transform="translate(-463.389 -424.722)" fill="#7f3442"/>
            <g id="Grupo_1172899" data-name="Grupo 1172899" transform="translate(0 51.926)">
              <g id="Grupo_1172898" data-name="Grupo 1172898">
                <path id="Trazado_1027341" data-name="Trazado 1027341" d="M601.6,552.744s15.974.971,20.925,20.7,11.968,51.524-28.607,53.105-41.972-8.722-41.5-42.6c0,0,15.589-3.795,23.392-18.242,0,0-2.252,8.653,1.948,9.087s9.756-10.34,9.756-10.34-1.366,5.83,1.847,6.5S600.956,561.733,601.6,552.744Z" transform="translate(-537.694 -552.744)" fill="#f48e68"/>
                <path id="Trazado_1027342" data-name="Trazado 1027342" d="M461.292,805.323l.757,14.313s-16.816-2.133-16.24-12.912S459.727,795.823,461.292,805.323Z" transform="translate(-445.795 -764.593)" fill="#f48e68"/>
                <path id="Trazado_1027343" data-name="Trazado 1027343" d="M1068.15,781.686l.359,14.328s16.6-3.436,15.186-14.137S1068.972,772.093,1068.15,781.686Z" transform="translate(-982.486 -743.69)" fill="#f48e68"/>
              </g>
            </g>
            <g id="Grupo_1172900" data-name="Grupo 1172900" transform="translate(38.781 88.289)">
              <path id="Trazado_1027344" data-name="Trazado 1027344" d="M730.922,828.2c.056,1.428-.656,2.615-1.59,2.651s-1.736-1.092-1.791-2.52.656-2.615,1.59-2.651S730.867,826.773,730.922,828.2Z" transform="translate(-727.538 -824.476)"/>
              <path id="Trazado_1027345" data-name="Trazado 1027345" d="M955.617,819.445c.056,1.428-.656,2.615-1.59,2.651s-1.736-1.092-1.791-2.52.656-2.615,1.59-2.652S955.561,818.017,955.617,819.445Z" transform="translate(-921.305 -816.925)"/>
            </g>
            <path id="Trazado_1027346" data-name="Trazado 1027346" d="M544.555,597.08c-.221.432-.484.833-.716,1.26s-.463.842-.7,1.261c-.463.829-.958,1.641-1.5,2.423a31.031,31.031,0,0,1-3.6,4.35,48.47,48.47,0,0,1-9.825,7.331c-1.038.61-2.088,1.2-3.136,1.791-.525.3-1.046.6-1.566.909s-1,.685-1.511,1.021c-.308.2,0,.652.32.534.508-.19,1.032-.322,1.527-.544.52-.232,1.038-.47,1.55-.719,1-.484,1.981-1.009,2.948-1.55A60.081,60.081,0,0,0,534,611.623a35.528,35.528,0,0,0,8.533-8.351,23.527,23.527,0,0,0,1.725-2.885,11.835,11.835,0,0,0,.622-1.461c.191-.55.3-1.084.441-1.65C545.431,596.808,544.744,596.71,544.555,597.08Z" transform="translate(-511.403 -538.857)" fill="#602330"/>
            <path id="Trazado_1027347" data-name="Trazado 1027347" d="M603.748,584.059a57.3,57.3,0,0,0-5.17,5.437c-.786.857-1.557,1.732-2.378,2.556a15.569,15.569,0,0,1-1.2,1.089,10.029,10.029,0,0,0-1.22.994.294.294,0,0,0,.2.464,4.307,4.307,0,0,0,2.81-1.421c.891-.789,1.694-1.7,2.5-2.571a38.633,38.633,0,0,0,5-6.031C604.49,584.232,604.1,583.767,603.748,584.059Z" transform="translate(-573.357 -527.743)" fill="#602330"/>
            <path id="Trazado_1027348" data-name="Trazado 1027348" d="M810.56,521.033a.4.4,0,0,0-.756-.093,29.121,29.121,0,0,0-.877,3.882c-.272,1.347-.61,2.683-1.014,4-.4,1.287-.864,2.55-1.386,3.792-.261.62-.543,1.23-.8,1.85a6.191,6.191,0,0,0-.649,1.9.34.34,0,0,0,.543.3,4.8,4.8,0,0,0,1.192-1.6c.345-.607.647-1.238.931-1.876a38.555,38.555,0,0,0,2.529-8.024A12.55,12.55,0,0,0,810.56,521.033Z" transform="translate(-755.619 -473.183)" fill="#602330"/>
            <path id="Trazado_1027349" data-name="Trazado 1027349" d="M1001.591,554.924a24.89,24.89,0,0,0-2.207-2.417c-.39-.373-.785-.75-1.209-1.083a5.607,5.607,0,0,0-.662-.464,4.158,4.158,0,0,0-.8-.306.36.36,0,0,0-.411.555,5.469,5.469,0,0,0,.331.548,7.807,7.807,0,0,0,.554.578c.365.361.747.7,1.109,1.069a30.147,30.147,0,0,1,2.119,2.357c1.313,1.641,2.292,3.538,3.643,5.137a.351.351,0,0,0,.616-.265A13.5,13.5,0,0,0,1001.591,554.924Z" transform="translate(-920.469 -498.995)" fill="#602330"/>
            <path id="Trazado_1027350" data-name="Trazado 1027350" d="M513.538,850.653c-.075-.908-.147-1.817-.245-2.723a5.5,5.5,0,0,0-.638-2.43.3.3,0,0,0-.51.076,5.662,5.662,0,0,0-.213,2.541c.015.282.042.563.062.845a7.217,7.217,0,0,0-.749-.879,6.972,6.972,0,0,0-1.956-1.406,5.291,5.291,0,0,0-1.151-.365,5.594,5.594,0,0,0-.564-.052,2.068,2.068,0,0,0-.6.019.4.4,0,0,0-.092.756,4.248,4.248,0,0,0,.488.176c.172.053.316.142.482.209a9.089,9.089,0,0,1,.883.422,6.765,6.765,0,0,1,1.541,1.118,6.505,6.505,0,0,1,1.165,1.56c.316.609.531,1.268.785,1.9,0,0,0,0,0,.008a10.351,10.351,0,0,0,.693,3.523c.112.251.567.3.648-.008A16.19,16.19,0,0,0,513.538,850.653Z" transform="translate(-498.268 -753.181)" fill="#d66441"/>
            <path id="Trazado_1027351" data-name="Trazado 1027351" d="M1086.4,809.477a3.353,3.353,0,0,0-1.666,1.058,9.837,9.837,0,0,0-1.3,1.61c-.182.281-.355.571-.513.868a14.7,14.7,0,0,0-1.085-5.247.248.248,0,0,0-.471.067,43.7,43.7,0,0,0,.245,6.565c.045,1.1.072,2.2.06,3.3a8.836,8.836,0,0,0,.269,3.216.343.343,0,0,0,.626-.008,7.021,7.021,0,0,0,.5-3.228c.006-.664,0-1.327-.016-1.991.065-.127.118-.264.176-.4.12-.287.241-.573.371-.857a11.269,11.269,0,0,1,.865-1.582,12.368,12.368,0,0,1,1.127-1.429,6.66,6.66,0,0,0,1.214-1.432A.375.375,0,0,0,1086.4,809.477Z" transform="translate(-993.815 -720.614)" fill="#d66441"/>
            <path id="Trazado_1027352" data-name="Trazado 1027352" d="M701.409,754.387c.155.977-1.427.629-3.87,1.016s-4.823,1.362-4.977.385,2.492-2.813,4.935-3.2S701.255,753.41,701.409,754.387Z" transform="translate(-658.591 -673.091)" fill="#7f3442"/>
            <path id="Trazado_1027353" data-name="Trazado 1027353" d="M934.211,740.1c-.03.989,1.495.444,3.967.52s4.956.744,4.986-.245-2.826-2.476-5.3-2.553S934.242,739.107,934.211,740.1Z" transform="translate(-866.983 -660.415)" fill="#7f3442"/>
          </g>
          <g id="Grupo_1172902" data-name="Grupo 1172902" transform="translate(55.15 86.29)">
            <path id="Trazado_1027354" data-name="Trazado 1027354" d="M848.273,819.477c-.007-.1.329-.194.878-.432a9.371,9.371,0,0,0,2.126-1.346,7.947,7.947,0,0,0,2.208-2.851,4.022,4.022,0,0,0,.252-.916,1.664,1.664,0,0,0-.125-.832,1.981,1.981,0,0,0-1.375-1.13c-.247-.053-.781-.092-1.205-.146a7.7,7.7,0,0,1-1.3-.332,4.947,4.947,0,0,1-2.181-1.454,4.738,4.738,0,0,1-.973-2.153,7,7,0,0,1-.076-1.96c.29-2.338,1.036-3.566,1.169-3.519.216.056-.195,1.423-.22,3.561a4.975,4.975,0,0,0,1.037,3.263,3.867,3.867,0,0,0,1.673,1.019,6.9,6.9,0,0,0,1.074.255c.4.048.711.05,1.3.156a3.254,3.254,0,0,1,2.3,1.945,2.916,2.916,0,0,1,.179,1.489,4.968,4.968,0,0,1-.391,1.253,8.031,8.031,0,0,1-2.772,3.115,6.858,6.858,0,0,1-2.547,1.087C848.643,819.647,848.276,819.558,848.273,819.477Z" transform="translate(-846.467 -802.404)" fill="#d66441"/>
          </g>
          <g id="Grupo_1172903" data-name="Grupo 1172903" transform="translate(51.622 106.58)">
            <path id="Trazado_1027355" data-name="Trazado 1027355" d="M834.228,950.474c.191.112-.072,1.084-1.2,2.2a7.7,7.7,0,0,1-11.138-.541c-1.015-1.215-1.183-2.208-.982-2.3.235-.128.789.581,1.859,1.387a8.019,8.019,0,0,0,9.477.46C833.387,950.976,834.007,950.324,834.228,950.474Z" transform="translate(-820.834 -949.812)" fill="#a31d17"/>
          </g>
        </g>
      </g>
    </g>
  </g>
</svg>
