<svg xmlns="http://www.w3.org/2000/svg" xmlns:xlink="http://www.w3.org/1999/xlink" width="97.035" height="97.035" viewBox="0 0 97.035 97.035">
  <defs>
    <filter id="Trazado_982547" x="0" y="0" width="97.035" height="97.035" filterUnits="userSpaceOnUse">
      <feOffset dy="3" input="SourceAlpha"/>
      <feGaussianBlur stdDeviation="3" result="blur"/>
      <feFlood flood-opacity="0.161"/>
      <feComposite operator="in" in2="blur"/>
      <feComposite in="SourceGraphic"/>
    </filter>
    <clipPath id="clip-path">
      <path id="path3537" d="M0-682.665H51.8v51.8H0Z" transform="translate(0 682.665)"/>
    </clipPath>
  </defs>
  <g id="Grupo_1172528" data-name="Grupo 1172528" transform="translate(-819 -1580)">
    <g id="Grupo_1172076" data-name="Grupo 1172076" transform="translate(629.591 -956.582)">
      <g id="Grupo_1166162" data-name="Grupo 1166162" transform="translate(-607.781 577.058)">
        <g id="Grupo_1164703" data-name="Grupo 1164703" transform="translate(806.19 1965.523)">
          <g id="Grupo_1160931" data-name="Grupo 1160931" transform="translate(0 0)">
            <g id="Grupo_1160749" data-name="Grupo 1160749" transform="translate(0 0)">
              <g id="Grupo_1158891" data-name="Grupo 1158891" transform="translate(0 0)">
                <g id="Grupo_1157406" data-name="Grupo 1157406" transform="translate(0 0)">
                  <g id="Grupo_1155793" data-name="Grupo 1155793" transform="translate(0 0)">
                    <g id="Grupo_1154704" data-name="Grupo 1154704">
                      <g id="Grupo_1150790" data-name="Grupo 1150790">
                        <g id="Grupo_1154214" data-name="Grupo 1154214">
                          <g id="Grupo_1152583" data-name="Grupo 1152583">
                            <g id="Grupo_1146973" data-name="Grupo 1146973">
                              <g id="Grupo_1146954" data-name="Grupo 1146954">
                                <g transform="matrix(1, 0, 0, 1, -9, -6)" filter="url(#Trazado_982547)">
                                  <g id="Trazado_982547-2" data-name="Trazado 982547" transform="translate(9 6)" fill="#edf3fc">
                                    <path d="M 39.51754379272461 77.53498077392578 C 34.38454437255859 77.53498077392578 29.40588760375977 76.53001403808594 24.7198657989502 74.54798889160156 C 20.19293212890625 72.63327026367188 16.12703323364258 69.89185333251953 12.63507747650146 66.39990997314453 C 9.143132209777832 62.90796661376953 6.401721477508545 58.84206771850586 4.486988067626953 54.31515884399414 C 2.504966020584106 49.62913513183594 1.499999403953552 44.65047836303711 1.499999403953552 39.51749038696289 C 1.499999403953552 34.38450241088867 2.504966020584106 29.40584564208984 4.486988067626953 24.71982383728027 C 6.401721477508545 20.19291305541992 9.143132209777832 16.12701225280762 12.63507747650146 12.6350679397583 C 16.12703323364258 9.143123626708984 20.19293212890625 6.401712417602539 24.7198657989502 4.486990451812744 C 29.40588760375977 2.504968166351318 34.38454437255859 1.500001549720764 39.51754379272461 1.500001549720764 C 44.65054321289062 1.500001549720764 49.62919998168945 2.504968166351318 54.31523132324219 4.486990451812744 C 58.84215545654297 6.401712417602539 62.90806579589844 9.143123626708984 66.40000915527344 12.6350679397583 C 69.89195251464844 16.12701225280762 72.63337707519531 20.19291305541992 74.548095703125 24.71982383728027 C 76.53012084960938 29.40584564208984 77.53508758544922 34.38450241088867 77.53508758544922 39.51749038696289 C 77.53508758544922 44.65047836303711 76.53012084960938 49.62913513183594 74.548095703125 54.31515884399414 C 72.63337707519531 58.84206771850586 69.89195251464844 62.90796661376953 66.40000915527344 66.39990997314453 C 62.90806579589844 69.89185333251953 58.84215545654297 72.63327026367188 54.31523132324219 74.54798889160156 C 49.62919998168945 76.53001403808594 44.65054321289062 77.53498077392578 39.51754379272461 77.53498077392578 Z" stroke="none"/>
                                    <path d="M 39.51754379272461 3 C 34.58638000488281 3 29.80431747436523 3.965103149414062 25.30418014526367 5.868492126464844 C 20.9560546875 7.707588195800781 17.05040740966797 10.34104919433594 13.69573211669922 13.69572448730469 C 10.34105682373047 17.0504035949707 7.707595825195312 20.95603942871094 5.868492126464844 25.30415344238281 C 3.965095520019531 29.80427932739258 2.999992370605469 34.58634185791016 2.999992370605469 39.51749038696289 C 2.999992370605469 44.44863891601562 3.965095520019531 49.23070526123047 5.868492126464844 53.73082733154297 C 7.707595825195312 58.07894134521484 10.34105682373047 61.98457717895508 13.69573211669922 65.33924865722656 C 17.05040740966797 68.69392395019531 20.9560546875 71.327392578125 25.30418014526367 73.16648864746094 C 29.80431747436523 75.06987762451172 34.58638000488281 76.03498077392578 39.51754379272461 76.03498077392578 C 44.44870758056641 76.03498077392578 49.23076629638672 75.06987762451172 53.73089599609375 73.16648864746094 C 58.07901763916016 71.327392578125 61.98466873168945 68.69392395019531 65.33934020996094 65.33924865722656 C 68.69401550292969 61.98457717895508 71.32748413085938 58.07894134521484 73.16658020019531 53.73082733154297 C 75.06998443603516 49.23070526123047 76.03507995605469 44.44863891601562 76.03507995605469 39.51749038696289 C 76.03507995605469 34.58634185791016 75.06998443603516 29.80427932739258 73.16658020019531 25.30415344238281 C 71.32748413085938 20.95603942871094 68.69401550292969 17.0504035949707 65.33934020996094 13.69572448730469 C 61.98466873168945 10.34104919433594 58.07901763916016 7.707588195800781 53.73089599609375 5.868492126464844 C 49.23076629638672 3.965103149414062 44.44870758056641 3 39.51754379272461 3 M 39.51754379272461 0 C 61.34248352050781 0 79.03507995605469 17.69257736206055 79.03507995605469 39.51749038696289 C 79.03507995605469 61.34240341186523 61.34248352050781 79.03498077392578 39.51754379272461 79.03498077392578 C 17.69260787963867 79.03498077392578 -7.62939453125e-06 61.34240341186523 -7.62939453125e-06 39.51749038696289 C -7.62939453125e-06 17.69257736206055 17.69260787963867 0 39.51754379272461 0 Z" stroke="none" fill="#5692e8"/>
                                  </g>
                                </g>
                              </g>
                            </g>
                          </g>
                        </g>
                      </g>
                    </g>
                  </g>
                </g>
              </g>
            </g>
          </g>
        </g>
      </g>
    </g>
    <g id="g3531" transform="translate(842 2282.665)">
      <g id="g3533" transform="translate(0 -682.665)">
        <g id="g3535" clip-path="url(#clip-path)">
          <g id="g3541" transform="translate(25.32 26.594)">
            <path id="path3543" d="M0-237.5v-3.528A12.881,12.881,0,0,0,10.187-245.6a17.632,17.632,0,0,0,3.772-11.406h3.528a21.147,21.147,0,0,1-4.6,13.68,16.081,16.081,0,0,1-5.551,4.265A17.276,17.276,0,0,1,0-237.5" transform="translate(0 257.007)" fill="#e2e2e2"/>
          </g>
          <g id="g3545" transform="translate(2.361 36.965)">
            <path id="path3547" d="M-157.242-54.034c3.435,2.918,3.558,8.563,3.558,8.563h-16.47c0-9.707,5.606-13,5.606-13h5.849Z" transform="translate(170.154 58.471)" fill="#bc9bdd"/>
          </g>
          <g id="g3549" transform="translate(10.689 10.222)">
            <path id="path3551" d="M-28.161,0h0a2.313,2.313,0,0,0-2.312,2.312V6.091h4.625V2.312A2.312,2.312,0,0,0-28.161,0" transform="translate(30.473)" fill="#ff748f"/>
          </g>
          <g id="g3553" transform="translate(24.031 20.064)">
            <path id="path3555" d="M-60,0h-4.927V4.045H-60a2.022,2.022,0,0,0,2.022-2.022A2.022,2.022,0,0,0-60,0" transform="translate(64.924)" fill="#ff748f"/>
          </g>
          <g id="g3557" transform="translate(0.859 21.253)">
            <path id="path3559" d="M-2.469-29.745a12.205,12.205,0,0,0-.2,2.218A12.142,12.142,0,0,0,9.47-15.386,12.142,12.142,0,0,0,21.612-27.528a12.215,12.215,0,0,0-.2-2.218L9.47-32.188Z" transform="translate(2.672 32.188)" fill="#ffdcce"/>
          </g>
          <g id="g3561" transform="translate(0.859 22.863)">
            <path id="path3563" d="M-52.03,0-56.1.833a12.214,12.214,0,0,0-.2,2.218,12.084,12.084,0,0,0,1.939,6.584A21.752,21.752,0,0,1-52.03,0" transform="translate(56.303)" fill="#ffcabd"/>
          </g>
          <g id="g3565" transform="translate(0.759 13.267)">
            <path id="path3567" d="M-297.639-113.374a12.668,12.668,0,0,0-12.2-9.31,12.668,12.668,0,0,0-12.2,9.31,1.212,1.212,0,0,0,1.169,1.533h22.06a1.212,1.212,0,0,0,1.169-1.533" transform="translate(322.08 122.684)" fill="#bc9bdd"/>
          </g>
          <g id="g3569" transform="translate(9.223 17.654)">
            <path id="path3571" d="M-71.428,0H-75.6a1.691,1.691,0,0,0-1.691,1.691A1.691,1.691,0,0,0-75.6,3.381h4.175a1.691,1.691,0,0,0,1.691-1.691A1.691,1.691,0,0,0-71.428,0" transform="translate(77.293)" fill="#f8e86a"/>
          </g>
          <g id="g3573" transform="translate(15.273 39.904)">
            <path id="path3575" d="M-146.9-53.937a3.335,3.335,0,0,1-3.335,3.334h-.7a16.672,16.672,0,0,1-7.829-1.933l-.2-4.332,3.45-1.5a10.028,10.028,0,0,0,4.577,1.095h.7a3.335,3.335,0,0,1,3.335,3.334" transform="translate(158.965 58.367)" fill="#ffdcce"/>
          </g>
          <g id="g3577" transform="translate(10.482 37.07)">
            <path id="path3579" d="M-100.352-34.505l-3.252,5.83a16.79,16.79,0,0,1-4.013-2.972,3.336,3.336,0,0,1,0-4.715,3.335,3.335,0,0,1,4.716,0,10.072,10.072,0,0,0,2.548,1.857" transform="translate(108.593 37.339)" fill="#ff748f"/>
          </g>
          <g id="g3581" transform="translate(30.703 1.838)">
            <path id="path3583" d="M-123.857,0l3.146,6.845-3.146,5.019-4.412,3.129-5.759-3.129a3.276,3.276,0,0,1,.717-2l6.89-8.629A3.265,3.265,0,0,1-123.857,0" transform="translate(134.028 0)" fill="#f8e86a"/>
          </g>
          <g id="g3585" transform="translate(38.234 11.223)">
            <path id="path3587" d="M-156.01-30.2a3.265,3.265,0,0,1-.517,1.816l-6.89,10.756a3.257,3.257,0,0,1-2.764,1.511l-2.64-8.282,2.64-5.8,5.567-2.48Z" transform="translate(168.821 32.677)" fill="#bc9bdd"/>
          </g>
          <g id="g3589" transform="translate(30.703 6.691)">
            <path id="path3591" d="M-56.5-19.055c0-.529.027-1.051.078-1.565l-4,5.011a3.275,3.275,0,0,0-.717,2l5.759,3.129,1.012-.718A15.318,15.318,0,0,1-56.5-19.055" transform="translate(61.144 20.62)" fill="#fbc072"/>
          </g>
          <g id="g3593" transform="translate(30.703 13.702)">
            <path id="path3595" d="M-123.861,0V14.084a3.258,3.258,0,0,1-2.763-1.511l-6.889-10.756A3.277,3.277,0,0,1-134.032,0Z" transform="translate(134.032)" fill="#ff748f"/>
          </g>
          <g id="g3597" transform="translate(40.874 1.838)">
            <path id="path3599" d="M-123.857-144.478h-10.171v-11.864a3.266,3.266,0,0,1,2.564,1.234l6.891,8.629a3.268,3.268,0,0,1,.716,2" transform="translate(134.028 156.342)" fill="#60d9a7"/>
          </g>
          <g id="g3601" transform="translate(0.759 13.267)">
            <path id="path3603" d="M-167.132-1.06a12.729,12.729,0,0,0-1.482-.087,12.668,12.668,0,0,0-12.2,9.31A1.212,1.212,0,0,0-179.644,9.7h2.579A21.937,21.937,0,0,1-167.132-1.06" transform="translate(180.856 1.147)" fill="#b08bd7"/>
          </g>
          <g id="g3605" transform="translate(2.361 41.013)">
            <path id="path3607" d="M-25.238,0a18.319,18.319,0,0,0-2.072,8.952h8.889A21.92,21.92,0,0,1-25.238,0" transform="translate(27.311)" fill="#b08bd7"/>
          </g>
          <g id="g3609" transform="translate(38.234 18.079)">
            <path id="path3611" d="M-7.9,0l-.649,1.425,2.64,8.282A3.256,3.256,0,0,0-3.144,8.2L-.661,4.319A12.776,12.776,0,0,1-7.9,0" transform="translate(8.548)" fill="#b08bd7"/>
          </g>
          <g id="g3613" transform="translate(30.703 13.702)">
            <path id="path3615" d="M-68.376,0h-5.614a3.276,3.276,0,0,0,.518,1.816l6.89,10.756a3.257,3.257,0,0,0,2.763,1.511v-7.8A14.265,14.265,0,0,1-68.376,0" transform="translate(73.991)" fill="#fd5f7e"/>
          </g>
          <g id="g3617" transform="translate(9.223 17.654)">
            <path id="path3619" d="M-71.428,0H-75.6a1.691,1.691,0,0,0-1.691,1.691A1.691,1.691,0,0,0-75.6,3.382h4.175a1.691,1.691,0,0,0,1.691-1.691A1.691,1.691,0,0,0-71.428,0Z" transform="translate(77.293)" fill="none" stroke="#000" stroke-linecap="round" stroke-linejoin="round" stroke-miterlimit="10" stroke-width="1.5"/>
          </g>
          <g id="g3621" transform="translate(6.706 27.383)">
            <path id="path3623" d="M0,0V1.21" fill="none" stroke="#000" stroke-linecap="round" stroke-linejoin="round" stroke-miterlimit="10" stroke-width="1.5"/>
          </g>
          <g id="g3625" transform="translate(19.296 27.383)">
            <path id="path3627" d="M0,0V1.21" fill="none" stroke="#000" stroke-linecap="round" stroke-linejoin="round" stroke-miterlimit="10" stroke-width="1.5"/>
          </g>
          <g id="g3629" transform="translate(11.342 28.557)">
            <path id="path3631" d="M0,0A2.2,2.2,0,0,0,1.66.756,2.2,2.2,0,0,0,3.319,0" fill="none" stroke="#000" stroke-linecap="round" stroke-linejoin="round" stroke-miterlimit="10" stroke-width="1.5"/>
          </g>
          <g id="g3633" transform="translate(30.703 13.702)">
            <path id="path3635" d="M-123.861,0V14.084a3.257,3.257,0,0,1-2.763-1.511l-6.889-10.756A3.276,3.276,0,0,1-134.032,0Z" transform="translate(134.032)" fill="none" stroke="#000" stroke-linecap="round" stroke-linejoin="round" stroke-miterlimit="10" stroke-width="1.5"/>
          </g>
          <g id="g3637" transform="translate(40.874 1.838)">
            <path id="path3639" d="M-123.857-144.478h-10.171v-11.864a3.265,3.265,0,0,1,2.564,1.234l6.891,8.629A3.268,3.268,0,0,1-123.857-144.478Z" transform="translate(134.028 156.342)" fill="none" stroke="#000" stroke-linecap="round" stroke-linejoin="round" stroke-miterlimit="10" stroke-width="1.5"/>
          </g>
          <g id="g3641" transform="translate(30.703 1.838)">
            <path id="path3643" d="M-123.857,0V11.864h-10.171a3.275,3.275,0,0,1,.717-2l6.889-8.629A3.265,3.265,0,0,1-123.857,0Z" transform="translate(134.028 0)" fill="none" stroke="#000" stroke-linecap="round" stroke-linejoin="round" stroke-miterlimit="10" stroke-width="1.5"/>
          </g>
          <g id="g3645" transform="translate(40.874 13.702)">
            <path id="path3647" d="M-123.857,0a3.265,3.265,0,0,1-.517,1.816l-6.89,10.756a3.257,3.257,0,0,1-2.764,1.511V0Z" transform="translate(134.028)" fill="none" stroke="#000" stroke-linecap="round" stroke-linejoin="round" stroke-miterlimit="10" stroke-width="1.5"/>
          </g>
          <g id="g3649" transform="translate(26.786 27.165)">
            <path id="path3651" d="M-97.264-141.7a12.7,12.7,0,0,1-7.987,3.7,3.318,3.318,0,0,1,.549,1.833,3.317,3.317,0,0,1-.467,1.7,16.885,16.885,0,0,0,5.784-1.5,16.081,16.081,0,0,0,5.551-4.265,20.982,20.982,0,0,0,4.6-13.109,3.279,3.279,0,0,1-1.926.621,3.29,3.29,0,0,1-1.609-.419,18.207,18.207,0,0,1-2.6,9.036" transform="translate(105.25 153.332)" fill="none" stroke="#000" stroke-linecap="round" stroke-linejoin="round" stroke-miterlimit="10" stroke-width="1.5"/>
          </g>
          <g id="g3653" transform="translate(10.689 10.222)">
            <path id="path3655" d="M-28.161-37.087a12.659,12.659,0,0,1,2.312.213v-.945a2.312,2.312,0,0,0-2.312-2.313,2.313,2.313,0,0,0-2.312,2.313v.945A12.661,12.661,0,0,1-28.161-37.087Z" transform="translate(30.473 40.132)" fill="none" stroke="#000" stroke-linecap="round" stroke-linejoin="round" stroke-miterlimit="10" stroke-width="1.5"/>
          </g>
          <g id="g3657" transform="translate(0.759 13.267)">
            <path id="path3659" d="M-39.79-45.628a12.651,12.651,0,0,0-3.224,5.563,1.212,1.212,0,0,0,1.169,1.533h22.06a1.212,1.212,0,0,0,1.169-1.533,12.668,12.668,0,0,0-12.2-9.31,12.567,12.567,0,0,0-6.578,1.85" transform="translate(43.058 49.375)" fill="none" stroke="#000" stroke-linecap="round" stroke-linejoin="round" stroke-miterlimit="10" stroke-width="1.5"/>
          </g>
          <g id="g3661" transform="translate(24.21 20.064)">
            <path id="path3663" d="M-57.817,0h-4.748a12.556,12.556,0,0,1,.99,2.512,1.206,1.206,0,0,1-.259,1.119h0c.025.137.048.275.068.414h3.949A2.022,2.022,0,0,0-55.8,2.022h0A2.022,2.022,0,0,0-57.817,0Z" transform="translate(62.565)" fill="none" stroke="#000" stroke-linecap="round" stroke-linejoin="round" stroke-miterlimit="10" stroke-width="1.5"/>
          </g>
          <g id="g3665" transform="translate(15.471 39.904)">
            <path id="path3667" d="M-103.873-13.331h-.7a10.028,10.028,0,0,1-4.577-1.095L-112.4-8.6a16.672,16.672,0,0,0,7.829,1.933h.7A3.335,3.335,0,0,0-100.537-10,3.335,3.335,0,0,0-103.873-13.331Z" transform="translate(112.402 14.425)" fill="none" stroke="#000" stroke-linecap="round" stroke-linejoin="round" stroke-miterlimit="10" stroke-width="1.5"/>
          </g>
          <g id="g3669" transform="translate(10.482 37.07)">
            <path id="path3671" d="M-100.352-34.505l-3.252,5.83a16.787,16.787,0,0,1-4.013-2.972,3.336,3.336,0,0,1,0-4.715,3.335,3.335,0,0,1,4.716,0A10.077,10.077,0,0,0-100.352-34.505Z" transform="translate(108.593 37.339)" fill="none" stroke="#000" stroke-linecap="round" stroke-linejoin="round" stroke-miterlimit="10" stroke-width="1.5"/>
          </g>
          <g id="g3673" transform="translate(2.361 36.965)">
            <path id="path3675" d="M-159.652-106.787a16.785,16.785,0,0,1-4.013-2.972,3.336,3.336,0,0,1,0-4.715c.027-.027.056-.053.084-.08a12.058,12.058,0,0,1-3.572-1h0s-5.606,3.293-5.606,13h16.47a15.364,15.364,0,0,0-.451-3.03A16.551,16.551,0,0,1-159.652-106.787Z" transform="translate(172.762 115.556)" fill="none" stroke="#000" stroke-linecap="round" stroke-linejoin="round" stroke-miterlimit="10" stroke-width="1.5"/>
          </g>
          <g id="g3677" transform="translate(0.859 23.695)">
            <path id="path3679" d="M-293.263,0h0a1.2,1.2,0,0,1-.909.414h-22.06A1.2,1.2,0,0,1-317.142,0a12.214,12.214,0,0,0-.2,2.218,12.144,12.144,0,0,0,10.683,12.055,3.335,3.335,0,0,1,4.264-.239A12.146,12.146,0,0,0-293.06,2.218,12.208,12.208,0,0,0-293.263,0Z" transform="translate(317.345)" fill="none" stroke="#000" stroke-linecap="round" stroke-linejoin="round" stroke-miterlimit="10" stroke-width="1.5"/>
          </g>
        </g>
      </g>
    </g>
  </g>
</svg>
