<svg xmlns="http://www.w3.org/2000/svg" xmlns:xlink="http://www.w3.org/1999/xlink" width="97.035" height="97.035" viewBox="0 0 97.035 97.035">
  <defs>
    <filter id="Trazado_982547" x="0" y="0" width="97.035" height="97.035" filterUnits="userSpaceOnUse">
      <feOffset dy="3" input="SourceAlpha"/>
      <feGaussianBlur stdDeviation="3" result="blur"/>
      <feFlood flood-opacity="0.161"/>
      <feComposite operator="in" in2="blur"/>
      <feComposite in="SourceGraphic"/>
    </filter>
  </defs>
  <g id="Grupo_1172529" data-name="Grupo 1172529" transform="translate(-189 -1748)">
    <g id="Grupo_1172077" data-name="Grupo 1172077" transform="translate(-0.409 -788.582)">
      <g id="Grupo_1166162" data-name="Grupo 1166162" transform="translate(-607.781 577.058)">
        <g id="Grupo_1164703" data-name="Grupo 1164703" transform="translate(806.19 1965.523)">
          <g id="Grupo_1160931" data-name="Grupo 1160931" transform="translate(0 0)">
            <g id="Grupo_1160749" data-name="Grupo 1160749" transform="translate(0 0)">
              <g id="Grupo_1158891" data-name="Grupo 1158891" transform="translate(0 0)">
                <g id="Grupo_1157406" data-name="Grupo 1157406" transform="translate(0 0)">
                  <g id="Grupo_1155793" data-name="Grupo 1155793" transform="translate(0 0)">
                    <g id="Grupo_1154704" data-name="Grupo 1154704">
                      <g id="Grupo_1150790" data-name="Grupo 1150790">
                        <g id="Grupo_1154214" data-name="Grupo 1154214">
                          <g id="Grupo_1152583" data-name="Grupo 1152583">
                            <g id="Grupo_1146973" data-name="Grupo 1146973">
                              <g id="Grupo_1146954" data-name="Grupo 1146954">
                                <g transform="matrix(1, 0, 0, 1, -9, -6)" filter="url(#Trazado_982547)">
                                  <g id="Trazado_982547-2" data-name="Trazado 982547" transform="translate(9 6)" fill="#edf3fc">
                                    <path d="M 39.51754379272461 77.53498077392578 C 34.38454437255859 77.53498077392578 29.40588760375977 76.53001403808594 24.7198657989502 74.54798889160156 C 20.19293212890625 72.63327026367188 16.12703323364258 69.89185333251953 12.63507747650146 66.39990997314453 C 9.143132209777832 62.90796661376953 6.401721477508545 58.84206771850586 4.486988067626953 54.31515884399414 C 2.504966020584106 49.62913513183594 1.499999403953552 44.65047836303711 1.499999403953552 39.51749038696289 C 1.499999403953552 34.38450241088867 2.504966020584106 29.40584564208984 4.486988067626953 24.71982383728027 C 6.401721477508545 20.19291305541992 9.143132209777832 16.12701225280762 12.63507747650146 12.6350679397583 C 16.12703323364258 9.143123626708984 20.19293212890625 6.401712417602539 24.7198657989502 4.486990451812744 C 29.40588760375977 2.504968166351318 34.38454437255859 1.500001549720764 39.51754379272461 1.500001549720764 C 44.65054321289062 1.500001549720764 49.62919998168945 2.504968166351318 54.31523132324219 4.486990451812744 C 58.84215545654297 6.401712417602539 62.90806579589844 9.143123626708984 66.40000915527344 12.6350679397583 C 69.89195251464844 16.12701225280762 72.63337707519531 20.19291305541992 74.548095703125 24.71982383728027 C 76.53012084960938 29.40584564208984 77.53508758544922 34.38450241088867 77.53508758544922 39.51749038696289 C 77.53508758544922 44.65047836303711 76.53012084960938 49.62913513183594 74.548095703125 54.31515884399414 C 72.63337707519531 58.84206771850586 69.89195251464844 62.90796661376953 66.40000915527344 66.39990997314453 C 62.90806579589844 69.89185333251953 58.84215545654297 72.63327026367188 54.31523132324219 74.54798889160156 C 49.62919998168945 76.53001403808594 44.65054321289062 77.53498077392578 39.51754379272461 77.53498077392578 Z" stroke="none"/>
                                    <path d="M 39.51754379272461 3 C 34.58638000488281 3 29.80431747436523 3.965103149414062 25.30418014526367 5.868492126464844 C 20.9560546875 7.707588195800781 17.05040740966797 10.34104919433594 13.69573211669922 13.69572448730469 C 10.34105682373047 17.0504035949707 7.707595825195312 20.95603942871094 5.868492126464844 25.30415344238281 C 3.965095520019531 29.80427932739258 2.999992370605469 34.58634185791016 2.999992370605469 39.51749038696289 C 2.999992370605469 44.44863891601562 3.965095520019531 49.23070526123047 5.868492126464844 53.73082733154297 C 7.707595825195312 58.07894134521484 10.34105682373047 61.98457717895508 13.69573211669922 65.33924865722656 C 17.05040740966797 68.69392395019531 20.9560546875 71.327392578125 25.30418014526367 73.16648864746094 C 29.80431747436523 75.06987762451172 34.58638000488281 76.03498077392578 39.51754379272461 76.03498077392578 C 44.44870758056641 76.03498077392578 49.23076629638672 75.06987762451172 53.73089599609375 73.16648864746094 C 58.07901763916016 71.327392578125 61.98466873168945 68.69392395019531 65.33934020996094 65.33924865722656 C 68.69401550292969 61.98457717895508 71.32748413085938 58.07894134521484 73.16658020019531 53.73082733154297 C 75.06998443603516 49.23070526123047 76.03507995605469 44.44863891601562 76.03507995605469 39.51749038696289 C 76.03507995605469 34.58634185791016 75.06998443603516 29.80427932739258 73.16658020019531 25.30415344238281 C 71.32748413085938 20.95603942871094 68.69401550292969 17.0504035949707 65.33934020996094 13.69572448730469 C 61.98466873168945 10.34104919433594 58.07901763916016 7.707588195800781 53.73089599609375 5.868492126464844 C 49.23076629638672 3.965103149414062 44.44870758056641 3 39.51754379272461 3 M 39.51754379272461 0 C 61.34248352050781 0 79.03507995605469 17.69257736206055 79.03507995605469 39.51749038696289 C 79.03507995605469 61.34240341186523 61.34248352050781 79.03498077392578 39.51754379272461 79.03498077392578 C 17.69260787963867 79.03498077392578 -7.62939453125e-06 61.34240341186523 -7.62939453125e-06 39.51749038696289 C -7.62939453125e-06 17.69257736206055 17.69260787963867 0 39.51754379272461 0 Z" stroke="none" fill="#5692e8"/>
                                  </g>
                                </g>
                              </g>
                            </g>
                          </g>
                        </g>
                      </g>
                    </g>
                  </g>
                </g>
              </g>
            </g>
          </g>
        </g>
      </g>
    </g>
    <g id="worldwide_1426415" transform="translate(213 1768.001)">
      <path id="Trazado_1026452" data-name="Trazado 1026452" d="M62.718,52.552a23.31,23.31,0,1,1-23.31-23.31A23.31,23.31,0,0,1,62.718,52.552Zm0,0" transform="translate(-14.519 -26.374)" fill="#a0d9e7"/>
      <path id="Trazado_1026453" data-name="Trazado 1026453" d="M31.441,43.492a23.313,23.313,0,1,0,27.5,34.628C29.209,79.5,23.114,53.3,31.441,43.492Zm0,0" transform="translate(-14.519 -39.227)" fill="#7ccbdd"/>
      <path id="Trazado_1026454" data-name="Trazado 1026454" d="M104.565,95.255c-.6-3.6-1.921-7.242-4.374-8.942-4.9-3.392-8.075,1.484-8.393-.106s1.535-4.664-1.088-4.982-2.836,3.392-5.008,2.65S81.6,82.6,81.822,80.484s.755-2.438,2.133-1.7,4.028-1.788,3.71-3.226,3.046-4.724,1.7-6.331c-1.967-2.341-7.892-3.375-12.479-1.255S72.65,73,70.193,72.822s-3.677,1.447-4.459,2.928c-1.5,2.839-2,5.581-.051,6.854s4.7.848,5.446,1.8.954,4.982,3.286,5.088-.318-2.918,0-4.586,3.236,1.911,4.479,2.507,4,1.55,6.014.489,2.709,1.171,1.46,2.811S83,96.98,85.7,98.961s9.672.929,10.057,1.879c.223.55.917,2.314,1.422,4.091a23.378,23.378,0,0,0,7.384-9.675Zm0,0" transform="translate(-58.089 -60.27)" fill="#99da90"/>
      <path id="Trazado_1026455" data-name="Trazado 1026455" d="M268.157,360.855a3.5,3.5,0,0,0,1.292,3.294c2.7,1.98,9.673.928,10.057,1.878.223.551.917,2.314,1.422,4.091a23.436,23.436,0,0,0,5.334-5.767c-7.484.348-13.469-1.052-18.1-3.5Zm0,0" transform="translate(-241.836 -325.458)" fill="#69ab8d"/>
      <path id="Trazado_1026456" data-name="Trazado 1026456" d="M71.129,134.944c.742.954.955,4.982,3.287,5.088,1.82.083.6-1.743.135-3.341a22.576,22.576,0,0,1-2.77-13.832,2.04,2.04,0,0,1-1.587.5c-2.457-.182-3.677,1.447-4.459,2.927-1.5,2.839-2,5.582-.051,6.854S70.387,133.991,71.129,134.944Zm0,0" transform="translate(-58.09 -110.809)" fill="#69ab8d"/>
      <path id="Trazado_1026457" data-name="Trazado 1026457" d="M270.136,124.738H248.319a.7.7,0,0,1-.674-.9,9.893,9.893,0,0,0,.4-2.788v-4.28h22.363v4.28a9.893,9.893,0,0,0,.4,2.788.7.7,0,0,1-.674.9Zm0,0" transform="translate(-223.326 -105.316)" fill="#404656"/>
      <path id="Trazado_1026458" data-name="Trazado 1026458" d="M233.439,94.1a3.021,3.021,0,1,0-2.981,2.532A2.785,2.785,0,0,0,233.439,94.1Zm0,0" transform="translate(-205.162 -82.582)" fill="#f8dccc"/>
      <path id="Trazado_1026459" data-name="Trazado 1026459" d="M449.681,94.1a3.021,3.021,0,1,0-2.981,2.532A2.784,2.784,0,0,0,449.681,94.1Zm0,0" transform="translate(-400.192 -82.582)" fill="#f0cdb9"/>
      <path id="Trazado_1026460" data-name="Trazado 1026460" d="M468.52,129.475a1.784,1.784,0,1,1-1.784-1.784A1.784,1.784,0,0,1,468.52,129.475Zm0,0" transform="translate(-419.343 -115.166)" fill="#e8899e"/>
      <path id="Trazado_1026461" data-name="Trazado 1026461" d="M234.22,129.475a1.784,1.784,0,1,1-1.784-1.784A1.784,1.784,0,0,1,234.22,129.475Zm0,0" transform="translate(-208.027 -115.166)" fill="#e8899e"/>
      <path id="Trazado_1026462" data-name="Trazado 1026462" d="M275.48,22.182c0-5.718-4.945-10.354-11.045-10.354S253.39,16.464,253.39,22.182s4.945,9.046,11.045,9.046S275.48,27.9,275.48,22.182Zm0,0" transform="translate(-228.534 -10.669)" fill="#f8dccc"/>
      <path id="Trazado_1026463" data-name="Trazado 1026463" d="M257.231,37.379a10.074,10.074,0,0,0-3.841,7.848c0,5.718,4.945,9.046,11.045,9.046q.723,0,1.423-.062c-8.939-2.507-10.583-11.277-8.627-16.831Zm0,0" transform="translate(-228.534 -33.713)" fill="#f0cdb9"/>
      <path id="Trazado_1026464" data-name="Trazado 1026464" d="M273.951,123.217a2.636,2.636,0,1,0-2.569,2.046A2.353,2.353,0,0,0,273.951,123.217Zm0,0" transform="translate(-242.443 -109.286)" fill="#f8b8bd"/>
      <path id="Trazado_1026465" data-name="Trazado 1026465" d="M415.92,123.217a2.636,2.636,0,1,0-2.569,2.046A2.353,2.353,0,0,0,415.92,123.217Zm0,0" transform="translate(-370.486 -109.286)" fill="#f8b8bd"/>
      <path id="Trazado_1026466" data-name="Trazado 1026466" d="M349.014,113.127c0-1.28-.927-1.4-2.071-1.4s-2.071.12-2.071,1.4a2.085,2.085,0,1,0,4.143,0Zm0,0" transform="translate(-311.041 -100.768)" fill="#404656"/>
      <path id="Trazado_1026467" data-name="Trazado 1026467" d="M272.464,16.854a.6.6,0,0,0,.789-.69,11.7,11.7,0,0,0-22.6,0,.6.6,0,0,0,.78.692,7.97,7.97,0,0,0,3.656-3c1.548,1.83,6.491,2.918,12.888-1.323a8.966,8.966,0,0,0,4.49,4.322Zm0,0" transform="translate(-226.051 -6.765)" fill="#404656"/>
      <path id="Trazado_1026468" data-name="Trazado 1026468" d="M251.432,36.59a6.959,6.959,0,0,0,2.584-1.728,13.243,13.243,0,0,1,1.043-5.484,10.759,10.759,0,0,0-4.407,6.519.6.6,0,0,0,.78.692Zm0,0" transform="translate(-226.052 -26.497)" fill="#353947"/>
      <path id="Trazado_1026469" data-name="Trazado 1026469" d="M248.286,374.194a3.153,3.153,0,1,0-3.112,2.644A2.907,2.907,0,0,0,248.286,374.194Zm0,0" transform="translate(-218.317 -335.105)" fill="#f0cdb9"/>
      <path id="Trazado_1026470" data-name="Trazado 1026470" d="M13.723,374.194a2.906,2.906,0,0,0-3.111-2.643,2.679,2.679,0,1,0,0,5.287A2.906,2.906,0,0,0,13.723,374.194Zm0,0" transform="translate(-6.764 -335.105)" fill="#f8dccc"/>
      <path id="Trazado_1026471" data-name="Trazado 1026471" d="M59.2,299.135c0-5.968-5.317-10.807-11.874-10.807s-11.875,4.838-11.875,10.807,5.317,9.442,11.875,9.442S59.2,305.1,59.2,299.135Zm0,0" transform="translate(-31.971 -260.046)" fill="#f8dccc"/>
      <path id="Trazado_1026472" data-name="Trazado 1026472" d="M41.415,302.918a10.676,10.676,0,0,0-5.965,9.376c0,5.969,5.317,9.442,11.875,9.442q.9,0,1.763-.087c-12.006-2.973-11.012-13.6-7.673-18.731Zm0,0" transform="translate(-31.971 -273.204)" fill="#f0cdb9"/>
      <path id="Trazado_1026473" data-name="Trazado 1026473" d="M60.434,403.534a2.752,2.752,0,1,0-2.681,2.135A2.456,2.456,0,0,0,60.434,403.534Zm0,0" transform="translate(-49.668 -362.025)" fill="#f8b8bd"/>
      <path id="Trazado_1026474" data-name="Trazado 1026474" d="M208.618,403.534a2.752,2.752,0,1,0-2.682,2.135A2.456,2.456,0,0,0,208.618,403.534Zm0,0" transform="translate(-183.316 -362.025)" fill="#f8b8bd"/>
      <path id="Trazado_1026475" data-name="Trazado 1026475" d="M60.344,297.473c-.879-5.179-5.8-9.145-11.735-9.145s-10.856,3.966-11.734,9.145a10.408,10.408,0,0,0,5.773-3.738,4.229,4.229,0,0,0,.547,1.779.3.3,0,0,0,.331.148c1.439-.33,4.513-2.234,5.084-3.561.571,1.327,3.645,3.232,5.084,3.561a.305.305,0,0,0,.331-.148,4.231,4.231,0,0,0,.547-1.779A10.41,10.41,0,0,0,60.344,297.473Zm0,0" transform="translate(-33.257 -260.046)" fill="#404656"/>
      <path id="Trazado_1026476" data-name="Trazado 1026476" d="M42.7,302.926a10.873,10.873,0,0,0-5.825,7.713,9.277,9.277,0,0,0,3.712-1.737,14.252,14.252,0,0,1,2.113-5.976Zm0,0" transform="translate(-33.257 -273.212)" fill="#353947"/>
      <path id="Trazado_1026477" data-name="Trazado 1026477" d="M42.435,12.251a.736.736,0,0,0,.736-.736v-1.1a.736.736,0,1,0-1.471,0v1.1A.735.735,0,0,0,42.435,12.251ZM35.9,15.413a2.942,2.942,0,0,0,2.807-3.054c0-2.136-1.967-2.136-2.807-2.136s-2.807,0-2.807,2.136A2.941,2.941,0,0,0,35.9,15.413Zm0-3.718c1.336,0,1.336.208,1.336.665a1.355,1.355,0,1,1-2.672,0c0-.456,0-.665,1.336-.665ZM10.188,39.186a.736.736,0,0,0,1.471,0,2.012,2.012,0,1,0-4.025,0,.736.736,0,0,0,1.471,0,.541.541,0,1,1,1.082,0Zm10.329,0a.541.541,0,1,1,1.082,0,.736.736,0,0,0,1.471,0,2.012,2.012,0,1,0-4.025,0,.736.736,0,0,0,1.471,0ZM50.224,11.513A3.34,3.34,0,0,0,47.711,8.42a11.139,11.139,0,0,0-1.428-3.026.736.736,0,0,0-1.223.818,9.621,9.621,0,0,1,1.366,3.093,8.71,8.71,0,0,1-3.862-3.9.736.736,0,0,0-1.048-.252C35.149,9.377,30.737,7.962,29.6,6.615a.736.736,0,0,0-1.158.044,7.443,7.443,0,0,1-3.063,2.646A10.685,10.685,0,0,1,35.9,1.47,11.257,11.257,0,0,1,42.93,3.9a.736.736,0,1,0,.92-1.148,12.845,12.845,0,0,0-15.415-.357,24.309,24.309,0,0,0-3.546-.262A24.055,24.055,0,0,0,2.859,35.824,3.5,3.5,0,0,0,0,39.089a3.566,3.566,0,0,0,3.331,3.348,9.4,9.4,0,0,0,3.624,4.514.736.736,0,0,0,.824-1.219,7.727,7.727,0,0,1-3.566-6.643,9.126,9.126,0,0,1,.061-1.053,11.247,11.247,0,0,0,4.731-2.8,4.786,4.786,0,0,0,.295.6,1.035,1.035,0,0,0,1.133.5,12.036,12.036,0,0,0,4.919-3.01,12.041,12.041,0,0,0,4.919,3.01,1.036,1.036,0,0,0,1.133-.5,4.873,4.873,0,0,0,.3-.6,11.242,11.242,0,0,0,4.731,2.8,9.212,9.212,0,0,1,.061,1.053,7.7,7.7,0,0,1-3.184,6.371A13.3,13.3,0,0,1,15.352,47.8a15.414,15.414,0,0,1-4.727-.7.736.736,0,0,0-.451,1.4,16.877,16.877,0,0,0,5.179.773,18.17,18.17,0,0,0,2.32-.149A24.064,24.064,0,0,0,48,19.52a1.424,1.424,0,0,0,.188-1.205,9.159,9.159,0,0,1-.31-1.534,2.518,2.518,0,0,0,1.79-3.549,2.978,2.978,0,0,0,.554-1.718Zm-24.6-.726h0a8.264,8.264,0,0,0,3.5-2.613C31.21,9.728,35.795,10.439,41.681,6.8a9.061,9.061,0,0,0,4.486,3.985l.014,0c.02.243.03.485.03.726a7.714,7.714,0,0,1-.841,3.593l0,.01q-.1.187-.207.369l-.006.009a7.637,7.637,0,0,1-1.891,2.1,12.053,12.053,0,0,1-7.36,2.225,12.052,12.052,0,0,1-7.36-2.225,7.548,7.548,0,0,1-2.1-2.481l0-.01a7.709,7.709,0,0,1-.841-3.593c0-.241.011-.484.03-.726Zm20.568,7.9H44.258a9.463,9.463,0,0,0,1.4-1.363q.289.675.531,1.363Zm-22.065-6.88a2.508,2.508,0,0,0-.946.306,1.452,1.452,0,0,1-.129-.6,1.724,1.724,0,0,1,.917-1.445,1.347,1.347,0,0,0,.213.335,10.584,10.584,0,0,0-.06,1.11q0,.147,0,.292Zm.148,1.465a8.859,8.859,0,0,0,.594,1.98,1.031,1.031,0,0,1-.273.088h-.006a1.064,1.064,0,0,1-.179.017,1.048,1.048,0,0,1-.136-2.086Zm.19,7.021c.008-.079.017-.154.026-.225a1.436,1.436,0,0,0,.5.09h5.05q.458.2.941.361a5.383,5.383,0,0,0-1.622,1.476c-.733.893-.988,1.094-1.511.915l-.349-.118c-2.265-.767-3.175-1.208-3.037-2.5Zm.953-3.674c.051-.022.1-.046.151-.072a9.177,9.177,0,0,0,1.977,2.14H25.037a10.613,10.613,0,0,0,.38-2.068ZM1.472,39.089a1.947,1.947,0,0,1,1.414-1.743,10.654,10.654,0,0,0-.144,1.743,9.938,9.938,0,0,0,.153,1.747,1.947,1.947,0,0,1-1.423-1.747Zm2.375-4.723A22.58,22.58,0,0,1,24.889,3.6c.675,0,1.352.031,2.026.092a11.6,11.6,0,0,0-1.682,2.154,14.131,14.131,0,0,0-6.75,1.189,11.424,11.424,0,0,0-4.459,3.556c-.779.955-1.087,1.283-1.866,1.225C9.217,11.6,7.8,13.607,6.994,15.137c-2.626,4.971-1,7.029.2,7.813A9.086,9.086,0,0,0,10.747,24.1a4.071,4.071,0,0,1,1.711.491,6.084,6.084,0,0,1,.487,1.307,16.086,16.086,0,0,0,.62,1.768,12.567,12.567,0,0,0-9.719,6.7ZM21.9,33.248a.736.736,0,0,0-1.321.376,3.619,3.619,0,0,1-.3,1.185c-1.433-.48-3.845-2.1-4.252-3.043a.736.736,0,0,0-1.352,0c-.407.947-2.819,2.563-4.252,3.043a3.629,3.629,0,0,1-.3-1.185A.736.736,0,0,0,8.8,33.248a10.345,10.345,0,0,1-4.178,3.129,11.045,11.045,0,0,1,10.728-7.359A11.045,11.045,0,0,1,26.08,36.377,10.344,10.344,0,0,1,21.9,33.248Zm4.195-.194a12.68,12.68,0,0,0-8.185-5.268c-.1-.346-.235-.711-.382-1.09a7.145,7.145,0,0,1-.489-1.615,16.048,16.048,0,0,1,1.608,1.307,9.7,9.7,0,0,0,1.838,1.42c.932.446,4.165,1.8,6.674.477.2-.1.67-.317.862-.091A1.666,1.666,0,0,1,27.694,30a11.648,11.648,0,0,0-1.6,3.055Zm-1.207,15.7a22.692,22.692,0,0,1-4.054-.365,12.261,12.261,0,0,0,3.355-1.75,9.221,9.221,0,0,0,3.195-4.2,3.831,3.831,0,0,0,2.991-1.984,33.436,33.436,0,0,0,4.173.345,15.2,15.2,0,0,1,2.5.209c.232.581.754,1.935,1.191,3.377a22.407,22.407,0,0,1-13.354,4.369Zm2.929-11.405a1.782,1.782,0,0,1,0,3.488,10.149,10.149,0,0,0,.148-1.745,10.646,10.646,0,0,0-.144-1.743ZM40.852,42.14q-.663.663-1.372,1.264c-.461-1.438-.96-2.7-1.127-3.111-.338-.833-1.477-.878-3.746-.966a32.453,32.453,0,0,1-3.9-.312,3.573,3.573,0,0,0-3.279-3.267q-.137-.412-.305-.81a10.342,10.342,0,0,1,1.747-4.047,3.026,3.026,0,0,0,.282-3.647,2.057,2.057,0,0,0-2.67-.261c-.342.18-2.209,1-5.353-.5a10.042,10.042,0,0,1-1.5-1.194C18.173,24,17.24,23.227,16.372,23.523a1.183,1.183,0,0,0-.769.977,5.366,5.366,0,0,0,.554,2.725c.046.118.092.237.135.354q-.465-.032-.94-.032l-.2,0a10.682,10.682,0,0,1-.8-2.084,5.817,5.817,0,0,0-.733-1.781,4.005,4.005,0,0,0-2.63-1.039A7.825,7.825,0,0,1,8,21.718c-1.821-1.189-.595-4.2.3-5.894C9,14.484,10,13.136,12.049,13.286c1.581.118,2.327-.8,3.116-1.762A9.995,9.995,0,0,1,19.1,8.374a12.493,12.493,0,0,1,5.4-1.081,10.93,10.93,0,0,0-.4,1.127,3.34,3.34,0,0,0-2.514,3.093,2.981,2.981,0,0,0,.554,1.718,2.518,2.518,0,0,0,1.79,3.549,9.208,9.208,0,0,1-.2,1.1A3.851,3.851,0,0,0,23,20.136c-.275,2.592,2.012,3.365,4.029,4.048l.345.117c1.56.532,2.463-.569,3.124-1.374.689-.84,1.156-1.348,2.034-1.242a.923.923,0,0,1,.648.271c.256.349.1,1.216-.047,1.981a5.946,5.946,0,0,0-.146,2.144,1.085,1.085,0,0,0,.588.819c.554.266,1.114-.025,1.824-.393,1.384-.718,3.477-1.8,6.283.141,2.544,1.763,3.613,5.852,4.034,8.265a22.538,22.538,0,0,1-4.865,7.227Zm5.786-9.876c-1.084-3.973-2.778-5.9-4.116-6.825-3.535-2.449-6.309-1.01-7.8-.237-.1.052-.208.108-.312.16a9.794,9.794,0,0,1,.17-1.155,4.329,4.329,0,0,0-.118-2.976c.473.041.953.064,1.44.064a14.9,14.9,0,0,0,5.859-1.137h4.892a22.793,22.793,0,0,1-.015,12.106Zm.756-16.907a1.067,1.067,0,0,1-.172-.016l-.02,0a1.037,1.037,0,0,1-.266-.087,8.878,8.878,0,0,0,.594-1.98,1.048,1.048,0,0,1-.137,2.086Zm1.231-3.245a2.5,2.5,0,0,0-.946-.306c0-.1,0-.195,0-.293a10.518,10.518,0,0,0-.06-1.112,1.333,1.333,0,0,0,.213-.334,1.724,1.724,0,0,1,.918,1.445,1.455,1.455,0,0,1-.129.6ZM15.352,42.03a2.533,2.533,0,0,0,1.909-.869.736.736,0,0,0-1.11-.967,1.059,1.059,0,0,1-1.6,0,.736.736,0,0,0-1.109.967A2.532,2.532,0,0,0,15.352,42.03ZM29.368,12.251a.736.736,0,0,0,.736-.736v-1.1a.736.736,0,1,0-1.471,0v1.1A.735.735,0,0,0,29.368,12.251Zm0,0" transform="translate(0 0)"/>
    </g>
  </g>
</svg>
