<svg xmlns="http://www.w3.org/2000/svg" xmlns:xlink="http://www.w3.org/1999/xlink" width="108" height="108" viewBox="0 0 108 108">
  <defs>
    <filter id="Trazado_978624" x="0" y="0" width="108" height="108" filterUnits="userSpaceOnUse">
      <feOffset dy="3" input="SourceAlpha"/>
      <feGaussianBlur stdDeviation="3" result="blur"/>
      <feFlood flood-opacity="0.161"/>
      <feComposite operator="in" in2="blur"/>
      <feComposite in="SourceGraphic"/>
    </filter>
  </defs>
  <g id="Grupo_1172928" data-name="Grupo 1172928" transform="translate(-616 -2993)">
    <g id="Grupo_1172321" data-name="Grupo 1172321" transform="translate(0 -644)">
      <g id="Grupo_1168322" data-name="Grupo 1168322" transform="translate(625 3643)">
        <g id="Grupo_1164524" data-name="Grupo 1164524">
          <g id="Grupo_1144123" data-name="Grupo 1144123">
            <g transform="matrix(1, 0, 0, 1, -9, -6)" filter="url(#Trazado_978624)">
              <g id="Trazado_978624-2" data-name="Trazado 978624" transform="translate(9 6)" fill="#edf3fc">
                <path d="M 45 88.5 C 39.12687683105469 88.5 33.43022537231445 87.35007476806641 28.06830024719238 85.08217620849609 C 22.88852500915527 82.89131164550781 18.23629951477051 79.75458526611328 14.2408504486084 75.75914764404297 C 10.24541282653809 71.76370239257812 7.108687400817871 67.11147308349609 4.917825222015381 61.93170166015625 C 2.649924993515015 56.56977462768555 1.5 50.87312316894531 1.5 45 C 1.5 39.12687683105469 2.649924993515015 33.43022537231445 4.917825222015381 28.06830024719238 C 7.108687400817871 22.88852500915527 10.24541282653809 18.23629951477051 14.2408504486084 14.2408504486084 C 18.23629951477051 10.24541282653809 22.88852500915527 7.108687400817871 28.06830024719238 4.917825222015381 C 33.43022537231445 2.649924993515015 39.12687683105469 1.5 45 1.5 C 50.87312316894531 1.5 56.56977462768555 2.649924993515015 61.93170166015625 4.917825222015381 C 67.11147308349609 7.108687400817871 71.76370239257812 10.24541282653809 75.75914764404297 14.2408504486084 C 79.75458526611328 18.23629951477051 82.89131164550781 22.88852500915527 85.08217620849609 28.06830024719238 C 87.35007476806641 33.43022537231445 88.5 39.12687683105469 88.5 45 C 88.5 50.87312316894531 87.35007476806641 56.56977462768555 85.08217620849609 61.93170166015625 C 82.89131164550781 67.11147308349609 79.75458526611328 71.76370239257812 75.75914764404297 75.75914764404297 C 71.76370239257812 79.75458526611328 67.11147308349609 82.89131164550781 61.93170166015625 85.08217620849609 C 56.56977462768555 87.35007476806641 50.87312316894531 88.5 45 88.5 Z" stroke="none"/>
                <path d="M 45 3 C 39.32871246337891 3 33.82865524291992 4.110054016113281 28.65262985229492 6.299339294433594 C 23.65165710449219 8.414573669433594 19.15968322753906 11.44334411621094 15.301513671875 15.301513671875 C 11.44334411621094 19.15968322753906 8.414573669433594 23.65165710449219 6.299339294433594 28.65262985229492 C 4.110054016113281 33.82865524291992 3 39.32871246337891 3 45 C 3 50.67128753662109 4.110054016113281 56.17134475708008 6.299339294433594 61.34737396240234 C 8.414573669433594 66.34834289550781 11.44334411621094 70.84031677246094 15.301513671875 74.698486328125 C 19.15968322753906 78.55665588378906 23.65165710449219 81.58542633056641 28.65262985229492 83.70066070556641 C 33.82865524291992 85.88994598388672 39.32871246337891 87 45 87 C 50.67128753662109 87 56.17134475708008 85.88994598388672 61.34737396240234 83.70066070556641 C 66.34834289550781 81.58542633056641 70.84031677246094 78.55665588378906 74.698486328125 74.698486328125 C 78.55665588378906 70.84031677246094 81.58542633056641 66.34834289550781 83.70066070556641 61.34737396240234 C 85.88994598388672 56.17134475708008 87 50.67128753662109 87 45 C 87 39.32871246337891 85.88994598388672 33.82865524291992 83.70066070556641 28.65262985229492 C 81.58542633056641 23.65165710449219 78.55665588378906 19.15968322753906 74.698486328125 15.301513671875 C 70.84031677246094 11.44334411621094 66.34834289550781 8.414573669433594 61.34737396240234 6.299339294433594 C 56.17134475708008 4.110054016113281 50.67128753662109 3 45 3 M 45 0 C 69.85281372070312 0 90 20.14718627929688 90 45 C 90 69.85281372070312 69.85281372070312 90 45 90 C 20.14718627929688 90 0 69.85281372070312 0 45 C 0 20.14718627929688 20.14718627929688 0 45 0 Z" stroke="none" fill="#5692e8"/>
              </g>
            </g>
          </g>
        </g>
      </g>
    </g>
    <g id="online-education_1470423" transform="translate(641 3017.001)">
      <path id="Trazado_1027407" data-name="Trazado 1027407" d="M288,400.9h19.6a1.781,1.781,0,0,0,1.782-1.782v-5.347a1.782,1.782,0,0,0-1.782-1.782H288Zm0,0" transform="translate(-255.92 -348.33)" fill="#33c0db"/>
      <path id="Trazado_1027408" data-name="Trazado 1027408" d="M48.991,120.983a20.5,20.5,0,1,0-40.991,0c0,.066.008.129.009.2s-.009.129-.009.195a20.5,20.5,0,0,0,40.991,0c0-.066-.009-.129-.009-.195S48.991,121.05,48.991,120.983Zm0,0" transform="translate(-7.109 -89.296)" fill="#33c0db"/>
      <path id="Trazado_1027409" data-name="Trazado 1027409" d="M120.351,309.339v4.456a.891.891,0,0,1-.891.891h-1.305a.891.891,0,0,1-.741-.4l-1.253-1.879a.891.891,0,0,0-.741-.4h-1.554a.892.892,0,0,0-.846.61l-2.652,7.957a20.487,20.487,0,0,0,23.351-3.652v-6.7a.892.892,0,0,0-.891-.891h-3.088a.891.891,0,0,1-.741-.4l-3.035-4.553a.891.891,0,0,0-.741-.4h-3.979a.892.892,0,0,0-.891.891v2.673" transform="translate(-98.074 -270.132)" fill="#fcb641"/>
      <path id="Trazado_1027410" data-name="Trazado 1027410" d="M162.8,100.95l2.293-.235A20.451,20.451,0,0,0,162.8,100.95Zm0,0" transform="translate(-144.667 -89.497)" fill="#33c0db"/>
      <path id="Trazado_1027411" data-name="Trazado 1027411" d="M95,102.954a20.046,20.046,0,0,0-7.068,3.205,20.374,20.374,0,0,1,8.34-3.336Zm0,0" transform="translate(-78.136 -91.371)" fill="#33c0db"/>
      <path id="Trazado_1027412" data-name="Trazado 1027412" d="M72.471,113.407a.889.889,0,0,0,.8.493H75.39a.892.892,0,0,1,.891.891v4.456a.891.891,0,0,0,.891.891h5.65a.889.889,0,0,0,.819-.54l2.21-5.157a.89.89,0,0,1,.819-.54h3.868a.891.891,0,0,0,.891-.891v-6.662a21.074,21.074,0,0,0-7.129-1.234c-.322,0-.642.009-.961.023l-2.293.228a19.643,19.643,0,0,0-10.247,4.7Zm0,0" transform="translate(-62.915 -93.405)" fill="#fcb641"/>
      <path id="Trazado_1027413" data-name="Trazado 1027413" d="M42.773,121.562a21.34,21.34,0,0,0-5.529-14.35l-1.321,1.2a19.585,19.585,0,0,1,.612,25.583v-4.409a1.784,1.784,0,0,0-1.782-1.782H31.665l-3.035-4.553a1.779,1.779,0,0,0-1.483-.794H23.169a1.784,1.784,0,0,0-1.782,1.782v2.673h1.782v-2.673h3.979l3.035,4.553a1.779,1.779,0,0,0,1.483.794h3.088v6.3l-.114.109c-.357.329-.727.64-1.105.938-.114.09-.226.181-.342.269-.369.28-.748.542-1.133.793-.136.089-.273.178-.412.265-.383.236-.774.457-1.172.666-.148.077-.3.154-.446.229q-.611.3-1.241.559c-.144.059-.287.115-.433.17-.442.168-.889.323-1.343.458-.123.037-.248.071-.372.106-.483.134-.971.253-1.465.35-.094.019-.19.034-.284.05-.528.1-1.059.174-1.6.225-.057.006-.114.008-.171.013-.574.049-1.154.08-1.739.08-.339,0-.678-.009-1.015-.026-.268-.013-.534-.037-.8-.06-.064-.007-.129-.009-.193-.015-.307-.031-.61-.071-.912-.117l-.065-.009c-.3-.045-.594-.1-.888-.158l-.082-.015c-.276-.057-.549-.122-.821-.19l-.143-.035c-.245-.064-.487-.134-.729-.208l-.235-.07c-.214-.068-.425-.141-.636-.216-.106-.037-.212-.074-.317-.113-.188-.07-.374-.145-.56-.221-.126-.052-.251-.1-.375-.157-.076-.033-.15-.068-.225-.1l2.4-7.2h1.554l1.253,1.88a1.779,1.779,0,0,0,1.483.794h1.305a1.784,1.784,0,0,0,1.782-1.782v-4.456H21.386v4.456H20.081l-1.253-1.879a1.779,1.779,0,0,0-1.483-.794H15.791a1.778,1.778,0,0,0-1.69,1.218l-2.318,6.953a19.532,19.532,0,0,1-4.144-31l1.118,2.236a1.77,1.77,0,0,0,1.594.986h2.122v4.456a1.784,1.784,0,0,0,1.782,1.782h5.65a1.779,1.779,0,0,0,1.638-1.08l2.21-5.158h3.868a1.784,1.784,0,0,0,1.782-1.782V107.3H27.624v1.782H23.756a1.779,1.779,0,0,0-1.638,1.08l-2.21,5.157h-5.65v-4.456a1.784,1.784,0,0,0-1.782-1.782H10.353l-1.341-2.679a19.619,19.619,0,0,1,3.232-2.175c.078-.041.156-.083.235-.123.444-.228.895-.444,1.358-.639.047-.02.1-.036.142-.054.4-.165.811-.314,1.225-.452.149-.05.3-.1.449-.144.429-.132.863-.253,1.3-.355.034-.008.068-.019.1-.026l-.13-.576-.262-1.164c-.029.006-.056.016-.085.023-.5.114-.987.251-1.475.4-.173.053-.344.111-.515.168-.379.127-.754.266-1.126.415-.135.054-.272.1-.406.161q-.763.323-1.5.706l-.066.036c-.509.266-1.005.557-1.492.864l-.025.016A21.486,21.486,0,0,0,7.3,105.478a.821.821,0,0,0-.1.125,21.341,21.341,0,0,0,4.667,35.1c.013.007.02.019.033.025.05.025.1.045.151.07.179.087.361.168.543.25.3.138.608.266.914.389.184.073.365.149.551.217.214.078.43.148.646.219.138.045.275.094.415.136.223.069.448.13.673.191.136.037.272.074.409.109.225.056.453.109.68.157.144.031.289.061.434.088.221.043.441.083.664.119.165.027.332.049.5.071.2.027.409.056.615.078s.426.038.64.054c.165.012.329.029.494.037.386.021.773.033,1.163.033.667,0,1.324-.034,1.975-.094l.144-.01c.616-.06,1.223-.152,1.821-.265.088-.016.177-.03.264-.047.564-.113,1.119-.252,1.666-.408.124-.036.249-.069.372-.106.513-.157,1.018-.336,1.514-.53.151-.059.3-.116.451-.178.472-.2.934-.413,1.388-.642.161-.081.322-.161.481-.247.444-.238.877-.494,1.3-.762.152-.1.3-.191.453-.291.429-.286.846-.59,1.253-.905.13-.1.26-.2.388-.305.415-.338.816-.693,1.2-1.06.065-.061.136-.114.2-.177.013-.013.017-.03.03-.043a21.318,21.318,0,0,0,6.479-15.314Zm0,0" transform="translate(0 -89.484)"/>
      <path id="Trazado_1027414" data-name="Trazado 1027414" d="M57.348,275.1l-.972-.971a.892.892,0,0,0-.846-.235l-2.466.617a.892.892,0,0,1-.958-.37l-1.169-1.753a.888.888,0,0,0-.741-.4H48.891a.892.892,0,0,0-.891.891v2.3a.889.889,0,0,0,.261.63L51.3,278.86a.89.89,0,0,0,.63.261h3.536a.889.889,0,0,0,.8-.493l1.248-2.5a.889.889,0,0,0-.166-1.028Zm0,0" transform="translate(-42.654 -241.696)" fill="#fcb641"/>
      <path id="Trazado_1027415" data-name="Trazado 1027415" d="M48.36,272.9H44.825a1.792,1.792,0,0,1-1.26-.522l-3.042-3.042a1.77,1.77,0,0,1-.522-1.26v-2.3a1.784,1.784,0,0,1,1.782-1.782h1.305a1.779,1.779,0,0,1,1.483.794l1.169,1.754,2.467-.617a1.788,1.788,0,0,1,1.692.47l.97.97a1.78,1.78,0,0,1,.334,2.058l-1.248,2.5a1.771,1.771,0,0,1-1.594.985Zm-6.578-7.129v2.3l3.042,3.042H48.36l1.249-2.5-.972-.971-2.467.617a1.786,1.786,0,0,1-1.914-.741l-1.169-1.754Zm0,0" transform="translate(-35.545 -234.587)"/>
      <path id="Trazado_1027416" data-name="Trazado 1027416" d="M265.015,227.227l-1.371-2.742a.892.892,0,0,0-.8-.493h-1.852a.889.889,0,0,0-.495.15l-1.795,1.2a.891.891,0,0,0-.3,1.14l1.314,2.629a.893.893,0,0,0,.339.365l4.022,2.413a.889.889,0,0,0,.459.127h2.427a.891.891,0,0,0,.891-.891V229.09a.89.89,0,0,0-.61-.845l-1.713-.571A.89.89,0,0,1,265.015,227.227Zm0,0" transform="translate(-229.536 -199.043)" fill="#fcb641"/>
      <path id="Trazado_1027417" data-name="Trazado 1027417" d="M259.852,225.794h-2.427a1.785,1.785,0,0,1-.917-.254l-4.022-2.413a1.785,1.785,0,0,1-.677-.731l-1.315-2.629a1.785,1.785,0,0,1,.606-2.28l1.794-1.2a1.774,1.774,0,0,1,.988-.3h1.853a1.77,1.77,0,0,1,1.594.986l1.37,2.739,0,0,1.713.571a1.781,1.781,0,0,1,1.219,1.691v2.031A1.784,1.784,0,0,1,259.852,225.794Zm-4.115-8.02h-1.852l-1.795,1.2,1.315,2.629,4.02,2.413h2.427v-2.031l-1.714-.571a1.773,1.773,0,0,1-1.029-.892h0Zm0,0" transform="translate(-222.426 -191.934)"/>
      <path id="Trazado_1027418" data-name="Trazado 1027418" d="M224,63.383l8.911,3.078,8.911-3.078V57.55l-3.348-1a19.6,19.6,0,0,0-11.267.026L224,57.55Zm0,0" transform="translate(-199.049 -49.532)" fill="#9c9792"/>
      <path id="Trazado_1027419" data-name="Trazado 1027419" d="M154.713,7.992,136,15.121l9.8,4.456V15.121l3.278-.984a19.607,19.607,0,0,1,11.266,0l3.279.984v4.456l9.8-4.456Zm0,0" transform="translate(-120.851 -7.103)" fill="#706d69"/>
      <path id="Trazado_1027420" data-name="Trazado 1027420" d="M456,132.448v-2.673a1.782,1.782,0,0,1,3.564,0v2.673" transform="translate(-405.207 -113.736)" fill="#9bc53d"/>
      <path id="Trazado_1027421" data-name="Trazado 1027421" d="M453.347,125.339h-1.782v-2.673a.891.891,0,1,0-1.782,0v2.673H448v-2.673a2.673,2.673,0,1,1,5.347,0Zm0,0" transform="translate(-398.098 -106.627)"/>
      <path id="Trazado_1027422" data-name="Trazado 1027422" d="M464,191.992h1.782v2.673H464Zm0,0" transform="translate(-412.316 -170.607)"/>
      <path id="Trazado_1027423" data-name="Trazado 1027423" d="M483.086,182.474l1.543-.892,1.337,2.315-1.543.892Zm0,0" transform="translate(-429.276 -161.357)"/>
      <path id="Trazado_1027424" data-name="Trazado 1027424" d="M435.07,183.9l1.336-2.315,1.544.891-1.337,2.316Zm0,0" transform="translate(-386.609 -161.36)"/>
      <path id="Trazado_1027425" data-name="Trazado 1027425" d="M167.2,8.018c0-.01,0-.019,0-.027a.889.889,0,0,0-.573-.8L147.918.057a.893.893,0,0,0-.635,0L128.569,7.186a.891.891,0,0,0-.052,1.643l9.281,4.218v.8a.892.892,0,0,0,.6.842l8.911,3.079a.9.9,0,0,0,.291.048.875.875,0,0,0,.291-.049l8.911-3.079a.89.89,0,0,0,.6-.842v-.8l8.02-3.645v3.072H167.2V8.018Zm-11.58,5.2-8.02,2.771-8.02-2.771V8.681l2.643-.793a18.689,18.689,0,0,1,4.016-.741c.057,0,.114,0,.171-.007.1-.006.2-.006.3-.01l0,6.235h1.782l0-6.235.151.005c.083,0,.166,0,.249.009a18.769,18.769,0,0,1,4.015.733l2.711.806ZM157.4,11.09V8.018a.891.891,0,0,0-.046-.283.967.967,0,0,0-.087-.166.839.839,0,0,0-.044-.083.84.84,0,0,0-.129-.126,1,1,0,0,0-.072-.07.868.868,0,0,0-.118-.057.968.968,0,0,0-.14-.069l-3.279-.984a20.559,20.559,0,0,0-4.476-.815l-.041,0c-.456-.03-.913-.049-1.371-.049l-.044,0c-.319,0-.637.02-.955.035-.167.008-.334.007-.5.02a20.493,20.493,0,0,0-4.462.825l-3.173.961-.031.009h0a.87.87,0,0,0-.2.1c-.016.01-.037.014-.052.025a.889.889,0,0,0-.378.727V11.09l-6.6-3,16.4-6.248L164,8.09Zm0,0" transform="translate(-113.739)"/>
      <path id="Trazado_1027426" data-name="Trazado 1027426" d="M392,247.992h8.911a1.782,1.782,0,0,1,1.782,1.782v5.347a1.781,1.781,0,0,1-1.782,1.782H392Zm0,0" transform="translate(-348.336 -220.37)" fill="#fcb641"/>
      <path id="Trazado_1027427" data-name="Trazado 1027427" d="M408,391.992h3.564V400.9H408Zm0,0" transform="translate(-362.554 -348.33)" fill="#c7ebf2"/>
      <path id="Trazado_1027428" data-name="Trazado 1027428" d="M392,327.992h10.693a1.782,1.782,0,0,1,1.782,1.782v3.564a1.781,1.781,0,0,1-1.782,1.782H392Zm0,0" transform="translate(-348.336 -291.458)" fill="#9bc53d"/>
      <path id="Trazado_1027429" data-name="Trazado 1027429" d="M432,327.992h3.564v7.129H432Zm0,0" transform="translate(-383.88 -291.458)" fill="#c5d998"/>
      <path id="Trazado_1027430" data-name="Trazado 1027430" d="M408,247.992h3.564V256.9H408Zm0,0" transform="translate(-362.554 -220.37)" fill="#fce0b0"/>
      <path id="Trazado_1027431" data-name="Trazado 1027431" d="M310.972,249.007a2.658,2.658,0,0,0,.2-.995v-5.347a2.677,2.677,0,0,0-2.673-2.673h-8.911v1.782h.891V248.9h-.891v1.782h3.564v5.347h-6.238v1.782h3.564v7.129H288v1.782h19.6a2.677,2.677,0,0,0,2.673-2.673v-5.347a2.64,2.64,0,0,0-.164-.891h.164a2.677,2.677,0,0,0,2.673-2.673v-3.564A2.668,2.668,0,0,0,310.972,249.007Zm-1.586-6.341v5.347a.892.892,0,0,1-.891.891h-2.673v-7.129H308.5A.892.892,0,0,1,309.386,242.666Zm-7.129-.891h1.782V248.9h-1.782Zm2.673,8.911h1.782v5.347h-1.782Zm-2.673,14.258v-7.129h1.782v7.129Zm6.238-6.238v5.347a.892.892,0,0,1-.891.891h-1.782v-7.129H307.6A.892.892,0,0,1,308.5,258.706Zm2.673-3.564a.892.892,0,0,1-.891.891H308.5v-5.347h1.782a.892.892,0,0,1,.891.891Zm0,0" transform="translate(-255.92 -213.261)"/>
    </g>
  </g>
</svg>
