<svg xmlns="http://www.w3.org/2000/svg" xmlns:xlink="http://www.w3.org/1999/xlink" width="97.035" height="97.035" viewBox="0 0 97.035 97.035">
  <defs>
    <filter id="Trazado_982547" x="0" y="0" width="97.035" height="97.035" filterUnits="userSpaceOnUse">
      <feOffset dy="3" input="SourceAlpha"/>
      <feGaussianBlur stdDeviation="3" result="blur"/>
      <feFlood flood-opacity="0.161"/>
      <feComposite operator="in" in2="blur"/>
      <feComposite in="SourceGraphic"/>
    </filter>
    <clipPath id="clip-path">
      <path id="path4707" d="M0-682.665H53.037v53.037H0Z" transform="translate(0 682.665)"/>
    </clipPath>
  </defs>
  <g id="Grupo_1172530" data-name="Grupo 1172530" transform="translate(-819 -1747)">
    <g id="Grupo_1172078" data-name="Grupo 1172078" transform="translate(629.591 -789.582)">
      <g id="Grupo_1166162" data-name="Grupo 1166162" transform="translate(-607.781 577.058)">
        <g id="Grupo_1164703" data-name="Grupo 1164703" transform="translate(806.19 1965.523)">
          <g id="Grupo_1160931" data-name="Grupo 1160931" transform="translate(0 0)">
            <g id="Grupo_1160749" data-name="Grupo 1160749" transform="translate(0 0)">
              <g id="Grupo_1158891" data-name="Grupo 1158891" transform="translate(0 0)">
                <g id="Grupo_1157406" data-name="Grupo 1157406" transform="translate(0 0)">
                  <g id="Grupo_1155793" data-name="Grupo 1155793" transform="translate(0 0)">
                    <g id="Grupo_1154704" data-name="Grupo 1154704">
                      <g id="Grupo_1150790" data-name="Grupo 1150790">
                        <g id="Grupo_1154214" data-name="Grupo 1154214">
                          <g id="Grupo_1152583" data-name="Grupo 1152583">
                            <g id="Grupo_1146973" data-name="Grupo 1146973">
                              <g id="Grupo_1146954" data-name="Grupo 1146954">
                                <g transform="matrix(1, 0, 0, 1, -9, -6)" filter="url(#Trazado_982547)">
                                  <g id="Trazado_982547-2" data-name="Trazado 982547" transform="translate(9 6)" fill="#edf3fc">
                                    <path d="M 39.51754379272461 77.53498077392578 C 34.38454437255859 77.53498077392578 29.40588760375977 76.53001403808594 24.7198657989502 74.54798889160156 C 20.19293212890625 72.63327026367188 16.12703323364258 69.89185333251953 12.63507747650146 66.39990997314453 C 9.143132209777832 62.90796661376953 6.401721477508545 58.84206771850586 4.486988067626953 54.31515884399414 C 2.504966020584106 49.62913513183594 1.499999403953552 44.65047836303711 1.499999403953552 39.51749038696289 C 1.499999403953552 34.38450241088867 2.504966020584106 29.40584564208984 4.486988067626953 24.71982383728027 C 6.401721477508545 20.19291305541992 9.143132209777832 16.12701225280762 12.63507747650146 12.6350679397583 C 16.12703323364258 9.143123626708984 20.19293212890625 6.401712417602539 24.7198657989502 4.486990451812744 C 29.40588760375977 2.504968166351318 34.38454437255859 1.500001549720764 39.51754379272461 1.500001549720764 C 44.65054321289062 1.500001549720764 49.62919998168945 2.504968166351318 54.31523132324219 4.486990451812744 C 58.84215545654297 6.401712417602539 62.90806579589844 9.143123626708984 66.40000915527344 12.6350679397583 C 69.89195251464844 16.12701225280762 72.63337707519531 20.19291305541992 74.548095703125 24.71982383728027 C 76.53012084960938 29.40584564208984 77.53508758544922 34.38450241088867 77.53508758544922 39.51749038696289 C 77.53508758544922 44.65047836303711 76.53012084960938 49.62913513183594 74.548095703125 54.31515884399414 C 72.63337707519531 58.84206771850586 69.89195251464844 62.90796661376953 66.40000915527344 66.39990997314453 C 62.90806579589844 69.89185333251953 58.84215545654297 72.63327026367188 54.31523132324219 74.54798889160156 C 49.62919998168945 76.53001403808594 44.65054321289062 77.53498077392578 39.51754379272461 77.53498077392578 Z" stroke="none"/>
                                    <path d="M 39.51754379272461 3 C 34.58638000488281 3 29.80431747436523 3.965103149414062 25.30418014526367 5.868492126464844 C 20.9560546875 7.707588195800781 17.05040740966797 10.34104919433594 13.69573211669922 13.69572448730469 C 10.34105682373047 17.0504035949707 7.707595825195312 20.95603942871094 5.868492126464844 25.30415344238281 C 3.965095520019531 29.80427932739258 2.999992370605469 34.58634185791016 2.999992370605469 39.51749038696289 C 2.999992370605469 44.44863891601562 3.965095520019531 49.23070526123047 5.868492126464844 53.73082733154297 C 7.707595825195312 58.07894134521484 10.34105682373047 61.98457717895508 13.69573211669922 65.33924865722656 C 17.05040740966797 68.69392395019531 20.9560546875 71.327392578125 25.30418014526367 73.16648864746094 C 29.80431747436523 75.06987762451172 34.58638000488281 76.03498077392578 39.51754379272461 76.03498077392578 C 44.44870758056641 76.03498077392578 49.23076629638672 75.06987762451172 53.73089599609375 73.16648864746094 C 58.07901763916016 71.327392578125 61.98466873168945 68.69392395019531 65.33934020996094 65.33924865722656 C 68.69401550292969 61.98457717895508 71.32748413085938 58.07894134521484 73.16658020019531 53.73082733154297 C 75.06998443603516 49.23070526123047 76.03507995605469 44.44863891601562 76.03507995605469 39.51749038696289 C 76.03507995605469 34.58634185791016 75.06998443603516 29.80427932739258 73.16658020019531 25.30415344238281 C 71.32748413085938 20.95603942871094 68.69401550292969 17.0504035949707 65.33934020996094 13.69572448730469 C 61.98466873168945 10.34104919433594 58.07901763916016 7.707588195800781 53.73089599609375 5.868492126464844 C 49.23076629638672 3.965103149414062 44.44870758056641 3 39.51754379272461 3 M 39.51754379272461 0 C 61.34248352050781 0 79.03507995605469 17.69257736206055 79.03507995605469 39.51749038696289 C 79.03507995605469 61.34240341186523 61.34248352050781 79.03498077392578 39.51754379272461 79.03498077392578 C 17.69260787963867 79.03498077392578 -7.62939453125e-06 61.34240341186523 -7.62939453125e-06 39.51749038696289 C -7.62939453125e-06 17.69257736206055 17.69260787963867 0 39.51754379272461 0 Z" stroke="none" fill="#5692e8"/>
                                  </g>
                                </g>
                              </g>
                            </g>
                          </g>
                        </g>
                      </g>
                    </g>
                  </g>
                </g>
              </g>
            </g>
          </g>
        </g>
      </g>
    </g>
    <g id="g4701" transform="translate(841 2448.665)">
      <g id="g4703" transform="translate(0 -682.665)">
        <g id="g4705" clip-path="url(#clip-path)">
          <g id="g4711" transform="translate(4.834 33.617)">
            <path id="path4713" d="M0-100.1a14.027,14.027,0,0,1,6.7-7.629l19.676-.8v13.915H6.239Z" transform="translate(0 108.53)" fill="#60d9a7"/>
          </g>
          <g id="g4715" transform="translate(1.418 3.493)">
            <path id="path4717" d="M-411.919-137.778a4.326,4.326,0,0,1-.235-2.687,12.594,12.594,0,0,0-.2-6.628,3.272,3.272,0,0,0-3.579-2.259,95.37,95.37,0,0,1-12.6.633,18.106,18.106,0,0,0-18.085,18.085h36.17a17.976,17.976,0,0,0-1.472-7.143" transform="translate(446.618 149.384)" fill="#ff748f"/>
          </g>
          <g id="g4719" transform="translate(1.418 4.957)">
            <path id="path4721" d="M-151.5,0A18.117,18.117,0,0,0-164.26,17.285h6.665A31.744,31.744,0,0,1-151.5,0" transform="translate(164.26)" fill="#fd5f7e"/>
          </g>
          <g id="g4723" transform="translate(4.938 12.459)">
            <path id="path4725" d="M-319.974-25.172a4.508,4.508,0,0,0-5.087-1.94,26.492,26.492,0,0,1-7.3.966,26.494,26.494,0,0,1-7.3-.966,4.536,4.536,0,0,0-5.127,2,14.5,14.5,0,0,0-2.137,7.7,14.607,14.607,0,0,0,14.46,14.464A14.565,14.565,0,0,0-317.8-17.51a14.494,14.494,0,0,0-2.177-7.663" transform="translate(346.928 27.293)" fill="#fed2a4"/>
          </g>
          <g id="g4727" transform="translate(20.574 21.952)">
            <path id="path4729" d="M0-184.675a15.574,15.574,0,0,1,15.556-15.556,15.574,15.574,0,0,1,15.556,15.556Z" transform="translate(0 200.232)" fill="#bc9bdd"/>
          </g>
          <g id="g4731" transform="translate(44.072 33.414)">
            <path id="path4733" d="M-97.2-48.6a4.094,4.094,0,0,1-4.094,4.094,4.094,4.094,0,0,1-4.094-4.094,4.094,4.094,0,0,1,4.094-4.094A4.094,4.094,0,0,1-97.2-48.6" transform="translate(105.389 52.695)" fill="#ffbd86"/>
          </g>
          <g id="g4735" transform="translate(20.574 22.185)">
            <path id="path4737" d="M-72.02-163.863a17.511,17.511,0,0,1,6.8-13.8,15.581,15.581,0,0,0-12.87,15.323h6.134c-.044-.5-.068-1.008-.068-1.52" transform="translate(78.086 177.666)" fill="#b08bd7"/>
          </g>
          <g id="g4739" transform="translate(24.094 30.399)">
            <path id="path4741" d="M-277.539-36.5h0a16.37,16.37,0,0,1-9.977-2.644,2.377,2.377,0,0,0-2.731,0,16.37,16.37,0,0,1-9.977,2.644,12.025,12.025,0,0,0-.691,4.292,12.066,12.066,0,0,0,11.579,11.771,12.037,12.037,0,0,0,12.491-12.028,12.015,12.015,0,0,0-.694-4.034" transform="translate(300.918 39.579)" fill="#fed2a4"/>
          </g>
          <g id="g4743" transform="translate(4.834 35.251)">
            <path id="path4745" d="M-62.834,0a14.243,14.243,0,0,0-5.293,6.8l6.239,5.483h7.5A31.3,31.3,0,0,1-62.834,0" transform="translate(68.127)" fill="#00cd8c"/>
          </g>
          <g id="g4747" transform="translate(3.902 42.049)">
            <path id="path4749" d="M-85.128,0V5.483H-92.3A15.791,15.791,0,0,1-91.366,0Z" transform="translate(92.298)" fill="#ffbd86"/>
          </g>
          <g id="g4751" transform="translate(20 33.414)">
            <path id="path4753" d="M-148.109-184.743a17.45,17.45,0,0,1-5.835-12.988,17.353,17.353,0,0,1,.184-2.516,13.673,13.673,0,0,1-2.037,0l0,.009a3.268,3.268,0,0,0-.69-.069,4.094,4.094,0,0,0-4.094,4.094,4.094,4.094,0,0,0,4.094,4.094,3.266,3.266,0,0,0,.7-.07,12.123,12.123,0,0,0,7.687,7.444" transform="translate(160.585 200.305)" fill="#ffbd86"/>
          </g>
          <g id="g4755" transform="translate(0.777 12.547)">
            <path id="path4757" d="M-86.284-133.958a32.114,32.114,0,0,1,2.032-11.284,4.566,4.566,0,0,0-3,2.1,14.483,14.483,0,0,0-1.546,3.483,3.723,3.723,0,0,0-.592-.046,4.162,4.162,0,0,0-4.161,4.162,4.161,4.161,0,0,0,4.161,4.161,3.71,3.71,0,0,0,.6-.046,14.616,14.616,0,0,0,3.7,6.194,32.26,32.26,0,0,1-1.194-8.72" transform="translate(93.552 145.242)" fill="#ffbd86"/>
          </g>
          <g id="g4759" transform="translate(29.616 36.462)">
            <path id="path4761" d="M0,0V1.252" fill="none" stroke="#000" stroke-linecap="round" stroke-linejoin="round" stroke-miterlimit="10" stroke-width="1.5"/>
          </g>
          <g id="g4763" transform="translate(42.645 36.462)">
            <path id="path4765" d="M0,0V1.252" fill="none" stroke="#000" stroke-linecap="round" stroke-linejoin="round" stroke-miterlimit="10" stroke-width="1.5"/>
          </g>
          <g id="g4767" transform="translate(34.413 37.676)">
            <path id="path4769" d="M0,0A2.272,2.272,0,0,0,1.717.783,2.272,2.272,0,0,0,3.435,0" fill="none" stroke="#000" stroke-linecap="round" stroke-linejoin="round" stroke-miterlimit="10" stroke-width="1.5"/>
          </g>
          <g id="g4771" transform="translate(11.611 20.054)">
            <path id="path4773" d="M0,0V1.5" fill="none" stroke="#000" stroke-linecap="round" stroke-linejoin="round" stroke-miterlimit="10" stroke-width="1.5"/>
          </g>
          <g id="g4775" transform="translate(27.187 20.054)">
            <path id="path4777" d="M0,0V1.5" fill="none" stroke="#000" stroke-linecap="round" stroke-linejoin="round" stroke-miterlimit="10" stroke-width="1.5"/>
          </g>
          <g id="g4779" transform="translate(17.346 21.506)">
            <path id="path4781" d="M0,0A2.716,2.716,0,0,0,2.053.935,2.716,2.716,0,0,0,4.106,0" fill="none" stroke="#000" stroke-linecap="round" stroke-linejoin="round" stroke-miterlimit="10" stroke-width="1.5"/>
          </g>
          <g id="g4783" transform="translate(0.777 18.08)">
            <path id="path4785" d="M-49.407-50.6a14.563,14.563,0,0,1,.592-4.219,4.185,4.185,0,0,0-.593-.043A4.162,4.162,0,0,0-53.569-50.7a4.162,4.162,0,0,0,4.162,4.162,4.2,4.2,0,0,0,.6-.043A14.445,14.445,0,0,1-49.407-50.6Z" transform="translate(53.569 54.861)" fill="none" stroke="#000" stroke-linecap="round" stroke-linejoin="round" stroke-miterlimit="10" stroke-width="1.5"/>
          </g>
          <g id="g4787" transform="translate(4.834 34.42)">
            <path id="path4789" d="M-292.643-155.664a12.136,12.136,0,0,1-4.692-5.991,4.122,4.122,0,0,1-.7.061,4.094,4.094,0,0,1-4.094-4.094,4.117,4.117,0,0,1,.063-.713c-.22.008-.441.013-.664.011a14.452,14.452,0,0,1-7.861-2.387h0a14.027,14.027,0,0,0-6.7,7.629h6.238v5.483Z" transform="translate(317.294 168.777)" fill="none" stroke="#000" stroke-linecap="round" stroke-linejoin="round" stroke-miterlimit="10" stroke-width="1.5"/>
          </g>
          <g id="g4791" transform="translate(3.902 42.049)">
            <path id="path4793" d="M-85.128,0V5.483H-92.3A15.791,15.791,0,0,1-91.366,0Z" transform="translate(92.298)" fill="none" stroke="#000" stroke-linecap="round" stroke-linejoin="round" stroke-miterlimit="10" stroke-width="1.5"/>
          </g>
          <g id="g4795" transform="translate(20.753 21.952)">
            <path id="path4797" d="M-289.68-34.343a15.471,15.471,0,0,0-9.025-2.893,15.581,15.581,0,0,0-15.377,13.191,4.088,4.088,0,0,1,3.341-1.729,4.126,4.126,0,0,1,.694.06,16.369,16.369,0,0,0,9.977-2.643,2.377,2.377,0,0,1,2.731,0,16.371,16.371,0,0,0,9.977,2.643h0a4.126,4.126,0,0,1,.694-.06,4.088,4.088,0,0,1,3.341,1.729,15.517,15.517,0,0,0-4.011-8.245" transform="translate(314.082 37.236)" fill="none" stroke="#000" stroke-linecap="round" stroke-linejoin="round" stroke-miterlimit="10" stroke-width="1.5"/>
          </g>
          <g id="g4799" transform="translate(1.587 3.493)">
            <path id="path4801" d="M-85.269-49.9a18.1,18.1,0,0,0-7.183,12.079A4.155,4.155,0,0,1-89.1-39.511a4.187,4.187,0,0,1,.593.043,14.49,14.49,0,0,1,1.545-3.48,4.536,4.536,0,0,1,5.127-2,26.493,26.493,0,0,0,7.3.966,26.5,26.5,0,0,0,7.3-.966,4.508,4.508,0,0,1,5.087,1.94,14.489,14.489,0,0,1,2.174,7.51,15.635,15.635,0,0,1,2.064-.137q.736,0,1.456.068a17.972,17.972,0,0,0-1.469-6.921,4.326,4.326,0,0,1-.235-2.687,12.594,12.594,0,0,0-.2-6.628,3.272,3.272,0,0,0-3.579-2.259,95.363,95.363,0,0,1-12.6.633,17.973,17.973,0,0,0-8.006,1.871" transform="translate(92.452 54.099)" fill="none" stroke="#000" stroke-linecap="round" stroke-linejoin="round" stroke-miterlimit="10" stroke-width="1.5"/>
          </g>
          <g id="g4803" transform="translate(4.938 12.459)">
            <path id="path4805" d="M-187.75-269.292h0a15.592,15.592,0,0,1,13.313-13.054,14.488,14.488,0,0,0-2.174-7.51,4.508,4.508,0,0,0-5.087-1.94,26.49,26.49,0,0,1-7.3.966,26.493,26.493,0,0,1-7.3-.966,4.535,4.535,0,0,0-5.127,2,14.5,14.5,0,0,0-2.137,7.7A14.606,14.606,0,0,0-189.1-267.628c.222,0,.443,0,.663-.011A4.075,4.075,0,0,1-187.75-269.292Z" transform="translate(203.565 291.976)" fill="none" stroke="#000" stroke-linecap="round" stroke-linejoin="round" stroke-miterlimit="10" stroke-width="1.5"/>
          </g>
          <g id="g4807" transform="translate(20 33.414)">
            <path id="path4809" d="M-48.633-51.655a12.025,12.025,0,0,1,.691-4.292,4.124,4.124,0,0,0-.694-.06,4.094,4.094,0,0,0-4.094,4.094,4.094,4.094,0,0,0,4.094,4.094,4.118,4.118,0,0,0,.7-.061A11.931,11.931,0,0,1-48.633-51.655Z" transform="translate(52.729 56.007)" fill="none" stroke="#000" stroke-linecap="round" stroke-linejoin="round" stroke-miterlimit="10" stroke-width="1.5"/>
          </g>
          <g id="g4811" transform="translate(47.473 33.414)">
            <path id="path4813" d="M-8.233,0a4.124,4.124,0,0,0-.694.06,12.017,12.017,0,0,1,.694,4.034,12.016,12.016,0,0,1-.694,4.034,4.113,4.113,0,0,0,.694.06A4.094,4.094,0,0,0-4.139,4.094,4.094,4.094,0,0,0-8.233,0Z" transform="translate(8.927)" fill="none" stroke="#000" stroke-linecap="round" stroke-linejoin="round" stroke-miterlimit="10" stroke-width="1.5"/>
          </g>
          <g id="g4815" transform="translate(24.094 30.399)">
            <path id="path4817" d="M-277.539-36.5h0a16.37,16.37,0,0,1-9.977-2.644,2.377,2.377,0,0,0-2.731,0,16.37,16.37,0,0,1-9.977,2.644,12.025,12.025,0,0,0-.691,4.292,12.066,12.066,0,0,0,11.579,11.771,12.037,12.037,0,0,0,12.491-12.028A12.015,12.015,0,0,0-277.539-36.5Z" transform="translate(300.918 39.579)" fill="none" stroke="#000" stroke-linecap="round" stroke-linejoin="round" stroke-miterlimit="10" stroke-width="1.5"/>
          </g>
        </g>
      </g>
    </g>
  </g>
</svg>
