<svg xmlns="http://www.w3.org/2000/svg" xmlns:xlink="http://www.w3.org/1999/xlink" width="103" height="103" viewBox="0 0 103 103">
  <defs>
    <filter id="Trazado_978624" x="0" y="0" width="103" height="103" filterUnits="userSpaceOnUse">
      <feOffset dy="3" input="SourceAlpha"/>
      <feGaussianBlur stdDeviation="3" result="blur"/>
      <feFlood flood-opacity="0.161"/>
      <feComposite operator="in" in2="blur"/>
      <feComposite in="SourceGraphic"/>
    </filter>
    <clipPath id="clip-path">
      <path id="path165" d="M0-682.665H55.021v55.021H0Z" transform="translate(0 682.665)"/>
    </clipPath>
  </defs>
  <g id="Grupo_1172833" data-name="Grupo 1172833" transform="translate(-171 -2365.356)">
    <g id="Grupo_1172222" data-name="Grupo 1172222" transform="translate(180 2371.356)">
      <g id="Grupo_1144531" data-name="Grupo 1144531">
        <g transform="matrix(1, 0, 0, 1, -9, -6)" filter="url(#Trazado_978624)">
          <g id="Trazado_978624-2" data-name="Trazado 978624" transform="translate(9 6)" fill="#f4fdfe">
            <path d="M 42.5 83.5 C 36.96437835693359 83.5 31.59512901306152 82.41617584228516 26.54141235351562 80.27863311767578 C 21.65934181213379 78.21369171142578 17.27447128295898 75.25723266601562 13.50862312316895 71.49137878417969 C 9.742764472961426 67.72553253173828 6.786305904388428 63.34066009521484 4.721364498138428 58.45858764648438 C 2.583823442459106 53.40486907958984 1.5 48.03562164306641 1.5 42.5 C 1.5 36.96437835693359 2.583823442459106 31.59512901306152 4.721364498138428 26.54141235351562 C 6.786305904388428 21.65934181213379 9.742764472961426 17.27447128295898 13.50862312316895 13.50862312316895 C 17.27447128295898 9.742764472961426 21.65934181213379 6.786305904388428 26.54141235351562 4.721364498138428 C 31.59512901306152 2.583823442459106 36.96437835693359 1.5 42.5 1.5 C 48.03562164306641 1.5 53.40486907958984 2.583823442459106 58.45858764648438 4.721364498138428 C 63.34066009521484 6.786305904388428 67.72553253173828 9.742764472961426 71.49137878417969 13.50862312316895 C 75.25723266601562 17.27447128295898 78.21369171142578 21.65934181213379 80.27863311767578 26.54141235351562 C 82.41617584228516 31.59512901306152 83.5 36.96437835693359 83.5 42.5 C 83.5 48.03562164306641 82.41617584228516 53.40486907958984 80.27863311767578 58.45858764648438 C 78.21369171142578 63.34066009521484 75.25723266601562 67.72553253173828 71.49137878417969 71.49137878417969 C 67.72553253173828 75.25723266601562 63.34066009521484 78.21369171142578 58.45858764648438 80.27863311767578 C 53.40486907958984 82.41617584228516 48.03562164306641 83.5 42.5 83.5 Z" stroke="none"/>
            <path d="M 42.5 3 C 37.16621398925781 3 31.99356079101562 4.043960571289062 27.125732421875 6.102882385253906 C 22.42246627807617 8.092185974121094 18.19785308837891 10.94070434570312 14.56928253173828 14.56928253173828 C 10.94070434570312 18.19785308837891 8.092185974121094 22.42246627807617 6.102882385253906 27.125732421875 C 4.043960571289062 31.99356079101562 3 37.16621398925781 3 42.5 C 3 47.83378601074219 4.043960571289062 53.00643920898438 6.102882385253906 57.87425231933594 C 8.092185974121094 62.57753372192383 10.94070434570312 66.80213165283203 14.56928253173828 70.43071746826172 C 18.19786834716797 74.05929565429688 22.42246627807617 76.90781402587891 27.125732421875 78.89711761474609 C 31.99356079101562 80.95603942871094 37.16621398925781 82 42.5 82 C 47.83378601074219 82 53.00642395019531 80.95603942871094 57.87425231933594 78.89711761474609 C 62.57753372192383 76.90781402587891 66.80213165283203 74.05929565429688 70.43071746826172 70.43071746826172 C 74.05929565429688 66.80213165283203 76.90781402587891 62.57753372192383 78.89711761474609 57.87425231933594 C 80.95603942871094 53.00642395019531 82 47.83378601074219 82 42.5 C 82 37.16621398925781 80.95603942871094 31.99356079101562 78.89711761474609 27.125732421875 C 76.90781402587891 22.42246627807617 74.05929565429688 18.19786834716797 70.43071746826172 14.56928253173828 C 66.80213165283203 10.94070434570312 62.57753372192383 8.092185974121094 57.87425231933594 6.102882385253906 C 53.00643920898438 4.043960571289062 47.83378601074219 3 42.5 3 M 42.5 0 C 65.97209167480469 0 85 19.02789306640625 85 42.5 C 85 65.97209167480469 65.97209167480469 85 42.5 85 C 19.02789306640625 85 0 65.97209167480469 0 42.5 C 0 19.02789306640625 19.02789306640625 0 42.5 0 Z" stroke="none" fill="#56838a"/>
          </g>
        </g>
      </g>
    </g>
    <g id="g159" transform="translate(194.99 3069.011)">
      <g id="g161" transform="translate(0 -682.665)">
        <g id="g163" clip-path="url(#clip-path)">
          <g id="g169" transform="translate(15.222 43.464)">
            <path id="path171" d="M-335.963-122.642c0-6.934-2.924-10.751-2.924-10.751h-23.6s-2.924,3.817-2.924,10.751Z" transform="translate(365.414 133.393)" fill="#ff8d9d"/>
          </g>
          <g id="g173" transform="translate(9.548 0.806)">
            <path id="path175" d="M0-232.7a20.422,20.422,0,0,1,20.4-20.4,20.422,20.422,0,0,1,20.4,20.4Z" transform="translate(0 253.103)" fill="#696eb1"/>
          </g>
          <g id="g177" transform="translate(41.871 17.456)">
            <path id="path179" d="M-110.044-55.022a4.823,4.823,0,0,1-4.823,4.823,4.823,4.823,0,0,1-4.823-4.823,4.823,4.823,0,0,1,4.823-4.823,4.823,4.823,0,0,1,4.823,4.823" transform="translate(119.69 59.845)" fill="#c7856a"/>
          </g>
          <g id="g181" transform="translate(3.502 0.851)">
            <path id="path183" d="M-286.5,0a20.263,20.263,0,0,0-9.219,2.9A5.843,5.843,0,0,0-300.129.334a5.841,5.841,0,0,0-6.025,4.157,5.858,5.858,0,0,1-3.169,3.74,6.878,6.878,0,0,1-.965.348,1.823,1.823,0,0,0-.79,3.044,7.221,7.221,0,0,0,6.531,2.357,20.319,20.319,0,0,0-1.021,6.374h8.592a19.88,19.88,0,0,1-.2-2.821A19.726,19.726,0,0,1-286.5,0" transform="translate(311.613)" fill="#4c5698"/>
          </g>
          <g id="g185" transform="translate(13.308 9.519)">
            <path id="path187" d="M-375.231-92.475a3.567,3.567,0,0,0-3.987-2.74,30.389,30.389,0,0,1-4.148.283,28.011,28.011,0,0,1-16.264-4.977,3.585,3.585,0,0,0-4.9.684,16.567,16.567,0,0,0-3.594,10.4,16.687,16.687,0,0,0,16.517,16.573A16.64,16.64,0,0,0-374.845-88.9a16.692,16.692,0,0,0-.386-3.58" transform="translate(408.125 100.582)" fill="#da9d81"/>
          </g>
          <g id="g189" transform="translate(8.377 9.519)">
            <path id="path191" d="M-109.069-101.135a19.643,19.643,0,0,1,2.094-8.851,3.578,3.578,0,0,0-3.13,1.342,16.573,16.573,0,0,0-3.176,6.609,4.883,4.883,0,0,0-.526-.029,4.823,4.823,0,0,0-4.823,4.823,4.823,4.823,0,0,0,4.823,4.823,4.831,4.831,0,0,0,1.141-.137A16.7,16.7,0,0,0-97.182-81.675a16.743,16.743,0,0,0,3.195-.284,19.735,19.735,0,0,1-15.082-19.176" transform="translate(118.63 110)" fill="#c7856a"/>
          </g>
          <g id="g193" transform="translate(17.586 21.843)">
            <path id="path195" d="M-76.011-30.265c0,1.465-1.492,2.653-3.332,2.653s-3.332-1.188-3.332-2.653,1.492-2.653,3.332-2.653,3.332,1.188,3.332,2.653" transform="translate(82.674 32.919)" fill="#eeedff"/>
          </g>
          <g id="g197" transform="translate(35.645 21.843)">
            <path id="path199" d="M0-30.265c0,1.465,1.492,2.653,3.332,2.653S6.663-28.8,6.663-30.265s-1.492-2.653-3.332-2.653S0-31.731,0-30.265" transform="translate(0 32.919)" fill="#eeedff"/>
          </g>
          <g id="g201" transform="translate(19.385 26.143)">
            <path id="path203" d="M-225.033-55.033h-5.739v-1.4a3.425,3.425,0,0,0-3.425-3.425,3.425,3.425,0,0,0-3.425,3.425v1.4h-5.739a1.4,1.4,0,0,0-1.4,1.4V-36.38a1.4,1.4,0,0,0,1.4,1.4h5.739v-1.4a3.425,3.425,0,0,1,3.425-3.425,3.425,3.425,0,0,1,3.425,3.425v1.4h5.739a1.4,1.4,0,0,0,1.4-1.4V-53.634a1.4,1.4,0,0,0-1.4-1.4" transform="translate(244.759 59.857)" fill="#fce29f"/>
          </g>
          <g id="g205" transform="translate(15.222 43.464)">
            <path id="path207" d="M-74.573-69.977a14.662,14.662,0,0,1,1.336-6.134h-4.949s-2.924,3.817-2.924,10.751h7.277a14.7,14.7,0,0,1-.74-4.617" transform="translate(81.11 76.112)" fill="#e95b70"/>
          </g>
          <g id="g209" transform="translate(19.385 30.967)">
            <path id="path211" d="M-48.253-34.361A18.091,18.091,0,0,1-48-37.373h-3.084a1.4,1.4,0,0,0-1.4,1.4v17.254a1.4,1.4,0,0,0,1.4,1.4h5.739v-1.4a3.421,3.421,0,0,1,1.473-2.814,20.706,20.706,0,0,1-4.38-12.827" transform="translate(52.483 37.373)" fill="#ffcd71"/>
          </g>
          <g id="g213" transform="translate(13.029 39.319)">
            <path id="path215" d="M-124.079-26.462h0a3.425,3.425,0,0,0-4.348-2.135l-4.209,1.437a3.425,3.425,0,0,0-2.135,4.348,3.425,3.425,0,0,0,4.348,2.135l4.209-1.437a3.425,3.425,0,0,0,2.135-4.348" transform="translate(134.956 28.782)" fill="#da9d81"/>
          </g>
          <g id="g217" transform="translate(35.804 39.319)">
            <path id="path219" d="M-2.106-26.462h0A3.425,3.425,0,0,1,2.242-28.6l4.209,1.437a3.425,3.425,0,0,1,2.135,4.348,3.425,3.425,0,0,1-4.348,2.135L.029-22.114a3.425,3.425,0,0,1-2.135-4.348" transform="translate(2.29 28.782)" fill="#da9d81"/>
          </g>
          <g id="g221" transform="translate(13.029 41.388)">
            <path id="path223" d="M-124.076-2.862c-.029-.086-.063-.169-.1-.251a6.936,6.936,0,0,1-5.748,3.047,6.918,6.918,0,0,1-4.662-1.8,3.415,3.415,0,0,0-.185,2.651,3.425,3.425,0,0,0,4.348,2.135l4.209-1.437A3.425,3.425,0,0,0-124.076-2.862Z" transform="translate(134.953 3.113)" fill="#c7856a"/>
          </g>
          <g id="g225" transform="translate(35.804 39.471)">
            <path id="path227" d="M-106.171-69.058a6.943,6.943,0,0,1-6.885-6.054,3.42,3.42,0,0,0-2.238,2.168h0a3.425,3.425,0,0,0,2.135,4.348l4.209,1.437a3.425,3.425,0,0,0,4.326-2.074,6.964,6.964,0,0,1-1.547.175" transform="translate(115.478 75.112)" fill="#c7856a"/>
          </g>
          <g id="g229" transform="translate(22.86 20.58)">
            <path id="path231" d="M0,0V1.362" fill="none" stroke="#000" stroke-linecap="round" stroke-linejoin="round" stroke-miterlimit="10" stroke-width="1.5"/>
          </g>
          <g id="g233" transform="translate(37.035 20.58)">
            <path id="path235" d="M0,0V1.362" fill="none" stroke="#000" stroke-linecap="round" stroke-linejoin="round" stroke-miterlimit="10" stroke-width="1.5"/>
          </g>
          <g id="g237" transform="translate(28.079 21.902)">
            <path id="path239" d="M0,0A2.472,2.472,0,0,0,1.869.851,2.472,2.472,0,0,0,3.737,0" fill="none" stroke="#000" stroke-linecap="round" stroke-linejoin="round" stroke-miterlimit="10" stroke-width="1.5"/>
          </g>
          <g id="g241" transform="translate(3.502 1.169)">
            <path id="path243" d="M-181.328-29.476a5.844,5.844,0,0,0-4.412-2.569,5.841,5.841,0,0,0-6.025,4.157,5.858,5.858,0,0,1-3.169,3.74,6.877,6.877,0,0,1-.965.348,1.823,1.823,0,0,0-.79,3.044,7.221,7.221,0,0,0,6.531,2.357A20.5,20.5,0,0,1-181.328-29.476Z" transform="translate(197.224 32.06)" fill="none" stroke="#000" stroke-linecap="round" stroke-linejoin="round" stroke-miterlimit="10" stroke-width="1.5"/>
          </g>
          <g id="g245" transform="translate(9.668 0.806)">
            <path id="path247" d="M-351.942-33.778a20.273,20.273,0,0,0-10.573-2.961,20.428,20.428,0,0,0-20.279,18.19,4.809,4.809,0,0,1,3.532-1.54,4.858,4.858,0,0,1,.526.029,16.574,16.574,0,0,1,3.176-6.61,3.585,3.585,0,0,1,4.9-.684,25.248,25.248,0,0,0,4.2,2.42" transform="translate(382.794 36.739)" fill="none" stroke="#000" stroke-linecap="round" stroke-linejoin="round" stroke-miterlimit="10" stroke-width="1.5"/>
          </g>
          <g id="g249" transform="translate(29.306 5.681)">
            <path id="path251" d="M0-93.388a29.718,29.718,0,0,0,8.76,1.3,30.39,30.39,0,0,0,4.148-.283,3.57,3.57,0,0,1,3.953,2.6,4.868,4.868,0,0,1,.528-.029,4.809,4.809,0,0,1,3.532,1.54,20.383,20.383,0,0,0-7.062-13.315" transform="translate(0 101.574)" fill="none" stroke="#000" stroke-linecap="round" stroke-linejoin="round" stroke-miterlimit="10" stroke-width="1.5"/>
          </g>
          <g id="g253" transform="translate(8.377 17.456)">
            <path id="path255" d="M-56.249-43.522a16.688,16.688,0,0,1,.418-3.786,4.858,4.858,0,0,0-.526-.029,4.823,4.823,0,0,0-4.823,4.823,4.823,4.823,0,0,0,4.823,4.823,4.831,4.831,0,0,0,1.141-.137A16.49,16.49,0,0,1-56.249-43.522Z" transform="translate(61.18 47.337)" fill="none" stroke="#000" stroke-linecap="round" stroke-linejoin="round" stroke-miterlimit="10" stroke-width="1.5"/>
          </g>
          <g id="g257" transform="translate(45.562 17.456)">
            <path id="path259" d="M-12.919,0a4.9,4.9,0,0,0-.528.029c.012.046.024.093.034.14a16.7,16.7,0,0,1,.386,3.58,16.6,16.6,0,0,1-1.025,5.762,4.833,4.833,0,0,0,1.133.135A4.823,4.823,0,0,0-8.1,4.823,4.823,4.823,0,0,0-12.919,0Z" transform="translate(14.052)" fill="none" stroke="#000" stroke-linecap="round" stroke-linejoin="round" stroke-miterlimit="10" stroke-width="1.5"/>
          </g>
          <g id="g261" transform="translate(13.308 9.519)">
            <path id="path263" d="M-144.818-35.281a25.254,25.254,0,0,1-4.2-2.42,3.585,3.585,0,0,0-4.9.685,16.567,16.567,0,0,0-3.594,10.4,16.626,16.626,0,0,0,6.077,12.768v-1.673a1.4,1.4,0,0,1,1.4-1.4h5.739v-1.4a3.425,3.425,0,0,1,3.425-3.425h0a3.425,3.425,0,0,1,3.425,3.425v1.4h5.739a1.4,1.4,0,0,1,1.4,1.4v1.7a16.607,16.607,0,0,0,6.077-12.857,16.7,16.7,0,0,0-.386-3.58,3.567,3.567,0,0,0-3.987-2.74,30.407,30.407,0,0,1-4.148.283,29.716,29.716,0,0,1-8.76-1.3" transform="translate(157.513 38.374)" fill="none" stroke="#000" stroke-linecap="round" stroke-linejoin="round" stroke-miterlimit="10" stroke-width="1.5"/>
          </g>
          <g id="g265" transform="translate(15.222 46.195)">
            <path id="path267" d="M-309.271-14.019l-1.823-.622v2.819a1.4,1.4,0,0,1-1.4,1.4h-5.739v-1.4a3.425,3.425,0,0,0-3.425-3.425,3.425,3.425,0,0,0-3.425,3.425v1.4h-5.739a1.4,1.4,0,0,1-1.4-1.4v-2.819l-1.823.622a3.413,3.413,0,0,1-1.362.175,21.983,21.983,0,0,0-.978,6.616h29.451a21.984,21.984,0,0,0-.978-6.616A3.413,3.413,0,0,1-309.271-14.019Z" transform="translate(336.382 15.248)" fill="none" stroke="#000" stroke-linecap="round" stroke-linejoin="round" stroke-miterlimit="10" stroke-width="1.5"/>
          </g>
          <g id="g269" transform="translate(13.029 39.319)">
            <path id="path271" d="M-124.079-26.462h0a3.425,3.425,0,0,0-4.348-2.135l-4.209,1.437a3.425,3.425,0,0,0-2.135,4.348,3.425,3.425,0,0,0,4.348,2.135l4.209-1.437A3.425,3.425,0,0,0-124.079-26.462Z" transform="translate(134.956 28.782)" fill="none" stroke="#000" stroke-linecap="round" stroke-linejoin="round" stroke-miterlimit="10" stroke-width="1.5"/>
          </g>
          <g id="g273" transform="translate(19.385 26.143)">
            <path id="path275" d="M-213.771-226.368a3.425,3.425,0,0,1-2.135-4.348,3.425,3.425,0,0,1,4.348-2.135l.173.059v-7.2a1.4,1.4,0,0,0-1.4-1.4h-5.739v-1.4a3.425,3.425,0,0,0-3.425-3.425h0a3.425,3.425,0,0,0-3.425,3.425v1.4h-5.739a1.4,1.4,0,0,0-1.4,1.4v7.2l.173-.059a3.425,3.425,0,0,1,4.348,2.135,3.425,3.425,0,0,1-2.135,4.348l-2.386.814v2.819a1.4,1.4,0,0,0,1.4,1.4h5.739v-1.4a3.425,3.425,0,0,1,3.425-3.425,3.425,3.425,0,0,1,3.425,3.425v1.4h5.739a1.4,1.4,0,0,0,1.4-1.4v-2.818Z" transform="translate(232.51 246.211)" fill="none" stroke="#000" stroke-linecap="round" stroke-linejoin="round" stroke-miterlimit="10" stroke-width="1.5"/>
          </g>
          <g id="g277" transform="translate(35.804 39.319)">
            <path id="path279" d="M-2.106-26.462h0A3.425,3.425,0,0,1,2.242-28.6l4.209,1.437a3.425,3.425,0,0,1,2.135,4.348,3.425,3.425,0,0,1-4.348,2.135L.029-22.114A3.425,3.425,0,0,1-2.106-26.462Z" transform="translate(2.29 28.782)" fill="none" stroke="#000" stroke-linecap="round" stroke-linejoin="round" stroke-miterlimit="10" stroke-width="1.5"/>
          </g>
        </g>
      </g>
    </g>
  </g>
</svg>
